M48
; DRILL file {KiCad (5.99.0-11626-g43523df843)} date Sat Aug  7 14:02:05 2021
; FORMAT={-:-/ absolute / inch / decimal}
; #@! TF.CreationDate,2021-08-07T14:02:05-04:00
; #@! TF.GenerationSoftware,Kicad,Pcbnew,(5.99.0-11626-g43523df843)
; #@! TF.FileFunction,Plated,1,2,PTH
FMAT,2
INCH
; #@! TA.AperFunction,Plated,PTH,ComponentDrill
T1C0.0079
; #@! TA.AperFunction,Plated,PTH,ViaDrill
T2C0.0157
; #@! TA.AperFunction,Plated,PTH,ComponentDrill
T3C0.0394
; #@! TA.AperFunction,Plated,PTH,ComponentDrill
T4C0.0551
; #@! TA.AperFunction,Plated,PTH,ComponentDrill
T5C0.0748
%
G90
G05
T1
X4.5751Y-4.832
X4.5751Y-4.9042
X4.6112Y-4.7959
X4.6112Y-4.8681
X4.6112Y-4.9404
X4.6474Y-4.832
X4.6474Y-4.9042
X4.6835Y-4.7959
X4.6835Y-4.8681
X4.6835Y-4.9404
X4.7196Y-4.832
X4.7196Y-4.9042
T2
X3.252Y-3.2353
X3.334Y-3.4603
X3.38Y-3.2893
X3.4252Y-4.4488
X3.5236Y-4.685
X3.525Y-2.4593
X3.525Y-2.625
X3.525Y-2.7087
X3.5433Y-4.9016
X3.5512Y-3.2353
X3.5748Y-2.7087
X3.575Y-2.362
X3.6693Y-3.2362
X3.706Y-3.8083
X3.7692Y-4.7151
X3.8189Y-3.6417
X3.8386Y-4.7441
X3.846Y-2.792
X3.8484Y-4.6358
X3.8504Y-2.8425
X3.8504Y-3.0551
X3.8927Y-4.7392
X3.9035Y-4.4902
X3.975Y-2.6
X3.9862Y-3.6319
X4.0157Y-5.2854
X4.02Y-3.0325
X4.02Y-3.1825
X4.03Y-4.3637
X4.0354Y-4.3012
X4.0551Y-5.0197
X4.1035Y-2.5385
X4.1535Y-4.1831
X4.1535Y-4.4783
X4.154Y-4.4286
X4.1634Y-4.9114
X4.1811Y-4.2126
X4.189Y-4.874
X4.1929Y-5.1575
X4.2131Y-4.1235
X4.2441Y-4.1496
X4.2815Y-4.3012
X4.2815Y-4.3504
X4.3071Y-2.6762
X4.3504Y-3.4641
X4.3571Y-2.5022
X4.3602Y-4.5472
X4.3661Y-4.874
X4.3898Y-3.75
X4.3898Y-3.8091
X4.3922Y-3.8817
X4.4071Y-2.5032
X4.4115Y-4.0225
X4.4115Y-4.1712
X4.4331Y-3.5984
X4.4581Y-2.5032
X4.4685Y-4.1634
X4.4783Y-3.0709
X4.4882Y-3.5984
X4.5091Y-2.5032
X4.5122Y-3.8817
X4.5276Y-3.0709
X4.5571Y-2.6762
X4.5591Y-3.0394
X4.5854Y-3.4291
X4.6071Y-2.6762
X4.6161Y-3.8091
X4.6161Y-4.0157
X4.6571Y-2.6762
X4.7511Y-2.8552
X4.7736Y-2.4705
X4.8014Y-3.1675
X4.8049Y-3.3679
X4.8327Y-4.5571
X4.8346Y-4.8819
X4.8661Y-4.8504
X4.8886Y-2.528
X4.9886Y-2.528
X5.0433Y-4.8819
X5.0591Y-3.6122
X5.06Y-3.3719
X5.07Y-3.5169
X5.0787Y-4.8504
X5.0886Y-2.528
X5.1378Y-5.1772
X5.1412Y-5.0162
X5.1886Y-2.528
X5.25Y-3.6419
X5.26Y-3.8519
X5.2657Y-2.4114
X5.2982Y-2.7331
X5.3051Y-4.9409
X5.3071Y-5.0197
X5.351Y-4.0145
X5.358Y-3.7545
X5.378Y-5.0433
X5.3839Y-3.3465
X5.3839Y-3.3858
X5.4232Y-3.3465
X5.4232Y-3.3858
X5.4583Y-4.38
X5.4626Y-3.3465
X5.4626Y-3.3858
X5.502Y-3.1988
X5.502Y-3.3465
X5.502Y-3.3858
X5.502Y-4.8524
X5.5413Y-2.5
X5.5413Y-3.3465
X5.5413Y-3.3858
X5.5413Y-3.7992
X5.5413Y-3.8386
X5.548Y-3.7525
X5.5807Y-3.3465
X5.5807Y-3.3858
X5.5807Y-3.4252
X5.5807Y-3.4646
X5.5807Y-3.7992
X5.5807Y-3.8386
X5.6102Y-3.7402
X5.6201Y-3.3465
X5.6201Y-3.3858
X5.6201Y-3.4252
X5.6201Y-3.4646
X5.6201Y-3.7992
X5.6201Y-3.8386
X5.6398Y-2.5
X5.685Y-4.4921
X5.687Y-4.3813
X5.7047Y-4.5355
X5.7047Y-4.5748
X5.7075Y-2.447
X5.748Y-3.2087
X5.748Y-3.6909
X5.7677Y-3.248
X5.7776Y-4.939
X5.7835Y-4.5354
X5.7874Y-3.2087
X5.7874Y-4.5748
X5.7972Y-2.4902
X5.8071Y-3.248
X5.8071Y-5.0276
X5.8268Y-3.2087
X5.8366Y-4.9075
X5.8465Y-3.248
X5.8661Y-4.0827
X5.8661Y-4.8701
X5.874Y-5.2677
X5.8957Y-2.4902
X5.8975Y-2.447
X5.8976Y-4.4331
X5.9134Y-4.3504
X5.9154Y-4.1535
X5.9291Y-2.7874
X5.9291Y-2.8976
X5.9291Y-3.0394
X5.9414Y-4.6816
X5.9685Y-4.4331
X5.9775Y-2.457
X5.9921Y-4.6378
X6.0236Y-2.4902
X6.0433Y-4.1637
X6.0551Y-3.0394
X6.0575Y-2.457
X6.063Y-3.1594
X6.063Y-3.9469
X6.0827Y-4.2323
X6.1319Y-2.5
X6.1375Y-2.457
X6.2205Y-4.1637
X6.2894Y-2.5098
X6.3275Y-2.787
X6.3275Y-2.837
X6.3275Y-3.087
X6.3307Y-3.0394
X6.3375Y-2.477
X6.3504Y-3.2205
X6.3878Y-2.5
X6.3976Y-4.6457
X6.4375Y-2.437
X6.4764Y-3.2185
X6.4843Y-4.1811
T3
X3.2937Y-2.6268
X3.2937Y-2.7268
X3.2937Y-2.8268
X3.3937Y-2.6268
X3.3937Y-2.7268
X3.3937Y-2.8268
X3.7434Y-2.4851
X3.8434Y-2.4851
X5.315Y-4.5472
X5.315Y-4.6472
X6.1309Y-4.7697
X6.1309Y-4.8697
X6.1309Y-4.9697
X6.1309Y-5.0697
X6.1309Y-5.1697
X6.1309Y-5.2697
X6.2309Y-4.7697
X6.2309Y-4.8697
X6.2309Y-4.9697
X6.2309Y-5.0697
X6.2309Y-5.1697
X6.2309Y-5.2697
T4
X3.3933Y-1.7815
X3.3933Y-2.0815
X3.5933Y-1.7815
X3.5933Y-2.0815
X3.7933Y-1.7815
X3.7933Y-2.0815
X3.9933Y-1.7815
X3.9933Y-2.0815
X4.1933Y-1.7815
X4.1933Y-2.0815
X4.3933Y-1.7815
X4.3933Y-2.0815
X4.5933Y-1.7815
X4.5933Y-2.0815
X4.7933Y-1.7815
X4.7933Y-2.0815
X5.1476Y-1.7815
X5.1476Y-2.0815
X5.3476Y-1.7815
X5.3476Y-2.0815
X5.5476Y-1.7815
X5.5476Y-2.0815
X5.7476Y-1.7815
X5.7476Y-2.0815
X5.9476Y-1.7815
X5.9476Y-2.0815
X6.1476Y-1.7815
X6.1476Y-2.0815
X6.3476Y-1.7815
X6.3476Y-2.0815
X6.5476Y-1.7815
X6.5476Y-2.0815
T5
X3.2835Y-5.1181
X3.8031Y-5.1181
T3
G00X6.1417Y-3.6371
M15
G01X6.1417Y-3.5583
M16
G05
G00X6.2992Y-3.4127
M15
G01X6.2205Y-3.4127
M16
G05
G00X6.378Y-3.6371
M15
G01X6.378Y-3.5583
M16
G05
T0
M30
