%TF.GenerationSoftware,KiCad,Pcbnew,(5.99.0-11626-g43523df843)*%
%TF.CreationDate,2021-08-07T14:02:08-04:00*%
%TF.ProjectId,BikeMan,42696b65-4d61-46e2-9e6b-696361645f70,0.2.1*%
%TF.SameCoordinates,Original*%
%TF.FileFunction,Copper,L1,Top*%
%TF.FilePolarity,Positive*%
%FSLAX46Y46*%
G04 Gerber Fmt 4.6, Leading zero omitted, Abs format (unit mm)*
G04 Created by KiCad (PCBNEW (5.99.0-11626-g43523df843)) date 2021-08-07 14:02:08*
%MOMM*%
%LPD*%
G01*
G04 APERTURE LIST*
G04 Aperture macros list*
%AMRoundRect*
0 Rectangle with rounded corners*
0 $1 Rounding radius*
0 $2 $3 $4 $5 $6 $7 $8 $9 X,Y pos of 4 corners*
0 Add a 4 corners polygon primitive as box body*
4,1,4,$2,$3,$4,$5,$6,$7,$8,$9,$2,$3,0*
0 Add four circle primitives for the rounded corners*
1,1,$1+$1,$2,$3*
1,1,$1+$1,$4,$5*
1,1,$1+$1,$6,$7*
1,1,$1+$1,$8,$9*
0 Add four rect primitives between the rounded corners*
20,1,$1+$1,$2,$3,$4,$5,0*
20,1,$1+$1,$4,$5,$6,$7,0*
20,1,$1+$1,$6,$7,$8,$9,0*
20,1,$1+$1,$8,$9,$2,$3,0*%
%AMFreePoly0*
4,1,22,0.500000,-0.750000,0.000000,-0.750000,0.000000,-0.745033,-0.079941,-0.743568,-0.215256,-0.701293,-0.333266,-0.622738,-0.424486,-0.514219,-0.481581,-0.384460,-0.499164,-0.250000,-0.500000,-0.250000,-0.500000,0.250000,-0.499164,0.250000,-0.499963,0.256109,-0.478152,0.396186,-0.417904,0.524511,-0.324060,0.630769,-0.204165,0.706417,-0.067858,0.745374,0.000000,0.744959,0.000000,0.750000,
0.500000,0.750000,0.500000,-0.750000,0.500000,-0.750000,$1*%
%AMFreePoly1*
4,1,20,0.000000,0.744959,0.073905,0.744508,0.209726,0.703889,0.328688,0.626782,0.421226,0.519385,0.479903,0.390333,0.500000,0.250000,0.500000,-0.250000,0.499851,-0.262216,0.476331,-0.402017,0.414519,-0.529596,0.319384,-0.634700,0.198574,-0.708877,0.061801,-0.746166,0.000000,-0.745033,0.000000,-0.750000,-0.500000,-0.750000,-0.500000,0.750000,0.000000,0.750000,0.000000,0.744959,
0.000000,0.744959,$1*%
%AMFreePoly2*
4,1,22,0.550000,-0.750000,0.000000,-0.750000,0.000000,-0.745033,-0.079941,-0.743568,-0.215256,-0.701293,-0.333266,-0.622738,-0.424486,-0.514219,-0.481581,-0.384460,-0.499164,-0.250000,-0.500000,-0.250000,-0.500000,0.250000,-0.499164,0.250000,-0.499963,0.256109,-0.478152,0.396186,-0.417904,0.524511,-0.324060,0.630769,-0.204165,0.706417,-0.067858,0.745374,0.000000,0.744959,0.000000,0.750000,
0.550000,0.750000,0.550000,-0.750000,0.550000,-0.750000,$1*%
%AMFreePoly3*
4,1,20,0.000000,0.744959,0.073905,0.744508,0.209726,0.703889,0.328688,0.626782,0.421226,0.519385,0.479903,0.390333,0.500000,0.250000,0.500000,-0.250000,0.499851,-0.262216,0.476331,-0.402017,0.414519,-0.529596,0.319384,-0.634700,0.198574,-0.708877,0.061801,-0.746166,0.000000,-0.745033,0.000000,-0.750000,-0.550000,-0.750000,-0.550000,0.750000,0.000000,0.750000,0.000000,0.744959,
0.000000,0.744959,$1*%
G04 Aperture macros list end*
%ADD10C,0.100000*%
%ADD11C,0.150000*%
%ADD12C,0.300000*%
%ADD13C,0.600000*%
%ADD14C,0.400000*%
%TA.AperFunction,SMDPad,CuDef*%
%ADD15C,1.500000*%
%TD*%
%TA.AperFunction,SMDPad,CuDef*%
%ADD16RoundRect,0.150000X-0.587500X-0.150000X0.587500X-0.150000X0.587500X0.150000X-0.587500X0.150000X0*%
%TD*%
%TA.AperFunction,SMDPad,CuDef*%
%ADD17RoundRect,0.250000X0.450000X-0.325000X0.450000X0.325000X-0.450000X0.325000X-0.450000X-0.325000X0*%
%TD*%
%TA.AperFunction,SMDPad,CuDef*%
%ADD18RoundRect,0.250000X0.250000X0.475000X-0.250000X0.475000X-0.250000X-0.475000X0.250000X-0.475000X0*%
%TD*%
%TA.AperFunction,SMDPad,CuDef*%
%ADD19RoundRect,0.250000X0.262500X0.450000X-0.262500X0.450000X-0.262500X-0.450000X0.262500X-0.450000X0*%
%TD*%
%TA.AperFunction,SMDPad,CuDef*%
%ADD20RoundRect,0.250000X-0.450000X0.325000X-0.450000X-0.325000X0.450000X-0.325000X0.450000X0.325000X0*%
%TD*%
%TA.AperFunction,SMDPad,CuDef*%
%ADD21RoundRect,0.250000X-0.262500X-0.450000X0.262500X-0.450000X0.262500X0.450000X-0.262500X0.450000X0*%
%TD*%
%TA.AperFunction,SMDPad,CuDef*%
%ADD22RoundRect,0.250000X0.550000X-1.500000X0.550000X1.500000X-0.550000X1.500000X-0.550000X-1.500000X0*%
%TD*%
%TA.AperFunction,SMDPad,CuDef*%
%ADD23FreePoly0,0.000000*%
%TD*%
%TA.AperFunction,SMDPad,CuDef*%
%ADD24FreePoly1,0.000000*%
%TD*%
%TA.AperFunction,ComponentPad*%
%ADD25R,2.100000X2.100000*%
%TD*%
%TA.AperFunction,ComponentPad*%
%ADD26C,2.100000*%
%TD*%
%TA.AperFunction,SMDPad,CuDef*%
%ADD27RoundRect,0.150000X0.150000X-0.587500X0.150000X0.587500X-0.150000X0.587500X-0.150000X-0.587500X0*%
%TD*%
%TA.AperFunction,SMDPad,CuDef*%
%ADD28RoundRect,0.250000X-0.450000X0.262500X-0.450000X-0.262500X0.450000X-0.262500X0.450000X0.262500X0*%
%TD*%
%TA.AperFunction,SMDPad,CuDef*%
%ADD29FreePoly0,90.000000*%
%TD*%
%TA.AperFunction,SMDPad,CuDef*%
%ADD30FreePoly1,90.000000*%
%TD*%
%TA.AperFunction,SMDPad,CuDef*%
%ADD31FreePoly2,0.000000*%
%TD*%
%TA.AperFunction,SMDPad,CuDef*%
%ADD32R,1.000000X1.500000*%
%TD*%
%TA.AperFunction,SMDPad,CuDef*%
%ADD33FreePoly3,0.000000*%
%TD*%
%TA.AperFunction,SMDPad,CuDef*%
%ADD34R,1.400000X0.400000*%
%TD*%
%TA.AperFunction,SMDPad,CuDef*%
%ADD35R,1.900000X2.300000*%
%TD*%
%TA.AperFunction,SMDPad,CuDef*%
%ADD36R,1.900000X1.800000*%
%TD*%
%TA.AperFunction,SMDPad,CuDef*%
%ADD37R,1.100000X1.100000*%
%TD*%
%TA.AperFunction,SMDPad,CuDef*%
%ADD38RoundRect,0.250000X-1.500000X-0.550000X1.500000X-0.550000X1.500000X0.550000X-1.500000X0.550000X0*%
%TD*%
%TA.AperFunction,SMDPad,CuDef*%
%ADD39RoundRect,0.250000X0.475000X-0.250000X0.475000X0.250000X-0.475000X0.250000X-0.475000X-0.250000X0*%
%TD*%
%TA.AperFunction,SMDPad,CuDef*%
%ADD40RoundRect,0.150000X0.150000X-0.725000X0.150000X0.725000X-0.150000X0.725000X-0.150000X-0.725000X0*%
%TD*%
%TA.AperFunction,ComponentPad*%
%ADD41R,3.500000X3.500000*%
%TD*%
%TA.AperFunction,ComponentPad*%
%ADD42RoundRect,0.750000X0.750000X1.000000X-0.750000X1.000000X-0.750000X-1.000000X0.750000X-1.000000X0*%
%TD*%
%TA.AperFunction,ComponentPad*%
%ADD43RoundRect,0.875000X0.875000X0.875000X-0.875000X0.875000X-0.875000X-0.875000X0.875000X-0.875000X0*%
%TD*%
%TA.AperFunction,SMDPad,CuDef*%
%ADD44RoundRect,0.150000X0.587500X0.150000X-0.587500X0.150000X-0.587500X-0.150000X0.587500X-0.150000X0*%
%TD*%
%TA.AperFunction,ComponentPad*%
%ADD45R,1.700000X1.700000*%
%TD*%
%TA.AperFunction,ComponentPad*%
%ADD46O,1.700000X1.700000*%
%TD*%
%TA.AperFunction,SMDPad,CuDef*%
%ADD47RoundRect,0.250000X0.450000X-0.262500X0.450000X0.262500X-0.450000X0.262500X-0.450000X-0.262500X0*%
%TD*%
%TA.AperFunction,SMDPad,CuDef*%
%ADD48RoundRect,0.150000X-0.150000X0.875000X-0.150000X-0.875000X0.150000X-0.875000X0.150000X0.875000X0*%
%TD*%
%TA.AperFunction,SMDPad,CuDef*%
%ADD49RoundRect,0.250000X-0.475000X0.250000X-0.475000X-0.250000X0.475000X-0.250000X0.475000X0.250000X0*%
%TD*%
%TA.AperFunction,SMDPad,CuDef*%
%ADD50RoundRect,0.250000X-0.325000X-0.450000X0.325000X-0.450000X0.325000X0.450000X-0.325000X0.450000X0*%
%TD*%
%TA.AperFunction,SMDPad,CuDef*%
%ADD51RoundRect,0.150000X0.150000X-0.825000X0.150000X0.825000X-0.150000X0.825000X-0.150000X-0.825000X0*%
%TD*%
%TA.AperFunction,SMDPad,CuDef*%
%ADD52RoundRect,0.150000X0.725000X0.150000X-0.725000X0.150000X-0.725000X-0.150000X0.725000X-0.150000X0*%
%TD*%
%TA.AperFunction,SMDPad,CuDef*%
%ADD53FreePoly0,270.000000*%
%TD*%
%TA.AperFunction,SMDPad,CuDef*%
%ADD54FreePoly1,270.000000*%
%TD*%
%TA.AperFunction,SMDPad,CuDef*%
%ADD55R,5.100000X2.350000*%
%TD*%
%TA.AperFunction,SMDPad,CuDef*%
%ADD56R,1.800000X1.000000*%
%TD*%
%TA.AperFunction,SMDPad,CuDef*%
%ADD57RoundRect,0.150000X-0.512500X-0.150000X0.512500X-0.150000X0.512500X0.150000X-0.512500X0.150000X0*%
%TD*%
%TA.AperFunction,SMDPad,CuDef*%
%ADD58R,3.500000X1.200000*%
%TD*%
%TA.AperFunction,SMDPad,CuDef*%
%ADD59RoundRect,0.250000X-0.250000X-0.475000X0.250000X-0.475000X0.250000X0.475000X-0.250000X0.475000X0*%
%TD*%
%TA.AperFunction,SMDPad,CuDef*%
%ADD60R,2.000000X0.900000*%
%TD*%
%TA.AperFunction,SMDPad,CuDef*%
%ADD61R,0.900000X2.000000*%
%TD*%
%TA.AperFunction,SMDPad,CuDef*%
%ADD62R,1.330000X1.330000*%
%TD*%
%TA.AperFunction,ComponentPad*%
%ADD63C,0.300000*%
%TD*%
%TA.AperFunction,ComponentPad*%
%ADD64C,3.000000*%
%TD*%
%TA.AperFunction,SMDPad,CuDef*%
%ADD65C,9.000000*%
%TD*%
%TA.AperFunction,SMDPad,CuDef*%
%ADD66RoundRect,0.100000X-0.637500X-0.100000X0.637500X-0.100000X0.637500X0.100000X-0.637500X0.100000X0*%
%TD*%
%TA.AperFunction,SMDPad,CuDef*%
%ADD67RoundRect,0.150000X0.662500X0.150000X-0.662500X0.150000X-0.662500X-0.150000X0.662500X-0.150000X0*%
%TD*%
%TA.AperFunction,SMDPad,CuDef*%
%ADD68R,2.514000X3.200000*%
%TD*%
%TA.AperFunction,SMDPad,CuDef*%
%ADD69RoundRect,0.150000X-0.825000X-0.150000X0.825000X-0.150000X0.825000X0.150000X-0.825000X0.150000X0*%
%TD*%
%TA.AperFunction,SMDPad,CuDef*%
%ADD70RoundRect,0.137500X0.662500X0.137500X-0.662500X0.137500X-0.662500X-0.137500X0.662500X-0.137500X0*%
%TD*%
%TA.AperFunction,ViaPad*%
%ADD71C,0.800000*%
%TD*%
%TA.AperFunction,Conductor*%
%ADD72C,0.200000*%
%TD*%
%TA.AperFunction,Conductor*%
%ADD73C,0.250000*%
%TD*%
%TA.AperFunction,Conductor*%
%ADD74C,0.500000*%
%TD*%
%TA.AperFunction,Conductor*%
%ADD75C,1.000000*%
%TD*%
G04 APERTURE END LIST*
D10*
D11*
X159225488Y-177289968D02*
X159225488Y-203900024D01*
X267400024Y-203900024D01*
X267400024Y-177289968D01*
X159225488Y-177289968D01*
D10*
D11*
X10000000Y-10000000D02*
X10000000Y-205900000D01*
X269400000Y-205900000D01*
X269400000Y-10000000D01*
X10000000Y-10000000D01*
D10*
D11*
X12000000Y-12000000D02*
X12000000Y-203900000D01*
X267400000Y-203900000D01*
X267400000Y-12000000D01*
X12000000Y-12000000D01*
D10*
D11*
X60000000Y-12000000D02*
X60000000Y-10000000D01*
D10*
D11*
X110000000Y-12000000D02*
X110000000Y-10000000D01*
D10*
D11*
X160000000Y-12000000D02*
X160000000Y-10000000D01*
D10*
D11*
X210000000Y-12000000D02*
X210000000Y-10000000D01*
D10*
D11*
X260000000Y-12000000D02*
X260000000Y-10000000D01*
D10*
D11*
X36065476Y-11588095D02*
X35322619Y-11588095D01*
X35694047Y-11588095D02*
X35694047Y-10288095D01*
X35570238Y-10473809D01*
X35446428Y-10597619D01*
X35322619Y-10659523D01*
D10*
D11*
X85322619Y-10411904D02*
X85384523Y-10350000D01*
X85508333Y-10288095D01*
X85817857Y-10288095D01*
X85941666Y-10350000D01*
X86003571Y-10411904D01*
X86065476Y-10535714D01*
X86065476Y-10659523D01*
X86003571Y-10845238D01*
X85260714Y-11588095D01*
X86065476Y-11588095D01*
D10*
D11*
X135260714Y-10288095D02*
X136065476Y-10288095D01*
X135632142Y-10783333D01*
X135817857Y-10783333D01*
X135941666Y-10845238D01*
X136003571Y-10907142D01*
X136065476Y-11030952D01*
X136065476Y-11340476D01*
X136003571Y-11464285D01*
X135941666Y-11526190D01*
X135817857Y-11588095D01*
X135446428Y-11588095D01*
X135322619Y-11526190D01*
X135260714Y-11464285D01*
D10*
D11*
X185941666Y-10721428D02*
X185941666Y-11588095D01*
X185632142Y-10226190D02*
X185322619Y-11154761D01*
X186127380Y-11154761D01*
D10*
D11*
X236003571Y-10288095D02*
X235384523Y-10288095D01*
X235322619Y-10907142D01*
X235384523Y-10845238D01*
X235508333Y-10783333D01*
X235817857Y-10783333D01*
X235941666Y-10845238D01*
X236003571Y-10907142D01*
X236065476Y-11030952D01*
X236065476Y-11340476D01*
X236003571Y-11464285D01*
X235941666Y-11526190D01*
X235817857Y-11588095D01*
X235508333Y-11588095D01*
X235384523Y-11526190D01*
X235322619Y-11464285D01*
D10*
D11*
X60000000Y-203900000D02*
X60000000Y-205900000D01*
D10*
D11*
X110000000Y-203900000D02*
X110000000Y-205900000D01*
D10*
D11*
X160000000Y-203900000D02*
X160000000Y-205900000D01*
D10*
D11*
X210000000Y-203900000D02*
X210000000Y-205900000D01*
D10*
D11*
X260000000Y-203900000D02*
X260000000Y-205900000D01*
D10*
D11*
X36065476Y-205488095D02*
X35322619Y-205488095D01*
X35694047Y-205488095D02*
X35694047Y-204188095D01*
X35570238Y-204373809D01*
X35446428Y-204497619D01*
X35322619Y-204559523D01*
D10*
D11*
X85322619Y-204311904D02*
X85384523Y-204250000D01*
X85508333Y-204188095D01*
X85817857Y-204188095D01*
X85941666Y-204250000D01*
X86003571Y-204311904D01*
X86065476Y-204435714D01*
X86065476Y-204559523D01*
X86003571Y-204745238D01*
X85260714Y-205488095D01*
X86065476Y-205488095D01*
D10*
D11*
X135260714Y-204188095D02*
X136065476Y-204188095D01*
X135632142Y-204683333D01*
X135817857Y-204683333D01*
X135941666Y-204745238D01*
X136003571Y-204807142D01*
X136065476Y-204930952D01*
X136065476Y-205240476D01*
X136003571Y-205364285D01*
X135941666Y-205426190D01*
X135817857Y-205488095D01*
X135446428Y-205488095D01*
X135322619Y-205426190D01*
X135260714Y-205364285D01*
D10*
D11*
X185941666Y-204621428D02*
X185941666Y-205488095D01*
X185632142Y-204126190D02*
X185322619Y-205054761D01*
X186127380Y-205054761D01*
D10*
D11*
X236003571Y-204188095D02*
X235384523Y-204188095D01*
X235322619Y-204807142D01*
X235384523Y-204745238D01*
X235508333Y-204683333D01*
X235817857Y-204683333D01*
X235941666Y-204745238D01*
X236003571Y-204807142D01*
X236065476Y-204930952D01*
X236065476Y-205240476D01*
X236003571Y-205364285D01*
X235941666Y-205426190D01*
X235817857Y-205488095D01*
X235508333Y-205488095D01*
X235384523Y-205426190D01*
X235322619Y-205364285D01*
D10*
D11*
X10000000Y-60000000D02*
X12000000Y-60000000D01*
D10*
D11*
X10000000Y-110000000D02*
X12000000Y-110000000D01*
D10*
D11*
X10000000Y-160000000D02*
X12000000Y-160000000D01*
D10*
D11*
X10690476Y-35216666D02*
X11309523Y-35216666D01*
X10566666Y-35588095D02*
X11000000Y-34288095D01*
X11433333Y-35588095D01*
D10*
D11*
X11092857Y-84907142D02*
X11278571Y-84969047D01*
X11340476Y-85030952D01*
X11402380Y-85154761D01*
X11402380Y-85340476D01*
X11340476Y-85464285D01*
X11278571Y-85526190D01*
X11154761Y-85588095D01*
X10659523Y-85588095D01*
X10659523Y-84288095D01*
X11092857Y-84288095D01*
X11216666Y-84350000D01*
X11278571Y-84411904D01*
X11340476Y-84535714D01*
X11340476Y-84659523D01*
X11278571Y-84783333D01*
X11216666Y-84845238D01*
X11092857Y-84907142D01*
X10659523Y-84907142D01*
D10*
D11*
X11402380Y-135464285D02*
X11340476Y-135526190D01*
X11154761Y-135588095D01*
X11030952Y-135588095D01*
X10845238Y-135526190D01*
X10721428Y-135402380D01*
X10659523Y-135278571D01*
X10597619Y-135030952D01*
X10597619Y-134845238D01*
X10659523Y-134597619D01*
X10721428Y-134473809D01*
X10845238Y-134350000D01*
X11030952Y-134288095D01*
X11154761Y-134288095D01*
X11340476Y-134350000D01*
X11402380Y-134411904D01*
D10*
D11*
X10659523Y-185588095D02*
X10659523Y-184288095D01*
X10969047Y-184288095D01*
X11154761Y-184350000D01*
X11278571Y-184473809D01*
X11340476Y-184597619D01*
X11402380Y-184845238D01*
X11402380Y-185030952D01*
X11340476Y-185278571D01*
X11278571Y-185402380D01*
X11154761Y-185526190D01*
X10969047Y-185588095D01*
X10659523Y-185588095D01*
D10*
D11*
X269400000Y-60000000D02*
X267400000Y-60000000D01*
D10*
D11*
X269400000Y-110000000D02*
X267400000Y-110000000D01*
D10*
D11*
X269400000Y-160000000D02*
X267400000Y-160000000D01*
D10*
D11*
X268090476Y-35216666D02*
X268709523Y-35216666D01*
X267966666Y-35588095D02*
X268400000Y-34288095D01*
X268833333Y-35588095D01*
D10*
D11*
X268492857Y-84907142D02*
X268678571Y-84969047D01*
X268740476Y-85030952D01*
X268802380Y-85154761D01*
X268802380Y-85340476D01*
X268740476Y-85464285D01*
X268678571Y-85526190D01*
X268554761Y-85588095D01*
X268059523Y-85588095D01*
X268059523Y-84288095D01*
X268492857Y-84288095D01*
X268616666Y-84350000D01*
X268678571Y-84411904D01*
X268740476Y-84535714D01*
X268740476Y-84659523D01*
X268678571Y-84783333D01*
X268616666Y-84845238D01*
X268492857Y-84907142D01*
X268059523Y-84907142D01*
D10*
D11*
X268802380Y-135464285D02*
X268740476Y-135526190D01*
X268554761Y-135588095D01*
X268430952Y-135588095D01*
X268245238Y-135526190D01*
X268121428Y-135402380D01*
X268059523Y-135278571D01*
X267997619Y-135030952D01*
X267997619Y-134845238D01*
X268059523Y-134597619D01*
X268121428Y-134473809D01*
X268245238Y-134350000D01*
X268430952Y-134288095D01*
X268554761Y-134288095D01*
X268740476Y-134350000D01*
X268802380Y-134411904D01*
D10*
D11*
X268059523Y-185588095D02*
X268059523Y-184288095D01*
X268369047Y-184288095D01*
X268554761Y-184350000D01*
X268678571Y-184473809D01*
X268740476Y-184597619D01*
X268802380Y-184845238D01*
X268802380Y-185030952D01*
X268740476Y-185278571D01*
X268678571Y-185402380D01*
X268554761Y-185526190D01*
X268369047Y-185588095D01*
X268059523Y-185588095D01*
D10*
D11*
X182832142Y-199678571D02*
X182832142Y-198178571D01*
X183189285Y-198178571D01*
X183403571Y-198250000D01*
X183546428Y-198392857D01*
X183617857Y-198535714D01*
X183689285Y-198821428D01*
X183689285Y-199035714D01*
X183617857Y-199321428D01*
X183546428Y-199464285D01*
X183403571Y-199607142D01*
X183189285Y-199678571D01*
X182832142Y-199678571D01*
X184975000Y-199678571D02*
X184975000Y-198892857D01*
X184903571Y-198750000D01*
X184760714Y-198678571D01*
X184475000Y-198678571D01*
X184332142Y-198750000D01*
X184975000Y-199607142D02*
X184832142Y-199678571D01*
X184475000Y-199678571D01*
X184332142Y-199607142D01*
X184260714Y-199464285D01*
X184260714Y-199321428D01*
X184332142Y-199178571D01*
X184475000Y-199107142D01*
X184832142Y-199107142D01*
X184975000Y-199035714D01*
X185475000Y-198678571D02*
X186046428Y-198678571D01*
X185689285Y-198178571D02*
X185689285Y-199464285D01*
X185760714Y-199607142D01*
X185903571Y-199678571D01*
X186046428Y-199678571D01*
X187117857Y-199607142D02*
X186975000Y-199678571D01*
X186689285Y-199678571D01*
X186546428Y-199607142D01*
X186475000Y-199464285D01*
X186475000Y-198892857D01*
X186546428Y-198750000D01*
X186689285Y-198678571D01*
X186975000Y-198678571D01*
X187117857Y-198750000D01*
X187189285Y-198892857D01*
X187189285Y-199035714D01*
X186475000Y-199178571D01*
X187832142Y-199535714D02*
X187903571Y-199607142D01*
X187832142Y-199678571D01*
X187760714Y-199607142D01*
X187832142Y-199535714D01*
X187832142Y-199678571D01*
X187832142Y-198750000D02*
X187903571Y-198821428D01*
X187832142Y-198892857D01*
X187760714Y-198821428D01*
X187832142Y-198750000D01*
X187832142Y-198892857D01*
X189617857Y-198321428D02*
X189689285Y-198250000D01*
X189832142Y-198178571D01*
X190189285Y-198178571D01*
X190332142Y-198250000D01*
X190403571Y-198321428D01*
X190475000Y-198464285D01*
X190475000Y-198607142D01*
X190403571Y-198821428D01*
X189546428Y-199678571D01*
X190475000Y-199678571D01*
X191403571Y-198178571D02*
X191546428Y-198178571D01*
X191689285Y-198250000D01*
X191760714Y-198321428D01*
X191832142Y-198464285D01*
X191903571Y-198750000D01*
X191903571Y-199107142D01*
X191832142Y-199392857D01*
X191760714Y-199535714D01*
X191689285Y-199607142D01*
X191546428Y-199678571D01*
X191403571Y-199678571D01*
X191260714Y-199607142D01*
X191189285Y-199535714D01*
X191117857Y-199392857D01*
X191046428Y-199107142D01*
X191046428Y-198750000D01*
X191117857Y-198464285D01*
X191189285Y-198321428D01*
X191260714Y-198250000D01*
X191403571Y-198178571D01*
X192475000Y-198321428D02*
X192546428Y-198250000D01*
X192689285Y-198178571D01*
X193046428Y-198178571D01*
X193189285Y-198250000D01*
X193260714Y-198321428D01*
X193332142Y-198464285D01*
X193332142Y-198607142D01*
X193260714Y-198821428D01*
X192403571Y-199678571D01*
X193332142Y-199678571D01*
X194760714Y-199678571D02*
X193903571Y-199678571D01*
X194332142Y-199678571D02*
X194332142Y-198178571D01*
X194189285Y-198392857D01*
X194046428Y-198535714D01*
X193903571Y-198607142D01*
X195403571Y-199107142D02*
X196546428Y-199107142D01*
X197546428Y-198178571D02*
X197689285Y-198178571D01*
X197832142Y-198250000D01*
X197903571Y-198321428D01*
X197975000Y-198464285D01*
X198046428Y-198750000D01*
X198046428Y-199107142D01*
X197975000Y-199392857D01*
X197903571Y-199535714D01*
X197832142Y-199607142D01*
X197689285Y-199678571D01*
X197546428Y-199678571D01*
X197403571Y-199607142D01*
X197332142Y-199535714D01*
X197260714Y-199392857D01*
X197189285Y-199107142D01*
X197189285Y-198750000D01*
X197260714Y-198464285D01*
X197332142Y-198321428D01*
X197403571Y-198250000D01*
X197546428Y-198178571D01*
X198903571Y-198821428D02*
X198760714Y-198750000D01*
X198689285Y-198678571D01*
X198617857Y-198535714D01*
X198617857Y-198464285D01*
X198689285Y-198321428D01*
X198760714Y-198250000D01*
X198903571Y-198178571D01*
X199189285Y-198178571D01*
X199332142Y-198250000D01*
X199403571Y-198321428D01*
X199475000Y-198464285D01*
X199475000Y-198535714D01*
X199403571Y-198678571D01*
X199332142Y-198750000D01*
X199189285Y-198821428D01*
X198903571Y-198821428D01*
X198760714Y-198892857D01*
X198689285Y-198964285D01*
X198617857Y-199107142D01*
X198617857Y-199392857D01*
X198689285Y-199535714D01*
X198760714Y-199607142D01*
X198903571Y-199678571D01*
X199189285Y-199678571D01*
X199332142Y-199607142D01*
X199403571Y-199535714D01*
X199475000Y-199392857D01*
X199475000Y-199107142D01*
X199403571Y-198964285D01*
X199332142Y-198892857D01*
X199189285Y-198821428D01*
X200117857Y-199107142D02*
X201260714Y-199107142D01*
X202260714Y-198178571D02*
X202403571Y-198178571D01*
X202546428Y-198250000D01*
X202617857Y-198321428D01*
X202689285Y-198464285D01*
X202760714Y-198750000D01*
X202760714Y-199107142D01*
X202689285Y-199392857D01*
X202617857Y-199535714D01*
X202546428Y-199607142D01*
X202403571Y-199678571D01*
X202260714Y-199678571D01*
X202117857Y-199607142D01*
X202046428Y-199535714D01*
X201975000Y-199392857D01*
X201903571Y-199107142D01*
X201903571Y-198750000D01*
X201975000Y-198464285D01*
X202046428Y-198321428D01*
X202117857Y-198250000D01*
X202260714Y-198178571D01*
X204046428Y-198178571D02*
X203760714Y-198178571D01*
X203617857Y-198250000D01*
X203546428Y-198321428D01*
X203403571Y-198535714D01*
X203332142Y-198821428D01*
X203332142Y-199392857D01*
X203403571Y-199535714D01*
X203475000Y-199607142D01*
X203617857Y-199678571D01*
X203903571Y-199678571D01*
X204046428Y-199607142D01*
X204117857Y-199535714D01*
X204189285Y-199392857D01*
X204189285Y-199035714D01*
X204117857Y-198892857D01*
X204046428Y-198821428D01*
X203903571Y-198750000D01*
X203617857Y-198750000D01*
X203475000Y-198821428D01*
X203403571Y-198892857D01*
X203332142Y-199035714D01*
D10*
D11*
X159400000Y-200400000D02*
X267400000Y-200400000D01*
D10*
D11*
X159400000Y-197400000D02*
X267400000Y-197400000D01*
D10*
D12*
X246809285Y-199678571D02*
X246309285Y-198964285D01*
X245952142Y-199678571D02*
X245952142Y-198178571D01*
X246523571Y-198178571D01*
X246666428Y-198250000D01*
X246737857Y-198321428D01*
X246809285Y-198464285D01*
X246809285Y-198678571D01*
X246737857Y-198821428D01*
X246666428Y-198892857D01*
X246523571Y-198964285D01*
X245952142Y-198964285D01*
X248023571Y-199607142D02*
X247880714Y-199678571D01*
X247595000Y-199678571D01*
X247452142Y-199607142D01*
X247380714Y-199464285D01*
X247380714Y-198892857D01*
X247452142Y-198750000D01*
X247595000Y-198678571D01*
X247880714Y-198678571D01*
X248023571Y-198750000D01*
X248095000Y-198892857D01*
X248095000Y-199035714D01*
X247380714Y-199178571D01*
X248595000Y-198678571D02*
X248952142Y-199678571D01*
X249309285Y-198678571D01*
X249880714Y-199535714D02*
X249952142Y-199607142D01*
X249880714Y-199678571D01*
X249809285Y-199607142D01*
X249880714Y-199535714D01*
X249880714Y-199678571D01*
X249880714Y-198750000D02*
X249952142Y-198821428D01*
X249880714Y-198892857D01*
X249809285Y-198821428D01*
X249880714Y-198750000D01*
X249880714Y-198892857D01*
X252023571Y-198178571D02*
X252166428Y-198178571D01*
X252309285Y-198250000D01*
X252380714Y-198321428D01*
X252452142Y-198464285D01*
X252523571Y-198750000D01*
X252523571Y-199107142D01*
X252452142Y-199392857D01*
X252380714Y-199535714D01*
X252309285Y-199607142D01*
X252166428Y-199678571D01*
X252023571Y-199678571D01*
X251880714Y-199607142D01*
X251809285Y-199535714D01*
X251737857Y-199392857D01*
X251666428Y-199107142D01*
X251666428Y-198750000D01*
X251737857Y-198464285D01*
X251809285Y-198321428D01*
X251880714Y-198250000D01*
X252023571Y-198178571D01*
X253166428Y-199535714D02*
X253237857Y-199607142D01*
X253166428Y-199678571D01*
X253095000Y-199607142D01*
X253166428Y-199535714D01*
X253166428Y-199678571D01*
X253809285Y-198321428D02*
X253880714Y-198250000D01*
X254023571Y-198178571D01*
X254380714Y-198178571D01*
X254523571Y-198250000D01*
X254595000Y-198321428D01*
X254666428Y-198464285D01*
X254666428Y-198607142D01*
X254595000Y-198821428D01*
X253737857Y-199678571D01*
X254666428Y-199678571D01*
X255309285Y-199535714D02*
X255380714Y-199607142D01*
X255309285Y-199678571D01*
X255237857Y-199607142D01*
X255309285Y-199535714D01*
X255309285Y-199678571D01*
X256809285Y-199678571D02*
X255952142Y-199678571D01*
X256380714Y-199678571D02*
X256380714Y-198178571D01*
X256237857Y-198392857D01*
X256095000Y-198535714D01*
X255952142Y-198607142D01*
D10*
D11*
X160760714Y-199607142D02*
X160975000Y-199678571D01*
X161332142Y-199678571D01*
X161475000Y-199607142D01*
X161546428Y-199535714D01*
X161617857Y-199392857D01*
X161617857Y-199250000D01*
X161546428Y-199107142D01*
X161475000Y-199035714D01*
X161332142Y-198964285D01*
X161046428Y-198892857D01*
X160903571Y-198821428D01*
X160832142Y-198750000D01*
X160760714Y-198607142D01*
X160760714Y-198464285D01*
X160832142Y-198321428D01*
X160903571Y-198250000D01*
X161046428Y-198178571D01*
X161403571Y-198178571D01*
X161617857Y-198250000D01*
X162260714Y-199678571D02*
X162260714Y-198678571D01*
X162260714Y-198178571D02*
X162189285Y-198250000D01*
X162260714Y-198321428D01*
X162332142Y-198250000D01*
X162260714Y-198178571D01*
X162260714Y-198321428D01*
X162832142Y-198678571D02*
X163617857Y-198678571D01*
X162832142Y-199678571D01*
X163617857Y-199678571D01*
X164760714Y-199607142D02*
X164617857Y-199678571D01*
X164332142Y-199678571D01*
X164189285Y-199607142D01*
X164117857Y-199464285D01*
X164117857Y-198892857D01*
X164189285Y-198750000D01*
X164332142Y-198678571D01*
X164617857Y-198678571D01*
X164760714Y-198750000D01*
X164832142Y-198892857D01*
X164832142Y-199035714D01*
X164117857Y-199178571D01*
X165475000Y-199535714D02*
X165546428Y-199607142D01*
X165475000Y-199678571D01*
X165403571Y-199607142D01*
X165475000Y-199535714D01*
X165475000Y-199678571D01*
X165475000Y-198750000D02*
X165546428Y-198821428D01*
X165475000Y-198892857D01*
X165403571Y-198821428D01*
X165475000Y-198750000D01*
X165475000Y-198892857D01*
X167260714Y-199250000D02*
X167975000Y-199250000D01*
X167117857Y-199678571D02*
X167617857Y-198178571D01*
X168117857Y-199678571D01*
D10*
D11*
X245832142Y-202478571D02*
X245832142Y-200978571D01*
X247189285Y-202478571D02*
X247189285Y-200978571D01*
X247189285Y-202407142D02*
X247046428Y-202478571D01*
X246760714Y-202478571D01*
X246617857Y-202407142D01*
X246546428Y-202335714D01*
X246475000Y-202192857D01*
X246475000Y-201764285D01*
X246546428Y-201621428D01*
X246617857Y-201550000D01*
X246760714Y-201478571D01*
X247046428Y-201478571D01*
X247189285Y-201550000D01*
X247903571Y-202335714D02*
X247975000Y-202407142D01*
X247903571Y-202478571D01*
X247832142Y-202407142D01*
X247903571Y-202335714D01*
X247903571Y-202478571D01*
X247903571Y-201550000D02*
X247975000Y-201621428D01*
X247903571Y-201692857D01*
X247832142Y-201621428D01*
X247903571Y-201550000D01*
X247903571Y-201692857D01*
X250546428Y-202478571D02*
X249689285Y-202478571D01*
X250117857Y-202478571D02*
X250117857Y-200978571D01*
X249975000Y-201192857D01*
X249832142Y-201335714D01*
X249689285Y-201407142D01*
X252260714Y-200907142D02*
X250975000Y-202835714D01*
X253546428Y-202478571D02*
X252689285Y-202478571D01*
X253117857Y-202478571D02*
X253117857Y-200978571D01*
X252975000Y-201192857D01*
X252832142Y-201335714D01*
X252689285Y-201407142D01*
D10*
D13*
X161005998Y-183137830D02*
X161380998Y-180137830D01*
X162095284Y-180137830D01*
X162505998Y-180280688D01*
X162755998Y-180566402D01*
X162863141Y-180852116D01*
X162934570Y-181423545D01*
X162880998Y-181852116D01*
X162666713Y-182423545D01*
X162488141Y-182709259D01*
X162166713Y-182994973D01*
X161720284Y-183137830D01*
X161005998Y-183137830D01*
X165166713Y-182994973D02*
X164863141Y-183137830D01*
X164291713Y-183137830D01*
X164023856Y-182994973D01*
X163916713Y-182709259D01*
X164059570Y-181566402D01*
X164238141Y-181280688D01*
X164541713Y-181137830D01*
X165113141Y-181137830D01*
X165380998Y-181280688D01*
X165488141Y-181566402D01*
X165452427Y-181852116D01*
X163988141Y-182137830D01*
X166827427Y-181137830D02*
X166577427Y-183137830D01*
X166791713Y-181423545D02*
X166952427Y-181280688D01*
X167255998Y-181137830D01*
X167684570Y-181137830D01*
X167952427Y-181280688D01*
X168059570Y-181566402D01*
X167863141Y-183137830D01*
X169541713Y-181137830D02*
X169291713Y-183137830D01*
X169505998Y-181423545D02*
X169666713Y-181280688D01*
X169970284Y-181137830D01*
X170398856Y-181137830D01*
X170666713Y-181280688D01*
X170773856Y-181566402D01*
X170577427Y-183137830D01*
X172005998Y-183137830D02*
X172255998Y-181137830D01*
X172380998Y-180137830D02*
X172220284Y-180280688D01*
X172345284Y-180423545D01*
X172505998Y-180280688D01*
X172380998Y-180137830D01*
X172345284Y-180423545D01*
X173309570Y-182994973D02*
X173577427Y-183137830D01*
X174148856Y-183137830D01*
X174452427Y-182994973D01*
X174630998Y-182709259D01*
X174648856Y-182566402D01*
X174541713Y-182280688D01*
X174273856Y-182137830D01*
X173845284Y-182137830D01*
X173577427Y-181994973D01*
X173470284Y-181709259D01*
X173488141Y-181566402D01*
X173666713Y-181280688D01*
X173970284Y-181137830D01*
X174398856Y-181137830D01*
X174666713Y-181280688D01*
D10*
D11*
X161332126Y-195622209D02*
X160832126Y-195622209D01*
X160832126Y-196407923D02*
X160832126Y-194907923D01*
X161546412Y-194907923D01*
X162117841Y-196407923D02*
X162117841Y-195407923D01*
X162117841Y-194907923D02*
X162046412Y-194979352D01*
X162117841Y-195050780D01*
X162189269Y-194979352D01*
X162117841Y-194907923D01*
X162117841Y-195050780D01*
X163046412Y-196407923D02*
X162903555Y-196336494D01*
X162832126Y-196193637D01*
X162832126Y-194907923D01*
X164189269Y-196336494D02*
X164046412Y-196407923D01*
X163760698Y-196407923D01*
X163617841Y-196336494D01*
X163546412Y-196193637D01*
X163546412Y-195622209D01*
X163617841Y-195479352D01*
X163760698Y-195407923D01*
X164046412Y-195407923D01*
X164189269Y-195479352D01*
X164260698Y-195622209D01*
X164260698Y-195765066D01*
X163546412Y-195907923D01*
X164903555Y-196265066D02*
X164974984Y-196336494D01*
X164903555Y-196407923D01*
X164832126Y-196336494D01*
X164903555Y-196265066D01*
X164903555Y-196407923D01*
X164903555Y-195479352D02*
X164974984Y-195550780D01*
X164903555Y-195622209D01*
X164832126Y-195550780D01*
X164903555Y-195479352D01*
X164903555Y-195622209D01*
X167260698Y-195622209D02*
X167474984Y-195693637D01*
X167546412Y-195765066D01*
X167617841Y-195907923D01*
X167617841Y-196122209D01*
X167546412Y-196265066D01*
X167474984Y-196336494D01*
X167332126Y-196407923D01*
X166760698Y-196407923D01*
X166760698Y-194907923D01*
X167260698Y-194907923D01*
X167403555Y-194979352D01*
X167474984Y-195050780D01*
X167546412Y-195193637D01*
X167546412Y-195336494D01*
X167474984Y-195479352D01*
X167403555Y-195550780D01*
X167260698Y-195622209D01*
X166760698Y-195622209D01*
X168260698Y-196407923D02*
X168260698Y-195407923D01*
X168260698Y-194907923D02*
X168189269Y-194979352D01*
X168260698Y-195050780D01*
X168332126Y-194979352D01*
X168260698Y-194907923D01*
X168260698Y-195050780D01*
X168974984Y-196407923D02*
X168974984Y-194907923D01*
X169117841Y-195836494D02*
X169546412Y-196407923D01*
X169546412Y-195407923D02*
X168974984Y-195979352D01*
X170760698Y-196336494D02*
X170617841Y-196407923D01*
X170332126Y-196407923D01*
X170189269Y-196336494D01*
X170117841Y-196193637D01*
X170117841Y-195622209D01*
X170189269Y-195479352D01*
X170332126Y-195407923D01*
X170617841Y-195407923D01*
X170760698Y-195479352D01*
X170832126Y-195622209D01*
X170832126Y-195765066D01*
X170117841Y-195907923D01*
X171474984Y-196407923D02*
X171474984Y-194907923D01*
X171974984Y-195979352D01*
X172474984Y-194907923D01*
X172474984Y-196407923D01*
X173832126Y-196407923D02*
X173832126Y-195622209D01*
X173760698Y-195479352D01*
X173617841Y-195407923D01*
X173332126Y-195407923D01*
X173189269Y-195479352D01*
X173832126Y-196336494D02*
X173689269Y-196407923D01*
X173332126Y-196407923D01*
X173189269Y-196336494D01*
X173117841Y-196193637D01*
X173117841Y-196050780D01*
X173189269Y-195907923D01*
X173332126Y-195836494D01*
X173689269Y-195836494D01*
X173832126Y-195765066D01*
X174546412Y-195407923D02*
X174546412Y-196407923D01*
X174546412Y-195550780D02*
X174617841Y-195479352D01*
X174760698Y-195407923D01*
X174974984Y-195407923D01*
X175117841Y-195479352D01*
X175189269Y-195622209D01*
X175189269Y-196407923D01*
X175903555Y-196265066D02*
X175974984Y-196336494D01*
X175903555Y-196407923D01*
X175832126Y-196336494D01*
X175903555Y-196265066D01*
X175903555Y-196407923D01*
X176617841Y-196407923D02*
X176617841Y-194907923D01*
X176760698Y-195836494D02*
X177189269Y-196407923D01*
X177189269Y-195407923D02*
X176617841Y-195979352D01*
X177832126Y-196407923D02*
X177832126Y-195407923D01*
X177832126Y-194907923D02*
X177760698Y-194979352D01*
X177832126Y-195050780D01*
X177903555Y-194979352D01*
X177832126Y-194907923D01*
X177832126Y-195050780D01*
X179189269Y-196336494D02*
X179046412Y-196407923D01*
X178760698Y-196407923D01*
X178617841Y-196336494D01*
X178546412Y-196265066D01*
X178474984Y-196122209D01*
X178474984Y-195693637D01*
X178546412Y-195550780D01*
X178617841Y-195479352D01*
X178760698Y-195407923D01*
X179046412Y-195407923D01*
X179189269Y-195479352D01*
X180474984Y-196407923D02*
X180474984Y-195622209D01*
X180403555Y-195479352D01*
X180260698Y-195407923D01*
X179974984Y-195407923D01*
X179832126Y-195479352D01*
X180474984Y-196336494D02*
X180332126Y-196407923D01*
X179974984Y-196407923D01*
X179832126Y-196336494D01*
X179760698Y-196193637D01*
X179760698Y-196050780D01*
X179832126Y-195907923D01*
X179974984Y-195836494D01*
X180332126Y-195836494D01*
X180474984Y-195765066D01*
X181832126Y-196407923D02*
X181832126Y-194907923D01*
X181832126Y-196336494D02*
X181689269Y-196407923D01*
X181403555Y-196407923D01*
X181260698Y-196336494D01*
X181189269Y-196265066D01*
X181117841Y-196122209D01*
X181117841Y-195693637D01*
X181189269Y-195550780D01*
X181260698Y-195479352D01*
X181403555Y-195407923D01*
X181689269Y-195407923D01*
X181832126Y-195479352D01*
X182189269Y-196550780D02*
X183332126Y-196550780D01*
X183689269Y-195407923D02*
X183689269Y-196907923D01*
X183689269Y-195479352D02*
X183832126Y-195407923D01*
X184117841Y-195407923D01*
X184260698Y-195479352D01*
X184332126Y-195550780D01*
X184403555Y-195693637D01*
X184403555Y-196122209D01*
X184332126Y-196265066D01*
X184260698Y-196336494D01*
X184117841Y-196407923D01*
X183832126Y-196407923D01*
X183689269Y-196336494D01*
X185689269Y-196336494D02*
X185546412Y-196407923D01*
X185260698Y-196407923D01*
X185117841Y-196336494D01*
X185046412Y-196265066D01*
X184974984Y-196122209D01*
X184974984Y-195693637D01*
X185046412Y-195550780D01*
X185117841Y-195479352D01*
X185260698Y-195407923D01*
X185546412Y-195407923D01*
X185689269Y-195479352D01*
X186332126Y-196407923D02*
X186332126Y-194907923D01*
X186332126Y-195479352D02*
X186474984Y-195407923D01*
X186760698Y-195407923D01*
X186903555Y-195479352D01*
X186974984Y-195550780D01*
X187046412Y-195693637D01*
X187046412Y-196122209D01*
X186974984Y-196265066D01*
X186903555Y-196336494D01*
X186760698Y-196407923D01*
X186474984Y-196407923D01*
X186332126Y-196336494D01*
D10*
D11*
X159400240Y-191013080D02*
X267400240Y-191013080D01*
D10*
D11*
X160760698Y-193635966D02*
X160974984Y-193707395D01*
X161332126Y-193707395D01*
X161474984Y-193635966D01*
X161546412Y-193564538D01*
X161617841Y-193421681D01*
X161617841Y-193278824D01*
X161546412Y-193135966D01*
X161474984Y-193064538D01*
X161332126Y-192993109D01*
X161046412Y-192921681D01*
X160903555Y-192850252D01*
X160832126Y-192778824D01*
X160760698Y-192635966D01*
X160760698Y-192493109D01*
X160832126Y-192350252D01*
X160903555Y-192278824D01*
X161046412Y-192207395D01*
X161403555Y-192207395D01*
X161617841Y-192278824D01*
X162260698Y-193707395D02*
X162260698Y-192207395D01*
X162903555Y-193707395D02*
X162903555Y-192921681D01*
X162832126Y-192778824D01*
X162689269Y-192707395D01*
X162474984Y-192707395D01*
X162332126Y-192778824D01*
X162260698Y-192850252D01*
X164189269Y-193635966D02*
X164046412Y-193707395D01*
X163760698Y-193707395D01*
X163617841Y-193635966D01*
X163546412Y-193493109D01*
X163546412Y-192921681D01*
X163617841Y-192778824D01*
X163760698Y-192707395D01*
X164046412Y-192707395D01*
X164189269Y-192778824D01*
X164260698Y-192921681D01*
X164260698Y-193064538D01*
X163546412Y-193207395D01*
X165474984Y-193635966D02*
X165332126Y-193707395D01*
X165046412Y-193707395D01*
X164903555Y-193635966D01*
X164832126Y-193493109D01*
X164832126Y-192921681D01*
X164903555Y-192778824D01*
X165046412Y-192707395D01*
X165332126Y-192707395D01*
X165474984Y-192778824D01*
X165546412Y-192921681D01*
X165546412Y-193064538D01*
X164832126Y-193207395D01*
X165974984Y-192707395D02*
X166546412Y-192707395D01*
X166189269Y-192207395D02*
X166189269Y-193493109D01*
X166260698Y-193635966D01*
X166403555Y-193707395D01*
X166546412Y-193707395D01*
X167046412Y-193564538D02*
X167117841Y-193635966D01*
X167046412Y-193707395D01*
X166974984Y-193635966D01*
X167046412Y-193564538D01*
X167046412Y-193707395D01*
X167046412Y-192778824D02*
X167117841Y-192850252D01*
X167046412Y-192921681D01*
X166974984Y-192850252D01*
X167046412Y-192778824D01*
X167046412Y-192921681D01*
D10*
D14*
X161898079Y-187999395D02*
X161707603Y-188094633D01*
X161326650Y-188094633D01*
X161136174Y-187999395D01*
X161040936Y-187808919D01*
X161040936Y-187047014D01*
X161136174Y-186856538D01*
X161326650Y-186761300D01*
X161707603Y-186761300D01*
X161898079Y-186856538D01*
X161993317Y-187047014D01*
X161993317Y-187237491D01*
X161040936Y-187427967D01*
X163993317Y-187904157D02*
X163898079Y-187999395D01*
X163612364Y-188094633D01*
X163421888Y-188094633D01*
X163136174Y-187999395D01*
X162945698Y-187808919D01*
X162850460Y-187618443D01*
X162755222Y-187237491D01*
X162755222Y-186951776D01*
X162850460Y-186570824D01*
X162945698Y-186380348D01*
X163136174Y-186189872D01*
X163421888Y-186094633D01*
X163612364Y-186094633D01*
X163898079Y-186189872D01*
X163993317Y-186285110D01*
X165707603Y-188094633D02*
X165707603Y-187047014D01*
X165612364Y-186856538D01*
X165421888Y-186761300D01*
X165040936Y-186761300D01*
X164850460Y-186856538D01*
X165707603Y-187999395D02*
X165517126Y-188094633D01*
X165040936Y-188094633D01*
X164850460Y-187999395D01*
X164755222Y-187808919D01*
X164755222Y-187618443D01*
X164850460Y-187427967D01*
X165040936Y-187332729D01*
X165517126Y-187332729D01*
X165707603Y-187237491D01*
X166374269Y-186761300D02*
X167136174Y-186761300D01*
X166659984Y-188094633D02*
X166659984Y-186380348D01*
X166755222Y-186189872D01*
X166945698Y-186094633D01*
X167136174Y-186094633D01*
X168564745Y-187999395D02*
X168374269Y-188094633D01*
X167993317Y-188094633D01*
X167802841Y-187999395D01*
X167707603Y-187808919D01*
X167707603Y-187047014D01*
X167802841Y-186856538D01*
X167993317Y-186761300D01*
X168374269Y-186761300D01*
X168564745Y-186856538D01*
X168659984Y-187047014D01*
X168659984Y-187237491D01*
X167707603Y-187427967D01*
X172183793Y-188094633D02*
X171517126Y-187142252D01*
X171040936Y-188094633D02*
X171040936Y-186094633D01*
X171802841Y-186094633D01*
X171993317Y-186189872D01*
X172088555Y-186285110D01*
X172183793Y-186475586D01*
X172183793Y-186761300D01*
X172088555Y-186951776D01*
X171993317Y-187047014D01*
X171802841Y-187142252D01*
X171040936Y-187142252D01*
X173898079Y-188094633D02*
X173898079Y-187047014D01*
X173802841Y-186856538D01*
X173612364Y-186761300D01*
X173231412Y-186761300D01*
X173040936Y-186856538D01*
X173898079Y-187999395D02*
X173707603Y-188094633D01*
X173231412Y-188094633D01*
X173040936Y-187999395D01*
X172945698Y-187808919D01*
X172945698Y-187618443D01*
X173040936Y-187427967D01*
X173231412Y-187332729D01*
X173707603Y-187332729D01*
X173898079Y-187237491D01*
X175707603Y-187999395D02*
X175517126Y-188094633D01*
X175136174Y-188094633D01*
X174945698Y-187999395D01*
X174850460Y-187904157D01*
X174755222Y-187713681D01*
X174755222Y-187142252D01*
X174850460Y-186951776D01*
X174945698Y-186856538D01*
X175136174Y-186761300D01*
X175517126Y-186761300D01*
X175707603Y-186856538D01*
X177326650Y-187999395D02*
X177136174Y-188094633D01*
X176755222Y-188094633D01*
X176564745Y-187999395D01*
X176469507Y-187808919D01*
X176469507Y-187047014D01*
X176564745Y-186856538D01*
X176755222Y-186761300D01*
X177136174Y-186761300D01*
X177326650Y-186856538D01*
X177421888Y-187047014D01*
X177421888Y-187237491D01*
X176469507Y-187427967D01*
X178279031Y-188094633D02*
X178279031Y-186761300D01*
X178279031Y-187142252D02*
X178374269Y-186951776D01*
X178469507Y-186856538D01*
X178659984Y-186761300D01*
X178850460Y-186761300D01*
D10*
D11*
D10*
D11*
X179400000Y-197400000D02*
X179400000Y-200400000D01*
D10*
D11*
X243400000Y-197400000D02*
X243400000Y-203900000D01*
D10*
G36*
X254871287Y-177823007D02*
G01*
X254915287Y-177937007D01*
X255031287Y-178139007D01*
X255160287Y-178202007D01*
X255293287Y-178245007D01*
X255373287Y-178389007D01*
X255409287Y-178661007D01*
X255415287Y-178886007D01*
X255421287Y-179147007D01*
X255466287Y-179268007D01*
X255589287Y-179282007D01*
X255830287Y-179219007D01*
X255838287Y-179217007D01*
X256053287Y-179172007D01*
X256184287Y-179209007D01*
X256267287Y-179291007D01*
X256430287Y-179405007D01*
X256681288Y-179495007D01*
X256775288Y-179515007D01*
X257319287Y-179663007D01*
X257722288Y-179905007D01*
X257984288Y-180240007D01*
X258093287Y-180586007D01*
X258143287Y-180895007D01*
X258411287Y-180737007D01*
X258682287Y-180619007D01*
X258963287Y-180555007D01*
X258967288Y-180555007D01*
X259172287Y-180558007D01*
X259275288Y-180636007D01*
X259316288Y-180742007D01*
X259365287Y-181033007D01*
X259383288Y-181411007D01*
X259371288Y-181796007D01*
X259329287Y-182109007D01*
X259318288Y-182152007D01*
X259293287Y-182412007D01*
X259397287Y-182564007D01*
X259580288Y-182605007D01*
X259677287Y-182636007D01*
X259722288Y-182758007D01*
X259733287Y-182986007D01*
X259720287Y-183227007D01*
X259671287Y-183340007D01*
X259580288Y-183367007D01*
X259392287Y-183313007D01*
X259326287Y-183265007D01*
X259235287Y-183193007D01*
X259235287Y-183246007D01*
X259320287Y-183410007D01*
X259484288Y-183671007D01*
X259566288Y-183795007D01*
X259737287Y-184041007D01*
X259868287Y-184220007D01*
X259934287Y-184297007D01*
X259937287Y-184298007D01*
X260023287Y-184266007D01*
X260214287Y-184184007D01*
X260378288Y-184110007D01*
X260636287Y-184011007D01*
X260908287Y-183953007D01*
X261251288Y-183928007D01*
X261553287Y-183925007D01*
X262220287Y-183971007D01*
X262782288Y-184113007D01*
X263283287Y-184366007D01*
X263754287Y-184736007D01*
X264030287Y-185000007D01*
X264178287Y-185175007D01*
X264205288Y-185275007D01*
X264121288Y-185313007D01*
X264087288Y-185314007D01*
X264012287Y-185335007D01*
X264044288Y-185422007D01*
X264126288Y-185533007D01*
X264374287Y-185962007D01*
X264548287Y-186495007D01*
X264639287Y-187080007D01*
X264640288Y-187664007D01*
X264545287Y-188196007D01*
X264518287Y-188278007D01*
X264209287Y-188911007D01*
X263766287Y-189464007D01*
X263215288Y-189913007D01*
X262582287Y-190231007D01*
X262459287Y-190273007D01*
X261830288Y-190390007D01*
X261179288Y-190360007D01*
X260539288Y-190197007D01*
X259941288Y-189914007D01*
X259418287Y-189523007D01*
X259002287Y-189038007D01*
X258877287Y-188828007D01*
X258751288Y-188611007D01*
X258652288Y-188473007D01*
X258618287Y-188447007D01*
X258513288Y-188478007D01*
X258309287Y-188556007D01*
X258173287Y-188613007D01*
X257944287Y-188700007D01*
X257819287Y-188706007D01*
X257792287Y-188614007D01*
X257858287Y-188407007D01*
X257996288Y-188095007D01*
X258139287Y-187699007D01*
X258206287Y-187319007D01*
X258206287Y-187310007D01*
X259778287Y-187310007D01*
X259849288Y-187855007D01*
X260068288Y-188318007D01*
X260432287Y-188695007D01*
X260738287Y-188888007D01*
X261211287Y-189076007D01*
X261654287Y-189115007D01*
X262111287Y-189004007D01*
X262363287Y-188891007D01*
X262806288Y-188582007D01*
X263126288Y-188186007D01*
X263318288Y-187732007D01*
X263378288Y-187248007D01*
X263301288Y-186764007D01*
X263084287Y-186308007D01*
X262787288Y-185965007D01*
X262339287Y-185656007D01*
X261850287Y-185509007D01*
X261414288Y-185504007D01*
X261110287Y-185546007D01*
X260953288Y-185606007D01*
X260923287Y-185701007D01*
X260969287Y-185800007D01*
X261071287Y-185885007D01*
X261262287Y-185920007D01*
X261517287Y-185918007D01*
X261979288Y-185967007D01*
X262361287Y-186144007D01*
X262656287Y-186419007D01*
X262855287Y-186767007D01*
X262948288Y-187159007D01*
X262927287Y-187569007D01*
X262784287Y-187969007D01*
X262509287Y-188331007D01*
X262340288Y-188474007D01*
X262069287Y-188601007D01*
X261704287Y-188673007D01*
X261662288Y-188676007D01*
X261181288Y-188636007D01*
X260774287Y-188456007D01*
X260459287Y-188156007D01*
X260256287Y-187755007D01*
X260181288Y-187274007D01*
X260182287Y-187252007D01*
X261430287Y-187252007D01*
X261450288Y-187378007D01*
X261539288Y-187431007D01*
X261682287Y-187394007D01*
X261707287Y-187375007D01*
X261713287Y-187277007D01*
X261632287Y-187172007D01*
X261525288Y-187132007D01*
X261501288Y-187140007D01*
X261430287Y-187252007D01*
X260182287Y-187252007D01*
X260190287Y-187080007D01*
X260205288Y-186765007D01*
X260172287Y-186578007D01*
X260117287Y-186503007D01*
X259994287Y-186476007D01*
X259891287Y-186597007D01*
X259817287Y-186845007D01*
X259780287Y-187201007D01*
X259778287Y-187310007D01*
X258206287Y-187310007D01*
X258208287Y-187258007D01*
X258244287Y-186845007D01*
X258340288Y-186384007D01*
X258428287Y-186099007D01*
X260180287Y-186099007D01*
X260203288Y-186234007D01*
X260244287Y-186292007D01*
X260394287Y-186407007D01*
X260515288Y-186363007D01*
X260530287Y-186341007D01*
X260509287Y-186237007D01*
X260416287Y-186124007D01*
X260266287Y-186048007D01*
X260180287Y-186099007D01*
X258428287Y-186099007D01*
X258476287Y-185948007D01*
X258634287Y-185607007D01*
X258639287Y-185598007D01*
X258745287Y-185404007D01*
X258760287Y-185262007D01*
X258688288Y-185088007D01*
X258678287Y-185069007D01*
X258596287Y-184806007D01*
X258552287Y-184439007D01*
X258547287Y-184260007D01*
X258539288Y-184036007D01*
X258717288Y-184036007D01*
X258735287Y-184273007D01*
X258782288Y-184545007D01*
X258844287Y-184802007D01*
X258911287Y-184990007D01*
X258966287Y-185060007D01*
X259060287Y-185004007D01*
X259202287Y-184870007D01*
X259379287Y-184679007D01*
X259048287Y-184222007D01*
X258717288Y-183764007D01*
X258717288Y-184036007D01*
X258539288Y-184036007D01*
X258536287Y-183979007D01*
X258507287Y-183779007D01*
X258468287Y-183706007D01*
X258380287Y-183636007D01*
X258342288Y-183557007D01*
X258237287Y-183445007D01*
X258003288Y-183409007D01*
X257998288Y-183409007D01*
X257787288Y-183417007D01*
X257708287Y-183469007D01*
X257734288Y-183610007D01*
X257784287Y-183745007D01*
X257810287Y-183845007D01*
X257816288Y-183978007D01*
X257797287Y-184166007D01*
X257752287Y-184429007D01*
X257674288Y-184789007D01*
X257562287Y-185268007D01*
X257411287Y-185886007D01*
X257388288Y-185978007D01*
X257204287Y-186703007D01*
X257051288Y-187265007D01*
X256928287Y-187667007D01*
X256834287Y-187914007D01*
X256769287Y-188008007D01*
X256610287Y-188115007D01*
X256543287Y-188187007D01*
X256435287Y-188268007D01*
X256380287Y-188255007D01*
X256308287Y-188277007D01*
X256219287Y-188419007D01*
X256210288Y-188439007D01*
X256061288Y-188668007D01*
X255870287Y-188843007D01*
X255803287Y-188880007D01*
X255714287Y-188911007D01*
X255589287Y-188937007D01*
X255412287Y-188958007D01*
X255167287Y-188975007D01*
X254838287Y-188990007D01*
X254411287Y-189002007D01*
X253870287Y-189013007D01*
X253198287Y-189023007D01*
X252382287Y-189034007D01*
X251862287Y-189040007D01*
X248091287Y-189082007D01*
X247720287Y-189484007D01*
X247187287Y-189942007D01*
X246568287Y-190256007D01*
X245873287Y-190421007D01*
X245623287Y-190442007D01*
X245170287Y-190443007D01*
X244769287Y-190405007D01*
X244577287Y-190363007D01*
X243906287Y-190083007D01*
X243324287Y-189666007D01*
X242847287Y-189134007D01*
X242496287Y-188504007D01*
X242338287Y-188033007D01*
X242264287Y-187792007D01*
X242218287Y-187727007D01*
X243660287Y-187727007D01*
X243688287Y-187806007D01*
X243797287Y-187973007D01*
X243897287Y-188104007D01*
X244084288Y-188315007D01*
X244251288Y-188420007D01*
X244465288Y-188456007D01*
X244521287Y-188458007D01*
X245774287Y-188496007D01*
X246984287Y-188527007D01*
X248138287Y-188549007D01*
X249225287Y-188564007D01*
X250232287Y-188570007D01*
X251145287Y-188570007D01*
X251953288Y-188561007D01*
X252644287Y-188544007D01*
X253205287Y-188520007D01*
X253622287Y-188489007D01*
X253885287Y-188449007D01*
X253907287Y-188444007D01*
X254058287Y-188379007D01*
X254243287Y-188251007D01*
X254480287Y-188046007D01*
X254788287Y-187745007D01*
X255185288Y-187335007D01*
X255262287Y-187254007D01*
X255703288Y-186779007D01*
X256033287Y-186401007D01*
X256264287Y-186102007D01*
X256409287Y-185863007D01*
X256479288Y-185666007D01*
X256487287Y-185492007D01*
X256471287Y-185406007D01*
X256433287Y-185280007D01*
X256392287Y-185268007D01*
X256321287Y-185385007D01*
X256252287Y-185526007D01*
X256126288Y-185717007D01*
X255904287Y-185991007D01*
X255611287Y-186321007D01*
X255273287Y-186680007D01*
X254917287Y-187042007D01*
X254569287Y-187381007D01*
X254253287Y-187669007D01*
X253997287Y-187882007D01*
X253830287Y-187990007D01*
X253610287Y-188044007D01*
X253261287Y-188083007D01*
X252823287Y-188106007D01*
X252337287Y-188114007D01*
X251841287Y-188106007D01*
X251377287Y-188084007D01*
X250984287Y-188046007D01*
X250701287Y-187994007D01*
X250667287Y-187984007D01*
X250519287Y-187948007D01*
X250292287Y-187917007D01*
X249972287Y-187888007D01*
X249545287Y-187862007D01*
X248997287Y-187837007D01*
X248315287Y-187813007D01*
X247484287Y-187788007D01*
X246994287Y-187775007D01*
X246264287Y-187758007D01*
X245588287Y-187743007D01*
X244985287Y-187732007D01*
X244473287Y-187724007D01*
X244070287Y-187720007D01*
X243796287Y-187720007D01*
X243667287Y-187725007D01*
X243660287Y-187727007D01*
X242218287Y-187727007D01*
X242177287Y-187671007D01*
X242036287Y-187623007D01*
X241981287Y-187617007D01*
X241725287Y-187522007D01*
X241617287Y-187394007D01*
X241550287Y-187285007D01*
X241468287Y-187240007D01*
X241323287Y-187251007D01*
X241067287Y-187314007D01*
X241045287Y-187319007D01*
X240677287Y-187392007D01*
X240441288Y-187386007D01*
X240346287Y-187302007D01*
X240344287Y-187283007D01*
X240398287Y-187192007D01*
X240542287Y-187017007D01*
X240745287Y-186793007D01*
X240767287Y-186770007D01*
X240965288Y-186542007D01*
X241374287Y-186542007D01*
X241401287Y-186622007D01*
X241506287Y-186795007D01*
X241618287Y-186959007D01*
X241895287Y-187344007D01*
X244781287Y-187367007D01*
X245466287Y-187373007D01*
X246097287Y-187380007D01*
X246655287Y-187387007D01*
X247120287Y-187394007D01*
X247471288Y-187401007D01*
X247689287Y-187407007D01*
X247752287Y-187410007D01*
X247863287Y-187412007D01*
X248110287Y-187401007D01*
X248460287Y-187380007D01*
X248777287Y-187358007D01*
X251656287Y-187358007D01*
X251656287Y-187648007D01*
X251748287Y-187822007D01*
X251867287Y-187852007D01*
X251965288Y-187747007D01*
X251995287Y-187593007D01*
X252079287Y-187308007D01*
X252230287Y-187106007D01*
X252373287Y-186982007D01*
X252528287Y-186914007D01*
X252751287Y-186886007D01*
X253025287Y-186881007D01*
X253403287Y-186898007D01*
X253685288Y-186961007D01*
X253922287Y-187074007D01*
X254164287Y-187195007D01*
X254297287Y-187210007D01*
X254310288Y-187121007D01*
X254261287Y-187028007D01*
X254036287Y-186809007D01*
X253695287Y-186642007D01*
X253289287Y-186537007D01*
X252867287Y-186506007D01*
X252478287Y-186562007D01*
X252393287Y-186590007D01*
X252048288Y-186784007D01*
X251793287Y-187052007D01*
X251656287Y-187358007D01*
X248777287Y-187358007D01*
X248878287Y-187351007D01*
X249014287Y-187341007D01*
X249622287Y-187285007D01*
X250069287Y-187221007D01*
X250366287Y-187148007D01*
X250458287Y-187109007D01*
X250716287Y-186957007D01*
X251031287Y-186755007D01*
X251371287Y-186524007D01*
X251709288Y-186284007D01*
X252015287Y-186057007D01*
X252260287Y-185865007D01*
X252413287Y-185727007D01*
X252451287Y-185672007D01*
X252421287Y-185567007D01*
X252320287Y-185539007D01*
X252134287Y-185592007D01*
X251851287Y-185732007D01*
X251456287Y-185964007D01*
X251085287Y-186198007D01*
X250561287Y-186524007D01*
X250161287Y-186750007D01*
X249875287Y-186881007D01*
X249700287Y-186922007D01*
X249519287Y-186912007D01*
X249212287Y-186885007D01*
X248822288Y-186845007D01*
X248391287Y-186797007D01*
X248379287Y-186796007D01*
X248110287Y-186771007D01*
X247719287Y-186744007D01*
X247228287Y-186715007D01*
X246658287Y-186686007D01*
X246031287Y-186657007D01*
X245369287Y-186629007D01*
X244694287Y-186603007D01*
X244026287Y-186580007D01*
X243388288Y-186559007D01*
X242801287Y-186543007D01*
X242287287Y-186532007D01*
X241867287Y-186526007D01*
X241563287Y-186527007D01*
X241398287Y-186536007D01*
X241374287Y-186542007D01*
X240965288Y-186542007D01*
X241020287Y-186480007D01*
X241104287Y-186348007D01*
X244027287Y-186348007D01*
X244408287Y-186305007D01*
X244746287Y-186250007D01*
X245091287Y-186169007D01*
X245146287Y-186153007D01*
X245380287Y-186094007D01*
X245568287Y-186097007D01*
X245791287Y-186170007D01*
X245908287Y-186220007D01*
X246276287Y-186344007D01*
X246612287Y-186361007D01*
X246772287Y-186337007D01*
X246761287Y-186282007D01*
X246654287Y-186161007D01*
X246489288Y-186010007D01*
X246306287Y-185863007D01*
X246144287Y-185758007D01*
X245907287Y-185680007D01*
X245592287Y-185633007D01*
X245424287Y-185625007D01*
X244928287Y-185684007D01*
X244522287Y-185871007D01*
X244239288Y-186120007D01*
X244027287Y-186348007D01*
X241104287Y-186348007D01*
X241162287Y-186258007D01*
X241188287Y-186119007D01*
X241106287Y-186076007D01*
X240989288Y-186131007D01*
X240850287Y-186247007D01*
X240691288Y-186362007D01*
X240541287Y-186344007D01*
X240517287Y-186332007D01*
X240339287Y-186150007D01*
X240277287Y-185891007D01*
X240302287Y-185738007D01*
X240367287Y-185632007D01*
X240507287Y-185581007D01*
X240764287Y-185568007D01*
X241054288Y-185546007D01*
X241201287Y-185475007D01*
X241221287Y-185441007D01*
X241207287Y-185335007D01*
X241120287Y-185314007D01*
X240907287Y-185242007D01*
X240786287Y-185042007D01*
X240767287Y-184887007D01*
X240838287Y-184624007D01*
X241048288Y-184455007D01*
X241399287Y-184381007D01*
X241494287Y-184377007D01*
X241768287Y-184361007D01*
X241982287Y-184329007D01*
X242110287Y-184290007D01*
X242131287Y-184252007D01*
X242020287Y-184226007D01*
X241889287Y-184219007D01*
X241529287Y-184214007D01*
X241529287Y-184016007D01*
X243571287Y-184016007D01*
X243686287Y-184012007D01*
X243752287Y-183993007D01*
X243908287Y-183969007D01*
X244193287Y-183949007D01*
X244567287Y-183935007D01*
X244990287Y-183929007D01*
X245001288Y-183929007D01*
X245459288Y-183932007D01*
X245790287Y-183945007D01*
X246038287Y-183974007D01*
X246243287Y-184026007D01*
X246448287Y-184107007D01*
X246528287Y-184143007D01*
X246996287Y-184400007D01*
X247403287Y-184727007D01*
X247793287Y-185163007D01*
X247955287Y-185377007D01*
X248317287Y-185874007D01*
X249114288Y-185463007D01*
X249441288Y-185287007D01*
X249703288Y-185132007D01*
X249869287Y-185019007D01*
X249911287Y-184971007D01*
X249852288Y-184897007D01*
X249673288Y-184934007D01*
X249473287Y-185025007D01*
X249120287Y-185124007D01*
X248730287Y-185072007D01*
X248297287Y-184866007D01*
X247815287Y-184504007D01*
X247578288Y-184287007D01*
X247446287Y-184172007D01*
X252298288Y-184172007D01*
X252334288Y-184246007D01*
X252451287Y-184429007D01*
X252630287Y-184697007D01*
X252854287Y-185020007D01*
X252869287Y-185041007D01*
X253465288Y-185887007D01*
X253840288Y-185752007D01*
X254214287Y-185617007D01*
X254141287Y-185592007D01*
X254864288Y-185592007D01*
X255542287Y-185880007D01*
X255673288Y-185661007D01*
X255774287Y-185485007D01*
X255927287Y-185211007D01*
X256105287Y-184889007D01*
X256161287Y-184787007D01*
X256518287Y-184132007D01*
X256210288Y-184004007D01*
X255891287Y-183902007D01*
X255631287Y-183881007D01*
X255471288Y-183941007D01*
X255456287Y-183960007D01*
X255478287Y-184053007D01*
X255557287Y-184100007D01*
X255843287Y-184263007D01*
X255983288Y-184479007D01*
X255984287Y-184728007D01*
X255851287Y-184987007D01*
X255590288Y-185234007D01*
X255207287Y-185447007D01*
X255203288Y-185448007D01*
X254864288Y-185592007D01*
X254141287Y-185592007D01*
X253936287Y-185522007D01*
X253577287Y-185366007D01*
X253273287Y-185176007D01*
X253063287Y-184979007D01*
X252994287Y-184850007D01*
X252967287Y-184536007D01*
X253257287Y-184536007D01*
X253275287Y-184703007D01*
X253424287Y-184883007D01*
X253669287Y-185055007D01*
X253975287Y-185197007D01*
X254307287Y-185288007D01*
X254530287Y-185310007D01*
X254751287Y-185275007D01*
X255040287Y-185179007D01*
X255229287Y-185095007D01*
X255491287Y-184949007D01*
X255626287Y-184823007D01*
X255668287Y-184687007D01*
X255669287Y-184669007D01*
X255615287Y-184503007D01*
X255444287Y-184379007D01*
X255136287Y-184291007D01*
X254759287Y-184237007D01*
X254424287Y-184227007D01*
X254064287Y-184258007D01*
X253725287Y-184319007D01*
X253449287Y-184402007D01*
X253282287Y-184499007D01*
X253257287Y-184536007D01*
X252967287Y-184536007D01*
X252965288Y-184515007D01*
X253073287Y-184272007D01*
X253275287Y-184129007D01*
X253471288Y-184005007D01*
X253506287Y-183899007D01*
X253380287Y-183825007D01*
X253277287Y-183806007D01*
X253097287Y-183829007D01*
X252837287Y-183908007D01*
X252565287Y-184018007D01*
X252349287Y-184134007D01*
X252298288Y-184172007D01*
X247446287Y-184172007D01*
X247245287Y-183999007D01*
X246922287Y-183775007D01*
X246698287Y-183664007D01*
X246044287Y-183512007D01*
X245324287Y-183477007D01*
X244592287Y-183560007D01*
X243901287Y-183758007D01*
X243879287Y-183767007D01*
X243683287Y-183866007D01*
X243575287Y-183958007D01*
X243571287Y-184016007D01*
X241529287Y-184016007D01*
X241529287Y-182351007D01*
X242122287Y-182351007D01*
X242122287Y-183790007D01*
X242375287Y-183790007D01*
X242636287Y-183724007D01*
X242956287Y-183538007D01*
X243024287Y-183488007D01*
X243337287Y-183270007D01*
X243684287Y-183058007D01*
X243839287Y-182974007D01*
X244082287Y-182836007D01*
X244182287Y-182736007D01*
X244164287Y-182666007D01*
X244075287Y-182469007D01*
X244142287Y-182220007D01*
X244245287Y-182066007D01*
X244338287Y-181960007D01*
X244442287Y-181895007D01*
X244596288Y-181860007D01*
X244842287Y-181846007D01*
X245197288Y-181843007D01*
X245673288Y-181855007D01*
X246206287Y-181886007D01*
X246689287Y-181929007D01*
X246736287Y-181935007D01*
X247191288Y-182004007D01*
X247503287Y-182096007D01*
X247697288Y-182227007D01*
X247800287Y-182411007D01*
X247835287Y-182611007D01*
X247872287Y-182792007D01*
X247977288Y-182933007D01*
X248189287Y-183080007D01*
X248261287Y-183121007D01*
X248826287Y-183356007D01*
X249458287Y-183467007D01*
X249752287Y-183462007D01*
X251779287Y-183462007D01*
X251782287Y-183464007D01*
X251904287Y-183489007D01*
X252176287Y-183506007D01*
X252579287Y-183517007D01*
X253096288Y-183521007D01*
X253707287Y-183517007D01*
X253891287Y-183514007D01*
X254546287Y-183502007D01*
X255055287Y-183488007D01*
X255439287Y-183470007D01*
X255721288Y-183447007D01*
X255923288Y-183416007D01*
X256067287Y-183377007D01*
X256154287Y-183339007D01*
X256426288Y-183119007D01*
X256614288Y-182819007D01*
X256679288Y-182503007D01*
X256661287Y-182416007D01*
X256611287Y-182465007D01*
X256515288Y-182662007D01*
X256515288Y-182663007D01*
X256330288Y-182957007D01*
X256102288Y-183150007D01*
X255834288Y-183241007D01*
X255426287Y-183319007D01*
X254910287Y-183379007D01*
X254315287Y-183420007D01*
X253671287Y-183438007D01*
X253008287Y-183432007D01*
X252883287Y-183428007D01*
X252376287Y-183415007D01*
X252019287Y-183416007D01*
X251818287Y-183431007D01*
X251779287Y-183462007D01*
X249752287Y-183462007D01*
X250106287Y-183456007D01*
X250721288Y-183319007D01*
X251025287Y-183191007D01*
X251241287Y-183097007D01*
X251396287Y-183060007D01*
X251427287Y-183065007D01*
X251521287Y-183036007D01*
X251708287Y-182921007D01*
X251953288Y-182742007D01*
X252018287Y-182691007D01*
X252567287Y-182290007D01*
X253146287Y-181938007D01*
X253726287Y-181648007D01*
X254277287Y-181432007D01*
X254768287Y-181304007D01*
X255170287Y-181276007D01*
X255222287Y-181282007D01*
X255778287Y-181437007D01*
X256261287Y-181732007D01*
X256347288Y-181807007D01*
X256552287Y-181944007D01*
X256692287Y-181941007D01*
X256742287Y-181811007D01*
X256690287Y-181602007D01*
X256628288Y-181359007D01*
X256677287Y-181220007D01*
X256830288Y-181201007D01*
X256861287Y-181210007D01*
X256996288Y-181222007D01*
X257010287Y-181153007D01*
X256909287Y-181034007D01*
X256812287Y-180962007D01*
X256654287Y-180798007D01*
X256597288Y-180634007D01*
X256542287Y-180431007D01*
X256505287Y-180370007D01*
X257167287Y-180370007D01*
X257216287Y-180465007D01*
X257277288Y-180552007D01*
X257429288Y-180747007D01*
X257506287Y-180821007D01*
X257502287Y-180777007D01*
X257792287Y-180777007D01*
X257807287Y-180887007D01*
X257836287Y-180889007D01*
X257857287Y-180775007D01*
X257843287Y-180726007D01*
X257805287Y-180694007D01*
X257792287Y-180777007D01*
X257502287Y-180777007D01*
X257501288Y-180767007D01*
X257454287Y-180672007D01*
X257317287Y-180487007D01*
X257223287Y-180397007D01*
X257167287Y-180370007D01*
X256505287Y-180370007D01*
X256433287Y-180252007D01*
X256310287Y-180128007D01*
X256190287Y-180106007D01*
X255997287Y-180172007D01*
X255991287Y-180175007D01*
X255708287Y-180245007D01*
X255406287Y-180255007D01*
X255393287Y-180253007D01*
X255035287Y-180277007D01*
X254861287Y-180355007D01*
X254663287Y-180445007D01*
X254544287Y-180421007D01*
X254533287Y-180293007D01*
X254543287Y-180260007D01*
X254554288Y-180173007D01*
X254467287Y-180155007D01*
X254307287Y-180181007D01*
X253908287Y-180257007D01*
X253644287Y-180296007D01*
X253484287Y-180297007D01*
X253396287Y-180262007D01*
X253351287Y-180190007D01*
X253344287Y-180009007D01*
X253486287Y-179877007D01*
X253579287Y-179849007D01*
X257009287Y-179849007D01*
X257115287Y-179953007D01*
X257213287Y-180024007D01*
X257429288Y-180194007D01*
X257587288Y-180361007D01*
X257617287Y-180405007D01*
X257717288Y-180551007D01*
X257775288Y-180548007D01*
X257785287Y-180477007D01*
X257722288Y-180351007D01*
X257567287Y-180178007D01*
X257368287Y-180000007D01*
X257174288Y-179863007D01*
X257040287Y-179811007D01*
X257009287Y-179849007D01*
X253579287Y-179849007D01*
X253785287Y-179787007D01*
X253897287Y-179769007D01*
X256769287Y-179769007D01*
X256812287Y-179811007D01*
X256854288Y-179769007D01*
X256812287Y-179726007D01*
X256769287Y-179769007D01*
X253897287Y-179769007D01*
X253916287Y-179766007D01*
X254273287Y-179691007D01*
X254643287Y-179573007D01*
X254757287Y-179526007D01*
X254996287Y-179406007D01*
X255115287Y-179297007D01*
X255156287Y-179154007D01*
X255159287Y-179075007D01*
X255130287Y-178842007D01*
X255049287Y-178751007D01*
X254928287Y-178813007D01*
X254906287Y-178838007D01*
X254741287Y-178946007D01*
X254646287Y-178964007D01*
X254510287Y-178893007D01*
X254437287Y-178711007D01*
X254423288Y-178461007D01*
X254468287Y-178189007D01*
X254568287Y-177939007D01*
X254705287Y-177771007D01*
X254797287Y-177733007D01*
X254871287Y-177823007D01*
G37*
X254871287Y-177823007D02*
X254915287Y-177937007D01*
X255031287Y-178139007D01*
X255160287Y-178202007D01*
X255293287Y-178245007D01*
X255373287Y-178389007D01*
X255409287Y-178661007D01*
X255415287Y-178886007D01*
X255421287Y-179147007D01*
X255466287Y-179268007D01*
X255589287Y-179282007D01*
X255830287Y-179219007D01*
X255838287Y-179217007D01*
X256053287Y-179172007D01*
X256184287Y-179209007D01*
X256267287Y-179291007D01*
X256430287Y-179405007D01*
X256681288Y-179495007D01*
X256775288Y-179515007D01*
X257319287Y-179663007D01*
X257722288Y-179905007D01*
X257984288Y-180240007D01*
X258093287Y-180586007D01*
X258143287Y-180895007D01*
X258411287Y-180737007D01*
X258682287Y-180619007D01*
X258963287Y-180555007D01*
X258967288Y-180555007D01*
X259172287Y-180558007D01*
X259275288Y-180636007D01*
X259316288Y-180742007D01*
X259365287Y-181033007D01*
X259383288Y-181411007D01*
X259371288Y-181796007D01*
X259329287Y-182109007D01*
X259318288Y-182152007D01*
X259293287Y-182412007D01*
X259397287Y-182564007D01*
X259580288Y-182605007D01*
X259677287Y-182636007D01*
X259722288Y-182758007D01*
X259733287Y-182986007D01*
X259720287Y-183227007D01*
X259671287Y-183340007D01*
X259580288Y-183367007D01*
X259392287Y-183313007D01*
X259326287Y-183265007D01*
X259235287Y-183193007D01*
X259235287Y-183246007D01*
X259320287Y-183410007D01*
X259484288Y-183671007D01*
X259566288Y-183795007D01*
X259737287Y-184041007D01*
X259868287Y-184220007D01*
X259934287Y-184297007D01*
X259937287Y-184298007D01*
X260023287Y-184266007D01*
X260214287Y-184184007D01*
X260378288Y-184110007D01*
X260636287Y-184011007D01*
X260908287Y-183953007D01*
X261251288Y-183928007D01*
X261553287Y-183925007D01*
X262220287Y-183971007D01*
X262782288Y-184113007D01*
X263283287Y-184366007D01*
X263754287Y-184736007D01*
X264030287Y-185000007D01*
X264178287Y-185175007D01*
X264205288Y-185275007D01*
X264121288Y-185313007D01*
X264087288Y-185314007D01*
X264012287Y-185335007D01*
X264044288Y-185422007D01*
X264126288Y-185533007D01*
X264374287Y-185962007D01*
X264548287Y-186495007D01*
X264639287Y-187080007D01*
X264640288Y-187664007D01*
X264545287Y-188196007D01*
X264518287Y-188278007D01*
X264209287Y-188911007D01*
X263766287Y-189464007D01*
X263215288Y-189913007D01*
X262582287Y-190231007D01*
X262459287Y-190273007D01*
X261830288Y-190390007D01*
X261179288Y-190360007D01*
X260539288Y-190197007D01*
X259941288Y-189914007D01*
X259418287Y-189523007D01*
X259002287Y-189038007D01*
X258877287Y-188828007D01*
X258751288Y-188611007D01*
X258652288Y-188473007D01*
X258618287Y-188447007D01*
X258513288Y-188478007D01*
X258309287Y-188556007D01*
X258173287Y-188613007D01*
X257944287Y-188700007D01*
X257819287Y-188706007D01*
X257792287Y-188614007D01*
X257858287Y-188407007D01*
X257996288Y-188095007D01*
X258139287Y-187699007D01*
X258206287Y-187319007D01*
X258206287Y-187310007D01*
X259778287Y-187310007D01*
X259849288Y-187855007D01*
X260068288Y-188318007D01*
X260432287Y-188695007D01*
X260738287Y-188888007D01*
X261211287Y-189076007D01*
X261654287Y-189115007D01*
X262111287Y-189004007D01*
X262363287Y-188891007D01*
X262806288Y-188582007D01*
X263126288Y-188186007D01*
X263318288Y-187732007D01*
X263378288Y-187248007D01*
X263301288Y-186764007D01*
X263084287Y-186308007D01*
X262787288Y-185965007D01*
X262339287Y-185656007D01*
X261850287Y-185509007D01*
X261414288Y-185504007D01*
X261110287Y-185546007D01*
X260953288Y-185606007D01*
X260923287Y-185701007D01*
X260969287Y-185800007D01*
X261071287Y-185885007D01*
X261262287Y-185920007D01*
X261517287Y-185918007D01*
X261979288Y-185967007D01*
X262361287Y-186144007D01*
X262656287Y-186419007D01*
X262855287Y-186767007D01*
X262948288Y-187159007D01*
X262927287Y-187569007D01*
X262784287Y-187969007D01*
X262509287Y-188331007D01*
X262340288Y-188474007D01*
X262069287Y-188601007D01*
X261704287Y-188673007D01*
X261662288Y-188676007D01*
X261181288Y-188636007D01*
X260774287Y-188456007D01*
X260459287Y-188156007D01*
X260256287Y-187755007D01*
X260181288Y-187274007D01*
X260182287Y-187252007D01*
X261430287Y-187252007D01*
X261450288Y-187378007D01*
X261539288Y-187431007D01*
X261682287Y-187394007D01*
X261707287Y-187375007D01*
X261713287Y-187277007D01*
X261632287Y-187172007D01*
X261525288Y-187132007D01*
X261501288Y-187140007D01*
X261430287Y-187252007D01*
X260182287Y-187252007D01*
X260190287Y-187080007D01*
X260205288Y-186765007D01*
X260172287Y-186578007D01*
X260117287Y-186503007D01*
X259994287Y-186476007D01*
X259891287Y-186597007D01*
X259817287Y-186845007D01*
X259780287Y-187201007D01*
X259778287Y-187310007D01*
X258206287Y-187310007D01*
X258208287Y-187258007D01*
X258244287Y-186845007D01*
X258340288Y-186384007D01*
X258428287Y-186099007D01*
X260180287Y-186099007D01*
X260203288Y-186234007D01*
X260244287Y-186292007D01*
X260394287Y-186407007D01*
X260515288Y-186363007D01*
X260530287Y-186341007D01*
X260509287Y-186237007D01*
X260416287Y-186124007D01*
X260266287Y-186048007D01*
X260180287Y-186099007D01*
X258428287Y-186099007D01*
X258476287Y-185948007D01*
X258634287Y-185607007D01*
X258639287Y-185598007D01*
X258745287Y-185404007D01*
X258760287Y-185262007D01*
X258688288Y-185088007D01*
X258678287Y-185069007D01*
X258596287Y-184806007D01*
X258552287Y-184439007D01*
X258547287Y-184260007D01*
X258539288Y-184036007D01*
X258717288Y-184036007D01*
X258735287Y-184273007D01*
X258782288Y-184545007D01*
X258844287Y-184802007D01*
X258911287Y-184990007D01*
X258966287Y-185060007D01*
X259060287Y-185004007D01*
X259202287Y-184870007D01*
X259379287Y-184679007D01*
X259048287Y-184222007D01*
X258717288Y-183764007D01*
X258717288Y-184036007D01*
X258539288Y-184036007D01*
X258536287Y-183979007D01*
X258507287Y-183779007D01*
X258468287Y-183706007D01*
X258380287Y-183636007D01*
X258342288Y-183557007D01*
X258237287Y-183445007D01*
X258003288Y-183409007D01*
X257998288Y-183409007D01*
X257787288Y-183417007D01*
X257708287Y-183469007D01*
X257734288Y-183610007D01*
X257784287Y-183745007D01*
X257810287Y-183845007D01*
X257816288Y-183978007D01*
X257797287Y-184166007D01*
X257752287Y-184429007D01*
X257674288Y-184789007D01*
X257562287Y-185268007D01*
X257411287Y-185886007D01*
X257388288Y-185978007D01*
X257204287Y-186703007D01*
X257051288Y-187265007D01*
X256928287Y-187667007D01*
X256834287Y-187914007D01*
X256769287Y-188008007D01*
X256610287Y-188115007D01*
X256543287Y-188187007D01*
X256435287Y-188268007D01*
X256380287Y-188255007D01*
X256308287Y-188277007D01*
X256219287Y-188419007D01*
X256210288Y-188439007D01*
X256061288Y-188668007D01*
X255870287Y-188843007D01*
X255803287Y-188880007D01*
X255714287Y-188911007D01*
X255589287Y-188937007D01*
X255412287Y-188958007D01*
X255167287Y-188975007D01*
X254838287Y-188990007D01*
X254411287Y-189002007D01*
X253870287Y-189013007D01*
X253198287Y-189023007D01*
X252382287Y-189034007D01*
X251862287Y-189040007D01*
X248091287Y-189082007D01*
X247720287Y-189484007D01*
X247187287Y-189942007D01*
X246568287Y-190256007D01*
X245873287Y-190421007D01*
X245623287Y-190442007D01*
X245170287Y-190443007D01*
X244769287Y-190405007D01*
X244577287Y-190363007D01*
X243906287Y-190083007D01*
X243324287Y-189666007D01*
X242847287Y-189134007D01*
X242496287Y-188504007D01*
X242338287Y-188033007D01*
X242264287Y-187792007D01*
X242218287Y-187727007D01*
X243660287Y-187727007D01*
X243688287Y-187806007D01*
X243797287Y-187973007D01*
X243897287Y-188104007D01*
X244084288Y-188315007D01*
X244251288Y-188420007D01*
X244465288Y-188456007D01*
X244521287Y-188458007D01*
X245774287Y-188496007D01*
X246984287Y-188527007D01*
X248138287Y-188549007D01*
X249225287Y-188564007D01*
X250232287Y-188570007D01*
X251145287Y-188570007D01*
X251953288Y-188561007D01*
X252644287Y-188544007D01*
X253205287Y-188520007D01*
X253622287Y-188489007D01*
X253885287Y-188449007D01*
X253907287Y-188444007D01*
X254058287Y-188379007D01*
X254243287Y-188251007D01*
X254480287Y-188046007D01*
X254788287Y-187745007D01*
X255185288Y-187335007D01*
X255262287Y-187254007D01*
X255703288Y-186779007D01*
X256033287Y-186401007D01*
X256264287Y-186102007D01*
X256409287Y-185863007D01*
X256479288Y-185666007D01*
X256487287Y-185492007D01*
X256471287Y-185406007D01*
X256433287Y-185280007D01*
X256392287Y-185268007D01*
X256321287Y-185385007D01*
X256252287Y-185526007D01*
X256126288Y-185717007D01*
X255904287Y-185991007D01*
X255611287Y-186321007D01*
X255273287Y-186680007D01*
X254917287Y-187042007D01*
X254569287Y-187381007D01*
X254253287Y-187669007D01*
X253997287Y-187882007D01*
X253830287Y-187990007D01*
X253610287Y-188044007D01*
X253261287Y-188083007D01*
X252823287Y-188106007D01*
X252337287Y-188114007D01*
X251841287Y-188106007D01*
X251377287Y-188084007D01*
X250984287Y-188046007D01*
X250701287Y-187994007D01*
X250667287Y-187984007D01*
X250519287Y-187948007D01*
X250292287Y-187917007D01*
X249972287Y-187888007D01*
X249545287Y-187862007D01*
X248997287Y-187837007D01*
X248315287Y-187813007D01*
X247484287Y-187788007D01*
X246994287Y-187775007D01*
X246264287Y-187758007D01*
X245588287Y-187743007D01*
X244985287Y-187732007D01*
X244473287Y-187724007D01*
X244070287Y-187720007D01*
X243796287Y-187720007D01*
X243667287Y-187725007D01*
X243660287Y-187727007D01*
X242218287Y-187727007D01*
X242177287Y-187671007D01*
X242036287Y-187623007D01*
X241981287Y-187617007D01*
X241725287Y-187522007D01*
X241617287Y-187394007D01*
X241550287Y-187285007D01*
X241468287Y-187240007D01*
X241323287Y-187251007D01*
X241067287Y-187314007D01*
X241045287Y-187319007D01*
X240677287Y-187392007D01*
X240441288Y-187386007D01*
X240346287Y-187302007D01*
X240344287Y-187283007D01*
X240398287Y-187192007D01*
X240542287Y-187017007D01*
X240745287Y-186793007D01*
X240767287Y-186770007D01*
X240965288Y-186542007D01*
X241374287Y-186542007D01*
X241401287Y-186622007D01*
X241506287Y-186795007D01*
X241618287Y-186959007D01*
X241895287Y-187344007D01*
X244781287Y-187367007D01*
X245466287Y-187373007D01*
X246097287Y-187380007D01*
X246655287Y-187387007D01*
X247120287Y-187394007D01*
X247471288Y-187401007D01*
X247689287Y-187407007D01*
X247752287Y-187410007D01*
X247863287Y-187412007D01*
X248110287Y-187401007D01*
X248460287Y-187380007D01*
X248777287Y-187358007D01*
X251656287Y-187358007D01*
X251656287Y-187648007D01*
X251748287Y-187822007D01*
X251867287Y-187852007D01*
X251965288Y-187747007D01*
X251995287Y-187593007D01*
X252079287Y-187308007D01*
X252230287Y-187106007D01*
X252373287Y-186982007D01*
X252528287Y-186914007D01*
X252751287Y-186886007D01*
X253025287Y-186881007D01*
X253403287Y-186898007D01*
X253685288Y-186961007D01*
X253922287Y-187074007D01*
X254164287Y-187195007D01*
X254297287Y-187210007D01*
X254310288Y-187121007D01*
X254261287Y-187028007D01*
X254036287Y-186809007D01*
X253695287Y-186642007D01*
X253289287Y-186537007D01*
X252867287Y-186506007D01*
X252478287Y-186562007D01*
X252393287Y-186590007D01*
X252048288Y-186784007D01*
X251793287Y-187052007D01*
X251656287Y-187358007D01*
X248777287Y-187358007D01*
X248878287Y-187351007D01*
X249014287Y-187341007D01*
X249622287Y-187285007D01*
X250069287Y-187221007D01*
X250366287Y-187148007D01*
X250458287Y-187109007D01*
X250716287Y-186957007D01*
X251031287Y-186755007D01*
X251371287Y-186524007D01*
X251709288Y-186284007D01*
X252015287Y-186057007D01*
X252260287Y-185865007D01*
X252413287Y-185727007D01*
X252451287Y-185672007D01*
X252421287Y-185567007D01*
X252320287Y-185539007D01*
X252134287Y-185592007D01*
X251851287Y-185732007D01*
X251456287Y-185964007D01*
X251085287Y-186198007D01*
X250561287Y-186524007D01*
X250161287Y-186750007D01*
X249875287Y-186881007D01*
X249700287Y-186922007D01*
X249519287Y-186912007D01*
X249212287Y-186885007D01*
X248822288Y-186845007D01*
X248391287Y-186797007D01*
X248379287Y-186796007D01*
X248110287Y-186771007D01*
X247719287Y-186744007D01*
X247228287Y-186715007D01*
X246658287Y-186686007D01*
X246031287Y-186657007D01*
X245369287Y-186629007D01*
X244694287Y-186603007D01*
X244026287Y-186580007D01*
X243388288Y-186559007D01*
X242801287Y-186543007D01*
X242287287Y-186532007D01*
X241867287Y-186526007D01*
X241563287Y-186527007D01*
X241398287Y-186536007D01*
X241374287Y-186542007D01*
X240965288Y-186542007D01*
X241020287Y-186480007D01*
X241104287Y-186348007D01*
X244027287Y-186348007D01*
X244408287Y-186305007D01*
X244746287Y-186250007D01*
X245091287Y-186169007D01*
X245146287Y-186153007D01*
X245380287Y-186094007D01*
X245568287Y-186097007D01*
X245791287Y-186170007D01*
X245908287Y-186220007D01*
X246276287Y-186344007D01*
X246612287Y-186361007D01*
X246772287Y-186337007D01*
X246761287Y-186282007D01*
X246654287Y-186161007D01*
X246489288Y-186010007D01*
X246306287Y-185863007D01*
X246144287Y-185758007D01*
X245907287Y-185680007D01*
X245592287Y-185633007D01*
X245424287Y-185625007D01*
X244928287Y-185684007D01*
X244522287Y-185871007D01*
X244239288Y-186120007D01*
X244027287Y-186348007D01*
X241104287Y-186348007D01*
X241162287Y-186258007D01*
X241188287Y-186119007D01*
X241106287Y-186076007D01*
X240989288Y-186131007D01*
X240850287Y-186247007D01*
X240691288Y-186362007D01*
X240541287Y-186344007D01*
X240517287Y-186332007D01*
X240339287Y-186150007D01*
X240277287Y-185891007D01*
X240302287Y-185738007D01*
X240367287Y-185632007D01*
X240507287Y-185581007D01*
X240764287Y-185568007D01*
X241054288Y-185546007D01*
X241201287Y-185475007D01*
X241221287Y-185441007D01*
X241207287Y-185335007D01*
X241120287Y-185314007D01*
X240907287Y-185242007D01*
X240786287Y-185042007D01*
X240767287Y-184887007D01*
X240838287Y-184624007D01*
X241048288Y-184455007D01*
X241399287Y-184381007D01*
X241494287Y-184377007D01*
X241768287Y-184361007D01*
X241982287Y-184329007D01*
X242110287Y-184290007D01*
X242131287Y-184252007D01*
X242020287Y-184226007D01*
X241889287Y-184219007D01*
X241529287Y-184214007D01*
X241529287Y-184016007D01*
X243571287Y-184016007D01*
X243686287Y-184012007D01*
X243752287Y-183993007D01*
X243908287Y-183969007D01*
X244193287Y-183949007D01*
X244567287Y-183935007D01*
X244990287Y-183929007D01*
X245001288Y-183929007D01*
X245459288Y-183932007D01*
X245790287Y-183945007D01*
X246038287Y-183974007D01*
X246243287Y-184026007D01*
X246448287Y-184107007D01*
X246528287Y-184143007D01*
X246996287Y-184400007D01*
X247403287Y-184727007D01*
X247793287Y-185163007D01*
X247955287Y-185377007D01*
X248317287Y-185874007D01*
X249114288Y-185463007D01*
X249441288Y-185287007D01*
X249703288Y-185132007D01*
X249869287Y-185019007D01*
X249911287Y-184971007D01*
X249852288Y-184897007D01*
X249673288Y-184934007D01*
X249473287Y-185025007D01*
X249120287Y-185124007D01*
X248730287Y-185072007D01*
X248297287Y-184866007D01*
X247815287Y-184504007D01*
X247578288Y-184287007D01*
X247446287Y-184172007D01*
X252298288Y-184172007D01*
X252334288Y-184246007D01*
X252451287Y-184429007D01*
X252630287Y-184697007D01*
X252854287Y-185020007D01*
X252869287Y-185041007D01*
X253465288Y-185887007D01*
X253840288Y-185752007D01*
X254214287Y-185617007D01*
X254141287Y-185592007D01*
X254864288Y-185592007D01*
X255542287Y-185880007D01*
X255673288Y-185661007D01*
X255774287Y-185485007D01*
X255927287Y-185211007D01*
X256105287Y-184889007D01*
X256161287Y-184787007D01*
X256518287Y-184132007D01*
X256210288Y-184004007D01*
X255891287Y-183902007D01*
X255631287Y-183881007D01*
X255471288Y-183941007D01*
X255456287Y-183960007D01*
X255478287Y-184053007D01*
X255557287Y-184100007D01*
X255843287Y-184263007D01*
X255983288Y-184479007D01*
X255984287Y-184728007D01*
X255851287Y-184987007D01*
X255590288Y-185234007D01*
X255207287Y-185447007D01*
X255203288Y-185448007D01*
X254864288Y-185592007D01*
X254141287Y-185592007D01*
X253936287Y-185522007D01*
X253577287Y-185366007D01*
X253273287Y-185176007D01*
X253063287Y-184979007D01*
X252994287Y-184850007D01*
X252967287Y-184536007D01*
X253257287Y-184536007D01*
X253275287Y-184703007D01*
X253424287Y-184883007D01*
X253669287Y-185055007D01*
X253975287Y-185197007D01*
X254307287Y-185288007D01*
X254530287Y-185310007D01*
X254751287Y-185275007D01*
X255040287Y-185179007D01*
X255229287Y-185095007D01*
X255491287Y-184949007D01*
X255626287Y-184823007D01*
X255668287Y-184687007D01*
X255669287Y-184669007D01*
X255615287Y-184503007D01*
X255444287Y-184379007D01*
X255136287Y-184291007D01*
X254759287Y-184237007D01*
X254424287Y-184227007D01*
X254064287Y-184258007D01*
X253725287Y-184319007D01*
X253449287Y-184402007D01*
X253282287Y-184499007D01*
X253257287Y-184536007D01*
X252967287Y-184536007D01*
X252965288Y-184515007D01*
X253073287Y-184272007D01*
X253275287Y-184129007D01*
X253471288Y-184005007D01*
X253506287Y-183899007D01*
X253380287Y-183825007D01*
X253277287Y-183806007D01*
X253097287Y-183829007D01*
X252837287Y-183908007D01*
X252565287Y-184018007D01*
X252349287Y-184134007D01*
X252298288Y-184172007D01*
X247446287Y-184172007D01*
X247245287Y-183999007D01*
X246922287Y-183775007D01*
X246698287Y-183664007D01*
X246044287Y-183512007D01*
X245324287Y-183477007D01*
X244592287Y-183560007D01*
X243901287Y-183758007D01*
X243879287Y-183767007D01*
X243683287Y-183866007D01*
X243575287Y-183958007D01*
X243571287Y-184016007D01*
X241529287Y-184016007D01*
X241529287Y-182351007D01*
X242122287Y-182351007D01*
X242122287Y-183790007D01*
X242375287Y-183790007D01*
X242636287Y-183724007D01*
X242956287Y-183538007D01*
X243024287Y-183488007D01*
X243337287Y-183270007D01*
X243684287Y-183058007D01*
X243839287Y-182974007D01*
X244082287Y-182836007D01*
X244182287Y-182736007D01*
X244164287Y-182666007D01*
X244075287Y-182469007D01*
X244142287Y-182220007D01*
X244245287Y-182066007D01*
X244338287Y-181960007D01*
X244442287Y-181895007D01*
X244596288Y-181860007D01*
X244842287Y-181846007D01*
X245197288Y-181843007D01*
X245673288Y-181855007D01*
X246206287Y-181886007D01*
X246689287Y-181929007D01*
X246736287Y-181935007D01*
X247191288Y-182004007D01*
X247503287Y-182096007D01*
X247697288Y-182227007D01*
X247800287Y-182411007D01*
X247835287Y-182611007D01*
X247872287Y-182792007D01*
X247977288Y-182933007D01*
X248189287Y-183080007D01*
X248261287Y-183121007D01*
X248826287Y-183356007D01*
X249458287Y-183467007D01*
X249752287Y-183462007D01*
X251779287Y-183462007D01*
X251782287Y-183464007D01*
X251904287Y-183489007D01*
X252176287Y-183506007D01*
X252579287Y-183517007D01*
X253096288Y-183521007D01*
X253707287Y-183517007D01*
X253891287Y-183514007D01*
X254546287Y-183502007D01*
X255055287Y-183488007D01*
X255439287Y-183470007D01*
X255721288Y-183447007D01*
X255923288Y-183416007D01*
X256067287Y-183377007D01*
X256154287Y-183339007D01*
X256426288Y-183119007D01*
X256614288Y-182819007D01*
X256679288Y-182503007D01*
X256661287Y-182416007D01*
X256611287Y-182465007D01*
X256515288Y-182662007D01*
X256515288Y-182663007D01*
X256330288Y-182957007D01*
X256102288Y-183150007D01*
X255834288Y-183241007D01*
X255426287Y-183319007D01*
X254910287Y-183379007D01*
X254315287Y-183420007D01*
X253671287Y-183438007D01*
X253008287Y-183432007D01*
X252883287Y-183428007D01*
X252376287Y-183415007D01*
X252019287Y-183416007D01*
X251818287Y-183431007D01*
X251779287Y-183462007D01*
X249752287Y-183462007D01*
X250106287Y-183456007D01*
X250721288Y-183319007D01*
X251025287Y-183191007D01*
X251241287Y-183097007D01*
X251396287Y-183060007D01*
X251427287Y-183065007D01*
X251521287Y-183036007D01*
X251708287Y-182921007D01*
X251953288Y-182742007D01*
X252018287Y-182691007D01*
X252567287Y-182290007D01*
X253146287Y-181938007D01*
X253726287Y-181648007D01*
X254277287Y-181432007D01*
X254768287Y-181304007D01*
X255170287Y-181276007D01*
X255222287Y-181282007D01*
X255778287Y-181437007D01*
X256261287Y-181732007D01*
X256347288Y-181807007D01*
X256552287Y-181944007D01*
X256692287Y-181941007D01*
X256742287Y-181811007D01*
X256690287Y-181602007D01*
X256628288Y-181359007D01*
X256677287Y-181220007D01*
X256830288Y-181201007D01*
X256861287Y-181210007D01*
X256996288Y-181222007D01*
X257010287Y-181153007D01*
X256909287Y-181034007D01*
X256812287Y-180962007D01*
X256654287Y-180798007D01*
X256597288Y-180634007D01*
X256542287Y-180431007D01*
X256505287Y-180370007D01*
X257167287Y-180370007D01*
X257216287Y-180465007D01*
X257277288Y-180552007D01*
X257429288Y-180747007D01*
X257506287Y-180821007D01*
X257502287Y-180777007D01*
X257792287Y-180777007D01*
X257807287Y-180887007D01*
X257836287Y-180889007D01*
X257857287Y-180775007D01*
X257843287Y-180726007D01*
X257805287Y-180694007D01*
X257792287Y-180777007D01*
X257502287Y-180777007D01*
X257501288Y-180767007D01*
X257454287Y-180672007D01*
X257317287Y-180487007D01*
X257223287Y-180397007D01*
X257167287Y-180370007D01*
X256505287Y-180370007D01*
X256433287Y-180252007D01*
X256310287Y-180128007D01*
X256190287Y-180106007D01*
X255997287Y-180172007D01*
X255991287Y-180175007D01*
X255708287Y-180245007D01*
X255406287Y-180255007D01*
X255393287Y-180253007D01*
X255035287Y-180277007D01*
X254861287Y-180355007D01*
X254663287Y-180445007D01*
X254544287Y-180421007D01*
X254533287Y-180293007D01*
X254543287Y-180260007D01*
X254554288Y-180173007D01*
X254467287Y-180155007D01*
X254307287Y-180181007D01*
X253908287Y-180257007D01*
X253644287Y-180296007D01*
X253484287Y-180297007D01*
X253396287Y-180262007D01*
X253351287Y-180190007D01*
X253344287Y-180009007D01*
X253486287Y-179877007D01*
X253579287Y-179849007D01*
X257009287Y-179849007D01*
X257115287Y-179953007D01*
X257213287Y-180024007D01*
X257429288Y-180194007D01*
X257587288Y-180361007D01*
X257617287Y-180405007D01*
X257717288Y-180551007D01*
X257775288Y-180548007D01*
X257785287Y-180477007D01*
X257722288Y-180351007D01*
X257567287Y-180178007D01*
X257368287Y-180000007D01*
X257174288Y-179863007D01*
X257040287Y-179811007D01*
X257009287Y-179849007D01*
X253579287Y-179849007D01*
X253785287Y-179787007D01*
X253897287Y-179769007D01*
X256769287Y-179769007D01*
X256812287Y-179811007D01*
X256854288Y-179769007D01*
X256812287Y-179726007D01*
X256769287Y-179769007D01*
X253897287Y-179769007D01*
X253916287Y-179766007D01*
X254273287Y-179691007D01*
X254643287Y-179573007D01*
X254757287Y-179526007D01*
X254996287Y-179406007D01*
X255115287Y-179297007D01*
X255156287Y-179154007D01*
X255159287Y-179075007D01*
X255130287Y-178842007D01*
X255049287Y-178751007D01*
X254928287Y-178813007D01*
X254906287Y-178838007D01*
X254741287Y-178946007D01*
X254646287Y-178964007D01*
X254510287Y-178893007D01*
X254437287Y-178711007D01*
X254423288Y-178461007D01*
X254468287Y-178189007D01*
X254568287Y-177939007D01*
X254705287Y-177771007D01*
X254797287Y-177733007D01*
X254871287Y-177823007D01*
D15*
%TO.P,TP11,1,1*%
%TO.N,+5V*%
X146000000Y-100250000D03*
%TD*%
D16*
%TO.P,D3,1,Anode_{1}*%
%TO.N,+3V3*%
X95562500Y-114050000D03*
%TO.P,D3,2,Anode_{2}*%
%TO.N,Net-(BT1-Pad1)*%
X95562500Y-115950000D03*
%TO.P,D3,3,Cathode*%
%TO.N,/I2C extras/RTC_power*%
X97437500Y-115000000D03*
%TD*%
D17*
%TO.P,D8,1*%
%TO.N,Net-(D8-Pad1)*%
X164500000Y-80525000D03*
%TO.P,D8,2*%
%TO.N,/GPIO/SHIFT_IND*%
X164500000Y-78475000D03*
%TD*%
D18*
%TO.P,C11,1*%
%TO.N,Net-(C11-Pad1)*%
X140293700Y-87906300D03*
%TO.P,C11,2*%
%TO.N,GND*%
X138393700Y-87906300D03*
%TD*%
D19*
%TO.P,R4,1*%
%TO.N,/Power Supply/comp*%
X131745300Y-91614700D03*
%TO.P,R4,2*%
%TO.N,Net-(C20-Pad1)*%
X129920300Y-91614700D03*
%TD*%
D15*
%TO.P,TP17,1,1*%
%TO.N,/USB.-*%
X162250000Y-109750000D03*
%TD*%
D18*
%TO.P,C15,1*%
%TO.N,/CAN Peripherals/OSC1*%
X85633600Y-82116400D03*
%TO.P,C15,2*%
%TO.N,GND*%
X83733600Y-82116400D03*
%TD*%
D20*
%TO.P,D7,1*%
%TO.N,Net-(D7-Pad1)*%
X150269600Y-106790000D03*
%TO.P,D7,2*%
%TO.N,/MicroController/usb_indicator*%
X150269600Y-108840000D03*
%TD*%
D21*
%TO.P,R6,1*%
%TO.N,/CAN Peripherals/~{reset}*%
X95201100Y-97798400D03*
%TO.P,R6,2*%
%TO.N,+3V3*%
X97026100Y-97798400D03*
%TD*%
D15*
%TO.P,TP4,1,1*%
%TO.N,/CAN Peripherals/CAN_{RxLOW}*%
X105250000Y-74500000D03*
%TD*%
D22*
%TO.P,C1,1*%
%TO.N,+3V3*%
X141000000Y-128800000D03*
%TO.P,C1,2*%
%TO.N,GND*%
X141000000Y-123200000D03*
%TD*%
D23*
%TO.P,JP4,1,A*%
%TO.N,GND*%
X130286300Y-89328700D03*
D24*
%TO.P,JP4,2,B*%
%TO.N,/Power Supply/comp*%
X131586300Y-89328700D03*
%TD*%
D25*
%TO.P,J6,1,Pin_1*%
%TO.N,/BUS.PWR_{IN}*%
X121750000Y-45250000D03*
X121750000Y-52870000D03*
D26*
%TO.P,J6,2,Pin_2*%
%TO.N,/Input_{1}*%
X116670000Y-52870000D03*
X116670000Y-45250000D03*
%TO.P,J6,3,Pin_3*%
%TO.N,/Input_{2}*%
X111590000Y-52870000D03*
X111590000Y-45250000D03*
%TO.P,J6,4,Pin_4*%
%TO.N,/Input_{3}*%
X106510000Y-45250000D03*
X106510000Y-52870000D03*
%TO.P,J6,5,Pin_5*%
%TO.N,/Input_{4}*%
X101430000Y-52870000D03*
X101430000Y-45250000D03*
%TO.P,J6,6,Pin_6*%
%TO.N,GND*%
X96350000Y-52870000D03*
X96350000Y-45250000D03*
%TO.P,J6,7,Pin_7*%
%TO.N,/CAN_{L}*%
X91270000Y-45250000D03*
X91270000Y-52870000D03*
%TO.P,J6,8,Pin_8*%
%TO.N,/CAN_{H}*%
X86190000Y-52870000D03*
X86190000Y-45250000D03*
%TD*%
D27*
%TO.P,Q2,1,G*%
%TO.N,+3V3*%
X115312000Y-100294000D03*
%TO.P,Q2,2,S*%
%TO.N,/SCL_{3.3V}*%
X117212000Y-100294000D03*
%TO.P,Q2,3,D*%
%TO.N,/SCL_{5V}*%
X116262000Y-98419000D03*
%TD*%
D17*
%TO.P,D13,1*%
%TO.N,Net-(D13-Pad1)*%
X134575000Y-67695000D03*
%TO.P,D13,2*%
%TO.N,/GPIO/OUT_IND*%
X134575000Y-65645000D03*
%TD*%
D15*
%TO.P,TP7,1,1*%
%TO.N,/CAN_{H}*%
X89200000Y-62400000D03*
%TD*%
%TO.P,TP12,1,1*%
%TO.N,/Power Supply/feedback*%
X127500000Y-87500000D03*
%TD*%
D28*
%TO.P,R1,1*%
%TO.N,+3V3*%
X128905000Y-125587500D03*
%TO.P,R1,2*%
%TO.N,/MicroController/~esp_reset*%
X128905000Y-127412500D03*
%TD*%
D29*
%TO.P,JP8,1,A*%
%TO.N,GND*%
X94111250Y-77207500D03*
D30*
%TO.P,JP8,2,B*%
%TO.N,/CAN Peripherals/slew_control*%
X94111250Y-75907500D03*
%TD*%
D15*
%TO.P,TP14,1,1*%
%TO.N,/SDA_{3.3V}*%
X114750000Y-108500000D03*
%TD*%
D28*
%TO.P,R15,1*%
%TO.N,/Input_{2}*%
X113616400Y-60104400D03*
%TO.P,R15,2*%
%TO.N,/GPIO/In_{2}*%
X113616400Y-61929400D03*
%TD*%
D23*
%TO.P,JP6,1,A*%
%TO.N,/CAN_{H}*%
X94281000Y-66574800D03*
D24*
%TO.P,JP6,2,B*%
%TO.N,Net-(JP10-Pad1)*%
X95581000Y-66574800D03*
%TD*%
D15*
%TO.P,TP3,1,1*%
%TO.N,/CAN Peripherals/CAN_{Tx}*%
X100250000Y-76000000D03*
%TD*%
D18*
%TO.P,C10,1*%
%TO.N,+3V3*%
X156487999Y-81864200D03*
%TO.P,C10,2*%
%TO.N,GND*%
X154587999Y-81864200D03*
%TD*%
D31*
%TO.P,JP5,1,A*%
%TO.N,+5V*%
X113771000Y-81637000D03*
D32*
%TO.P,JP5,2,C*%
%TO.N,Net-(JP5-Pad2)*%
X115071000Y-81637000D03*
D33*
%TO.P,JP5,3,B*%
%TO.N,GND*%
X116371000Y-81637000D03*
%TD*%
D34*
%TO.P,J2,1,VBUS*%
%TO.N,/USB.PWR*%
X165950000Y-108800000D03*
%TO.P,J2,2,D-*%
%TO.N,/USB.-*%
X165950000Y-108150000D03*
%TO.P,J2,3,D+*%
%TO.N,/USB.+*%
X165950000Y-107500000D03*
%TO.P,J2,4,ID*%
%TO.N,unconnected-(J2-Pad4)*%
X165950000Y-106850000D03*
%TO.P,J2,5,GND*%
%TO.N,GND*%
X165950000Y-106200000D03*
D35*
%TO.P,J2,6,Shield*%
X168800000Y-111250000D03*
D36*
X168800000Y-106350000D03*
X168800000Y-108650000D03*
D35*
X168800000Y-103750000D03*
%TD*%
D37*
%TO.P,D10,1,K*%
%TO.N,+12V*%
X147200000Y-88000000D03*
%TO.P,D10,2,A*%
%TO.N,/Jack_PWR*%
X150000000Y-88000000D03*
%TD*%
D28*
%TO.P,R14,1*%
%TO.N,/Input_{1}*%
X115750000Y-60106300D03*
%TO.P,R14,2*%
%TO.N,/GPIO/In_{1}*%
X115750000Y-61931300D03*
%TD*%
D38*
%TO.P,C6,1*%
%TO.N,+5V*%
X135324500Y-99488700D03*
%TO.P,C6,2*%
%TO.N,GND*%
X140924500Y-99488700D03*
%TD*%
D15*
%TO.P,TP10,1,1*%
%TO.N,+3V3*%
X150000000Y-100250000D03*
%TD*%
%TO.P,TP16,1,1*%
%TO.N,/USB.+*%
X162250000Y-106000000D03*
%TD*%
D27*
%TO.P,Q3,1,G*%
%TO.N,+3V3*%
X111629000Y-100294000D03*
%TO.P,Q3,2,S*%
%TO.N,/SDA_{3.3V}*%
X113529000Y-100294000D03*
%TO.P,Q3,3,D*%
%TO.N,/SDA_{5V}*%
X112579000Y-98419000D03*
%TD*%
D39*
%TO.P,C9,1*%
%TO.N,+3V3*%
X96875600Y-95497200D03*
%TO.P,C9,2*%
%TO.N,GND*%
X96875600Y-93597200D03*
%TD*%
D40*
%TO.P,Q6,1,S1*%
%TO.N,+12V*%
X159779799Y-65177200D03*
%TO.P,Q6,2,G1*%
%TO.N,/GPIO/OUT_CTL_{2}*%
X161049799Y-65177200D03*
%TO.P,Q6,3,S2*%
%TO.N,+12V*%
X162319799Y-65177200D03*
%TO.P,Q6,4,G2*%
%TO.N,/GPIO/OUT_CTL_{1}*%
X163589799Y-65177200D03*
%TO.P,Q6,5,D2*%
%TO.N,/Output_{1}*%
X163589799Y-60027200D03*
%TO.P,Q6,6,D2*%
X162319799Y-60027200D03*
%TO.P,Q6,7,D1*%
%TO.N,/Output_{2}*%
X161049799Y-60027200D03*
%TO.P,Q6,8,D1*%
X159779799Y-60027200D03*
%TD*%
D41*
%TO.P,J3,1*%
%TO.N,/Jack_PWR*%
X156000000Y-91381500D03*
D42*
%TO.P,J3,2*%
%TO.N,GND*%
X162000000Y-91381500D03*
D43*
%TO.P,J3,3*%
%TO.N,N/C*%
X159000000Y-86681500D03*
%TD*%
D37*
%TO.P,D9,1,K*%
%TO.N,+12V*%
X147200000Y-85500000D03*
%TO.P,D9,2,A*%
%TO.N,/Jack_PWR*%
X150000000Y-85500000D03*
%TD*%
D44*
%TO.P,Q1,1,G*%
%TO.N,/MicroController/esp_reset*%
X133398500Y-127450000D03*
%TO.P,Q1,2,S*%
%TO.N,GND*%
X133398500Y-125550000D03*
%TO.P,Q1,3,D*%
%TO.N,/MicroController/~esp_reset*%
X131523500Y-126500000D03*
%TD*%
D45*
%TO.P,JP1,1,A*%
%TO.N,/MicroController/bootmode_select*%
X135000000Y-115500000D03*
D46*
%TO.P,JP1,2,B*%
%TO.N,Net-(JP1-Pad2)*%
X135000000Y-118040000D03*
%TD*%
D47*
%TO.P,R5,1*%
%TO.N,+3V3*%
X113341000Y-103825000D03*
%TO.P,R5,2*%
%TO.N,/SDA_{3.3V}*%
X113341000Y-102000000D03*
%TD*%
D28*
%TO.P,R9,1*%
%TO.N,/Power Supply/Vout*%
X132714300Y-85241200D03*
%TO.P,R9,2*%
%TO.N,/Power Supply/feedback*%
X132714300Y-87066200D03*
%TD*%
D40*
%TO.P,Q4,1,S1*%
%TO.N,+12V*%
X147079799Y-65077200D03*
%TO.P,Q4,2,G1*%
%TO.N,/GPIO/OUT_CTL_{6}*%
X148349799Y-65077200D03*
%TO.P,Q4,3,S2*%
%TO.N,+12V*%
X149619799Y-65077200D03*
%TO.P,Q4,4,G2*%
%TO.N,/GPIO/OUT_CTL_{5}*%
X150889799Y-65077200D03*
%TO.P,Q4,5,D2*%
%TO.N,/Output_{5}*%
X150889799Y-59927200D03*
%TO.P,Q4,6,D2*%
X149619799Y-59927200D03*
%TO.P,Q4,7,D1*%
%TO.N,/Output_{6}*%
X148349799Y-59927200D03*
%TO.P,Q4,8,D1*%
X147079799Y-59927200D03*
%TD*%
D19*
%TO.P,R11,1*%
%TO.N,/CAN Peripherals/CAN_{RxLOW}*%
X103505000Y-71755000D03*
%TO.P,R11,2*%
%TO.N,GND*%
X101680000Y-71755000D03*
%TD*%
D48*
%TO.P,U6,1,TXCAN*%
%TO.N,/CAN Peripherals/CAN_{Tx}SPI*%
X94742000Y-85696000D03*
%TO.P,U6,2,RXCAN*%
%TO.N,/CAN Peripherals/CAN_{Rx}SPI*%
X93472000Y-85696000D03*
%TO.P,U6,3,CLKOUT/SOF*%
%TO.N,unconnected-(U6-Pad3)*%
X92202000Y-85696000D03*
%TO.P,U6,4,~{TX0RTS}*%
%TO.N,unconnected-(U6-Pad4)*%
X90932000Y-85696000D03*
%TO.P,U6,5,~{TX1RTS}*%
%TO.N,unconnected-(U6-Pad5)*%
X89662000Y-85696000D03*
%TO.P,U6,6,~{TX2RTS}*%
%TO.N,unconnected-(U6-Pad6)*%
X88392000Y-85696000D03*
%TO.P,U6,7,OSC2*%
%TO.N,/CAN Peripherals/OSC2*%
X87122000Y-85696000D03*
%TO.P,U6,8,OSC1*%
%TO.N,/CAN Peripherals/OSC1*%
X85852000Y-85696000D03*
%TO.P,U6,9,Vss*%
%TO.N,GND*%
X84582000Y-85696000D03*
%TO.P,U6,10,~{RX1BF}*%
%TO.N,unconnected-(U6-Pad10)*%
X84582000Y-94996000D03*
%TO.P,U6,11,~{RX0BF}*%
%TO.N,unconnected-(U6-Pad11)*%
X85852000Y-94996000D03*
%TO.P,U6,12,~{INT}*%
%TO.N,/~{INT_{CAN}}*%
X87122000Y-94996000D03*
%TO.P,U6,13,SCK*%
%TO.N,/SPI.CLK*%
X88392000Y-94996000D03*
%TO.P,U6,14,SI*%
%TO.N,/SPI.MOSI*%
X89662000Y-94996000D03*
%TO.P,U6,15,SO*%
%TO.N,/SPI.MISO*%
X90932000Y-94996000D03*
%TO.P,U6,16,~{CS}*%
%TO.N,/SPI.~{CS_{CAN}}*%
X92202000Y-94996000D03*
%TO.P,U6,17,~{RESET}*%
%TO.N,/CAN Peripherals/~{reset}*%
X93472000Y-94996000D03*
%TO.P,U6,18,Vdd*%
%TO.N,+3V3*%
X94742000Y-94996000D03*
%TD*%
D49*
%TO.P,C14,1*%
%TO.N,+5V*%
X110499000Y-84751000D03*
%TO.P,C14,2*%
%TO.N,GND*%
X110499000Y-86651000D03*
%TD*%
D50*
%TO.P,D6,1*%
%TO.N,Net-(D6-Pad1)*%
X147581000Y-93778000D03*
%TO.P,D6,2*%
%TO.N,/Jack_PWR*%
X149631000Y-93778000D03*
%TD*%
D37*
%TO.P,D20,1,K*%
%TO.N,/Input_{4}*%
X108536400Y-59123300D03*
%TO.P,D20,2,A*%
%TO.N,/GPIO/In_{4}*%
X108536400Y-61923300D03*
%TD*%
D20*
%TO.P,D11,1*%
%TO.N,Net-(D11-Pad1)*%
X131790000Y-65725000D03*
%TO.P,D11,2*%
%TO.N,/GPIO/IND_{1}*%
X131790000Y-67775000D03*
%TD*%
D25*
%TO.P,J5,1,Pin_1*%
%TO.N,/Output_{1}*%
X166310000Y-45250000D03*
X166310000Y-52870000D03*
D26*
%TO.P,J5,2,Pin_2*%
%TO.N,/Output_{2}*%
X161230000Y-52870000D03*
X161230000Y-45250000D03*
%TO.P,J5,3,Pin_3*%
%TO.N,/Output_{3}*%
X156150000Y-45250000D03*
X156150000Y-52870000D03*
%TO.P,J5,4,Pin_4*%
%TO.N,/Output_{4}*%
X151070000Y-52870000D03*
X151070000Y-45250000D03*
%TO.P,J5,5,Pin_5*%
%TO.N,/Output_{5}*%
X145990000Y-52870000D03*
X145990000Y-45250000D03*
%TO.P,J5,6,Pin_6*%
%TO.N,/Output_{6}*%
X140910000Y-45250000D03*
X140910000Y-52870000D03*
%TO.P,J5,7,Pin_7*%
%TO.N,/Output_{7}*%
X135830000Y-45250000D03*
X135830000Y-52870000D03*
%TO.P,J5,8,Pin_8*%
%TO.N,/BUS.PWR_{OUT}*%
X130750000Y-52870000D03*
X130750000Y-45250000D03*
%TD*%
D15*
%TO.P,TP9,1,1*%
%TO.N,+12V*%
X139750000Y-81250000D03*
%TD*%
D45*
%TO.P,JP10,1,1*%
%TO.N,Net-(JP10-Pad1)*%
X97623400Y-63120400D03*
D46*
%TO.P,JP10,2,2*%
%TO.N,/CAN_{H}*%
X95083400Y-63120400D03*
%TD*%
D51*
%TO.P,U8,1,SDA*%
%TO.N,/SDA_{5V}*%
X112658000Y-89700000D03*
%TO.P,U8,2,SCL*%
%TO.N,/SCL_{5V}*%
X113928000Y-89700000D03*
%TO.P,U8,3,INT*%
%TO.N,unconnected-(U8-Pad3)*%
X115198000Y-89700000D03*
%TO.P,U8,4,GND*%
%TO.N,GND*%
X116468000Y-89700000D03*
%TO.P,U8,5,A2*%
X116468000Y-84750000D03*
%TO.P,U8,6,A1*%
%TO.N,Net-(JP5-Pad2)*%
X115198000Y-84750000D03*
%TO.P,U8,7,A0*%
%TO.N,+5V*%
X113928000Y-84750000D03*
%TO.P,U8,8,VDD*%
X112658000Y-84750000D03*
%TD*%
D49*
%TO.P,C4,1*%
%TO.N,+12V*%
X142340900Y-91934700D03*
%TO.P,C4,2*%
%TO.N,GND*%
X142340900Y-93834700D03*
%TD*%
D52*
%TO.P,U10,1,TXD*%
%TO.N,/CAN Peripherals/CAN_{Tx}*%
X99263200Y-73468400D03*
%TO.P,U10,2,Vss*%
%TO.N,GND*%
X99263200Y-72198400D03*
%TO.P,U10,3,Vdd*%
%TO.N,+5V*%
X99263200Y-70928400D03*
%TO.P,U10,4,RXD*%
%TO.N,Net-(R10-Pad2)*%
X99263200Y-69658400D03*
%TO.P,U10,5,Vref*%
%TO.N,unconnected-(U10-Pad5)*%
X94113200Y-69658400D03*
%TO.P,U10,6,CANL*%
%TO.N,/CAN_{L}*%
X94113200Y-70928400D03*
%TO.P,U10,7,CANH*%
%TO.N,/CAN_{H}*%
X94113200Y-72198400D03*
%TO.P,U10,8,Rs*%
%TO.N,/CAN Peripherals/slew_control*%
X94113200Y-73468400D03*
%TD*%
D53*
%TO.P,JP2,1,A*%
%TO.N,Net-(JP2-Pad1)*%
X157750000Y-113350000D03*
D54*
%TO.P,JP2,2,B*%
%TO.N,/SDA_{3.3V}*%
X157750000Y-114650000D03*
%TD*%
D31*
%TO.P,JP9,1,A*%
%TO.N,/CAN Peripherals/CAN_{Rx}SPI*%
X102078000Y-78930500D03*
D32*
%TO.P,JP9,2,C*%
%TO.N,/CAN Peripherals/CAN_{RxLOW}*%
X103378000Y-78930500D03*
D33*
%TO.P,JP9,3,B*%
%TO.N,/CAN.RX*%
X104678000Y-78930500D03*
%TD*%
D18*
%TO.P,C3,1*%
%TO.N,Net-(C3-Pad1)*%
X141844000Y-112048000D03*
%TO.P,C3,2*%
%TO.N,GND*%
X139944000Y-112048000D03*
%TD*%
D55*
%TO.P,L1,1,1*%
%TO.N,/Power Supply/SW*%
X129640900Y-94518100D03*
%TO.P,L1,2,2*%
%TO.N,+5V*%
X129640900Y-98668100D03*
%TD*%
D45*
%TO.P,J1,1,Pin_1*%
%TO.N,unconnected-(J1-Pad1)*%
X155725000Y-121150000D03*
D46*
%TO.P,J1,2,Pin_2*%
%TO.N,+5V*%
X158265000Y-121150000D03*
%TO.P,J1,3,Pin_3*%
%TO.N,/SDA_{3.3V}*%
X155725000Y-123690000D03*
%TO.P,J1,4,Pin_4*%
%TO.N,+5V*%
X158265000Y-123690000D03*
%TO.P,J1,5,Pin_5*%
%TO.N,/SCL_{3.3V}*%
X155725000Y-126230000D03*
%TO.P,J1,6,Pin_6*%
%TO.N,GND*%
X158265000Y-126230000D03*
%TO.P,J1,7,Pin_7*%
%TO.N,/MicroController/~silent_boot*%
X155725000Y-128770000D03*
%TO.P,J1,8,Pin_8*%
%TO.N,/MicroController/esp_rx*%
X158265000Y-128770000D03*
%TO.P,J1,9,Pin_9*%
%TO.N,GND*%
X155725000Y-131310000D03*
%TO.P,J1,10,Pin_10*%
%TO.N,Net-(J1-Pad10)*%
X158265000Y-131310000D03*
%TO.P,J1,11,Pin_11*%
%TO.N,Net-(J1-Pad11)*%
X155725000Y-133850000D03*
%TO.P,J1,12,Pin_12*%
%TO.N,Net-(J1-Pad12)*%
X158265000Y-133850000D03*
%TD*%
D40*
%TO.P,Q5,1,S1*%
%TO.N,+12V*%
X153429799Y-65077200D03*
%TO.P,Q5,2,G1*%
%TO.N,/GPIO/OUT_CTL_{4}*%
X154699799Y-65077200D03*
%TO.P,Q5,3,S2*%
%TO.N,+12V*%
X155969799Y-65077200D03*
%TO.P,Q5,4,G2*%
%TO.N,/GPIO/OUT_CTL_{3}*%
X157239799Y-65077200D03*
%TO.P,Q5,5,D2*%
%TO.N,/Output_{3}*%
X157239799Y-59927200D03*
%TO.P,Q5,6,D2*%
X155969799Y-59927200D03*
%TO.P,Q5,7,D1*%
%TO.N,/Output_{4}*%
X154699799Y-59927200D03*
%TO.P,Q5,8,D1*%
X153429799Y-59927200D03*
%TD*%
D19*
%TO.P,R13,1*%
%TO.N,/CAN_{L}*%
X99546900Y-66574800D03*
%TO.P,R13,2*%
%TO.N,Net-(JP10-Pad1)*%
X97721900Y-66574800D03*
%TD*%
D56*
%TO.P,Y1,1,1*%
%TO.N,/I2C extras/osc_in*%
X83792000Y-114461200D03*
%TO.P,Y1,2,2*%
%TO.N,/I2C extras/osc_out*%
X83792000Y-116961200D03*
%TD*%
D57*
%TO.P,U4,1,IN*%
%TO.N,+5V*%
X139756500Y-108050000D03*
%TO.P,U4,2,GND*%
%TO.N,GND*%
X139756500Y-109000000D03*
%TO.P,U4,3,EN*%
%TO.N,+5V*%
X139756500Y-109950000D03*
%TO.P,U4,4,NR*%
%TO.N,Net-(C3-Pad1)*%
X142031500Y-109950000D03*
%TO.P,U4,5,OUT*%
%TO.N,+3V3*%
X142031500Y-108050000D03*
%TD*%
D28*
%TO.P,R2,1*%
%TO.N,+5V*%
X115500000Y-94888000D03*
%TO.P,R2,2*%
%TO.N,/SCL_{5V}*%
X115500000Y-96713000D03*
%TD*%
D40*
%TO.P,Q7,1,S1*%
%TO.N,+12V*%
X140729799Y-65177200D03*
%TO.P,Q7,2,G1*%
%TO.N,/GPIO/OUT_CTL_{7}*%
X141999799Y-65177200D03*
%TO.P,Q7,3,S2*%
%TO.N,+12V*%
X143269799Y-65177200D03*
%TO.P,Q7,4,G2*%
%TO.N,/GPIO/OUT_CTL_{7}*%
X144539799Y-65177200D03*
%TO.P,Q7,5,D2*%
%TO.N,/Output_{7}*%
X144539799Y-60027200D03*
%TO.P,Q7,6,D2*%
X143269799Y-60027200D03*
%TO.P,Q7,7,D1*%
%TO.N,/GPIO/OUT_IND*%
X141999799Y-60027200D03*
%TO.P,Q7,8,D1*%
X140729799Y-60027200D03*
%TD*%
D37*
%TO.P,D16,1,K*%
%TO.N,/BUS.PWR_{OUT}*%
X129387600Y-58536800D03*
%TO.P,D16,2,A*%
%TO.N,+12V*%
X129387600Y-61336800D03*
%TD*%
D58*
%TO.P,Y2,1,1*%
%TO.N,/CAN Peripherals/OSC2*%
X89277600Y-78154000D03*
%TO.P,Y2,2,2*%
%TO.N,/CAN Peripherals/OSC1*%
X83777600Y-78154000D03*
%TD*%
D48*
%TO.P,U9,1,A0*%
%TO.N,GND*%
X118290000Y-66086000D03*
%TO.P,U9,2,A1*%
X117020000Y-66086000D03*
%TO.P,U9,3,A2*%
X115750000Y-66086000D03*
%TO.P,U9,4,P0*%
%TO.N,/GPIO/In_{1}*%
X114480000Y-66086000D03*
%TO.P,U9,5,P1*%
%TO.N,/GPIO/In_{2}*%
X113210000Y-66086000D03*
%TO.P,U9,6,P2*%
%TO.N,/GPIO/In_{3}*%
X111940000Y-66086000D03*
%TO.P,U9,7,P3*%
%TO.N,/GPIO/In_{4}*%
X110670000Y-66086000D03*
%TO.P,U9,8,GND*%
%TO.N,GND*%
X109400000Y-66086000D03*
%TO.P,U9,9,P4*%
%TO.N,/GPIO/IND_{4}*%
X109400000Y-75386000D03*
%TO.P,U9,10,P5*%
%TO.N,/GPIO/IND_{3}*%
X110670000Y-75386000D03*
%TO.P,U9,11,P6*%
%TO.N,/GPIO/IND_{2}*%
X111940000Y-75386000D03*
%TO.P,U9,12,P7*%
%TO.N,/GPIO/IND_{1}*%
X113210000Y-75386000D03*
%TO.P,U9,13,~{INT}*%
%TO.N,/~{INT_{GPIO}}*%
X114480000Y-75386000D03*
%TO.P,U9,14,SCL*%
%TO.N,/SCL_{5V}*%
X115750000Y-75386000D03*
%TO.P,U9,15,SDA*%
%TO.N,/SDA_{5V}*%
X117020000Y-75386000D03*
%TO.P,U9,16,Vcc*%
%TO.N,+5V*%
X118290000Y-75386000D03*
%TD*%
D37*
%TO.P,D1,1,K*%
%TO.N,+5V*%
X163200000Y-115300000D03*
%TO.P,D1,2,A*%
%TO.N,/USB.PWR*%
X166000000Y-115300000D03*
%TD*%
D50*
%TO.P,D2,1*%
%TO.N,Net-(D2-Pad1)*%
X163550000Y-118000000D03*
%TO.P,D2,2*%
%TO.N,/USB.PWR*%
X165600000Y-118000000D03*
%TD*%
D15*
%TO.P,TP5,1,1*%
%TO.N,GND*%
X101250000Y-92250000D03*
%TD*%
D45*
%TO.P,J4,1,Pin_1*%
%TO.N,unconnected-(J4-Pad1)*%
X83660000Y-66720000D03*
D46*
%TO.P,J4,2,Pin_2*%
%TO.N,/CAN_{H}*%
X86200000Y-66720000D03*
%TO.P,J4,3,Pin_3*%
%TO.N,unconnected-(J4-Pad3)*%
X83660000Y-69260000D03*
%TO.P,J4,4,Pin_4*%
%TO.N,/CAN_{L}*%
X86200000Y-69260000D03*
%TO.P,J4,5,Pin_5*%
%TO.N,GND*%
X83660000Y-71800000D03*
%TO.P,J4,6,Pin_6*%
%TO.N,+5V*%
X86200000Y-71800000D03*
%TD*%
D15*
%TO.P,TP6,1,1*%
%TO.N,/CAN Peripherals/OSC1*%
X93200000Y-82200000D03*
%TD*%
D59*
%TO.P,C16,1*%
%TO.N,/CAN Peripherals/OSC2*%
X87355600Y-82116400D03*
%TO.P,C16,2*%
%TO.N,GND*%
X89255600Y-82116400D03*
%TD*%
D28*
%TO.P,R12,1*%
%TO.N,/CAN Peripherals/slew_control*%
X96651250Y-75645000D03*
%TO.P,R12,2*%
%TO.N,GND*%
X96651250Y-77470000D03*
%TD*%
D47*
%TO.P,R8,1*%
%TO.N,/Power Supply/feedback*%
X134746300Y-87066200D03*
%TO.P,R8,2*%
%TO.N,GND*%
X134746300Y-85241200D03*
%TD*%
D60*
%TO.P,U1,1,GND*%
%TO.N,GND*%
X125543200Y-131150400D03*
%TO.P,U1,2,3v3*%
%TO.N,+3V3*%
X125543200Y-129880400D03*
%TO.P,U1,3,EN*%
%TO.N,/MicroController/~esp_reset*%
X125543200Y-128610400D03*
%TO.P,U1,4,SENSOR_VP*%
%TO.N,unconnected-(U1-Pad4)*%
X125543200Y-127340400D03*
%TO.P,U1,5,SENSOR_VN*%
%TO.N,unconnected-(U1-Pad5)*%
X125543200Y-126070400D03*
%TO.P,U1,6,IO34*%
%TO.N,/~{INT_{GPIO}}*%
X125543200Y-124800400D03*
%TO.P,U1,7,IO35*%
%TO.N,unconnected-(U1-Pad7)*%
X125543200Y-123530400D03*
%TO.P,U1,8,IO32*%
%TO.N,/GPIO_{sCLK}*%
X125543200Y-122260400D03*
%TO.P,U1,9,IO33*%
%TO.N,/GPIO_{DATA}*%
X125543200Y-120990400D03*
%TO.P,U1,10,IO25*%
%TO.N,/~{GPIO_{RS}}*%
X125543200Y-119720400D03*
%TO.P,U1,11,IO26*%
%TO.N,/GPIO_{rCLK}*%
X125543200Y-118450400D03*
%TO.P,U1,12,IO27*%
%TO.N,/~{GPIO_{OE}}*%
X125543200Y-117180400D03*
%TO.P,U1,13,IO14*%
%TO.N,/CAN.RX*%
X125543200Y-115910400D03*
%TO.P,U1,14,IO12*%
%TO.N,/CAN.TX*%
X125543200Y-114640400D03*
D61*
%TO.P,U1,15,GND*%
%TO.N,GND*%
X122758200Y-113640400D03*
%TO.P,U1,16,IO13*%
%TO.N,unconnected-(U1-Pad16)*%
X121488200Y-113640400D03*
%TO.P,U1,17,SD2*%
%TO.N,unconnected-(U1-Pad17)*%
X120218200Y-113640400D03*
%TO.P,U1,18,SD3*%
%TO.N,unconnected-(U1-Pad18)*%
X118948200Y-113640400D03*
%TO.P,U1,19,CMD*%
%TO.N,unconnected-(U1-Pad19)*%
X117678200Y-113640400D03*
%TO.P,U1,20,CLK*%
%TO.N,unconnected-(U1-Pad20)*%
X116408200Y-113640400D03*
%TO.P,U1,21,SD0*%
%TO.N,unconnected-(U1-Pad21)*%
X115138200Y-113640400D03*
%TO.P,U1,22,SD1*%
%TO.N,unconnected-(U1-Pad22)*%
X113868200Y-113640400D03*
%TO.P,U1,23,IO15*%
%TO.N,/MicroController/~silent_boot*%
X112598200Y-113640400D03*
%TO.P,U1,24,IO2*%
%TO.N,/MicroController/bootmode_select*%
X111328200Y-113640400D03*
D60*
%TO.P,U1,25,IO0*%
X108543200Y-114640400D03*
%TO.P,U1,26,IO4*%
%TO.N,/SPI.~{CS_{CAN}}*%
X108543200Y-115910400D03*
%TO.P,U1,27,IO16*%
%TO.N,/SPI.MISO*%
X108543200Y-117180400D03*
%TO.P,U1,28,IO17*%
%TO.N,/SPI.MOSI*%
X108543200Y-118450400D03*
%TO.P,U1,29,IO5*%
%TO.N,/SPI.CLK*%
X108543200Y-119720400D03*
%TO.P,U1,30,IO18*%
%TO.N,/~{INT_{CAN}}*%
X108543200Y-120990400D03*
%TO.P,U1,31,IO19*%
%TO.N,unconnected-(U1-Pad31)*%
X108543200Y-122260400D03*
%TO.P,U1,32,NC*%
%TO.N,unconnected-(U1-Pad32)*%
X108543200Y-123530400D03*
%TO.P,U1,33,IO21*%
%TO.N,/MicroController/mcu_indicator*%
X108543200Y-124800400D03*
%TO.P,U1,34,RXD0*%
%TO.N,/MicroController/esp_rx*%
X108543200Y-126070400D03*
%TO.P,U1,35,TXD0*%
%TO.N,/MicroController/esp_tx*%
X108543200Y-127340400D03*
%TO.P,U1,36,IO22*%
%TO.N,/SCL_{3.3V}*%
X108543200Y-128610400D03*
%TO.P,U1,37,IO23*%
%TO.N,/SDA_{3.3V}*%
X108543200Y-129880400D03*
%TO.P,U1,38,GND*%
%TO.N,GND*%
X108543200Y-131150400D03*
D62*
%TO.P,U1,39_1*%
%TO.N,N/C*%
X119878200Y-125485400D03*
%TO.P,U1,39_2*%
X118043200Y-125485400D03*
%TO.P,U1,39_3*%
X116208200Y-125485400D03*
%TO.P,U1,39_4*%
X119878200Y-123650400D03*
%TO.P,U1,39_5*%
X118043200Y-123650400D03*
%TO.P,U1,39_6*%
X116208200Y-123650400D03*
%TO.P,U1,39_7*%
X119878200Y-121815400D03*
%TO.P,U1,39_8*%
X118043200Y-121815400D03*
%TO.P,U1,39_9*%
X116208200Y-121815400D03*
D63*
%TO.P,U1,39_10*%
X118960700Y-125485400D03*
%TO.P,U1,39_11*%
X117125700Y-125485400D03*
%TO.P,U1,39_12*%
X119878200Y-124567900D03*
%TO.P,U1,39_13*%
X118043200Y-124567900D03*
%TO.P,U1,39_14*%
X116208200Y-124567900D03*
%TO.P,U1,39_15*%
X118960700Y-123650400D03*
%TO.P,U1,39_16*%
X117125700Y-123650400D03*
%TO.P,U1,39_17*%
X119878200Y-122732900D03*
%TO.P,U1,39_18*%
X118043200Y-122732900D03*
%TO.P,U1,39_19*%
X116208200Y-122732900D03*
%TO.P,U1,39_20*%
X118960700Y-121815400D03*
%TO.P,U1,39_21*%
X117125700Y-121815400D03*
%TD*%
D15*
%TO.P,TP8,1,1*%
%TO.N,/CAN_{L}*%
X91200000Y-60000000D03*
%TD*%
D64*
%TO.P,BT1,1,+*%
%TO.N,Net-(BT1-Pad1)*%
X83400000Y-130000000D03*
X96600000Y-130000000D03*
D65*
%TO.P,BT1,2,-*%
%TO.N,GND*%
X90000000Y-130000000D03*
%TD*%
D31*
%TO.P,JP7,1,A*%
%TO.N,/CAN Peripherals/CAN_{Tx}SPI*%
X100808000Y-82740500D03*
D32*
%TO.P,JP7,2,C*%
%TO.N,/CAN Peripherals/CAN_{Tx}*%
X102108000Y-82740500D03*
D33*
%TO.P,JP7,3,B*%
%TO.N,/CAN.TX*%
X103408000Y-82740500D03*
%TD*%
D66*
%TO.P,U3,1,Vdd*%
%TO.N,+3V3*%
X152893500Y-106830200D03*
%TO.P,U3,2,GP0*%
%TO.N,/MicroController/bootmode_select*%
X152893500Y-107480200D03*
%TO.P,U3,3,GP1*%
%TO.N,/MicroController/usb_indicator*%
X152893500Y-108130200D03*
%TO.P,U3,4,~{RST}*%
%TO.N,unconnected-(U3-Pad4)*%
X152893500Y-108780200D03*
%TO.P,U3,5,URx*%
%TO.N,/MicroController/esp_tx*%
X152893500Y-109430200D03*
%TO.P,U3,6,UTx*%
%TO.N,/MicroController/esp_rx*%
X152893500Y-110080200D03*
%TO.P,U3,7,GP2*%
%TO.N,/MicroController/~silent_boot*%
X152893500Y-110730200D03*
%TO.P,U3,8,GP3*%
%TO.N,/MicroController/esp_reset*%
X158618500Y-110730200D03*
%TO.P,U3,9,SDA*%
%TO.N,Net-(JP2-Pad1)*%
X158618500Y-110080200D03*
%TO.P,U3,10,SCL*%
%TO.N,Net-(JP3-Pad1)*%
X158618500Y-109430200D03*
%TO.P,U3,11,Vusb*%
%TO.N,unconnected-(U3-Pad11)*%
X158618500Y-108780200D03*
%TO.P,U3,12,D-*%
%TO.N,/USB.-*%
X158618500Y-108130200D03*
%TO.P,U3,13,D+*%
%TO.N,/USB.+*%
X158618500Y-107480200D03*
%TO.P,U3,14,Vss*%
%TO.N,GND*%
X158618500Y-106830200D03*
%TD*%
D15*
%TO.P,TP13,1,1*%
%TO.N,GND*%
X154000000Y-100250000D03*
%TD*%
D37*
%TO.P,D5,1,K*%
%TO.N,+12V*%
X147200000Y-90500000D03*
%TO.P,D5,2,A*%
%TO.N,/Jack_PWR*%
X150000000Y-90500000D03*
%TD*%
D47*
%TO.P,R3,1*%
%TO.N,+3V3*%
X115500000Y-103825000D03*
%TO.P,R3,2*%
%TO.N,/SCL_{3.3V}*%
X115500000Y-102000000D03*
%TD*%
D17*
%TO.P,D4,1*%
%TO.N,Net-(D4-Pad1)*%
X102000000Y-132612500D03*
%TO.P,D4,2*%
%TO.N,/MicroController/mcu_indicator*%
X102000000Y-130562500D03*
%TD*%
D49*
%TO.P,C2,1*%
%TO.N,+3V3*%
X128905000Y-129550000D03*
%TO.P,C2,2*%
%TO.N,GND*%
X128905000Y-131450000D03*
%TD*%
D18*
%TO.P,C8,1*%
%TO.N,/I2C extras/RTC_power*%
X90660200Y-112993400D03*
%TO.P,C8,2*%
%TO.N,GND*%
X88760200Y-112993400D03*
%TD*%
D37*
%TO.P,D19,1,K*%
%TO.N,/Input_{3}*%
X111228800Y-59123300D03*
%TO.P,D19,2,A*%
%TO.N,/GPIO/In_{3}*%
X111228800Y-61923300D03*
%TD*%
D20*
%TO.P,D12,1*%
%TO.N,Net-(D12-Pad1)*%
X124170000Y-65725000D03*
%TO.P,D12,2*%
%TO.N,/GPIO/IND_{4}*%
X124170000Y-67775000D03*
%TD*%
D49*
%TO.P,C7,1*%
%TO.N,+5V*%
X137338000Y-108050000D03*
%TO.P,C7,2*%
%TO.N,GND*%
X137338000Y-109950000D03*
%TD*%
D37*
%TO.P,D18,1,K*%
%TO.N,+12V*%
X124250000Y-61336800D03*
%TO.P,D18,2,A*%
%TO.N,/BUS.PWR_{IN}*%
X124250000Y-58536800D03*
%TD*%
D15*
%TO.P,TP15,1,1*%
%TO.N,/SCL_{3.3V}*%
X119250000Y-108500000D03*
%TD*%
D19*
%TO.P,R10,1*%
%TO.N,/CAN Peripherals/CAN_{RxLOW}*%
X103505000Y-69750000D03*
%TO.P,R10,2*%
%TO.N,Net-(R10-Pad2)*%
X101680000Y-69750000D03*
%TD*%
D17*
%TO.P,D17,1*%
%TO.N,Net-(D17-Pad1)*%
X121133600Y-61025000D03*
%TO.P,D17,2*%
%TO.N,/BUS.PWR_{IN}*%
X121133600Y-58975000D03*
%TD*%
D67*
%TO.P,U5,1,BST*%
%TO.N,Net-(C22-Pad1)*%
X140000000Y-93875300D03*
%TO.P,U5,2,Vin*%
%TO.N,+12V*%
X140000000Y-92605300D03*
%TO.P,U5,3,EN*%
X140000000Y-91335300D03*
%TO.P,U5,4,SS*%
%TO.N,Net-(C11-Pad1)*%
X140000000Y-90065300D03*
%TO.P,U5,5,FB*%
%TO.N,/Power Supply/feedback*%
X134725000Y-90065300D03*
%TO.P,U5,6,Comp*%
%TO.N,/Power Supply/comp*%
X134725000Y-91335300D03*
%TO.P,U5,7,GND*%
%TO.N,GND*%
X134725000Y-92605300D03*
%TO.P,U5,8,SW*%
%TO.N,/Power Supply/SW*%
X134725000Y-93875300D03*
D68*
%TO.P,U5,9,EP*%
%TO.N,GND*%
X137362500Y-91970300D03*
%TD*%
D15*
%TO.P,TP1,1,1*%
%TO.N,/CAN Peripherals/~{reset}*%
X95000000Y-101400000D03*
%TD*%
D28*
%TO.P,R7,1*%
%TO.N,+5V*%
X113341000Y-94888000D03*
%TO.P,R7,2*%
%TO.N,/SDA_{5V}*%
X113341000Y-96713000D03*
%TD*%
D69*
%TO.P,U2,1,OSC_{I}*%
%TO.N,/I2C extras/osc_in*%
X87463800Y-115025400D03*
%TO.P,U2,2,OSC_{O}*%
%TO.N,/I2C extras/osc_out*%
X87463800Y-116295400D03*
%TO.P,U2,3,~{INT}*%
%TO.N,unconnected-(U2-Pad3)*%
X87463800Y-117565400D03*
%TO.P,U2,4,V_{SS}*%
%TO.N,GND*%
X87463800Y-118835400D03*
%TO.P,U2,5,SDA*%
%TO.N,/SDA_{3.3V}*%
X92413800Y-118835400D03*
%TO.P,U2,6,SCL*%
%TO.N,/SCL_{3.3V}*%
X92413800Y-117565400D03*
%TO.P,U2,7,CLK_{OUT}*%
%TO.N,unconnected-(U2-Pad7)*%
X92413800Y-116295400D03*
%TO.P,U2,8,V_{DD}*%
%TO.N,/I2C extras/RTC_power*%
X92413800Y-115025400D03*
%TD*%
D39*
%TO.P,C12,1*%
%TO.N,+5V*%
X120703000Y-75699200D03*
%TO.P,C12,2*%
%TO.N,GND*%
X120703000Y-73799200D03*
%TD*%
D20*
%TO.P,D14,1*%
%TO.N,Net-(D14-Pad1)*%
X126710000Y-65725000D03*
%TO.P,D14,2*%
%TO.N,/GPIO/IND_{3}*%
X126710000Y-67775000D03*
%TD*%
D49*
%TO.P,C13,1*%
%TO.N,/Power Supply/Vout*%
X130682300Y-85183700D03*
%TO.P,C13,2*%
%TO.N,/Power Supply/feedback*%
X130682300Y-87083700D03*
%TD*%
D70*
%TO.P,U7,1,Vcc*%
%TO.N,+3V3*%
X158787999Y-79756000D03*
%TO.P,U7,2,DS*%
%TO.N,/GPIO_{DATA}*%
X158787999Y-78486000D03*
%TO.P,U7,3,Q0*%
%TO.N,/GPIO/OUT_CTL_{4}*%
X158787999Y-77216000D03*
%TO.P,U7,4,Q1*%
%TO.N,/GPIO/OUT_CTL_{3}*%
X158787999Y-75946000D03*
%TO.P,U7,5,Q2*%
%TO.N,/GPIO/OUT_CTL_{2}*%
X158787999Y-74676000D03*
%TO.P,U7,6,Q3*%
%TO.N,/GPIO/OUT_CTL_{1}*%
X158787999Y-73406000D03*
%TO.P,U7,7,~{MR}*%
%TO.N,/~{GPIO_{RS}}*%
X158787999Y-72136000D03*
%TO.P,U7,8,~{OE}*%
%TO.N,/~{GPIO_{OE}}*%
X158787999Y-70866000D03*
%TO.P,U7,9,Q7S*%
%TO.N,unconnected-(U7-Pad9)*%
X152287999Y-70866000D03*
%TO.P,U7,10,STCP*%
%TO.N,/GPIO_{rCLK}*%
X152287999Y-72136000D03*
%TO.P,U7,11,Q4*%
%TO.N,/GPIO/OUT_CTL_{7}*%
X152287999Y-73406000D03*
%TO.P,U7,12,Q5*%
%TO.N,/GPIO/OUT_CTL_{6}*%
X152287999Y-74676000D03*
%TO.P,U7,13,Q6*%
%TO.N,/GPIO/OUT_CTL_{5}*%
X152287999Y-75946000D03*
%TO.P,U7,14,Q7*%
%TO.N,/GPIO/SHIFT_IND*%
X152287999Y-77216000D03*
%TO.P,U7,15,SHCP*%
%TO.N,/GPIO_{sCLK}*%
X152287999Y-78486000D03*
%TO.P,U7,16,GND*%
%TO.N,GND*%
X152287999Y-79756000D03*
%TD*%
D53*
%TO.P,JP3,1,A*%
%TO.N,Net-(JP3-Pad1)*%
X154916400Y-113350000D03*
D54*
%TO.P,JP3,2,B*%
%TO.N,/SCL_{3.3V}*%
X154916400Y-114650000D03*
%TD*%
D20*
%TO.P,D15,1*%
%TO.N,Net-(D15-Pad1)*%
X129250000Y-65725000D03*
%TO.P,D15,2*%
%TO.N,/GPIO/IND_{2}*%
X129250000Y-67775000D03*
%TD*%
D15*
%TO.P,TP2,1,1*%
%TO.N,/CAN Peripherals/OSC2*%
X95000000Y-80000000D03*
%TD*%
D49*
%TO.P,C5,1*%
%TO.N,+3V3*%
X144450000Y-108050000D03*
%TO.P,C5,2*%
%TO.N,GND*%
X144450000Y-109950000D03*
%TD*%
D71*
%TO.N,/~{INT_{GPIO}}*%
X110750000Y-115500000D03*
X107012299Y-104737701D03*
X113750000Y-78000000D03*
X105500000Y-106250000D03*
X111500000Y-95250000D03*
X102500000Y-109250000D03*
%TO.N,Net-(BT1-Pad1)*%
X97750000Y-117750000D03*
X95737701Y-119762299D03*
%TO.N,GND*%
X87000000Y-113000000D03*
X130500000Y-131500000D03*
X97800000Y-72200000D03*
X110499000Y-87987000D03*
X140750000Y-85000000D03*
X139750000Y-85000000D03*
X89500000Y-119000000D03*
X142750000Y-96500000D03*
X82600000Y-82177400D03*
X140750000Y-86000000D03*
X140750000Y-96500000D03*
X138750000Y-85000000D03*
X142750000Y-85000000D03*
X115750000Y-67974600D03*
X142750000Y-86000000D03*
X141750000Y-88000000D03*
X142750000Y-88000000D03*
X144450000Y-111286000D03*
X140750000Y-97500000D03*
X84683600Y-87892400D03*
X141750000Y-96500000D03*
X120677600Y-72521200D03*
X136750000Y-86000000D03*
X142750000Y-97500000D03*
X122750000Y-115750000D03*
X117020000Y-67974600D03*
X141750000Y-87000000D03*
X139750000Y-123250000D03*
X154000000Y-100250000D03*
X164700000Y-106200000D03*
X90200000Y-82177400D03*
X142500000Y-95000000D03*
X133349300Y-92503700D03*
X106500000Y-131000000D03*
X158000000Y-105758200D03*
X116468000Y-87098000D03*
X154000000Y-80250000D03*
X137750000Y-85000000D03*
X139750000Y-86000000D03*
X90000000Y-124500000D03*
X138750000Y-86000000D03*
X97000000Y-92500000D03*
X101250000Y-92250000D03*
X109400000Y-67974600D03*
X142750000Y-87000000D03*
X97800000Y-77600000D03*
X141750000Y-85000000D03*
X141750000Y-86000000D03*
X137750000Y-86000000D03*
X141750000Y-97500000D03*
X118290000Y-67974600D03*
X128777300Y-89328700D03*
X138641000Y-111253000D03*
X134750000Y-125500000D03*
X136750000Y-85000000D03*
%TO.N,/MicroController/~esp_reset*%
X130587500Y-127412500D03*
%TO.N,/~{GPIO_{RS}}*%
X160719599Y-72059800D03*
X150600000Y-73600000D03*
%TO.N,/~{GPIO_{OE}}*%
X150600000Y-70800000D03*
X160719599Y-70789800D03*
%TO.N,Net-(D4-Pad1)*%
X102000000Y-134250000D03*
%TO.N,/SDA_{5V}*%
X115000000Y-78000000D03*
X112600000Y-91400000D03*
X111500000Y-96750000D03*
%TO.N,/SDA_{3.3V}*%
X149000000Y-123700000D03*
X112052717Y-105947283D03*
X105512299Y-112487701D03*
X108750000Y-109250000D03*
X97500000Y-120500000D03*
X112052717Y-102171882D03*
%TO.N,/SCL_{5V}*%
X115800000Y-77200000D03*
X117250000Y-96750000D03*
X114000000Y-91400000D03*
%TO.N,/SCL_{3.3V}*%
X108750000Y-110500000D03*
X148250000Y-124650000D03*
X105500000Y-113750000D03*
X98875000Y-120375000D03*
X117250000Y-102000000D03*
X113500000Y-105750000D03*
%TO.N,Net-(C22-Pad1)*%
X140918500Y-95313300D03*
%TO.N,/MicroController/esp_tx*%
X147500000Y-127700000D03*
%TO.N,/MicroController/esp_rx*%
X146750000Y-125450000D03*
%TO.N,/MicroController/bootmode_select*%
X146900000Y-115200000D03*
X128100000Y-124000000D03*
X154500000Y-107500000D03*
X122800000Y-124000000D03*
X136600000Y-128100000D03*
X150200000Y-110500000D03*
X144900000Y-115200497D03*
%TO.N,/MicroController/~silent_boot*%
X123600000Y-123200000D03*
X129000000Y-123200000D03*
X150912299Y-118912299D03*
X149800000Y-112600000D03*
X151600000Y-112600000D03*
X147000000Y-116200000D03*
X144900000Y-116200000D03*
%TO.N,Net-(D2-Pad1)*%
X162500000Y-118000000D03*
%TO.N,Net-(D17-Pad1)*%
X121250000Y-62750000D03*
%TO.N,Net-(D6-Pad1)*%
X146000000Y-93750000D03*
%TO.N,Net-(D7-Pad1)*%
X150250000Y-105500000D03*
%TO.N,Net-(D8-Pad1)*%
X164500000Y-81750000D03*
%TO.N,/GPIO_{DATA}*%
X150600000Y-77200000D03*
X160719599Y-78409800D03*
%TO.N,/GPIO/OUT_CTL_{7}*%
X144971599Y-62153800D03*
%TO.N,/GPIO/OUT_CTL_{6}*%
X149797599Y-62153800D03*
%TO.N,/GPIO/OUT_CTL_{5}*%
X151829599Y-62407800D03*
%TO.N,/GPIO/OUT_CTL_{4}*%
X153861599Y-62407800D03*
%TO.N,/GPIO/OUT_CTL_{3}*%
X155893599Y-62407800D03*
%TO.N,/GPIO/OUT_CTL_{2}*%
X160973599Y-62915800D03*
%TO.N,/GPIO/OUT_CTL_{1}*%
X163513599Y-61899800D03*
%TO.N,Net-(D11-Pad1)*%
X131790000Y-64210000D03*
%TO.N,Net-(D12-Pad1)*%
X124170000Y-64210000D03*
%TO.N,/MicroController/esp_reset*%
X149200000Y-133800000D03*
X134800000Y-127500000D03*
%TO.N,/MicroController/mcu_indicator*%
X105750000Y-124750000D03*
X103000000Y-127500000D03*
%TO.N,Net-(D13-Pad1)*%
X134575000Y-69420000D03*
%TO.N,Net-(C20-Pad1)*%
X128500000Y-91750000D03*
%TO.N,/Power Supply/SW*%
X136092500Y-95364100D03*
%TO.N,/GPIO/In_{4}*%
X110670000Y-63555000D03*
%TO.N,/GPIO/In_{3}*%
X111940000Y-63580400D03*
%TO.N,/CAN_{L}*%
X90805000Y-59995000D03*
X100965000Y-66040000D03*
X90800000Y-68800000D03*
%TO.N,/CAN_{H}*%
X89535000Y-66675000D03*
X89535000Y-62465000D03*
X89535000Y-68800000D03*
%TO.N,/CAN Peripherals/~{reset}*%
X94133350Y-96730650D03*
%TO.N,/CAN Peripherals/OSC1*%
X85852000Y-83548000D03*
X93200000Y-82200000D03*
%TO.N,/CAN Peripherals/CAN_{Tx}*%
X102108000Y-77025500D03*
X102108000Y-80835500D03*
%TO.N,/Power Supply/Vout*%
X133603300Y-97837700D03*
%TO.N,+5V*%
X122044622Y-85544622D03*
X144400000Y-114100000D03*
%TO.N,/Power Supply/Vout*%
X128523300Y-85645700D03*
%TO.N,+5V*%
X152200000Y-117800000D03*
X121955378Y-80455378D03*
X97688400Y-70916800D03*
X104228000Y-64478000D03*
X135914700Y-101968100D03*
%TO.N,+3V3*%
X106200000Y-107000000D03*
X110900000Y-123800000D03*
X102362299Y-110837701D03*
X106400000Y-123800000D03*
X153500000Y-105758200D03*
X111563000Y-98594500D03*
X107800000Y-105400000D03*
X99150000Y-114050000D03*
X114611000Y-98594500D03*
X161300000Y-81800000D03*
X149000000Y-103700000D03*
%TO.N,+12V*%
X148000000Y-81500000D03*
X149750000Y-63250000D03*
X159750000Y-63750000D03*
X133750000Y-61250000D03*
X147000000Y-81500000D03*
X139750000Y-81250000D03*
X147250000Y-63250000D03*
X153000000Y-63250000D03*
X146000000Y-81500000D03*
X140750000Y-63500000D03*
X146500000Y-82500000D03*
X148500000Y-82500000D03*
X147500000Y-82500000D03*
X155750000Y-63500000D03*
X162250000Y-63500000D03*
X143250000Y-63500000D03*
%TO.N,/GPIO/SHIFT_IND*%
X160800000Y-77200000D03*
X153800000Y-77200000D03*
%TO.N,/GPIO/In_{1}*%
X114530800Y-63580400D03*
%TO.N,/GPIO/In_{2}*%
X113235400Y-63580400D03*
%TO.N,Net-(D14-Pad1)*%
X126710000Y-64210000D03*
%TO.N,Net-(D15-Pad1)*%
X129250000Y-64210000D03*
%TD*%
D72*
%TO.N,/~{INT_{GPIO}}*%
X122000000Y-122008178D02*
X122000000Y-124250000D01*
X125543200Y-124800400D02*
X122550400Y-124800400D01*
X122550400Y-124800400D02*
X122000000Y-124250000D01*
X120000000Y-120250000D02*
X120241822Y-120250000D01*
X120241822Y-120250000D02*
X122000000Y-122008178D01*
X110750000Y-115500000D02*
X115500000Y-120250000D01*
X115500000Y-120250000D02*
X120000000Y-120250000D01*
X111500000Y-95250000D02*
X110800489Y-95949511D01*
X110800489Y-95949511D02*
X110800489Y-100949511D01*
X114480000Y-75386000D02*
X114480000Y-77270000D01*
X114480000Y-77270000D02*
X113750000Y-78000000D01*
X110800489Y-100949511D02*
X107012299Y-104737701D01*
X105500000Y-106250000D02*
X102500000Y-109250000D01*
D73*
%TO.N,/CAN Peripherals/CAN_{Tx}SPI*%
X96075500Y-82740500D02*
X100808000Y-82740500D01*
X94742000Y-84074000D02*
X96075500Y-82740500D01*
X94742000Y-85696000D02*
X94742000Y-84074000D01*
D72*
%TO.N,Net-(C3-Pad1)*%
X142031500Y-111860500D02*
X141844000Y-112048000D01*
X142031500Y-109950000D02*
X142031500Y-111860500D01*
D73*
%TO.N,/CAN Peripherals/CAN_{Rx}SPI*%
X93472000Y-85696000D02*
X93472000Y-84328000D01*
X98869500Y-78930500D02*
X102078000Y-78930500D01*
X93472000Y-84328000D02*
X98869500Y-78930500D01*
D72*
%TO.N,Net-(C11-Pad1)*%
X140000000Y-90065300D02*
X140000000Y-88200000D01*
X140000000Y-88200000D02*
X140293700Y-87906300D01*
D73*
%TO.N,Net-(BT1-Pad1)*%
X95950000Y-115950000D02*
X95562500Y-115950000D01*
X97750000Y-117750000D02*
X95950000Y-115950000D01*
X95737701Y-119762299D02*
X96600000Y-120624598D01*
X96600000Y-120624598D02*
X96600000Y-130000000D01*
%TO.N,GND*%
X96388750Y-77207500D02*
X96651250Y-77470000D01*
X118290000Y-67873000D02*
X118213800Y-67949200D01*
D72*
X97801600Y-72198400D02*
X97800000Y-72200000D01*
D73*
X108543200Y-131150400D02*
X106650400Y-131150400D01*
D72*
X116468000Y-84750000D02*
X116468000Y-87098000D01*
D73*
X96875600Y-92624400D02*
X97000000Y-92500000D01*
X158000000Y-106211700D02*
X158618500Y-106830200D01*
D72*
X116468000Y-84750000D02*
X116468000Y-81734000D01*
D74*
X133450900Y-92605300D02*
X133349300Y-92503700D01*
X142340900Y-93834700D02*
X142340900Y-94840900D01*
D72*
X99263200Y-72198400D02*
X101236600Y-72198400D01*
D73*
X96875600Y-93597200D02*
X96875600Y-92624400D01*
D74*
X139800000Y-123200000D02*
X139750000Y-123250000D01*
D72*
X144450000Y-109950000D02*
X144450000Y-111286000D01*
X143500000Y-109000000D02*
X144450000Y-109950000D01*
X84582000Y-85696000D02*
X84582000Y-87790800D01*
D74*
X130286300Y-89328700D02*
X128777300Y-89328700D01*
D72*
X90200000Y-82177400D02*
X90139000Y-82116400D01*
D73*
X118290000Y-66086000D02*
X118290000Y-67873000D01*
X154587999Y-80837999D02*
X154587999Y-81864200D01*
X87006600Y-112993400D02*
X87000000Y-113000000D01*
D74*
X141000000Y-123200000D02*
X139800000Y-123200000D01*
X134725000Y-92605300D02*
X136727500Y-92605300D01*
D72*
X110499000Y-86651000D02*
X110499000Y-87987000D01*
X82600000Y-82177400D02*
X82661000Y-82116400D01*
D73*
X94111250Y-77207500D02*
X96388750Y-77207500D01*
D72*
X116468000Y-81734000D02*
X116371000Y-81637000D01*
D73*
X122758200Y-115741800D02*
X122750000Y-115750000D01*
X117020000Y-66086000D02*
X117020000Y-68000000D01*
X97800000Y-77600000D02*
X97670000Y-77470000D01*
D72*
X99263200Y-72198400D02*
X97801600Y-72198400D01*
D73*
X152287999Y-79756000D02*
X153506000Y-79756000D01*
D72*
X168650000Y-106200000D02*
X168800000Y-106350000D01*
D73*
X128905000Y-131450000D02*
X127500000Y-131450000D01*
D74*
X120703000Y-73799200D02*
X120703000Y-72546600D01*
D72*
X82661000Y-82116400D02*
X83733600Y-82116400D01*
D73*
X90000000Y-130000000D02*
X90000000Y-124500000D01*
X122758200Y-113640400D02*
X122758200Y-115741800D01*
X109400000Y-66086000D02*
X109400000Y-67923800D01*
X87463800Y-118835400D02*
X89335400Y-118835400D01*
D72*
X138641000Y-111253000D02*
X139436000Y-112048000D01*
D75*
X168800000Y-103750000D02*
X168800000Y-111250000D01*
D73*
X130450000Y-131450000D02*
X130500000Y-131500000D01*
D72*
X101236600Y-72198400D02*
X101680000Y-71755000D01*
X165950000Y-106200000D02*
X168650000Y-106200000D01*
D75*
X96527800Y-53047800D02*
X96350000Y-52870000D01*
D73*
X97670000Y-77470000D02*
X96651250Y-77470000D01*
X134700000Y-125550000D02*
X133398500Y-125550000D01*
X106650400Y-131150400D02*
X106500000Y-131000000D01*
X115750000Y-66086000D02*
X115750000Y-68000000D01*
X158000000Y-105758200D02*
X158000000Y-106211700D01*
X128905000Y-131450000D02*
X130450000Y-131450000D01*
D74*
X120703000Y-72546600D02*
X120677600Y-72521200D01*
D72*
X139436000Y-112048000D02*
X139944000Y-112048000D01*
D73*
X88760200Y-112993400D02*
X87006600Y-112993400D01*
X89335400Y-118835400D02*
X89500000Y-119000000D01*
D74*
X142340900Y-94840900D02*
X142500000Y-95000000D01*
D73*
X127500000Y-131450000D02*
X127200400Y-131150400D01*
X134750000Y-125500000D02*
X134700000Y-125550000D01*
X165950000Y-106200000D02*
X164700000Y-106200000D01*
D74*
X134725000Y-92605300D02*
X133450900Y-92605300D01*
D75*
X96350000Y-52870000D02*
X96350000Y-45250000D01*
D73*
X153506000Y-79756000D02*
X154000000Y-80250000D01*
D72*
X84582000Y-87790800D02*
X84683600Y-87892400D01*
D74*
X136727500Y-92605300D02*
X137362500Y-91970300D01*
D73*
X154000000Y-80250000D02*
X154587999Y-80837999D01*
D72*
X139756500Y-109000000D02*
X143500000Y-109000000D01*
X90139000Y-82116400D02*
X89255600Y-82116400D01*
X137338000Y-109950000D02*
X138641000Y-111253000D01*
X116468000Y-87098000D02*
X116468000Y-89700000D01*
D73*
X127200400Y-131150400D02*
X125543200Y-131150400D01*
%TO.N,/MicroController/~esp_reset*%
X128905000Y-127412500D02*
X128246250Y-127412500D01*
X127048350Y-128610400D02*
X125543200Y-128610400D01*
X130587500Y-127412500D02*
X130611000Y-127412500D01*
X128905000Y-127412500D02*
X130587500Y-127412500D01*
X128246250Y-127412500D02*
X127048350Y-128610400D01*
X130611000Y-127412500D02*
X131523500Y-126500000D01*
%TO.N,/~{INT_{CAN}}*%
X87122000Y-100398222D02*
X107714178Y-120990400D01*
X87122000Y-94996000D02*
X87122000Y-100398222D01*
X107714178Y-120990400D02*
X108543200Y-120990400D01*
D72*
%TO.N,/~{GPIO_{RS}}*%
X129600000Y-117400000D02*
X127279600Y-119720400D01*
D73*
X158787999Y-72136000D02*
X160643399Y-72136000D01*
D72*
X149600000Y-72600000D02*
X132400000Y-72600000D01*
X119800000Y-102400000D02*
X129600000Y-112200000D01*
D73*
X160643399Y-72136000D02*
X160719599Y-72059800D01*
D72*
X132400000Y-72600000D02*
X119800000Y-85200000D01*
X129600000Y-112200000D02*
X129600000Y-117400000D01*
X119800000Y-85200000D02*
X119800000Y-102400000D01*
X150600000Y-73600000D02*
X149600000Y-72600000D01*
X127279600Y-119720400D02*
X125543200Y-119720400D01*
%TO.N,/~{GPIO_{OE}}*%
X118600000Y-102800000D02*
X128400000Y-112600000D01*
X150600000Y-70800000D02*
X149800000Y-71600000D01*
X118600000Y-84800000D02*
X118600000Y-102800000D01*
D73*
X160643399Y-70866000D02*
X160719599Y-70789800D01*
D72*
X149800000Y-71600000D02*
X131800000Y-71600000D01*
X128400000Y-112600000D02*
X128400000Y-116000000D01*
X127219600Y-117180400D02*
X125543200Y-117180400D01*
D73*
X158787999Y-70866000D02*
X160643399Y-70866000D01*
D72*
X128400000Y-116000000D02*
X127219600Y-117180400D01*
X131800000Y-71600000D02*
X118600000Y-84800000D01*
D73*
%TO.N,Net-(D4-Pad1)*%
X102000000Y-132612500D02*
X102000000Y-134250000D01*
%TO.N,/SPI.~{CS_{CAN}}*%
X92202000Y-101702000D02*
X106410400Y-115910400D01*
X106410400Y-115910400D02*
X108543200Y-115910400D01*
X92202000Y-94996000D02*
X92202000Y-101702000D01*
%TO.N,/SPI.MOSI*%
X106950400Y-118450400D02*
X108543200Y-118450400D01*
X89662000Y-94996000D02*
X89662000Y-101162000D01*
X89662000Y-101162000D02*
X106950400Y-118450400D01*
%TO.N,/SPI.MISO*%
X90932000Y-101432000D02*
X90932000Y-94996000D01*
X108543200Y-117180400D02*
X106680400Y-117180400D01*
X106680400Y-117180400D02*
X90932000Y-101432000D01*
%TO.N,/SPI.CLK*%
X108543200Y-119720400D02*
X107293200Y-119720400D01*
X88392000Y-100819200D02*
X88392000Y-94996000D01*
X107293200Y-119720400D02*
X88392000Y-100819200D01*
D72*
%TO.N,/SDA_{5V}*%
X115989259Y-78000000D02*
X117020000Y-76969259D01*
X112658000Y-91342000D02*
X112658000Y-89700000D01*
X117020000Y-76969259D02*
X117020000Y-75386000D01*
D73*
X112579000Y-97475000D02*
X113341000Y-96713000D01*
D72*
X112600000Y-91400000D02*
X112658000Y-91342000D01*
X115000000Y-78000000D02*
X115989259Y-78000000D01*
X113341000Y-96713000D02*
X111537000Y-96713000D01*
D73*
X112579000Y-98419000D02*
X112579000Y-97475000D01*
D72*
X111537000Y-96713000D02*
X111500000Y-96750000D01*
D73*
%TO.N,/SDA_{3.3V}*%
X97500000Y-120500000D02*
X106880400Y-129880400D01*
X113529000Y-101812000D02*
X113341000Y-102000000D01*
X149000000Y-132500000D02*
X146250000Y-135250000D01*
X149000000Y-123700000D02*
X149000000Y-132500000D01*
X112197283Y-105947283D02*
X112052717Y-105947283D01*
X146250000Y-135250000D02*
X133750000Y-135250000D01*
X95835400Y-118835400D02*
X92413800Y-118835400D01*
D72*
X112380400Y-129880400D02*
X117750000Y-135250000D01*
D73*
X114750000Y-108500000D02*
X112197283Y-105947283D01*
X106880400Y-129880400D02*
X108543200Y-129880400D01*
D72*
X108543200Y-129880400D02*
X112380400Y-129880400D01*
X112052717Y-102171882D02*
X113169118Y-102171882D01*
X113169118Y-102171882D02*
X113341000Y-102000000D01*
D73*
X151500000Y-116000000D02*
X149000000Y-118500000D01*
X97500000Y-120500000D02*
X95835400Y-118835400D01*
D72*
X108750000Y-109250000D02*
X105512299Y-112487701D01*
D73*
X113529000Y-100294000D02*
X113529000Y-101812000D01*
D72*
X117750000Y-135250000D02*
X133750000Y-135250000D01*
D73*
X156400000Y-116000000D02*
X151500000Y-116000000D01*
X157750000Y-114650000D02*
X156400000Y-116000000D01*
X149000000Y-118500000D02*
X149000000Y-123700000D01*
%TO.N,/SCL_{5V}*%
X116262000Y-97475000D02*
X115500000Y-96713000D01*
D72*
X115750000Y-77150000D02*
X115750000Y-75386000D01*
X115800000Y-77200000D02*
X115750000Y-77150000D01*
D73*
X116262000Y-98419000D02*
X116262000Y-97475000D01*
D72*
X117213000Y-96713000D02*
X117250000Y-96750000D01*
X113928000Y-89700000D02*
X113928000Y-91328000D01*
X115500000Y-96713000D02*
X117213000Y-96713000D01*
X113928000Y-91328000D02*
X114000000Y-91400000D01*
D73*
%TO.N,/SCL_{3.3V}*%
X107110400Y-128610400D02*
X108543200Y-128610400D01*
X145500000Y-134500000D02*
X148250000Y-131750000D01*
X113500000Y-105750000D02*
X114375000Y-106625000D01*
X96065400Y-117565400D02*
X96875000Y-118375000D01*
X148250000Y-131750000D02*
X148250000Y-124650000D01*
X117206000Y-100294000D02*
X116500000Y-101000000D01*
X92413800Y-117565400D02*
X96065400Y-117565400D01*
D72*
X118500000Y-134500000D02*
X132500000Y-134500000D01*
D73*
X132500000Y-134500000D02*
X145500000Y-134500000D01*
X98875000Y-120375000D02*
X107110400Y-128610400D01*
X148250000Y-118250000D02*
X151850000Y-114650000D01*
X117212000Y-100294000D02*
X117206000Y-100294000D01*
D72*
X112610400Y-128610400D02*
X118500000Y-134500000D01*
X105500000Y-113750000D02*
X108750000Y-110500000D01*
D73*
X114375000Y-106625000D02*
X117375000Y-106625000D01*
X117375000Y-106625000D02*
X119250000Y-108500000D01*
X116500000Y-101000000D02*
X115500000Y-102000000D01*
X151850000Y-114650000D02*
X154916400Y-114650000D01*
D72*
X108543200Y-128610400D02*
X112610400Y-128610400D01*
D73*
X117250000Y-101750000D02*
X117250000Y-102000000D01*
X96875000Y-118375000D02*
X98875000Y-120375000D01*
X116500000Y-101000000D02*
X117250000Y-101750000D01*
X148250000Y-124650000D02*
X148250000Y-118250000D01*
D72*
%TO.N,/Power Supply/feedback*%
X134746300Y-87066200D02*
X134746300Y-90044000D01*
X134746300Y-90044000D02*
X134725000Y-90065300D01*
X134728800Y-87083700D02*
X134746300Y-87066200D01*
D73*
X130682300Y-87083700D02*
X127916300Y-87083700D01*
D72*
X130682300Y-87083700D02*
X134728800Y-87083700D01*
D73*
X127916300Y-87083700D02*
X127500000Y-87500000D01*
D72*
%TO.N,Net-(C22-Pad1)*%
X140918500Y-94793800D02*
X140000000Y-93875300D01*
X140918500Y-95313300D02*
X140918500Y-94793800D01*
D73*
%TO.N,/MicroController/esp_tx*%
X147500000Y-131000000D02*
X144750000Y-133750000D01*
X154500000Y-110000000D02*
X154500000Y-111000000D01*
X153930200Y-109430200D02*
X154500000Y-110000000D01*
X154500000Y-111000000D02*
X147500000Y-118000000D01*
X112590400Y-127340400D02*
X108543200Y-127340400D01*
X147500000Y-127700000D02*
X147500000Y-131000000D01*
X119000000Y-133750000D02*
X112590400Y-127340400D01*
X144750000Y-133750000D02*
X119000000Y-133750000D01*
X147500000Y-118000000D02*
X147500000Y-127700000D01*
X152893500Y-109430200D02*
X153930200Y-109430200D01*
%TO.N,/MicroController/esp_rx*%
X150750000Y-113750000D02*
X150750000Y-111000000D01*
X151669800Y-110080200D02*
X153419800Y-110080200D01*
X150750000Y-111000000D02*
X151669800Y-110080200D01*
X144000000Y-133000000D02*
X146750000Y-130250000D01*
X108543200Y-126070400D02*
X112570400Y-126070400D01*
X146750000Y-130250000D02*
X146750000Y-125450000D01*
X146750000Y-125450000D02*
X146750000Y-117750000D01*
X112570400Y-126070400D02*
X119500000Y-133000000D01*
X119500000Y-133000000D02*
X144000000Y-133000000D01*
X146750000Y-117750000D02*
X150750000Y-113750000D01*
%TO.N,/MicroController/bootmode_select*%
X135300000Y-115200000D02*
X135000000Y-115500000D01*
X130600000Y-123000000D02*
X129600000Y-124000000D01*
X148800000Y-113200000D02*
X148800000Y-113300000D01*
X136600000Y-128100000D02*
X136600000Y-124700000D01*
X152893500Y-107480200D02*
X154480200Y-107480200D01*
X120250000Y-119500000D02*
X115937800Y-119500000D01*
X150200000Y-110500000D02*
X148800000Y-111900000D01*
X133000000Y-115500000D02*
X135000000Y-115500000D01*
X111328200Y-114890400D02*
X111328200Y-113640400D01*
X144900000Y-115200497D02*
X144899503Y-115200000D01*
X129600000Y-124000000D02*
X128100000Y-124000000D01*
X134900000Y-123000000D02*
X130600000Y-123000000D01*
X131700000Y-119100000D02*
X131700000Y-116800000D01*
X128100000Y-124000000D02*
X128100000Y-122700000D01*
X122800000Y-124000000D02*
X122800000Y-122050000D01*
X108543200Y-114640400D02*
X110328200Y-114640400D01*
X144899503Y-115200000D02*
X135300000Y-115200000D01*
X131700000Y-116800000D02*
X133000000Y-115500000D01*
X115937800Y-119500000D02*
X111328200Y-114890400D01*
X122800000Y-122050000D02*
X120250000Y-119500000D01*
X148800000Y-113300000D02*
X146900000Y-115200000D01*
X148800000Y-111900000D02*
X148800000Y-113200000D01*
X136600000Y-124700000D02*
X134900000Y-123000000D01*
X128100000Y-122700000D02*
X131700000Y-119100000D01*
X110328200Y-114640400D02*
X111328200Y-113640400D01*
X154480200Y-107480200D02*
X154500000Y-107500000D01*
%TO.N,/MicroController/~silent_boot*%
X135100000Y-122200000D02*
X130000000Y-122200000D01*
X150500000Y-123545000D02*
X155725000Y-128770000D01*
X144900000Y-116200000D02*
X141100000Y-116200000D01*
X149800000Y-112600000D02*
X149800000Y-113400000D01*
X116100000Y-118800000D02*
X120500000Y-118800000D01*
X149800000Y-113400000D02*
X147000000Y-116200000D01*
X152893500Y-111306500D02*
X151600000Y-112600000D01*
X152893500Y-110730200D02*
X152893500Y-111306500D01*
X150500000Y-119324598D02*
X150500000Y-123545000D01*
X112598200Y-113640400D02*
X112598200Y-115298200D01*
X112598200Y-115298200D02*
X116100000Y-118800000D01*
X130000000Y-122200000D02*
X129000000Y-123200000D01*
X123600000Y-121900000D02*
X123600000Y-123200000D01*
X141100000Y-116200000D02*
X135100000Y-122200000D01*
X120500000Y-118800000D02*
X123600000Y-121900000D01*
X150912299Y-118912299D02*
X150500000Y-119324598D01*
%TO.N,Net-(D2-Pad1)*%
X163550000Y-118000000D02*
X162500000Y-118000000D01*
D72*
%TO.N,Net-(D17-Pad1)*%
X121133600Y-62633600D02*
X121133600Y-61025000D01*
X121250000Y-62750000D02*
X121133600Y-62633600D01*
D74*
%TO.N,/Output_{1}*%
X162319799Y-60027200D02*
X163027200Y-60027200D01*
D75*
X166310000Y-52890000D02*
X166310000Y-52870000D01*
X162319799Y-60027200D02*
X163589799Y-60027200D01*
X166310000Y-45250000D02*
X166310000Y-52870000D01*
X162319799Y-56880201D02*
X166310000Y-52890000D01*
X162319799Y-60027200D02*
X162319799Y-56880201D01*
D74*
X163027200Y-60027200D02*
X163589799Y-60027200D01*
%TO.N,/Output_{2}*%
X159779799Y-60027200D02*
X160372800Y-60027200D01*
D75*
X161049799Y-60027200D02*
X161049799Y-53050201D01*
X161230000Y-45250000D02*
X161230000Y-52870000D01*
X161049799Y-53050201D02*
X161230000Y-52870000D01*
X159779799Y-60027200D02*
X161049799Y-60027200D01*
D74*
X160372800Y-60027200D02*
X161049799Y-60027200D01*
D75*
%TO.N,/Output_{3}*%
X156150000Y-45250000D02*
X156150000Y-52870000D01*
X155969799Y-53050201D02*
X156150000Y-52870000D01*
X155969799Y-59927200D02*
X157239799Y-59927200D01*
X155969799Y-59927200D02*
X155969799Y-53050201D01*
%TO.N,/Output_{4}*%
X153429799Y-59927200D02*
X154699799Y-59927200D01*
X154699799Y-59927200D02*
X154699799Y-56499799D01*
X151070000Y-45250000D02*
X151070000Y-52870000D01*
X154699799Y-56499799D02*
X151070000Y-52870000D01*
%TO.N,/Output_{5}*%
X149619799Y-56499799D02*
X145990000Y-52870000D01*
X149619799Y-59927200D02*
X150889799Y-59927200D01*
X149619799Y-59927200D02*
X149619799Y-56499799D01*
X145990000Y-45250000D02*
X145990000Y-52870000D01*
%TO.N,/Output_{6}*%
X147079799Y-59927200D02*
X148349799Y-59927200D01*
X146500000Y-55250000D02*
X143290000Y-55250000D01*
X143290000Y-55250000D02*
X140910000Y-52870000D01*
X140910000Y-45250000D02*
X140910000Y-52870000D01*
X148349799Y-57099799D02*
X146500000Y-55250000D01*
X148349799Y-59927200D02*
X148349799Y-57099799D01*
%TO.N,/Output_{7}*%
X141000000Y-55250000D02*
X138210000Y-55250000D01*
X135830000Y-45250000D02*
X135830000Y-52870000D01*
X143777200Y-58027200D02*
X141000000Y-55250000D01*
X138210000Y-55250000D02*
X135830000Y-52870000D01*
X143269799Y-60027200D02*
X144539799Y-60027200D01*
X143777200Y-60027200D02*
X143777200Y-58027200D01*
D73*
%TO.N,/GPIO/OUT_IND*%
X134575000Y-65645000D02*
X134575000Y-63675000D01*
X141999799Y-60027200D02*
X140729799Y-60027200D01*
X138222800Y-60027200D02*
X140729799Y-60027200D01*
X134575000Y-63675000D02*
X138222800Y-60027200D01*
%TO.N,Net-(D6-Pad1)*%
X146028000Y-93778000D02*
X146000000Y-93750000D01*
X147581000Y-93778000D02*
X146028000Y-93778000D01*
D72*
%TO.N,Net-(D7-Pad1)*%
X150250000Y-105500000D02*
X150269600Y-105519600D01*
X150269600Y-105519600D02*
X150269600Y-106790000D01*
D73*
%TO.N,Net-(D8-Pad1)*%
X164500000Y-81750000D02*
X164500000Y-80525000D01*
%TO.N,/I2C extras/osc_out*%
X84457800Y-116295400D02*
X87463800Y-116295400D01*
X83792000Y-116961200D02*
X84457800Y-116295400D01*
%TO.N,/I2C extras/osc_in*%
X83792000Y-114461200D02*
X84356200Y-115025400D01*
X84356200Y-115025400D02*
X87463800Y-115025400D01*
%TO.N,/I2C extras/RTC_power*%
X92413800Y-113913800D02*
X92413800Y-115025400D01*
X91493400Y-112993400D02*
X92413800Y-113913800D01*
X92413800Y-115025400D02*
X97412100Y-115025400D01*
X90660200Y-112993400D02*
X91493400Y-112993400D01*
X97412100Y-115025400D02*
X97437500Y-115000000D01*
D72*
%TO.N,/GPIO_{sCLK}*%
X130800000Y-111800000D02*
X130800000Y-118800000D01*
X152287999Y-78486000D02*
X150886000Y-78486000D01*
X127339600Y-122260400D02*
X125543200Y-122260400D01*
X121000000Y-85600000D02*
X121000000Y-102000000D01*
X132800000Y-73800000D02*
X121000000Y-85600000D01*
X148400000Y-73800000D02*
X132800000Y-73800000D01*
X149800000Y-77400000D02*
X149800000Y-75200000D01*
X149800000Y-75200000D02*
X148400000Y-73800000D01*
X150886000Y-78486000D02*
X149800000Y-77400000D01*
X121000000Y-102000000D02*
X130800000Y-111800000D01*
X130800000Y-118800000D02*
X127339600Y-122260400D01*
%TO.N,/GPIO_{rCLK}*%
X127349600Y-118450400D02*
X125543200Y-118450400D01*
X152287999Y-72136000D02*
X132064000Y-72136000D01*
X119200000Y-102600000D02*
X129000000Y-112400000D01*
X119200000Y-85000000D02*
X119200000Y-102600000D01*
X129000000Y-116800000D02*
X127349600Y-118450400D01*
X129000000Y-112400000D02*
X129000000Y-116800000D01*
X132064000Y-72136000D02*
X119200000Y-85000000D01*
%TO.N,/GPIO_{DATA}*%
X132600000Y-73200000D02*
X120400000Y-85400000D01*
X150600000Y-77200000D02*
X150600000Y-75000000D01*
D73*
X158787999Y-78486000D02*
X160643399Y-78486000D01*
X160643399Y-78486000D02*
X160719599Y-78409800D01*
D72*
X120400000Y-85400000D02*
X120400000Y-102200000D01*
X120400000Y-102200000D02*
X130200000Y-112000000D01*
X148800000Y-73200000D02*
X132600000Y-73200000D01*
X150600000Y-75000000D02*
X148800000Y-73200000D01*
X130200000Y-118200000D02*
X127409600Y-120990400D01*
X127409600Y-120990400D02*
X125543200Y-120990400D01*
X130200000Y-112000000D02*
X130200000Y-118200000D01*
D73*
%TO.N,/GPIO/OUT_CTL_{7}*%
X144539799Y-62585600D02*
X144971599Y-62153800D01*
X152287999Y-73406000D02*
X153563699Y-73406000D01*
X151701881Y-67487800D02*
X146162800Y-67487800D01*
X141999799Y-66052199D02*
X143435400Y-67487800D01*
X154242599Y-70028518D02*
X151701881Y-67487800D01*
X144539799Y-65177200D02*
X144539799Y-62585600D01*
X146162800Y-67487800D02*
X145987599Y-67487800D01*
X141999799Y-65177200D02*
X141999799Y-66052199D01*
X144539799Y-66040000D02*
X144539799Y-65177200D01*
X153563699Y-73406000D02*
X154242599Y-72727100D01*
X154242599Y-72727100D02*
X154242599Y-70028518D01*
X143435400Y-67487800D02*
X146162800Y-67487800D01*
X145987599Y-67487800D02*
X144539799Y-66040000D01*
%TO.N,/GPIO/OUT_CTL_{6}*%
X153404399Y-74676000D02*
X152287999Y-74676000D01*
X154877599Y-73202800D02*
X153404399Y-74676000D01*
X148349799Y-65077200D02*
X148349799Y-65952199D01*
X148349799Y-65077200D02*
X148349799Y-63601600D01*
X148349799Y-65952199D02*
X149250400Y-66852800D01*
X149250400Y-66852800D02*
X151702599Y-66852800D01*
X154877599Y-70027800D02*
X154877599Y-73202800D01*
X151702599Y-66852800D02*
X154877599Y-70027800D01*
X148349799Y-63601600D02*
X149797599Y-62153800D01*
%TO.N,/GPIO/OUT_CTL_{5}*%
X150889799Y-65077200D02*
X150889799Y-63347600D01*
X150889799Y-63347600D02*
X151829599Y-62407800D01*
X155512599Y-69700000D02*
X155512599Y-73837800D01*
X153404399Y-75946000D02*
X152287999Y-75946000D01*
X155512599Y-73837800D02*
X153404399Y-75946000D01*
X150889799Y-65077200D02*
X155512599Y-69700000D01*
%TO.N,/GPIO/OUT_CTL_{4}*%
X154699799Y-63246000D02*
X153861599Y-62407800D01*
X157988000Y-77216000D02*
X156147599Y-75375599D01*
X154699799Y-65077200D02*
X154699799Y-63246000D01*
X154699799Y-67995800D02*
X154699799Y-65077200D01*
X158787999Y-77216000D02*
X157988000Y-77216000D01*
X156147599Y-75375599D02*
X156147599Y-69443600D01*
X156147599Y-69443600D02*
X154699799Y-67995800D01*
%TO.N,/GPIO/OUT_CTL_{3}*%
X156670959Y-69719981D02*
X156670959Y-74665960D01*
X157950999Y-75946000D02*
X158787999Y-75946000D01*
X157265199Y-65102600D02*
X157265199Y-69125741D01*
X156670959Y-74665960D02*
X157950999Y-75946000D01*
X157239799Y-65077200D02*
X157239799Y-63754000D01*
X157265199Y-69125741D02*
X156670959Y-69719981D01*
X157239799Y-65077200D02*
X157265199Y-65102600D01*
X157239799Y-63754000D02*
X155893599Y-62407800D01*
%TO.N,/GPIO/OUT_CTL_{2}*%
X161049799Y-65177200D02*
X161049799Y-62992000D01*
X157120479Y-73808479D02*
X157120479Y-70121720D01*
X157988000Y-74676000D02*
X157120479Y-73808479D01*
X161049799Y-62992000D02*
X160973599Y-62915800D01*
X161049799Y-66192400D02*
X161049799Y-65177200D01*
X157120479Y-70121720D02*
X161049799Y-66192400D01*
X158787999Y-74676000D02*
X157988000Y-74676000D01*
%TO.N,/GPIO/OUT_CTL_{1}*%
X163589799Y-65177200D02*
X163589799Y-66052199D01*
X163589799Y-65177200D02*
X163589799Y-61976000D01*
X161343995Y-66852800D02*
X157569999Y-70626796D01*
X162789198Y-66852800D02*
X161343995Y-66852800D01*
X157569999Y-72987999D02*
X157988000Y-73406000D01*
X163589799Y-66052199D02*
X162789198Y-66852800D01*
X163589799Y-61976000D02*
X163513599Y-61899800D01*
X157569999Y-70626796D02*
X157569999Y-72987999D01*
X157988000Y-73406000D02*
X158787999Y-73406000D01*
D72*
%TO.N,Net-(D11-Pad1)*%
X131790000Y-64210000D02*
X131790000Y-65725000D01*
%TO.N,Net-(JP10-Pad1)*%
X97623400Y-66476300D02*
X97721900Y-66574800D01*
X97623400Y-63120400D02*
X97623400Y-66476300D01*
X95581000Y-66574800D02*
X97721900Y-66574800D01*
%TO.N,Net-(D12-Pad1)*%
X124170000Y-65725000D02*
X124170000Y-64210000D01*
D73*
%TO.N,/MicroController/esp_reset*%
X151900000Y-116900000D02*
X159400000Y-116900000D01*
X133398500Y-127450000D02*
X134750000Y-127450000D01*
X160500000Y-111450000D02*
X159780200Y-110730200D01*
X149750000Y-119050000D02*
X151900000Y-116900000D01*
X134750000Y-127450000D02*
X134800000Y-127500000D01*
X149750000Y-133250000D02*
X149750000Y-119050000D01*
X159780200Y-110730200D02*
X158618500Y-110730200D01*
X159400000Y-116900000D02*
X160500000Y-115800000D01*
X149200000Y-133800000D02*
X149750000Y-133250000D01*
X160500000Y-115800000D02*
X160500000Y-111450000D01*
D72*
%TO.N,/MicroController/usb_indicator*%
X152893500Y-108130200D02*
X150979400Y-108130200D01*
X150979400Y-108130200D02*
X150269600Y-108840000D01*
D73*
%TO.N,/MicroController/mcu_indicator*%
X102000000Y-128500000D02*
X102000000Y-130562500D01*
X105800400Y-124800400D02*
X105750000Y-124750000D01*
X108543200Y-124800400D02*
X105800400Y-124800400D01*
X103000000Y-127500000D02*
X102000000Y-128500000D01*
%TO.N,Net-(D13-Pad1)*%
X134575000Y-67695000D02*
X134575000Y-69420000D01*
D74*
%TO.N,Net-(C20-Pad1)*%
X128500000Y-91750000D02*
X128635300Y-91614700D01*
X128635300Y-91614700D02*
X129920300Y-91614700D01*
D73*
%TO.N,Net-(JP2-Pad1)*%
X157000000Y-112600000D02*
X157750000Y-113350000D01*
X158618500Y-110080200D02*
X157419800Y-110080200D01*
X157419800Y-110080200D02*
X157000000Y-110500000D01*
X157000000Y-110500000D02*
X157000000Y-112600000D01*
D72*
%TO.N,/Power Supply/SW*%
X136092500Y-95242800D02*
X134725000Y-93875300D01*
X136092500Y-95364100D02*
X136092500Y-95242800D01*
D75*
%TO.N,/Jack_PWR*%
X150000000Y-90500000D02*
X150000000Y-85500000D01*
D73*
%TO.N,Net-(JP3-Pad1)*%
X157319800Y-109430200D02*
X158618500Y-109430200D01*
X154916400Y-113350000D02*
X154916400Y-111833600D01*
X154916400Y-111833600D02*
X157319800Y-109430200D01*
%TO.N,/USB.PWR*%
X166000000Y-115300000D02*
X166000000Y-117600000D01*
D74*
X165950000Y-108800000D02*
X165950000Y-115250000D01*
X165950000Y-115250000D02*
X166000000Y-115300000D01*
D73*
X166000000Y-117600000D02*
X165600000Y-118000000D01*
D74*
%TO.N,/Power Supply/comp*%
X133374700Y-91335300D02*
X133095300Y-91614700D01*
X134725000Y-91335300D02*
X133374700Y-91335300D01*
X131586300Y-91455700D02*
X131745300Y-91614700D01*
X131586300Y-89328700D02*
X131586300Y-91455700D01*
X133095300Y-91614700D02*
X131745300Y-91614700D01*
D72*
%TO.N,Net-(JP5-Pad2)*%
X115198000Y-81764000D02*
X115071000Y-81637000D01*
X115198000Y-84750000D02*
X115198000Y-81764000D01*
%TO.N,/USB.-*%
X165850000Y-108150000D02*
X165900000Y-108200000D01*
X162150000Y-108150000D02*
X165850000Y-108150000D01*
X158638300Y-108150000D02*
X162150000Y-108150000D01*
X158618500Y-108130200D02*
X158638300Y-108150000D01*
X162250000Y-108250000D02*
X162250000Y-109750000D01*
X162150000Y-108150000D02*
X162250000Y-108250000D01*
%TO.N,/USB.+*%
X162230200Y-107480200D02*
X162250000Y-107460400D01*
X165830200Y-107480200D02*
X162230200Y-107480200D01*
X162250000Y-107460400D02*
X162250000Y-106000000D01*
X162230200Y-107480200D02*
X158618500Y-107480200D01*
D73*
%TO.N,/CAN.RX*%
X126902100Y-115910400D02*
X127750000Y-115062500D01*
X111750000Y-110500000D02*
X104678000Y-103428000D01*
X104678000Y-103428000D02*
X104678000Y-78930500D01*
X125543200Y-115910400D02*
X126902100Y-115910400D01*
X125500000Y-110500000D02*
X111750000Y-110500000D01*
X127750000Y-115062500D02*
X127750000Y-112750000D01*
X127750000Y-112750000D02*
X125500000Y-110500000D01*
%TO.N,/CAN.TX*%
X125543200Y-114640400D02*
X126859600Y-114640400D01*
X127250000Y-112885718D02*
X125364282Y-111000000D01*
X126859600Y-114640400D02*
X127250000Y-114250000D01*
X104228480Y-83560980D02*
X103408000Y-82740500D01*
X104228480Y-103728480D02*
X104228480Y-83560980D01*
X111500000Y-111000000D02*
X104228480Y-103728480D01*
X125364282Y-111000000D02*
X111500000Y-111000000D01*
X127250000Y-114250000D02*
X127250000Y-112885718D01*
D72*
%TO.N,Net-(R10-Pad2)*%
X101583400Y-69658400D02*
X101680000Y-69755000D01*
X99263200Y-69658400D02*
X101583400Y-69658400D01*
D74*
%TO.N,/Input_{3}*%
X106510000Y-52870000D02*
X106510000Y-53010000D01*
X111228800Y-57728800D02*
X111228800Y-59123300D01*
X106510000Y-53010000D02*
X111228800Y-57728800D01*
D75*
X106510000Y-45250000D02*
X106510000Y-52870000D01*
D73*
%TO.N,/GPIO/In_{4}*%
X109038300Y-61923300D02*
X108536400Y-61923300D01*
X110670000Y-63555000D02*
X110670000Y-66086000D01*
X110670000Y-63555000D02*
X109038300Y-61923300D01*
D74*
%TO.N,/Input_{4}*%
X108536400Y-59123300D02*
X107873300Y-59123300D01*
X101620000Y-52870000D02*
X101430000Y-52870000D01*
X107873300Y-59123300D02*
X101620000Y-52870000D01*
D75*
X101430000Y-52870000D02*
X101430000Y-45250000D01*
D73*
%TO.N,/GPIO/In_{3}*%
X111940000Y-63580400D02*
X111940000Y-66086000D01*
X111940000Y-62634500D02*
X111228800Y-61923300D01*
X111940000Y-63580400D02*
X111940000Y-62634500D01*
D75*
%TO.N,/CAN_{L}*%
X91270000Y-52870000D02*
X91270000Y-45250000D01*
D72*
X100430200Y-66574800D02*
X100965000Y-66040000D01*
X90800000Y-70000000D02*
X91728400Y-70928400D01*
X91270000Y-52870000D02*
X90805000Y-53335000D01*
X99546900Y-66574800D02*
X99546900Y-67016450D01*
X90800000Y-68800000D02*
X90800000Y-70000000D01*
X99546900Y-66574800D02*
X100430200Y-66574800D01*
X91728400Y-70928400D02*
X94113200Y-70928400D01*
%TO.N,/CAN_{H}*%
X94281000Y-66574800D02*
X94281000Y-65104000D01*
X86360600Y-52870000D02*
X86190000Y-52870000D01*
X94281000Y-65104000D02*
X95083400Y-64301600D01*
X89535000Y-70204259D02*
X91529141Y-72198400D01*
X91529141Y-72198400D02*
X94113200Y-72198400D01*
X89635200Y-66574800D02*
X94281000Y-66574800D01*
X89535000Y-68800000D02*
X89535000Y-70204259D01*
X89535000Y-66675000D02*
X89635200Y-66574800D01*
X95083400Y-64301600D02*
X95083400Y-63120400D01*
D75*
X86190000Y-45250000D02*
X86190000Y-52870000D01*
D72*
%TO.N,/CAN Peripherals/~{reset}*%
X95201100Y-101198900D02*
X95000000Y-101400000D01*
X93472000Y-96069300D02*
X93472000Y-94996000D01*
X94133350Y-96730650D02*
X93472000Y-96069300D01*
X95201100Y-97798400D02*
X95201100Y-101198900D01*
X95201100Y-97798400D02*
X94133350Y-96730650D01*
%TO.N,/CAN Peripherals/slew_control*%
X94111250Y-75907500D02*
X96388750Y-75907500D01*
X94113200Y-75774300D02*
X93980000Y-75907500D01*
X94113200Y-73468400D02*
X94113200Y-75774300D01*
X96257500Y-75907500D02*
X96520000Y-75645000D01*
%TO.N,/CAN Peripherals/OSC2*%
X87355600Y-80076000D02*
X89277600Y-78154000D01*
X89277600Y-78154000D02*
X91123600Y-80000000D01*
X87355600Y-82116400D02*
X87355600Y-80076000D01*
X87122000Y-82350000D02*
X87355600Y-82116400D01*
X91123600Y-80000000D02*
X95000000Y-80000000D01*
X87122000Y-85696000D02*
X87122000Y-82350000D01*
%TO.N,/CAN Peripherals/OSC1*%
X85633600Y-80010000D02*
X83777600Y-78154000D01*
X85852000Y-83548000D02*
X85852000Y-82334800D01*
X85852000Y-82334800D02*
X85633600Y-82116400D01*
X85633600Y-82116400D02*
X85633600Y-80010000D01*
X85852000Y-85696000D02*
X85852000Y-83548000D01*
D73*
%TO.N,/CAN Peripherals/CAN_{Tx}*%
X101082500Y-76000000D02*
X102108000Y-77025500D01*
X100250000Y-76000000D02*
X101082500Y-76000000D01*
D72*
X102108000Y-77025500D02*
X102108000Y-74676000D01*
X102108000Y-74676000D02*
X100900400Y-73468400D01*
X102108000Y-82740500D02*
X102108000Y-80835500D01*
X100900400Y-73468400D02*
X99263200Y-73468400D01*
D73*
%TO.N,/CAN Peripherals/CAN_{RxLOW}*%
X103378000Y-78930500D02*
X103378000Y-71882000D01*
X103505000Y-72755000D02*
X103505000Y-71755000D01*
X103378000Y-71882000D02*
X103505000Y-71755000D01*
X105250000Y-74500000D02*
X103505000Y-72755000D01*
D72*
X103505000Y-69755000D02*
X103505000Y-71755000D01*
D74*
%TO.N,+5V*%
X158265000Y-123690000D02*
X158265000Y-121150000D01*
X126168100Y-98668100D02*
X129640900Y-98668100D01*
D72*
X110500000Y-84750000D02*
X110499000Y-84751000D01*
D74*
X144400000Y-114100000D02*
X139000000Y-114100000D01*
X120500000Y-79000000D02*
X117402200Y-79000000D01*
X158265000Y-120235000D02*
X160100000Y-118400000D01*
D72*
X113928000Y-81794000D02*
X113771000Y-81637000D01*
D74*
X120703000Y-75699200D02*
X118603200Y-75699200D01*
X107250000Y-77950000D02*
X107250000Y-81502000D01*
D72*
X138542000Y-108050000D02*
X137338000Y-108050000D01*
X138542000Y-109397999D02*
X138542000Y-108050000D01*
D74*
X107250000Y-81502000D02*
X110499000Y-84751000D01*
X158265000Y-121150000D02*
X158265000Y-120235000D01*
X104228000Y-64478000D02*
X107250000Y-67500000D01*
X157000000Y-117800000D02*
X158850000Y-119650000D01*
D72*
X113928000Y-84750000D02*
X113928000Y-81794000D01*
X139756500Y-109950000D02*
X139094001Y-109950000D01*
D74*
X122000000Y-94500000D02*
X126168100Y-98668100D01*
X152200000Y-117800000D02*
X157000000Y-117800000D01*
X139000000Y-114100000D02*
X135914700Y-111014700D01*
D72*
%TO.N,/Power Supply/Vout*%
X128985300Y-85183700D02*
X128523300Y-85645700D01*
D74*
%TO.N,+5V*%
X107250000Y-88797000D02*
X113341000Y-94888000D01*
X121955378Y-80455378D02*
X120500000Y-79000000D01*
D72*
X97700000Y-70928400D02*
X99263200Y-70928400D01*
D75*
X135914700Y-100078900D02*
X135324500Y-99488700D01*
D72*
X112658000Y-84750000D02*
X110500000Y-84750000D01*
%TO.N,/Power Supply/Vout*%
X130739800Y-85241200D02*
X130682300Y-85183700D01*
%TO.N,+5V*%
X113928000Y-84750000D02*
X112658000Y-84750000D01*
D74*
X120703000Y-75699200D02*
X120703000Y-79203000D01*
D72*
X139094001Y-109950000D02*
X138542000Y-109397999D01*
D73*
X135914700Y-104585300D02*
X141664700Y-104585300D01*
D74*
X135914700Y-111014700D02*
X135914700Y-106626700D01*
X122044622Y-85544622D02*
X122000000Y-85589244D01*
D72*
%TO.N,/Power Supply/Vout*%
X130682300Y-85183700D02*
X128985300Y-85183700D01*
D74*
%TO.N,+5V*%
X118603200Y-75699200D02*
X118290000Y-75386000D01*
D73*
X141664700Y-104585300D02*
X146000000Y-100250000D01*
D75*
X135914700Y-106626700D02*
X137338000Y-108050000D01*
D74*
X122000000Y-85589244D02*
X122000000Y-94500000D01*
X107300000Y-79000000D02*
X107250000Y-79050000D01*
D72*
X139756500Y-108050000D02*
X138542000Y-108050000D01*
D74*
X107250000Y-67500000D02*
X107250000Y-77950000D01*
D72*
%TO.N,/Power Supply/Vout*%
X132714300Y-85241200D02*
X130739800Y-85241200D01*
D75*
%TO.N,+5V*%
X135914700Y-101968100D02*
X135914700Y-104585300D01*
D73*
X113341000Y-94888000D02*
X115500000Y-94888000D01*
D72*
X97688400Y-70916800D02*
X97700000Y-70928400D01*
D75*
X135914700Y-104585300D02*
X135914700Y-106626700D01*
D74*
X120703000Y-79203000D02*
X121955378Y-80455378D01*
X107250000Y-81502000D02*
X107250000Y-88797000D01*
X117402200Y-79000000D02*
X107300000Y-79000000D01*
X160100000Y-118400000D02*
X163200000Y-115300000D01*
D75*
X135914700Y-101968100D02*
X135914700Y-100078900D01*
D73*
%TO.N,+3V3*%
X111563000Y-100228000D02*
X111629000Y-100294000D01*
D74*
X111700000Y-123800000D02*
X110900000Y-123800000D01*
D73*
X134750000Y-124000000D02*
X130492500Y-124000000D01*
X157744000Y-79756000D02*
X158787999Y-79756000D01*
D74*
X97026100Y-95647700D02*
X96875600Y-95497200D01*
D73*
X135750000Y-129500000D02*
X135750000Y-125000000D01*
X115312000Y-99295500D02*
X114611000Y-98594500D01*
X156487999Y-81012001D02*
X157744000Y-79756000D01*
D74*
X149000000Y-103700000D02*
X148800000Y-103700000D01*
X135750000Y-129500000D02*
X128955000Y-129500000D01*
D73*
X107800000Y-105400000D02*
X109400000Y-103800000D01*
D74*
X117780400Y-129880400D02*
X112500000Y-124600000D01*
X128905000Y-129550000D02*
X128574600Y-129880400D01*
X146000000Y-109600000D02*
X144450000Y-108050000D01*
X125543200Y-129880400D02*
X117780400Y-129880400D01*
D73*
X149000000Y-103700000D02*
X149000000Y-101250000D01*
X113341000Y-103825000D02*
X115500000Y-103825000D01*
D74*
X146000000Y-123800000D02*
X146000000Y-109600000D01*
X102362299Y-110837701D02*
X97026100Y-105501502D01*
D73*
X102362299Y-110837701D02*
X106200000Y-107000000D01*
D74*
X112500000Y-124600000D02*
X111700000Y-123800000D01*
D73*
X149000000Y-101250000D02*
X150000000Y-100250000D01*
D72*
X94742000Y-94996000D02*
X95243200Y-95497200D01*
D74*
X128574600Y-129880400D02*
X125543200Y-129880400D01*
X141000000Y-128800000D02*
X146000000Y-123800000D01*
D73*
X111563000Y-98594500D02*
X111563000Y-100228000D01*
X130492500Y-124000000D02*
X128905000Y-125587500D01*
D72*
X95243200Y-95497200D02*
X96875600Y-95497200D01*
D74*
X148800000Y-103700000D02*
X144450000Y-108050000D01*
X161300000Y-81800000D02*
X161235800Y-81864200D01*
D73*
X109425000Y-103825000D02*
X109400000Y-103800000D01*
D74*
X106400000Y-121300000D02*
X99150000Y-114050000D01*
X141000000Y-128800000D02*
X140300000Y-129500000D01*
D73*
X156487999Y-81864200D02*
X156487999Y-81012001D01*
X113341000Y-103825000D02*
X109425000Y-103825000D01*
X153500000Y-105758200D02*
X153500000Y-106223700D01*
D74*
X97026100Y-97798400D02*
X97026100Y-95647700D01*
X161235800Y-81864200D02*
X156487999Y-81864200D01*
D73*
X111629000Y-101571000D02*
X111629000Y-100294000D01*
X142031500Y-108050000D02*
X144450000Y-108050000D01*
X109400000Y-103800000D02*
X111629000Y-101571000D01*
X153500000Y-106223700D02*
X152893500Y-106830200D01*
X115312000Y-100294000D02*
X115312000Y-99295500D01*
D74*
X140300000Y-129500000D02*
X135750000Y-129500000D01*
D73*
X135750000Y-125000000D02*
X134750000Y-124000000D01*
D74*
X128955000Y-129500000D02*
X128905000Y-129550000D01*
X106400000Y-123800000D02*
X106400000Y-121300000D01*
X99150000Y-114050000D02*
X95562500Y-114050000D01*
X97026100Y-105501502D02*
X97026100Y-97798400D01*
%TO.N,+12V*%
X159779799Y-63779799D02*
X159750000Y-63750000D01*
X149619799Y-63380201D02*
X149750000Y-63250000D01*
X155969799Y-63719799D02*
X155750000Y-63500000D01*
X155969799Y-65077200D02*
X155969799Y-63719799D01*
D75*
X145765300Y-91934700D02*
X142340900Y-91934700D01*
X147200000Y-90500000D02*
X145765300Y-91934700D01*
X147200000Y-85500000D02*
X147200000Y-90500000D01*
D74*
X140729799Y-63520201D02*
X140750000Y-63500000D01*
X140729799Y-65177200D02*
X140729799Y-63520201D01*
X162319799Y-65177200D02*
X162319799Y-63569799D01*
X143269799Y-63519799D02*
X143269799Y-65177200D01*
D75*
X133750000Y-61250000D02*
X133663200Y-61336800D01*
D74*
X159779799Y-65177200D02*
X159779799Y-63779799D01*
X147079799Y-63420201D02*
X147250000Y-63250000D01*
X153429799Y-63679799D02*
X153000000Y-63250000D01*
X153429799Y-65077200D02*
X153429799Y-63679799D01*
D75*
X124250000Y-61336800D02*
X129387600Y-61336800D01*
D74*
X147079799Y-65077200D02*
X147079799Y-63420201D01*
X149619799Y-65077200D02*
X149619799Y-63380201D01*
D75*
X133663200Y-61336800D02*
X129387600Y-61336800D01*
D74*
X143250000Y-63500000D02*
X143269799Y-63519799D01*
X162319799Y-63569799D02*
X162250000Y-63500000D01*
%TO.N,/Input_{1}*%
X115750000Y-56750000D02*
X115750000Y-60106300D01*
X116670000Y-52870000D02*
X116670000Y-55830000D01*
D75*
X116670000Y-45250000D02*
X116670000Y-52870000D01*
D74*
X116670000Y-55830000D02*
X115750000Y-56750000D01*
%TO.N,/Input_{2}*%
X111590000Y-54590000D02*
X113616400Y-56616400D01*
X113616400Y-56616400D02*
X113616400Y-60104400D01*
D75*
X111590000Y-45250000D02*
X111590000Y-52870000D01*
D74*
X111590000Y-52870000D02*
X111590000Y-54590000D01*
D72*
%TO.N,/GPIO/SHIFT_IND*%
X160800000Y-77200000D02*
X162075000Y-78475000D01*
X152287999Y-77216000D02*
X153784000Y-77216000D01*
X162075000Y-78475000D02*
X164500000Y-78475000D01*
X153784000Y-77216000D02*
X153800000Y-77200000D01*
D73*
%TO.N,/GPIO/In_{1}*%
X114530800Y-63580400D02*
X115750000Y-62361200D01*
X115750000Y-62361200D02*
X115750000Y-61931300D01*
X114480000Y-63631200D02*
X114480000Y-66086000D01*
X114530800Y-63580400D02*
X114480000Y-63631200D01*
%TO.N,/GPIO/In_{2}*%
X113235400Y-62310400D02*
X113616400Y-61929400D01*
X113235400Y-63580400D02*
X113235400Y-62310400D01*
X113235400Y-63580400D02*
X113210000Y-63605800D01*
X113210000Y-63605800D02*
X113210000Y-66086000D01*
D75*
%TO.N,/BUS.PWR_{OUT}*%
X130750000Y-52870000D02*
X130750000Y-45250000D01*
X130750000Y-57174400D02*
X129387600Y-58536800D01*
X130750000Y-52870000D02*
X130750000Y-57174400D01*
%TO.N,/BUS.PWR_{IN}*%
X121750000Y-45250000D02*
X121750000Y-52870000D01*
X121750000Y-56036800D02*
X124250000Y-58536800D01*
X121750000Y-52870000D02*
X121750000Y-56036800D01*
D74*
X121158600Y-59000000D02*
X121133600Y-58975000D01*
D72*
X124250000Y-58536800D02*
X124036800Y-58750000D01*
X121358600Y-58750000D02*
X121133600Y-58975000D01*
X124036800Y-58750000D02*
X121358600Y-58750000D01*
%TO.N,/GPIO/IND_{1}*%
X116321001Y-71250000D02*
X129500000Y-71250000D01*
X113210000Y-74361001D02*
X116321001Y-71250000D01*
X131790000Y-68960000D02*
X131790000Y-67775000D01*
X129500000Y-71250000D02*
X131790000Y-68960000D01*
X113210000Y-75386000D02*
X113210000Y-74361001D01*
%TO.N,/GPIO/IND_{2}*%
X129250000Y-67775000D02*
X129250000Y-69000000D01*
X111940000Y-74310000D02*
X111940000Y-75386000D01*
X129250000Y-69000000D02*
X127500000Y-70750000D01*
X127500000Y-70750000D02*
X115500000Y-70750000D01*
X115500000Y-70750000D02*
X111940000Y-74310000D01*
%TO.N,/GPIO/IND_{3}*%
X114750000Y-70250000D02*
X125500000Y-70250000D01*
X110670000Y-75386000D02*
X110670000Y-74330000D01*
X126710000Y-69040000D02*
X126710000Y-67775000D01*
X125500000Y-70250000D02*
X126710000Y-69040000D01*
X110670000Y-74330000D02*
X114750000Y-70250000D01*
%TO.N,Net-(D14-Pad1)*%
X126710000Y-65725000D02*
X126710000Y-64210000D01*
%TO.N,Net-(D15-Pad1)*%
X129250000Y-65725000D02*
X129250000Y-64210000D01*
%TO.N,/GPIO/IND_{4}*%
X123500000Y-69750000D02*
X114011001Y-69750000D01*
X124170000Y-67775000D02*
X124170000Y-69080000D01*
X109400000Y-74361001D02*
X109400000Y-75386000D01*
X124170000Y-69080000D02*
X123500000Y-69750000D01*
X114011001Y-69750000D02*
X109400000Y-74361001D01*
%TD*%
%TA.AperFunction,Conductor*%
%TO.N,/Jack_PWR*%
G36*
X159442121Y-84020002D02*
G01*
X159488614Y-84073658D01*
X159500000Y-84126000D01*
X159500000Y-84605000D01*
X159479998Y-84673121D01*
X159426342Y-84719614D01*
X159374000Y-84731000D01*
X158042658Y-84731000D01*
X158040717Y-84731120D01*
X158040716Y-84731120D01*
X158036484Y-84731382D01*
X157995205Y-84733933D01*
X157990464Y-84734971D01*
X157837333Y-84768499D01*
X157794729Y-84777827D01*
X157606170Y-84858838D01*
X157436332Y-84974044D01*
X157291343Y-85119286D01*
X157176434Y-85289325D01*
X157095752Y-85478025D01*
X157052208Y-85678577D01*
X157049500Y-85724158D01*
X157049500Y-87638842D01*
X157052433Y-87686295D01*
X157096327Y-87886771D01*
X157177338Y-88075330D01*
X157292544Y-88245168D01*
X157437786Y-88390157D01*
X157607825Y-88505066D01*
X157796525Y-88585748D01*
X157884150Y-88604773D01*
X157992314Y-88628258D01*
X157992316Y-88628258D01*
X157997077Y-88629292D01*
X158006244Y-88629837D01*
X158040802Y-88631890D01*
X158040811Y-88631890D01*
X158042658Y-88632000D01*
X159374000Y-88632000D01*
X159442121Y-88652002D01*
X159488614Y-88705658D01*
X159500000Y-88758000D01*
X159500000Y-95874000D01*
X159479998Y-95942121D01*
X159426342Y-95988614D01*
X159374000Y-96000000D01*
X148730892Y-96000000D01*
X148662771Y-95979998D01*
X148616278Y-95926342D01*
X148604897Y-95875113D01*
X148588736Y-94045548D01*
X148856001Y-94045548D01*
X148856001Y-94278804D01*
X148856280Y-94284725D01*
X148858256Y-94305631D01*
X148861521Y-94320516D01*
X148900694Y-94432064D01*
X148909406Y-94448520D01*
X148978616Y-94542221D01*
X148991779Y-94555384D01*
X149085480Y-94624594D01*
X149101936Y-94633306D01*
X149213479Y-94672477D01*
X149228373Y-94675745D01*
X149249281Y-94677721D01*
X149255192Y-94678000D01*
X149358885Y-94678000D01*
X149374124Y-94673525D01*
X149375329Y-94672135D01*
X149377000Y-94664452D01*
X149377000Y-94050115D01*
X149375659Y-94045548D01*
X149885000Y-94045548D01*
X149885000Y-94659884D01*
X149889475Y-94675123D01*
X149890865Y-94676328D01*
X149898548Y-94677999D01*
X150006804Y-94677999D01*
X150012725Y-94677720D01*
X150033631Y-94675744D01*
X150048516Y-94672479D01*
X150160064Y-94633306D01*
X150176520Y-94624594D01*
X150270221Y-94555384D01*
X150283384Y-94542221D01*
X150352594Y-94448520D01*
X150361306Y-94432064D01*
X150400477Y-94320521D01*
X150403745Y-94305627D01*
X150405721Y-94284719D01*
X150406000Y-94278808D01*
X150406000Y-94050115D01*
X150401525Y-94034876D01*
X150400135Y-94033671D01*
X150392452Y-94032000D01*
X149903115Y-94032000D01*
X149887876Y-94036475D01*
X149886671Y-94037865D01*
X149885000Y-94045548D01*
X149375659Y-94045548D01*
X149372525Y-94034876D01*
X149371135Y-94033671D01*
X149363452Y-94032000D01*
X148874116Y-94032000D01*
X148858877Y-94036475D01*
X148857672Y-94037865D01*
X148856001Y-94045548D01*
X148588736Y-94045548D01*
X148582428Y-93331500D01*
X148581948Y-93277192D01*
X148856000Y-93277192D01*
X148856000Y-93505885D01*
X148860475Y-93521124D01*
X148861865Y-93522329D01*
X148869548Y-93524000D01*
X149358885Y-93524000D01*
X149374124Y-93519525D01*
X149375329Y-93518135D01*
X149377000Y-93510452D01*
X149377000Y-92896116D01*
X149375659Y-92891548D01*
X149885000Y-92891548D01*
X149885000Y-93505885D01*
X149889475Y-93521124D01*
X149890865Y-93522329D01*
X149898548Y-93524000D01*
X150387884Y-93524000D01*
X150403123Y-93519525D01*
X150404328Y-93518135D01*
X150405999Y-93510452D01*
X150405999Y-93277196D01*
X150405720Y-93271275D01*
X150403744Y-93250369D01*
X150400479Y-93235484D01*
X150361306Y-93123936D01*
X150352594Y-93107480D01*
X150283384Y-93013779D01*
X150270221Y-93000616D01*
X150176520Y-92931406D01*
X150160064Y-92922694D01*
X150048521Y-92883523D01*
X150033627Y-92880255D01*
X150012719Y-92878279D01*
X150006808Y-92878000D01*
X149903115Y-92878000D01*
X149887876Y-92882475D01*
X149886671Y-92883865D01*
X149885000Y-92891548D01*
X149375659Y-92891548D01*
X149372525Y-92880877D01*
X149371135Y-92879672D01*
X149363452Y-92878001D01*
X149255196Y-92878001D01*
X149249275Y-92878280D01*
X149228369Y-92880256D01*
X149213484Y-92883521D01*
X149101936Y-92922694D01*
X149085480Y-92931406D01*
X148991779Y-93000616D01*
X148978616Y-93013779D01*
X148909406Y-93107480D01*
X148900694Y-93123936D01*
X148861523Y-93235479D01*
X148858255Y-93250373D01*
X148856279Y-93271281D01*
X148856000Y-93277192D01*
X148581948Y-93277192D01*
X148567566Y-91649048D01*
X154050000Y-91649048D01*
X154050000Y-93145011D01*
X154051207Y-93157266D01*
X154059183Y-93197364D01*
X154068499Y-93219855D01*
X154098915Y-93265376D01*
X154116124Y-93282585D01*
X154161645Y-93313001D01*
X154184136Y-93322317D01*
X154224234Y-93330293D01*
X154236489Y-93331500D01*
X155727885Y-93331500D01*
X155743124Y-93327025D01*
X155744329Y-93325635D01*
X155746000Y-93317952D01*
X155746000Y-91653615D01*
X155744659Y-91649048D01*
X156254000Y-91649048D01*
X156254000Y-93313385D01*
X156258475Y-93328624D01*
X156259865Y-93329829D01*
X156267548Y-93331500D01*
X157763511Y-93331500D01*
X157775766Y-93330293D01*
X157815864Y-93322317D01*
X157838355Y-93313001D01*
X157883876Y-93282585D01*
X157901085Y-93265376D01*
X157931501Y-93219855D01*
X157940817Y-93197364D01*
X157948793Y-93157266D01*
X157950000Y-93145011D01*
X157950000Y-91653615D01*
X157945525Y-91638376D01*
X157944135Y-91637171D01*
X157936452Y-91635500D01*
X156272115Y-91635500D01*
X156256876Y-91639975D01*
X156255671Y-91641365D01*
X156254000Y-91649048D01*
X155744659Y-91649048D01*
X155741525Y-91638376D01*
X155740135Y-91637171D01*
X155732452Y-91635500D01*
X154068115Y-91635500D01*
X154052876Y-91639975D01*
X154051671Y-91641365D01*
X154050000Y-91649048D01*
X148567566Y-91649048D01*
X148559780Y-90767548D01*
X149250000Y-90767548D01*
X149250000Y-91063511D01*
X149251207Y-91075766D01*
X149259183Y-91115864D01*
X149268499Y-91138355D01*
X149298915Y-91183876D01*
X149316124Y-91201085D01*
X149361645Y-91231501D01*
X149384136Y-91240817D01*
X149424234Y-91248793D01*
X149436489Y-91250000D01*
X149727885Y-91250000D01*
X149743124Y-91245525D01*
X149744329Y-91244135D01*
X149746000Y-91236452D01*
X149746000Y-90772115D01*
X149744659Y-90767548D01*
X150254000Y-90767548D01*
X150254000Y-91231885D01*
X150258475Y-91247124D01*
X150259865Y-91248329D01*
X150267548Y-91250000D01*
X150563511Y-91250000D01*
X150575766Y-91248793D01*
X150615864Y-91240817D01*
X150638355Y-91231501D01*
X150683876Y-91201085D01*
X150701085Y-91183876D01*
X150731501Y-91138355D01*
X150740817Y-91115864D01*
X150748793Y-91075766D01*
X150750000Y-91063511D01*
X150750000Y-90772115D01*
X150745525Y-90756876D01*
X150744135Y-90755671D01*
X150736452Y-90754000D01*
X150272115Y-90754000D01*
X150256876Y-90758475D01*
X150255671Y-90759865D01*
X150254000Y-90767548D01*
X149744659Y-90767548D01*
X149741525Y-90756876D01*
X149740135Y-90755671D01*
X149732452Y-90754000D01*
X149268115Y-90754000D01*
X149252876Y-90758475D01*
X149251671Y-90759865D01*
X149250000Y-90767548D01*
X148559780Y-90767548D01*
X148552439Y-89936489D01*
X149250000Y-89936489D01*
X149250000Y-90227885D01*
X149254475Y-90243124D01*
X149255865Y-90244329D01*
X149263548Y-90246000D01*
X149727885Y-90246000D01*
X149743124Y-90241525D01*
X149744329Y-90240135D01*
X149746000Y-90232452D01*
X149746000Y-89768115D01*
X149744659Y-89763548D01*
X150254000Y-89763548D01*
X150254000Y-90227885D01*
X150258475Y-90243124D01*
X150259865Y-90244329D01*
X150267548Y-90246000D01*
X150731885Y-90246000D01*
X150747124Y-90241525D01*
X150748329Y-90240135D01*
X150750000Y-90232452D01*
X150750000Y-89936489D01*
X150748793Y-89924234D01*
X150740817Y-89884136D01*
X150731501Y-89861645D01*
X150701085Y-89816124D01*
X150683876Y-89798915D01*
X150638355Y-89768499D01*
X150615864Y-89759183D01*
X150575766Y-89751207D01*
X150563511Y-89750000D01*
X150272115Y-89750000D01*
X150256876Y-89754475D01*
X150255671Y-89755865D01*
X150254000Y-89763548D01*
X149744659Y-89763548D01*
X149741525Y-89752876D01*
X149740135Y-89751671D01*
X149732452Y-89750000D01*
X149436489Y-89750000D01*
X149424234Y-89751207D01*
X149384136Y-89759183D01*
X149361645Y-89768499D01*
X149316124Y-89798915D01*
X149298915Y-89816124D01*
X149268499Y-89861645D01*
X149259183Y-89884136D01*
X149251207Y-89924234D01*
X149250000Y-89936489D01*
X148552439Y-89936489D01*
X148549626Y-89617989D01*
X154050000Y-89617989D01*
X154050000Y-91109385D01*
X154054475Y-91124624D01*
X154055865Y-91125829D01*
X154063548Y-91127500D01*
X155727885Y-91127500D01*
X155743124Y-91123025D01*
X155744329Y-91121635D01*
X155746000Y-91113952D01*
X155746000Y-89449615D01*
X155744659Y-89445048D01*
X156254000Y-89445048D01*
X156254000Y-91109385D01*
X156258475Y-91124624D01*
X156259865Y-91125829D01*
X156267548Y-91127500D01*
X157931885Y-91127500D01*
X157947124Y-91123025D01*
X157948329Y-91121635D01*
X157950000Y-91113952D01*
X157950000Y-89617989D01*
X157948793Y-89605734D01*
X157940817Y-89565636D01*
X157931501Y-89543145D01*
X157901085Y-89497624D01*
X157883876Y-89480415D01*
X157838355Y-89449999D01*
X157815864Y-89440683D01*
X157775766Y-89432707D01*
X157763511Y-89431500D01*
X156272115Y-89431500D01*
X156256876Y-89435975D01*
X156255671Y-89437365D01*
X156254000Y-89445048D01*
X155744659Y-89445048D01*
X155741525Y-89434376D01*
X155740135Y-89433171D01*
X155732452Y-89431500D01*
X154236489Y-89431500D01*
X154224234Y-89432707D01*
X154184136Y-89440683D01*
X154161645Y-89449999D01*
X154116124Y-89480415D01*
X154098915Y-89497624D01*
X154068499Y-89543145D01*
X154059183Y-89565636D01*
X154051207Y-89605734D01*
X154050000Y-89617989D01*
X148549626Y-89617989D01*
X148537697Y-88267548D01*
X149250000Y-88267548D01*
X149250000Y-88563511D01*
X149251207Y-88575766D01*
X149259183Y-88615864D01*
X149268499Y-88638355D01*
X149298915Y-88683876D01*
X149316124Y-88701085D01*
X149361645Y-88731501D01*
X149384136Y-88740817D01*
X149424234Y-88748793D01*
X149436489Y-88750000D01*
X149727885Y-88750000D01*
X149743124Y-88745525D01*
X149744329Y-88744135D01*
X149746000Y-88736452D01*
X149746000Y-88272115D01*
X149744659Y-88267548D01*
X150254000Y-88267548D01*
X150254000Y-88731885D01*
X150258475Y-88747124D01*
X150259865Y-88748329D01*
X150267548Y-88750000D01*
X150563511Y-88750000D01*
X150575766Y-88748793D01*
X150615864Y-88740817D01*
X150638355Y-88731501D01*
X150683876Y-88701085D01*
X150701085Y-88683876D01*
X150731501Y-88638355D01*
X150740817Y-88615864D01*
X150748793Y-88575766D01*
X150750000Y-88563511D01*
X150750000Y-88272115D01*
X150745525Y-88256876D01*
X150744135Y-88255671D01*
X150736452Y-88254000D01*
X150272115Y-88254000D01*
X150256876Y-88258475D01*
X150255671Y-88259865D01*
X150254000Y-88267548D01*
X149744659Y-88267548D01*
X149741525Y-88256876D01*
X149740135Y-88255671D01*
X149732452Y-88254000D01*
X149268115Y-88254000D01*
X149252876Y-88258475D01*
X149251671Y-88259865D01*
X149250000Y-88267548D01*
X148537697Y-88267548D01*
X148530356Y-87436489D01*
X149250000Y-87436489D01*
X149250000Y-87727885D01*
X149254475Y-87743124D01*
X149255865Y-87744329D01*
X149263548Y-87746000D01*
X149727885Y-87746000D01*
X149743124Y-87741525D01*
X149744329Y-87740135D01*
X149746000Y-87732452D01*
X149746000Y-87268115D01*
X149744659Y-87263548D01*
X150254000Y-87263548D01*
X150254000Y-87727885D01*
X150258475Y-87743124D01*
X150259865Y-87744329D01*
X150267548Y-87746000D01*
X150731885Y-87746000D01*
X150747124Y-87741525D01*
X150748329Y-87740135D01*
X150750000Y-87732452D01*
X150750000Y-87436489D01*
X150748793Y-87424234D01*
X150740817Y-87384136D01*
X150731501Y-87361645D01*
X150701085Y-87316124D01*
X150683876Y-87298915D01*
X150638355Y-87268499D01*
X150615864Y-87259183D01*
X150575766Y-87251207D01*
X150563511Y-87250000D01*
X150272115Y-87250000D01*
X150256876Y-87254475D01*
X150255671Y-87255865D01*
X150254000Y-87263548D01*
X149744659Y-87263548D01*
X149741525Y-87252876D01*
X149740135Y-87251671D01*
X149732452Y-87250000D01*
X149436489Y-87250000D01*
X149424234Y-87251207D01*
X149384136Y-87259183D01*
X149361645Y-87268499D01*
X149316124Y-87298915D01*
X149298915Y-87316124D01*
X149268499Y-87361645D01*
X149259183Y-87384136D01*
X149251207Y-87424234D01*
X149250000Y-87436489D01*
X148530356Y-87436489D01*
X148524158Y-86734839D01*
X148543556Y-86666547D01*
X148576600Y-86631425D01*
X148599520Y-86614946D01*
X148599523Y-86614944D01*
X148601079Y-86613825D01*
X148602545Y-86612628D01*
X148602556Y-86612620D01*
X148607941Y-86608224D01*
X148620030Y-86598357D01*
X148642279Y-86565883D01*
X148666342Y-86530761D01*
X148666344Y-86530757D01*
X148670337Y-86524929D01*
X148689010Y-86477668D01*
X148694770Y-86463088D01*
X148694770Y-86463087D01*
X148696425Y-86458899D01*
X148709596Y-86403515D01*
X148767411Y-85767548D01*
X149250000Y-85767548D01*
X149250000Y-86063511D01*
X149251207Y-86075766D01*
X149259183Y-86115864D01*
X149268499Y-86138355D01*
X149298915Y-86183876D01*
X149316124Y-86201085D01*
X149361645Y-86231501D01*
X149384136Y-86240817D01*
X149424234Y-86248793D01*
X149436489Y-86250000D01*
X149727885Y-86250000D01*
X149743124Y-86245525D01*
X149744329Y-86244135D01*
X149746000Y-86236452D01*
X149746000Y-85772115D01*
X149744659Y-85767548D01*
X150254000Y-85767548D01*
X150254000Y-86231885D01*
X150258475Y-86247124D01*
X150259865Y-86248329D01*
X150267548Y-86250000D01*
X150563511Y-86250000D01*
X150575766Y-86248793D01*
X150615864Y-86240817D01*
X150638355Y-86231501D01*
X150683876Y-86201085D01*
X150701085Y-86183876D01*
X150731501Y-86138355D01*
X150740817Y-86115864D01*
X150748793Y-86075766D01*
X150750000Y-86063511D01*
X150750000Y-85772115D01*
X150745525Y-85756876D01*
X150744135Y-85755671D01*
X150736452Y-85754000D01*
X150272115Y-85754000D01*
X150256876Y-85758475D01*
X150255671Y-85759865D01*
X150254000Y-85767548D01*
X149744659Y-85767548D01*
X149741525Y-85756876D01*
X149740135Y-85755671D01*
X149732452Y-85754000D01*
X149268115Y-85754000D01*
X149252876Y-85758475D01*
X149251671Y-85759865D01*
X149250000Y-85767548D01*
X148767411Y-85767548D01*
X148842962Y-84936489D01*
X149250000Y-84936489D01*
X149250000Y-85227885D01*
X149254475Y-85243124D01*
X149255865Y-85244329D01*
X149263548Y-85246000D01*
X149727885Y-85246000D01*
X149743124Y-85241525D01*
X149744329Y-85240135D01*
X149746000Y-85232452D01*
X149746000Y-84768115D01*
X149744659Y-84763548D01*
X150254000Y-84763548D01*
X150254000Y-85227885D01*
X150258475Y-85243124D01*
X150259865Y-85244329D01*
X150267548Y-85246000D01*
X150731885Y-85246000D01*
X150747124Y-85241525D01*
X150748329Y-85240135D01*
X150750000Y-85232452D01*
X150750000Y-84936489D01*
X150748793Y-84924234D01*
X150740817Y-84884136D01*
X150731501Y-84861645D01*
X150701085Y-84816124D01*
X150683876Y-84798915D01*
X150638355Y-84768499D01*
X150615864Y-84759183D01*
X150575766Y-84751207D01*
X150563511Y-84750000D01*
X150272115Y-84750000D01*
X150256876Y-84754475D01*
X150255671Y-84755865D01*
X150254000Y-84763548D01*
X149744659Y-84763548D01*
X149741525Y-84752876D01*
X149740135Y-84751671D01*
X149732452Y-84750000D01*
X149436489Y-84750000D01*
X149424234Y-84751207D01*
X149384136Y-84759183D01*
X149361645Y-84768499D01*
X149316124Y-84798915D01*
X149298915Y-84816124D01*
X149268499Y-84861645D01*
X149259183Y-84884136D01*
X149251207Y-84924234D01*
X149250000Y-84936489D01*
X148842962Y-84936489D01*
X148917680Y-84114590D01*
X148943767Y-84048562D01*
X149001411Y-84007118D01*
X149043162Y-84000000D01*
X159374000Y-84000000D01*
X159442121Y-84020002D01*
G37*
%TD.AperFunction*%
%TD*%
%TA.AperFunction,Conductor*%
%TO.N,+12V*%
G36*
X141059733Y-90846249D02*
G01*
X143109770Y-91328611D01*
X143171498Y-91363683D01*
X143204465Y-91426561D01*
X143206873Y-91448189D01*
X143229324Y-92368702D01*
X143210988Y-92437290D01*
X143158482Y-92485077D01*
X143135746Y-92493541D01*
X141900864Y-92821967D01*
X141868479Y-92826200D01*
X141815500Y-92826200D01*
X141812254Y-92826537D01*
X141812250Y-92826537D01*
X141716592Y-92836462D01*
X141716588Y-92836463D01*
X141709734Y-92837174D01*
X141703198Y-92839355D01*
X141703196Y-92839355D01*
X141640528Y-92860263D01*
X141541954Y-92893150D01*
X141489041Y-92925894D01*
X141455130Y-92940513D01*
X141033060Y-93052766D01*
X140897184Y-93088903D01*
X140829648Y-93088133D01*
X140766331Y-93069738D01*
X140759921Y-93069233D01*
X140759918Y-93069233D01*
X140731458Y-93066993D01*
X140731450Y-93066993D01*
X140729002Y-93066800D01*
X139270998Y-93066800D01*
X139268538Y-93066994D01*
X139268528Y-93066994D01*
X139263891Y-93067359D01*
X139194410Y-93052766D01*
X139143849Y-93002926D01*
X139128000Y-92941748D01*
X139128000Y-90998852D01*
X139148002Y-90930731D01*
X139201658Y-90884238D01*
X139263891Y-90873241D01*
X139268528Y-90873606D01*
X139268538Y-90873606D01*
X139270998Y-90873800D01*
X140729002Y-90873800D01*
X140731450Y-90873607D01*
X140731458Y-90873607D01*
X140759918Y-90871367D01*
X140759921Y-90871367D01*
X140766331Y-90870862D01*
X140845358Y-90847903D01*
X140880509Y-90842900D01*
X141030874Y-90842900D01*
X141059733Y-90846249D01*
G37*
%TD.AperFunction*%
%TD*%
%TA.AperFunction,Conductor*%
%TO.N,+5V*%
G36*
X133170515Y-96963052D02*
G01*
X133184867Y-96997700D01*
X133170515Y-97032348D01*
X133155797Y-97042464D01*
X133146548Y-97046582D01*
X132992047Y-97158834D01*
X132990335Y-97160736D01*
X132990331Y-97160739D01*
X132865983Y-97298842D01*
X132864260Y-97300756D01*
X132862973Y-97302984D01*
X132862973Y-97302985D01*
X132795532Y-97419797D01*
X132768773Y-97466144D01*
X132709758Y-97647772D01*
X132689796Y-97837700D01*
X132709758Y-98027628D01*
X132768773Y-98209256D01*
X132864260Y-98374644D01*
X132865981Y-98376556D01*
X132865983Y-98376558D01*
X132990331Y-98514661D01*
X132990335Y-98514664D01*
X132992047Y-98516566D01*
X132994116Y-98518069D01*
X132994118Y-98518071D01*
X133022502Y-98538693D01*
X133146548Y-98628818D01*
X133321012Y-98706494D01*
X133323521Y-98707027D01*
X133323523Y-98707028D01*
X133367061Y-98716282D01*
X133397969Y-98737523D01*
X133404803Y-98774398D01*
X133403106Y-98780446D01*
X133378468Y-98850607D01*
X133377197Y-98856398D01*
X133374608Y-98883783D01*
X133374500Y-98886085D01*
X133374500Y-99224953D01*
X133377355Y-99231845D01*
X133384247Y-99234700D01*
X135060753Y-99234700D01*
X135067645Y-99231845D01*
X135070500Y-99224953D01*
X135070500Y-98498448D01*
X135070500Y-98498447D01*
X135578500Y-98498447D01*
X135578500Y-99224953D01*
X135581355Y-99231845D01*
X135588247Y-99234700D01*
X137264752Y-99234700D01*
X137271644Y-99231845D01*
X137274499Y-99224953D01*
X137274499Y-98886087D01*
X137274390Y-98883782D01*
X137271803Y-98856397D01*
X137270533Y-98850608D01*
X137227903Y-98729215D01*
X137224507Y-98722802D01*
X137148468Y-98619854D01*
X137143346Y-98614732D01*
X137040398Y-98538693D01*
X137033985Y-98535297D01*
X136912593Y-98492668D01*
X136906802Y-98491397D01*
X136879417Y-98488808D01*
X136877115Y-98488700D01*
X135588247Y-98488700D01*
X135581355Y-98491555D01*
X135578500Y-98498447D01*
X135070500Y-98498447D01*
X135067645Y-98491556D01*
X135060753Y-98488701D01*
X134349698Y-98488701D01*
X134315050Y-98474349D01*
X134300698Y-98439701D01*
X134313284Y-98406914D01*
X134340617Y-98376558D01*
X134340619Y-98376556D01*
X134342340Y-98374644D01*
X134437827Y-98209256D01*
X134496842Y-98027628D01*
X134516804Y-97837700D01*
X134496842Y-97647772D01*
X134437827Y-97466144D01*
X134411069Y-97419797D01*
X134343627Y-97302985D01*
X134343627Y-97302984D01*
X134342340Y-97300756D01*
X134340617Y-97298842D01*
X134216269Y-97160739D01*
X134216265Y-97160736D01*
X134214553Y-97158834D01*
X134060052Y-97046582D01*
X134050803Y-97042464D01*
X134024987Y-97015260D01*
X134025969Y-96977770D01*
X134053173Y-96951954D01*
X134070733Y-96948700D01*
X137491300Y-96948700D01*
X137525948Y-96963052D01*
X137540300Y-96997700D01*
X137540300Y-100963700D01*
X137525948Y-100998348D01*
X137491300Y-101012700D01*
X133656151Y-101012700D01*
X133636043Y-101008384D01*
X132474842Y-100485844D01*
X131952300Y-100250700D01*
X126413300Y-100250700D01*
X126378652Y-100236348D01*
X126364300Y-100201700D01*
X126364300Y-98931847D01*
X126890900Y-98931847D01*
X126890900Y-99860395D01*
X126891368Y-99865152D01*
X126901563Y-99916403D01*
X126905185Y-99925149D01*
X126944028Y-99983281D01*
X126950719Y-99989972D01*
X127008851Y-100028815D01*
X127017597Y-100032437D01*
X127068848Y-100042632D01*
X127073605Y-100043100D01*
X129377153Y-100043100D01*
X129384045Y-100040245D01*
X129386900Y-100033353D01*
X129386900Y-98931847D01*
X129894900Y-98931847D01*
X129894900Y-100033353D01*
X129897755Y-100040245D01*
X129904647Y-100043100D01*
X132208195Y-100043100D01*
X132212952Y-100042632D01*
X132264203Y-100032437D01*
X132272949Y-100028815D01*
X132331081Y-99989972D01*
X132337772Y-99983281D01*
X132376615Y-99925149D01*
X132380237Y-99916403D01*
X132390432Y-99865152D01*
X132390900Y-99860395D01*
X132390900Y-99752447D01*
X133374501Y-99752447D01*
X133374501Y-100091313D01*
X133374610Y-100093618D01*
X133377197Y-100121003D01*
X133378467Y-100126792D01*
X133421097Y-100248185D01*
X133424493Y-100254598D01*
X133500532Y-100357546D01*
X133505654Y-100362668D01*
X133608602Y-100438707D01*
X133615015Y-100442103D01*
X133736407Y-100484732D01*
X133742198Y-100486003D01*
X133769583Y-100488592D01*
X133771885Y-100488700D01*
X135060753Y-100488700D01*
X135067645Y-100485845D01*
X135070500Y-100478953D01*
X135070500Y-99752447D01*
X135578500Y-99752447D01*
X135578500Y-100478952D01*
X135581355Y-100485844D01*
X135588247Y-100488699D01*
X136877113Y-100488699D01*
X136879418Y-100488590D01*
X136906803Y-100486003D01*
X136912592Y-100484733D01*
X137033985Y-100442103D01*
X137040398Y-100438707D01*
X137143346Y-100362668D01*
X137148468Y-100357546D01*
X137224507Y-100254598D01*
X137227903Y-100248185D01*
X137270532Y-100126793D01*
X137271803Y-100121002D01*
X137274392Y-100093617D01*
X137274500Y-100091315D01*
X137274500Y-99752447D01*
X137271645Y-99745555D01*
X137264753Y-99742700D01*
X135588247Y-99742700D01*
X135581355Y-99745555D01*
X135578500Y-99752447D01*
X135070500Y-99752447D01*
X135067645Y-99745555D01*
X135060753Y-99742700D01*
X133384248Y-99742700D01*
X133377356Y-99745555D01*
X133374501Y-99752447D01*
X132390900Y-99752447D01*
X132390900Y-98931847D01*
X132388045Y-98924955D01*
X132381153Y-98922100D01*
X129904647Y-98922100D01*
X129897755Y-98924955D01*
X129894900Y-98931847D01*
X129386900Y-98931847D01*
X129384045Y-98924955D01*
X129377153Y-98922100D01*
X126900647Y-98922100D01*
X126893755Y-98924955D01*
X126890900Y-98931847D01*
X126364300Y-98931847D01*
X126364300Y-97475805D01*
X126890900Y-97475805D01*
X126890900Y-98404353D01*
X126893755Y-98411245D01*
X126900647Y-98414100D01*
X129377153Y-98414100D01*
X129384045Y-98411245D01*
X129386900Y-98404353D01*
X129386900Y-97302847D01*
X129894900Y-97302847D01*
X129894900Y-98404353D01*
X129897755Y-98411245D01*
X129904647Y-98414100D01*
X132381153Y-98414100D01*
X132388045Y-98411245D01*
X132390900Y-98404353D01*
X132390900Y-97475805D01*
X132390432Y-97471048D01*
X132380237Y-97419797D01*
X132376615Y-97411051D01*
X132337772Y-97352919D01*
X132331081Y-97346228D01*
X132272949Y-97307385D01*
X132264203Y-97303763D01*
X132212952Y-97293568D01*
X132208195Y-97293100D01*
X129904647Y-97293100D01*
X129897755Y-97295955D01*
X129894900Y-97302847D01*
X129386900Y-97302847D01*
X129384045Y-97295955D01*
X129377153Y-97293100D01*
X127073605Y-97293100D01*
X127068848Y-97293568D01*
X127017597Y-97303763D01*
X127008851Y-97307385D01*
X126950719Y-97346228D01*
X126944028Y-97352919D01*
X126905185Y-97411051D01*
X126901563Y-97419797D01*
X126891368Y-97471048D01*
X126890900Y-97475805D01*
X126364300Y-97475805D01*
X126364300Y-96997700D01*
X126378652Y-96963052D01*
X126413300Y-96948700D01*
X133135867Y-96948700D01*
X133170515Y-96963052D01*
G37*
%TD.AperFunction*%
%TD*%
%TA.AperFunction,Conductor*%
%TO.N,GND*%
G36*
X143240948Y-84136052D02*
G01*
X143255300Y-84170700D01*
X143255300Y-90779113D01*
X143240948Y-90813761D01*
X143206300Y-90828113D01*
X143195077Y-90826810D01*
X142043437Y-90555836D01*
X141176085Y-90351753D01*
X141118292Y-90341635D01*
X141117598Y-90341554D01*
X141117581Y-90341552D01*
X141090150Y-90338369D01*
X141090143Y-90338368D01*
X141089433Y-90338286D01*
X141088726Y-90338245D01*
X141088713Y-90338244D01*
X141059781Y-90336571D01*
X141054030Y-90336239D01*
X141020268Y-90319912D01*
X141007940Y-90284493D01*
X141008371Y-90280247D01*
X141013000Y-90248518D01*
X141013000Y-89882082D01*
X141002858Y-89813188D01*
X140951432Y-89708445D01*
X140868850Y-89626007D01*
X140764018Y-89574764D01*
X140695718Y-89564800D01*
X140349500Y-89564800D01*
X140314852Y-89550448D01*
X140300500Y-89515800D01*
X140300500Y-88880800D01*
X140314852Y-88846152D01*
X140349500Y-88831800D01*
X140597534Y-88831800D01*
X140598673Y-88831692D01*
X140598680Y-88831692D01*
X140626097Y-88829100D01*
X140629069Y-88828819D01*
X140651602Y-88820906D01*
X140753422Y-88785150D01*
X140753423Y-88785149D01*
X140756884Y-88783934D01*
X140865850Y-88703450D01*
X140946334Y-88594484D01*
X140991219Y-88466669D01*
X140994200Y-88435134D01*
X140994200Y-87377466D01*
X140991219Y-87345931D01*
X140946334Y-87218116D01*
X140865850Y-87109150D01*
X140756884Y-87028666D01*
X140753423Y-87027451D01*
X140753422Y-87027450D01*
X140633303Y-86985268D01*
X140629069Y-86983781D01*
X140626097Y-86983500D01*
X140598680Y-86980908D01*
X140598673Y-86980908D01*
X140597534Y-86980800D01*
X139989866Y-86980800D01*
X139988727Y-86980908D01*
X139988720Y-86980908D01*
X139961303Y-86983500D01*
X139958331Y-86983781D01*
X139954097Y-86985268D01*
X139833978Y-87027450D01*
X139833977Y-87027451D01*
X139830516Y-87028666D01*
X139721550Y-87109150D01*
X139641066Y-87218116D01*
X139596181Y-87345931D01*
X139593200Y-87377466D01*
X139593200Y-88435134D01*
X139596181Y-88466669D01*
X139641066Y-88594484D01*
X139643245Y-88597434D01*
X139643246Y-88597436D01*
X139689914Y-88660619D01*
X139699500Y-88689731D01*
X139699500Y-89515800D01*
X139685148Y-89550448D01*
X139650500Y-89564800D01*
X139304282Y-89564800D01*
X139302525Y-89565059D01*
X139302520Y-89565059D01*
X139264139Y-89570710D01*
X139235388Y-89574942D01*
X139130645Y-89626368D01*
X139048207Y-89708950D01*
X138996964Y-89813782D01*
X138987000Y-89882082D01*
X138987000Y-90248518D01*
X138997142Y-90317412D01*
X138998818Y-90320825D01*
X138998819Y-90320829D01*
X139015933Y-90355686D01*
X139018320Y-90393113D01*
X138992878Y-90421445D01*
X138990628Y-90422145D01*
X138987842Y-90423936D01*
X138987841Y-90423936D01*
X138894991Y-90483607D01*
X138858084Y-90490266D01*
X138827279Y-90468877D01*
X138819500Y-90442386D01*
X138819500Y-90353005D01*
X138819032Y-90348248D01*
X138808837Y-90296997D01*
X138805215Y-90288251D01*
X138766372Y-90230119D01*
X138759681Y-90223428D01*
X138701549Y-90184585D01*
X138692803Y-90180963D01*
X138641552Y-90170768D01*
X138636795Y-90170300D01*
X137626247Y-90170300D01*
X137619355Y-90173155D01*
X137616500Y-90180047D01*
X137616500Y-93760553D01*
X137619355Y-93767445D01*
X137626247Y-93770300D01*
X138636795Y-93770300D01*
X138641552Y-93769832D01*
X138692803Y-93759637D01*
X138701549Y-93756015D01*
X138759681Y-93717172D01*
X138766372Y-93710481D01*
X138805215Y-93652349D01*
X138808837Y-93643603D01*
X138819032Y-93592352D01*
X138819500Y-93587595D01*
X138819500Y-93498076D01*
X138833852Y-93463428D01*
X138868500Y-93449076D01*
X138897581Y-93458640D01*
X138954159Y-93500363D01*
X138990555Y-93513641D01*
X139018186Y-93538998D01*
X139019793Y-93576467D01*
X139017788Y-93581181D01*
X138996964Y-93623782D01*
X138987000Y-93692082D01*
X138987000Y-94058518D01*
X138997142Y-94127412D01*
X139048568Y-94232155D01*
X139131150Y-94314593D01*
X139235982Y-94365836D01*
X139304282Y-94375800D01*
X140055233Y-94375800D01*
X140089881Y-94390152D01*
X140504197Y-94804468D01*
X140518549Y-94839116D01*
X140504197Y-94873764D01*
X140499387Y-94877983D01*
X140490218Y-94885018D01*
X140393964Y-95010459D01*
X140392737Y-95013422D01*
X140392735Y-95013425D01*
X140334684Y-95153572D01*
X140334683Y-95153576D01*
X140333456Y-95156538D01*
X140333037Y-95159719D01*
X140333037Y-95159720D01*
X140326768Y-95207338D01*
X140312818Y-95313300D01*
X140333456Y-95470062D01*
X140334683Y-95473024D01*
X140334684Y-95473028D01*
X140392735Y-95613175D01*
X140393964Y-95616141D01*
X140490218Y-95741582D01*
X140615659Y-95837836D01*
X140618622Y-95839063D01*
X140618625Y-95839065D01*
X140758772Y-95897116D01*
X140758776Y-95897117D01*
X140761738Y-95898344D01*
X140764919Y-95898763D01*
X140764920Y-95898763D01*
X140915317Y-95918563D01*
X140918500Y-95918982D01*
X140921683Y-95918563D01*
X141072080Y-95898763D01*
X141072081Y-95898763D01*
X141075262Y-95898344D01*
X141078224Y-95897117D01*
X141078228Y-95897116D01*
X141218375Y-95839065D01*
X141218378Y-95839063D01*
X141221341Y-95837836D01*
X141346782Y-95741582D01*
X141443036Y-95616141D01*
X141444265Y-95613175D01*
X141502316Y-95473028D01*
X141502317Y-95473024D01*
X141503544Y-95470062D01*
X141524182Y-95313300D01*
X141510232Y-95207338D01*
X141503963Y-95159720D01*
X141503963Y-95159719D01*
X141503544Y-95156538D01*
X141502317Y-95153576D01*
X141502316Y-95153572D01*
X141444265Y-95013425D01*
X141444263Y-95013422D01*
X141443036Y-95010459D01*
X141346782Y-94885018D01*
X141332116Y-94873764D01*
X141285943Y-94838335D01*
X141237868Y-94801445D01*
X141219000Y-94767249D01*
X141219000Y-94765852D01*
X141218586Y-94763628D01*
X141218451Y-94762165D01*
X141217863Y-94756874D01*
X141216896Y-94731117D01*
X141216896Y-94731116D01*
X141216726Y-94726592D01*
X141209987Y-94710906D01*
X141206836Y-94700536D01*
X141204537Y-94688192D01*
X141204537Y-94688191D01*
X141203709Y-94683747D01*
X141201337Y-94679898D01*
X141201335Y-94679894D01*
X141187809Y-94657951D01*
X141184500Y-94651583D01*
X141173899Y-94626909D01*
X141173898Y-94626908D01*
X141172536Y-94623737D01*
X141168522Y-94618851D01*
X141160024Y-94610353D01*
X141152960Y-94601417D01*
X141147343Y-94592304D01*
X141147341Y-94592302D01*
X141144968Y-94588452D01*
X141119040Y-94568736D01*
X141114051Y-94564380D01*
X140901249Y-94351578D01*
X140886897Y-94316930D01*
X140901219Y-94282312D01*
X140948929Y-94234519D01*
X140951793Y-94231650D01*
X140953573Y-94228009D01*
X141001365Y-94130237D01*
X141001365Y-94130236D01*
X141003036Y-94126818D01*
X141007175Y-94098447D01*
X141415901Y-94098447D01*
X141415901Y-94137313D01*
X141416010Y-94139618D01*
X141418597Y-94167003D01*
X141419867Y-94172792D01*
X141462497Y-94294185D01*
X141465893Y-94300598D01*
X141541932Y-94403546D01*
X141547054Y-94408668D01*
X141650002Y-94484707D01*
X141656415Y-94488103D01*
X141777807Y-94530732D01*
X141783598Y-94532003D01*
X141810983Y-94534592D01*
X141813285Y-94534700D01*
X142077153Y-94534700D01*
X142084045Y-94531845D01*
X142086900Y-94524953D01*
X142086900Y-94098447D01*
X142084045Y-94091555D01*
X142077153Y-94088700D01*
X141425648Y-94088700D01*
X141418756Y-94091555D01*
X141415901Y-94098447D01*
X141007175Y-94098447D01*
X141013000Y-94058518D01*
X141013000Y-93692082D01*
X141005864Y-93643603D01*
X141004022Y-93631094D01*
X141013175Y-93594725D01*
X141039905Y-93576605D01*
X141163627Y-93543700D01*
X141163628Y-93543700D01*
X141267906Y-93515966D01*
X141354306Y-93492988D01*
X141391479Y-93497952D01*
X141414254Y-93527748D01*
X141415900Y-93540342D01*
X141415900Y-93570953D01*
X141418755Y-93577845D01*
X141425647Y-93580700D01*
X142545900Y-93580700D01*
X142580548Y-93595052D01*
X142594900Y-93629700D01*
X142594900Y-94524952D01*
X142597755Y-94531844D01*
X142604647Y-94534699D01*
X142868513Y-94534699D01*
X142870818Y-94534590D01*
X142898203Y-94532003D01*
X142903992Y-94530733D01*
X143025385Y-94488103D01*
X143031798Y-94484707D01*
X143134746Y-94408668D01*
X143139868Y-94403546D01*
X143166886Y-94366967D01*
X143199015Y-94347624D01*
X143235412Y-94356665D01*
X143254755Y-94388794D01*
X143255300Y-94396079D01*
X143255300Y-100963700D01*
X143240948Y-100998348D01*
X143206300Y-101012700D01*
X138732300Y-101012700D01*
X138697652Y-100998348D01*
X138683300Y-100963700D01*
X138683300Y-99752447D01*
X138974501Y-99752447D01*
X138974501Y-100091313D01*
X138974610Y-100093618D01*
X138977197Y-100121003D01*
X138978467Y-100126792D01*
X139021097Y-100248185D01*
X139024493Y-100254598D01*
X139100532Y-100357546D01*
X139105654Y-100362668D01*
X139208602Y-100438707D01*
X139215015Y-100442103D01*
X139336407Y-100484732D01*
X139342198Y-100486003D01*
X139369583Y-100488592D01*
X139371885Y-100488700D01*
X140660753Y-100488700D01*
X140667645Y-100485845D01*
X140670500Y-100478953D01*
X140670500Y-99752447D01*
X141178500Y-99752447D01*
X141178500Y-100478952D01*
X141181355Y-100485844D01*
X141188247Y-100488699D01*
X142477113Y-100488699D01*
X142479418Y-100488590D01*
X142506803Y-100486003D01*
X142512592Y-100484733D01*
X142633985Y-100442103D01*
X142640398Y-100438707D01*
X142743346Y-100362668D01*
X142748468Y-100357546D01*
X142824507Y-100254598D01*
X142827903Y-100248185D01*
X142870532Y-100126793D01*
X142871803Y-100121002D01*
X142874392Y-100093617D01*
X142874500Y-100091315D01*
X142874500Y-99752447D01*
X142871645Y-99745555D01*
X142864753Y-99742700D01*
X141188247Y-99742700D01*
X141181355Y-99745555D01*
X141178500Y-99752447D01*
X140670500Y-99752447D01*
X140667645Y-99745555D01*
X140660753Y-99742700D01*
X138984248Y-99742700D01*
X138977356Y-99745555D01*
X138974501Y-99752447D01*
X138683300Y-99752447D01*
X138683300Y-98886085D01*
X138974500Y-98886085D01*
X138974500Y-99224953D01*
X138977355Y-99231845D01*
X138984247Y-99234700D01*
X140660753Y-99234700D01*
X140667645Y-99231845D01*
X140670500Y-99224953D01*
X140670500Y-98498448D01*
X140670500Y-98498447D01*
X141178500Y-98498447D01*
X141178500Y-99224953D01*
X141181355Y-99231845D01*
X141188247Y-99234700D01*
X142864752Y-99234700D01*
X142871644Y-99231845D01*
X142874499Y-99224953D01*
X142874499Y-98886087D01*
X142874390Y-98883782D01*
X142871803Y-98856397D01*
X142870533Y-98850608D01*
X142827903Y-98729215D01*
X142824507Y-98722802D01*
X142748468Y-98619854D01*
X142743346Y-98614732D01*
X142640398Y-98538693D01*
X142633985Y-98535297D01*
X142512593Y-98492668D01*
X142506802Y-98491397D01*
X142479417Y-98488808D01*
X142477115Y-98488700D01*
X141188247Y-98488700D01*
X141181355Y-98491555D01*
X141178500Y-98498447D01*
X140670500Y-98498447D01*
X140667645Y-98491556D01*
X140660753Y-98488701D01*
X139371887Y-98488701D01*
X139369582Y-98488810D01*
X139342197Y-98491397D01*
X139336408Y-98492667D01*
X139215015Y-98535297D01*
X139208602Y-98538693D01*
X139105654Y-98614732D01*
X139100532Y-98619854D01*
X139024493Y-98722802D01*
X139021097Y-98729215D01*
X138978468Y-98850607D01*
X138977197Y-98856398D01*
X138974608Y-98883783D01*
X138974500Y-98886085D01*
X138683300Y-98886085D01*
X138683300Y-96059700D01*
X136157103Y-96059700D01*
X136122455Y-96045348D01*
X136108103Y-96010700D01*
X136122455Y-95976052D01*
X136150707Y-95962119D01*
X136246080Y-95949563D01*
X136246081Y-95949563D01*
X136249262Y-95949144D01*
X136252224Y-95947917D01*
X136252228Y-95947916D01*
X136392375Y-95889865D01*
X136392378Y-95889863D01*
X136395341Y-95888636D01*
X136520782Y-95792382D01*
X136617036Y-95666941D01*
X136632462Y-95629700D01*
X136676316Y-95523828D01*
X136676317Y-95523824D01*
X136677544Y-95520862D01*
X136683842Y-95473028D01*
X136697763Y-95367283D01*
X136698182Y-95364100D01*
X136677544Y-95207338D01*
X136676317Y-95204376D01*
X136676316Y-95204372D01*
X136618265Y-95064225D01*
X136618263Y-95064222D01*
X136617036Y-95061259D01*
X136520782Y-94935818D01*
X136395341Y-94839564D01*
X136392378Y-94838337D01*
X136392375Y-94838335D01*
X136252228Y-94780284D01*
X136252224Y-94780283D01*
X136249262Y-94779056D01*
X136246081Y-94778637D01*
X136246080Y-94778637D01*
X136095683Y-94758837D01*
X136092500Y-94758418D01*
X136063958Y-94762176D01*
X136027733Y-94752470D01*
X136022914Y-94748243D01*
X135903652Y-94628981D01*
X135889300Y-94594333D01*
X135889300Y-93758050D01*
X135903652Y-93723402D01*
X135938300Y-93709050D01*
X135965523Y-93717308D01*
X136023451Y-93756015D01*
X136032197Y-93759637D01*
X136083448Y-93769832D01*
X136088205Y-93770300D01*
X137098753Y-93770300D01*
X137105645Y-93767445D01*
X137108500Y-93760553D01*
X137108500Y-90180047D01*
X137105645Y-90173155D01*
X137098753Y-90170300D01*
X136088205Y-90170300D01*
X136083448Y-90170768D01*
X136032197Y-90180963D01*
X136023451Y-90184585D01*
X135965523Y-90223292D01*
X135928741Y-90230609D01*
X135897558Y-90209773D01*
X135889300Y-90182550D01*
X135889300Y-88170047D01*
X137693701Y-88170047D01*
X137693701Y-88433913D01*
X137693810Y-88436218D01*
X137696397Y-88463603D01*
X137697667Y-88469392D01*
X137740297Y-88590785D01*
X137743693Y-88597198D01*
X137819732Y-88700146D01*
X137824854Y-88705268D01*
X137927802Y-88781307D01*
X137934215Y-88784703D01*
X138055607Y-88827332D01*
X138061398Y-88828603D01*
X138088783Y-88831192D01*
X138091085Y-88831300D01*
X138129953Y-88831300D01*
X138136845Y-88828445D01*
X138139700Y-88821553D01*
X138139700Y-88170047D01*
X138647700Y-88170047D01*
X138647700Y-88821552D01*
X138650555Y-88828444D01*
X138657447Y-88831299D01*
X138696313Y-88831299D01*
X138698618Y-88831190D01*
X138726003Y-88828603D01*
X138731792Y-88827333D01*
X138853185Y-88784703D01*
X138859598Y-88781307D01*
X138962546Y-88705268D01*
X138967668Y-88700146D01*
X139043707Y-88597198D01*
X139047103Y-88590785D01*
X139089732Y-88469393D01*
X139091003Y-88463602D01*
X139093592Y-88436217D01*
X139093700Y-88433915D01*
X139093700Y-88170047D01*
X139090845Y-88163155D01*
X139083953Y-88160300D01*
X138657447Y-88160300D01*
X138650555Y-88163155D01*
X138647700Y-88170047D01*
X138139700Y-88170047D01*
X138136845Y-88163155D01*
X138129953Y-88160300D01*
X137703448Y-88160300D01*
X137696556Y-88163155D01*
X137693701Y-88170047D01*
X135889300Y-88170047D01*
X135889300Y-87378685D01*
X137693700Y-87378685D01*
X137693700Y-87642553D01*
X137696555Y-87649445D01*
X137703447Y-87652300D01*
X138129953Y-87652300D01*
X138136845Y-87649445D01*
X138139700Y-87642553D01*
X138139700Y-86991048D01*
X138139700Y-86991047D01*
X138647700Y-86991047D01*
X138647700Y-87642553D01*
X138650555Y-87649445D01*
X138657447Y-87652300D01*
X139083952Y-87652300D01*
X139090844Y-87649445D01*
X139093699Y-87642553D01*
X139093699Y-87378687D01*
X139093590Y-87376382D01*
X139091003Y-87348997D01*
X139089733Y-87343208D01*
X139047103Y-87221815D01*
X139043707Y-87215402D01*
X138967668Y-87112454D01*
X138962546Y-87107332D01*
X138859598Y-87031293D01*
X138853185Y-87027897D01*
X138731793Y-86985268D01*
X138726002Y-86983997D01*
X138698617Y-86981408D01*
X138696315Y-86981300D01*
X138657447Y-86981300D01*
X138650555Y-86984155D01*
X138647700Y-86991047D01*
X138139700Y-86991047D01*
X138136845Y-86984156D01*
X138129953Y-86981301D01*
X138091087Y-86981301D01*
X138088782Y-86981410D01*
X138061397Y-86983997D01*
X138055608Y-86985267D01*
X137934215Y-87027897D01*
X137927802Y-87031293D01*
X137824854Y-87107332D01*
X137819732Y-87112454D01*
X137743693Y-87215402D01*
X137740297Y-87221815D01*
X137697668Y-87343207D01*
X137696397Y-87348998D01*
X137693808Y-87376383D01*
X137693700Y-87378685D01*
X135889300Y-87378685D01*
X135889300Y-86026700D01*
X135352637Y-86026700D01*
X135317989Y-86012348D01*
X135303637Y-85977700D01*
X135317989Y-85943052D01*
X135336402Y-85931468D01*
X135405785Y-85907103D01*
X135412198Y-85903707D01*
X135515146Y-85827668D01*
X135520268Y-85822546D01*
X135596307Y-85719598D01*
X135599703Y-85713185D01*
X135642332Y-85591793D01*
X135643603Y-85586002D01*
X135646192Y-85558617D01*
X135646300Y-85556315D01*
X135646300Y-85504947D01*
X135643445Y-85498055D01*
X135636553Y-85495200D01*
X133856048Y-85495200D01*
X133849156Y-85498055D01*
X133846301Y-85504947D01*
X133846301Y-85556313D01*
X133846410Y-85558618D01*
X133848997Y-85586003D01*
X133850267Y-85591792D01*
X133892897Y-85713185D01*
X133896293Y-85719598D01*
X133972332Y-85822546D01*
X133977454Y-85827668D01*
X134080402Y-85903707D01*
X134086815Y-85907103D01*
X134156198Y-85931468D01*
X134184134Y-85956489D01*
X134186195Y-85993935D01*
X134161174Y-86021871D01*
X134139963Y-86026700D01*
X133779300Y-86026700D01*
X133744652Y-86012348D01*
X133730300Y-85977700D01*
X133730300Y-84926085D01*
X133846300Y-84926085D01*
X133846300Y-84977453D01*
X133849155Y-84984345D01*
X133856047Y-84987200D01*
X134482553Y-84987200D01*
X134489445Y-84984345D01*
X134492300Y-84977453D01*
X134492300Y-84538448D01*
X134492300Y-84538447D01*
X135000300Y-84538447D01*
X135000300Y-84977453D01*
X135003155Y-84984345D01*
X135010047Y-84987200D01*
X135636552Y-84987200D01*
X135643444Y-84984345D01*
X135646299Y-84977453D01*
X135646299Y-84926087D01*
X135646190Y-84923782D01*
X135643603Y-84896397D01*
X135642333Y-84890608D01*
X135599703Y-84769215D01*
X135596307Y-84762802D01*
X135520268Y-84659854D01*
X135515146Y-84654732D01*
X135412198Y-84578693D01*
X135405785Y-84575297D01*
X135284393Y-84532668D01*
X135278602Y-84531397D01*
X135251217Y-84528808D01*
X135248915Y-84528700D01*
X135010047Y-84528700D01*
X135003155Y-84531555D01*
X135000300Y-84538447D01*
X134492300Y-84538447D01*
X134489445Y-84531556D01*
X134482553Y-84528701D01*
X134243687Y-84528701D01*
X134241382Y-84528810D01*
X134213997Y-84531397D01*
X134208208Y-84532667D01*
X134086815Y-84575297D01*
X134080402Y-84578693D01*
X133977454Y-84654732D01*
X133972332Y-84659854D01*
X133896293Y-84762802D01*
X133892897Y-84769215D01*
X133850268Y-84890607D01*
X133848997Y-84896398D01*
X133846408Y-84923783D01*
X133846300Y-84926085D01*
X133730300Y-84926085D01*
X133730300Y-84170700D01*
X133744652Y-84136052D01*
X133779300Y-84121700D01*
X143206300Y-84121700D01*
X143240948Y-84136052D01*
G37*
%TD.AperFunction*%
%TD*%
%TA.AperFunction,Conductor*%
%TO.N,/Power Supply/SW*%
G36*
X135620948Y-93280052D02*
G01*
X135635300Y-93314700D01*
X135635300Y-94232700D01*
X135620948Y-94267348D01*
X135586300Y-94281700D01*
X134111300Y-94281700D01*
X134104997Y-94286322D01*
X132219235Y-95669214D01*
X132190258Y-95678700D01*
X129588300Y-95678700D01*
X129553652Y-95664348D01*
X129539300Y-95629700D01*
X129539300Y-93314700D01*
X129553652Y-93280052D01*
X129588300Y-93265700D01*
X135586300Y-93265700D01*
X135620948Y-93280052D01*
G37*
%TD.AperFunction*%
%TD*%
%TA.AperFunction,Conductor*%
%TO.N,+12V*%
G36*
X148930146Y-81020002D02*
G01*
X148976639Y-81073658D01*
X148987508Y-81137408D01*
X148510417Y-86385408D01*
X148484329Y-86451438D01*
X148426685Y-86492882D01*
X148384934Y-86500000D01*
X147790004Y-86500000D01*
X147721883Y-86479998D01*
X147675390Y-86426342D01*
X147665286Y-86356068D01*
X147694780Y-86291488D01*
X147754506Y-86253104D01*
X147769727Y-86250147D01*
X147769698Y-86250000D01*
X147815864Y-86240817D01*
X147838355Y-86231501D01*
X147883876Y-86201085D01*
X147901085Y-86183876D01*
X147931501Y-86138355D01*
X147940817Y-86115864D01*
X147948793Y-86075766D01*
X147950000Y-86063511D01*
X147950000Y-85772115D01*
X147945525Y-85756876D01*
X147944135Y-85755671D01*
X147936452Y-85754000D01*
X146468115Y-85754000D01*
X146452876Y-85758475D01*
X146451671Y-85759865D01*
X146450000Y-85767548D01*
X146450000Y-86063511D01*
X146451207Y-86075766D01*
X146459183Y-86115864D01*
X146468499Y-86138355D01*
X146498915Y-86183876D01*
X146516124Y-86201085D01*
X146561645Y-86231501D01*
X146584136Y-86240817D01*
X146630302Y-86250000D01*
X146629967Y-86251685D01*
X146688177Y-86275189D01*
X146729188Y-86333142D01*
X146732356Y-86404068D01*
X146696675Y-86465448D01*
X146633475Y-86497793D01*
X146609996Y-86500000D01*
X146115066Y-86500000D01*
X146046945Y-86479998D01*
X146000452Y-86426342D01*
X145989583Y-86385408D01*
X145857863Y-84936489D01*
X146450000Y-84936489D01*
X146450000Y-85227885D01*
X146454475Y-85243124D01*
X146455865Y-85244329D01*
X146463548Y-85246000D01*
X146927885Y-85246000D01*
X146943124Y-85241525D01*
X146944329Y-85240135D01*
X146946000Y-85232452D01*
X146946000Y-84768115D01*
X146944659Y-84763548D01*
X147454000Y-84763548D01*
X147454000Y-85227885D01*
X147458475Y-85243124D01*
X147459865Y-85244329D01*
X147467548Y-85246000D01*
X147931885Y-85246000D01*
X147947124Y-85241525D01*
X147948329Y-85240135D01*
X147950000Y-85232452D01*
X147950000Y-84936489D01*
X147948793Y-84924234D01*
X147940817Y-84884136D01*
X147931501Y-84861645D01*
X147901085Y-84816124D01*
X147883876Y-84798915D01*
X147838355Y-84768499D01*
X147815864Y-84759183D01*
X147775766Y-84751207D01*
X147763511Y-84750000D01*
X147472115Y-84750000D01*
X147456876Y-84754475D01*
X147455671Y-84755865D01*
X147454000Y-84763548D01*
X146944659Y-84763548D01*
X146941525Y-84752876D01*
X146940135Y-84751671D01*
X146932452Y-84750000D01*
X146636489Y-84750000D01*
X146624234Y-84751207D01*
X146584136Y-84759183D01*
X146561645Y-84768499D01*
X146516124Y-84798915D01*
X146498915Y-84816124D01*
X146468499Y-84861645D01*
X146459183Y-84884136D01*
X146451207Y-84924234D01*
X146450000Y-84936489D01*
X145857863Y-84936489D01*
X145512492Y-81137408D01*
X145526245Y-81067756D01*
X145575471Y-81016596D01*
X145637975Y-81000000D01*
X148862025Y-81000000D01*
X148930146Y-81020002D01*
G37*
%TD.AperFunction*%
%TD*%
%TA.AperFunction,NonConductor*%
G36*
X163942121Y-122770002D02*
G01*
X163988614Y-122823658D01*
X164000000Y-122876000D01*
X164000000Y-136624000D01*
X163979998Y-136692121D01*
X163926342Y-136738614D01*
X163874000Y-136750000D01*
X160876000Y-136750000D01*
X160807879Y-136729998D01*
X160761386Y-136676342D01*
X160750000Y-136624000D01*
X160750000Y-122876000D01*
X160770002Y-122807879D01*
X160823658Y-122761386D01*
X160876000Y-122750000D01*
X163874000Y-122750000D01*
X163942121Y-122770002D01*
G37*
%TD.AperFunction*%
M02*
