%TF.GenerationSoftware,KiCad,Pcbnew,(5.99.0-11626-g43523df843)*%
%TF.CreationDate,2021-08-07T14:02:09-04:00*%
%TF.ProjectId,BikeMan,42696b65-4d61-46e2-9e6b-696361645f70,0.2.1*%
%TF.SameCoordinates,Original*%
%TF.FileFunction,Paste,Top*%
%TF.FilePolarity,Positive*%
%FSLAX46Y46*%
G04 Gerber Fmt 4.6, Leading zero omitted, Abs format (unit mm)*
G04 Created by KiCad (PCBNEW (5.99.0-11626-g43523df843)) date 2021-08-07 14:02:09*
%MOMM*%
%LPD*%
G01*
G04 APERTURE LIST*
G04 Aperture macros list*
%AMRoundRect*
0 Rectangle with rounded corners*
0 $1 Rounding radius*
0 $2 $3 $4 $5 $6 $7 $8 $9 X,Y pos of 4 corners*
0 Add a 4 corners polygon primitive as box body*
4,1,4,$2,$3,$4,$5,$6,$7,$8,$9,$2,$3,0*
0 Add four circle primitives for the rounded corners*
1,1,$1+$1,$2,$3*
1,1,$1+$1,$4,$5*
1,1,$1+$1,$6,$7*
1,1,$1+$1,$8,$9*
0 Add four rect primitives between the rounded corners*
20,1,$1+$1,$2,$3,$4,$5,0*
20,1,$1+$1,$4,$5,$6,$7,0*
20,1,$1+$1,$6,$7,$8,$9,0*
20,1,$1+$1,$8,$9,$2,$3,0*%
G04 Aperture macros list end*
%ADD10C,0.100000*%
%ADD11C,0.150000*%
%ADD12C,0.300000*%
%ADD13C,0.600000*%
%ADD14C,0.400000*%
%ADD15RoundRect,0.150000X-0.587500X-0.150000X0.587500X-0.150000X0.587500X0.150000X-0.587500X0.150000X0*%
%ADD16RoundRect,0.250000X0.450000X-0.325000X0.450000X0.325000X-0.450000X0.325000X-0.450000X-0.325000X0*%
%ADD17RoundRect,0.250000X0.250000X0.475000X-0.250000X0.475000X-0.250000X-0.475000X0.250000X-0.475000X0*%
%ADD18RoundRect,0.250000X0.262500X0.450000X-0.262500X0.450000X-0.262500X-0.450000X0.262500X-0.450000X0*%
%ADD19RoundRect,0.250000X-0.450000X0.325000X-0.450000X-0.325000X0.450000X-0.325000X0.450000X0.325000X0*%
%ADD20RoundRect,0.250000X-0.262500X-0.450000X0.262500X-0.450000X0.262500X0.450000X-0.262500X0.450000X0*%
%ADD21RoundRect,0.250000X0.550000X-1.500000X0.550000X1.500000X-0.550000X1.500000X-0.550000X-1.500000X0*%
%ADD22RoundRect,0.150000X0.150000X-0.587500X0.150000X0.587500X-0.150000X0.587500X-0.150000X-0.587500X0*%
%ADD23RoundRect,0.250000X-0.450000X0.262500X-0.450000X-0.262500X0.450000X-0.262500X0.450000X0.262500X0*%
%ADD24R,1.400000X0.400000*%
%ADD25R,1.900000X2.300000*%
%ADD26R,1.900000X1.800000*%
%ADD27R,1.100000X1.100000*%
%ADD28RoundRect,0.250000X-1.500000X-0.550000X1.500000X-0.550000X1.500000X0.550000X-1.500000X0.550000X0*%
%ADD29RoundRect,0.250000X0.475000X-0.250000X0.475000X0.250000X-0.475000X0.250000X-0.475000X-0.250000X0*%
%ADD30RoundRect,0.150000X0.150000X-0.725000X0.150000X0.725000X-0.150000X0.725000X-0.150000X-0.725000X0*%
%ADD31RoundRect,0.150000X0.587500X0.150000X-0.587500X0.150000X-0.587500X-0.150000X0.587500X-0.150000X0*%
%ADD32RoundRect,0.250000X0.450000X-0.262500X0.450000X0.262500X-0.450000X0.262500X-0.450000X-0.262500X0*%
%ADD33RoundRect,0.150000X-0.150000X0.875000X-0.150000X-0.875000X0.150000X-0.875000X0.150000X0.875000X0*%
%ADD34RoundRect,0.250000X-0.475000X0.250000X-0.475000X-0.250000X0.475000X-0.250000X0.475000X0.250000X0*%
%ADD35RoundRect,0.250000X-0.325000X-0.450000X0.325000X-0.450000X0.325000X0.450000X-0.325000X0.450000X0*%
%ADD36RoundRect,0.150000X0.150000X-0.825000X0.150000X0.825000X-0.150000X0.825000X-0.150000X-0.825000X0*%
%ADD37RoundRect,0.150000X0.725000X0.150000X-0.725000X0.150000X-0.725000X-0.150000X0.725000X-0.150000X0*%
%ADD38R,5.100000X2.350000*%
%ADD39R,1.800000X1.000000*%
%ADD40RoundRect,0.150000X-0.512500X-0.150000X0.512500X-0.150000X0.512500X0.150000X-0.512500X0.150000X0*%
%ADD41R,3.500000X1.200000*%
%ADD42RoundRect,0.250000X-0.250000X-0.475000X0.250000X-0.475000X0.250000X0.475000X-0.250000X0.475000X0*%
%ADD43R,2.000000X0.900000*%
%ADD44R,0.900000X2.000000*%
%ADD45R,1.330000X1.330000*%
%ADD46RoundRect,0.100000X-0.637500X-0.100000X0.637500X-0.100000X0.637500X0.100000X-0.637500X0.100000X0*%
%ADD47RoundRect,0.250000X0.255000X0.395000X-0.255000X0.395000X-0.255000X-0.395000X0.255000X-0.395000X0*%
%ADD48RoundRect,0.150000X0.662500X0.150000X-0.662500X0.150000X-0.662500X-0.150000X0.662500X-0.150000X0*%
%ADD49RoundRect,0.150000X-0.825000X-0.150000X0.825000X-0.150000X0.825000X0.150000X-0.825000X0.150000X0*%
%ADD50RoundRect,0.137500X0.662500X0.137500X-0.662500X0.137500X-0.662500X-0.137500X0.662500X-0.137500X0*%
G04 APERTURE END LIST*
D10*
D11*
X159225488Y-177289968D02*
X159225488Y-203900024D01*
X267400024Y-203900024D01*
X267400024Y-177289968D01*
X159225488Y-177289968D01*
D10*
D11*
X10000000Y-10000000D02*
X10000000Y-205900000D01*
X269400000Y-205900000D01*
X269400000Y-10000000D01*
X10000000Y-10000000D01*
D10*
D11*
X12000000Y-12000000D02*
X12000000Y-203900000D01*
X267400000Y-203900000D01*
X267400000Y-12000000D01*
X12000000Y-12000000D01*
D10*
D11*
X60000000Y-12000000D02*
X60000000Y-10000000D01*
D10*
D11*
X110000000Y-12000000D02*
X110000000Y-10000000D01*
D10*
D11*
X160000000Y-12000000D02*
X160000000Y-10000000D01*
D10*
D11*
X210000000Y-12000000D02*
X210000000Y-10000000D01*
D10*
D11*
X260000000Y-12000000D02*
X260000000Y-10000000D01*
D10*
D11*
X36065476Y-11588095D02*
X35322619Y-11588095D01*
X35694047Y-11588095D02*
X35694047Y-10288095D01*
X35570238Y-10473809D01*
X35446428Y-10597619D01*
X35322619Y-10659523D01*
D10*
D11*
X85322619Y-10411904D02*
X85384523Y-10350000D01*
X85508333Y-10288095D01*
X85817857Y-10288095D01*
X85941666Y-10350000D01*
X86003571Y-10411904D01*
X86065476Y-10535714D01*
X86065476Y-10659523D01*
X86003571Y-10845238D01*
X85260714Y-11588095D01*
X86065476Y-11588095D01*
D10*
D11*
X135260714Y-10288095D02*
X136065476Y-10288095D01*
X135632142Y-10783333D01*
X135817857Y-10783333D01*
X135941666Y-10845238D01*
X136003571Y-10907142D01*
X136065476Y-11030952D01*
X136065476Y-11340476D01*
X136003571Y-11464285D01*
X135941666Y-11526190D01*
X135817857Y-11588095D01*
X135446428Y-11588095D01*
X135322619Y-11526190D01*
X135260714Y-11464285D01*
D10*
D11*
X185941666Y-10721428D02*
X185941666Y-11588095D01*
X185632142Y-10226190D02*
X185322619Y-11154761D01*
X186127380Y-11154761D01*
D10*
D11*
X236003571Y-10288095D02*
X235384523Y-10288095D01*
X235322619Y-10907142D01*
X235384523Y-10845238D01*
X235508333Y-10783333D01*
X235817857Y-10783333D01*
X235941666Y-10845238D01*
X236003571Y-10907142D01*
X236065476Y-11030952D01*
X236065476Y-11340476D01*
X236003571Y-11464285D01*
X235941666Y-11526190D01*
X235817857Y-11588095D01*
X235508333Y-11588095D01*
X235384523Y-11526190D01*
X235322619Y-11464285D01*
D10*
D11*
X60000000Y-203900000D02*
X60000000Y-205900000D01*
D10*
D11*
X110000000Y-203900000D02*
X110000000Y-205900000D01*
D10*
D11*
X160000000Y-203900000D02*
X160000000Y-205900000D01*
D10*
D11*
X210000000Y-203900000D02*
X210000000Y-205900000D01*
D10*
D11*
X260000000Y-203900000D02*
X260000000Y-205900000D01*
D10*
D11*
X36065476Y-205488095D02*
X35322619Y-205488095D01*
X35694047Y-205488095D02*
X35694047Y-204188095D01*
X35570238Y-204373809D01*
X35446428Y-204497619D01*
X35322619Y-204559523D01*
D10*
D11*
X85322619Y-204311904D02*
X85384523Y-204250000D01*
X85508333Y-204188095D01*
X85817857Y-204188095D01*
X85941666Y-204250000D01*
X86003571Y-204311904D01*
X86065476Y-204435714D01*
X86065476Y-204559523D01*
X86003571Y-204745238D01*
X85260714Y-205488095D01*
X86065476Y-205488095D01*
D10*
D11*
X135260714Y-204188095D02*
X136065476Y-204188095D01*
X135632142Y-204683333D01*
X135817857Y-204683333D01*
X135941666Y-204745238D01*
X136003571Y-204807142D01*
X136065476Y-204930952D01*
X136065476Y-205240476D01*
X136003571Y-205364285D01*
X135941666Y-205426190D01*
X135817857Y-205488095D01*
X135446428Y-205488095D01*
X135322619Y-205426190D01*
X135260714Y-205364285D01*
D10*
D11*
X185941666Y-204621428D02*
X185941666Y-205488095D01*
X185632142Y-204126190D02*
X185322619Y-205054761D01*
X186127380Y-205054761D01*
D10*
D11*
X236003571Y-204188095D02*
X235384523Y-204188095D01*
X235322619Y-204807142D01*
X235384523Y-204745238D01*
X235508333Y-204683333D01*
X235817857Y-204683333D01*
X235941666Y-204745238D01*
X236003571Y-204807142D01*
X236065476Y-204930952D01*
X236065476Y-205240476D01*
X236003571Y-205364285D01*
X235941666Y-205426190D01*
X235817857Y-205488095D01*
X235508333Y-205488095D01*
X235384523Y-205426190D01*
X235322619Y-205364285D01*
D10*
D11*
X10000000Y-60000000D02*
X12000000Y-60000000D01*
D10*
D11*
X10000000Y-110000000D02*
X12000000Y-110000000D01*
D10*
D11*
X10000000Y-160000000D02*
X12000000Y-160000000D01*
D10*
D11*
X10690476Y-35216666D02*
X11309523Y-35216666D01*
X10566666Y-35588095D02*
X11000000Y-34288095D01*
X11433333Y-35588095D01*
D10*
D11*
X11092857Y-84907142D02*
X11278571Y-84969047D01*
X11340476Y-85030952D01*
X11402380Y-85154761D01*
X11402380Y-85340476D01*
X11340476Y-85464285D01*
X11278571Y-85526190D01*
X11154761Y-85588095D01*
X10659523Y-85588095D01*
X10659523Y-84288095D01*
X11092857Y-84288095D01*
X11216666Y-84350000D01*
X11278571Y-84411904D01*
X11340476Y-84535714D01*
X11340476Y-84659523D01*
X11278571Y-84783333D01*
X11216666Y-84845238D01*
X11092857Y-84907142D01*
X10659523Y-84907142D01*
D10*
D11*
X11402380Y-135464285D02*
X11340476Y-135526190D01*
X11154761Y-135588095D01*
X11030952Y-135588095D01*
X10845238Y-135526190D01*
X10721428Y-135402380D01*
X10659523Y-135278571D01*
X10597619Y-135030952D01*
X10597619Y-134845238D01*
X10659523Y-134597619D01*
X10721428Y-134473809D01*
X10845238Y-134350000D01*
X11030952Y-134288095D01*
X11154761Y-134288095D01*
X11340476Y-134350000D01*
X11402380Y-134411904D01*
D10*
D11*
X10659523Y-185588095D02*
X10659523Y-184288095D01*
X10969047Y-184288095D01*
X11154761Y-184350000D01*
X11278571Y-184473809D01*
X11340476Y-184597619D01*
X11402380Y-184845238D01*
X11402380Y-185030952D01*
X11340476Y-185278571D01*
X11278571Y-185402380D01*
X11154761Y-185526190D01*
X10969047Y-185588095D01*
X10659523Y-185588095D01*
D10*
D11*
X269400000Y-60000000D02*
X267400000Y-60000000D01*
D10*
D11*
X269400000Y-110000000D02*
X267400000Y-110000000D01*
D10*
D11*
X269400000Y-160000000D02*
X267400000Y-160000000D01*
D10*
D11*
X268090476Y-35216666D02*
X268709523Y-35216666D01*
X267966666Y-35588095D02*
X268400000Y-34288095D01*
X268833333Y-35588095D01*
D10*
D11*
X268492857Y-84907142D02*
X268678571Y-84969047D01*
X268740476Y-85030952D01*
X268802380Y-85154761D01*
X268802380Y-85340476D01*
X268740476Y-85464285D01*
X268678571Y-85526190D01*
X268554761Y-85588095D01*
X268059523Y-85588095D01*
X268059523Y-84288095D01*
X268492857Y-84288095D01*
X268616666Y-84350000D01*
X268678571Y-84411904D01*
X268740476Y-84535714D01*
X268740476Y-84659523D01*
X268678571Y-84783333D01*
X268616666Y-84845238D01*
X268492857Y-84907142D01*
X268059523Y-84907142D01*
D10*
D11*
X268802380Y-135464285D02*
X268740476Y-135526190D01*
X268554761Y-135588095D01*
X268430952Y-135588095D01*
X268245238Y-135526190D01*
X268121428Y-135402380D01*
X268059523Y-135278571D01*
X267997619Y-135030952D01*
X267997619Y-134845238D01*
X268059523Y-134597619D01*
X268121428Y-134473809D01*
X268245238Y-134350000D01*
X268430952Y-134288095D01*
X268554761Y-134288095D01*
X268740476Y-134350000D01*
X268802380Y-134411904D01*
D10*
D11*
X268059523Y-185588095D02*
X268059523Y-184288095D01*
X268369047Y-184288095D01*
X268554761Y-184350000D01*
X268678571Y-184473809D01*
X268740476Y-184597619D01*
X268802380Y-184845238D01*
X268802380Y-185030952D01*
X268740476Y-185278571D01*
X268678571Y-185402380D01*
X268554761Y-185526190D01*
X268369047Y-185588095D01*
X268059523Y-185588095D01*
D10*
D11*
X182832142Y-199678571D02*
X182832142Y-198178571D01*
X183189285Y-198178571D01*
X183403571Y-198250000D01*
X183546428Y-198392857D01*
X183617857Y-198535714D01*
X183689285Y-198821428D01*
X183689285Y-199035714D01*
X183617857Y-199321428D01*
X183546428Y-199464285D01*
X183403571Y-199607142D01*
X183189285Y-199678571D01*
X182832142Y-199678571D01*
X184975000Y-199678571D02*
X184975000Y-198892857D01*
X184903571Y-198750000D01*
X184760714Y-198678571D01*
X184475000Y-198678571D01*
X184332142Y-198750000D01*
X184975000Y-199607142D02*
X184832142Y-199678571D01*
X184475000Y-199678571D01*
X184332142Y-199607142D01*
X184260714Y-199464285D01*
X184260714Y-199321428D01*
X184332142Y-199178571D01*
X184475000Y-199107142D01*
X184832142Y-199107142D01*
X184975000Y-199035714D01*
X185475000Y-198678571D02*
X186046428Y-198678571D01*
X185689285Y-198178571D02*
X185689285Y-199464285D01*
X185760714Y-199607142D01*
X185903571Y-199678571D01*
X186046428Y-199678571D01*
X187117857Y-199607142D02*
X186975000Y-199678571D01*
X186689285Y-199678571D01*
X186546428Y-199607142D01*
X186475000Y-199464285D01*
X186475000Y-198892857D01*
X186546428Y-198750000D01*
X186689285Y-198678571D01*
X186975000Y-198678571D01*
X187117857Y-198750000D01*
X187189285Y-198892857D01*
X187189285Y-199035714D01*
X186475000Y-199178571D01*
X187832142Y-199535714D02*
X187903571Y-199607142D01*
X187832142Y-199678571D01*
X187760714Y-199607142D01*
X187832142Y-199535714D01*
X187832142Y-199678571D01*
X187832142Y-198750000D02*
X187903571Y-198821428D01*
X187832142Y-198892857D01*
X187760714Y-198821428D01*
X187832142Y-198750000D01*
X187832142Y-198892857D01*
X189617857Y-198321428D02*
X189689285Y-198250000D01*
X189832142Y-198178571D01*
X190189285Y-198178571D01*
X190332142Y-198250000D01*
X190403571Y-198321428D01*
X190475000Y-198464285D01*
X190475000Y-198607142D01*
X190403571Y-198821428D01*
X189546428Y-199678571D01*
X190475000Y-199678571D01*
X191403571Y-198178571D02*
X191546428Y-198178571D01*
X191689285Y-198250000D01*
X191760714Y-198321428D01*
X191832142Y-198464285D01*
X191903571Y-198750000D01*
X191903571Y-199107142D01*
X191832142Y-199392857D01*
X191760714Y-199535714D01*
X191689285Y-199607142D01*
X191546428Y-199678571D01*
X191403571Y-199678571D01*
X191260714Y-199607142D01*
X191189285Y-199535714D01*
X191117857Y-199392857D01*
X191046428Y-199107142D01*
X191046428Y-198750000D01*
X191117857Y-198464285D01*
X191189285Y-198321428D01*
X191260714Y-198250000D01*
X191403571Y-198178571D01*
X192475000Y-198321428D02*
X192546428Y-198250000D01*
X192689285Y-198178571D01*
X193046428Y-198178571D01*
X193189285Y-198250000D01*
X193260714Y-198321428D01*
X193332142Y-198464285D01*
X193332142Y-198607142D01*
X193260714Y-198821428D01*
X192403571Y-199678571D01*
X193332142Y-199678571D01*
X194760714Y-199678571D02*
X193903571Y-199678571D01*
X194332142Y-199678571D02*
X194332142Y-198178571D01*
X194189285Y-198392857D01*
X194046428Y-198535714D01*
X193903571Y-198607142D01*
X195403571Y-199107142D02*
X196546428Y-199107142D01*
X197546428Y-198178571D02*
X197689285Y-198178571D01*
X197832142Y-198250000D01*
X197903571Y-198321428D01*
X197975000Y-198464285D01*
X198046428Y-198750000D01*
X198046428Y-199107142D01*
X197975000Y-199392857D01*
X197903571Y-199535714D01*
X197832142Y-199607142D01*
X197689285Y-199678571D01*
X197546428Y-199678571D01*
X197403571Y-199607142D01*
X197332142Y-199535714D01*
X197260714Y-199392857D01*
X197189285Y-199107142D01*
X197189285Y-198750000D01*
X197260714Y-198464285D01*
X197332142Y-198321428D01*
X197403571Y-198250000D01*
X197546428Y-198178571D01*
X198903571Y-198821428D02*
X198760714Y-198750000D01*
X198689285Y-198678571D01*
X198617857Y-198535714D01*
X198617857Y-198464285D01*
X198689285Y-198321428D01*
X198760714Y-198250000D01*
X198903571Y-198178571D01*
X199189285Y-198178571D01*
X199332142Y-198250000D01*
X199403571Y-198321428D01*
X199475000Y-198464285D01*
X199475000Y-198535714D01*
X199403571Y-198678571D01*
X199332142Y-198750000D01*
X199189285Y-198821428D01*
X198903571Y-198821428D01*
X198760714Y-198892857D01*
X198689285Y-198964285D01*
X198617857Y-199107142D01*
X198617857Y-199392857D01*
X198689285Y-199535714D01*
X198760714Y-199607142D01*
X198903571Y-199678571D01*
X199189285Y-199678571D01*
X199332142Y-199607142D01*
X199403571Y-199535714D01*
X199475000Y-199392857D01*
X199475000Y-199107142D01*
X199403571Y-198964285D01*
X199332142Y-198892857D01*
X199189285Y-198821428D01*
X200117857Y-199107142D02*
X201260714Y-199107142D01*
X202260714Y-198178571D02*
X202403571Y-198178571D01*
X202546428Y-198250000D01*
X202617857Y-198321428D01*
X202689285Y-198464285D01*
X202760714Y-198750000D01*
X202760714Y-199107142D01*
X202689285Y-199392857D01*
X202617857Y-199535714D01*
X202546428Y-199607142D01*
X202403571Y-199678571D01*
X202260714Y-199678571D01*
X202117857Y-199607142D01*
X202046428Y-199535714D01*
X201975000Y-199392857D01*
X201903571Y-199107142D01*
X201903571Y-198750000D01*
X201975000Y-198464285D01*
X202046428Y-198321428D01*
X202117857Y-198250000D01*
X202260714Y-198178571D01*
X204046428Y-198178571D02*
X203760714Y-198178571D01*
X203617857Y-198250000D01*
X203546428Y-198321428D01*
X203403571Y-198535714D01*
X203332142Y-198821428D01*
X203332142Y-199392857D01*
X203403571Y-199535714D01*
X203475000Y-199607142D01*
X203617857Y-199678571D01*
X203903571Y-199678571D01*
X204046428Y-199607142D01*
X204117857Y-199535714D01*
X204189285Y-199392857D01*
X204189285Y-199035714D01*
X204117857Y-198892857D01*
X204046428Y-198821428D01*
X203903571Y-198750000D01*
X203617857Y-198750000D01*
X203475000Y-198821428D01*
X203403571Y-198892857D01*
X203332142Y-199035714D01*
D10*
D11*
X159400000Y-200400000D02*
X267400000Y-200400000D01*
D10*
D11*
X159400000Y-197400000D02*
X267400000Y-197400000D01*
D10*
D12*
X246809285Y-199678571D02*
X246309285Y-198964285D01*
X245952142Y-199678571D02*
X245952142Y-198178571D01*
X246523571Y-198178571D01*
X246666428Y-198250000D01*
X246737857Y-198321428D01*
X246809285Y-198464285D01*
X246809285Y-198678571D01*
X246737857Y-198821428D01*
X246666428Y-198892857D01*
X246523571Y-198964285D01*
X245952142Y-198964285D01*
X248023571Y-199607142D02*
X247880714Y-199678571D01*
X247595000Y-199678571D01*
X247452142Y-199607142D01*
X247380714Y-199464285D01*
X247380714Y-198892857D01*
X247452142Y-198750000D01*
X247595000Y-198678571D01*
X247880714Y-198678571D01*
X248023571Y-198750000D01*
X248095000Y-198892857D01*
X248095000Y-199035714D01*
X247380714Y-199178571D01*
X248595000Y-198678571D02*
X248952142Y-199678571D01*
X249309285Y-198678571D01*
X249880714Y-199535714D02*
X249952142Y-199607142D01*
X249880714Y-199678571D01*
X249809285Y-199607142D01*
X249880714Y-199535714D01*
X249880714Y-199678571D01*
X249880714Y-198750000D02*
X249952142Y-198821428D01*
X249880714Y-198892857D01*
X249809285Y-198821428D01*
X249880714Y-198750000D01*
X249880714Y-198892857D01*
X252023571Y-198178571D02*
X252166428Y-198178571D01*
X252309285Y-198250000D01*
X252380714Y-198321428D01*
X252452142Y-198464285D01*
X252523571Y-198750000D01*
X252523571Y-199107142D01*
X252452142Y-199392857D01*
X252380714Y-199535714D01*
X252309285Y-199607142D01*
X252166428Y-199678571D01*
X252023571Y-199678571D01*
X251880714Y-199607142D01*
X251809285Y-199535714D01*
X251737857Y-199392857D01*
X251666428Y-199107142D01*
X251666428Y-198750000D01*
X251737857Y-198464285D01*
X251809285Y-198321428D01*
X251880714Y-198250000D01*
X252023571Y-198178571D01*
X253166428Y-199535714D02*
X253237857Y-199607142D01*
X253166428Y-199678571D01*
X253095000Y-199607142D01*
X253166428Y-199535714D01*
X253166428Y-199678571D01*
X253809285Y-198321428D02*
X253880714Y-198250000D01*
X254023571Y-198178571D01*
X254380714Y-198178571D01*
X254523571Y-198250000D01*
X254595000Y-198321428D01*
X254666428Y-198464285D01*
X254666428Y-198607142D01*
X254595000Y-198821428D01*
X253737857Y-199678571D01*
X254666428Y-199678571D01*
X255309285Y-199535714D02*
X255380714Y-199607142D01*
X255309285Y-199678571D01*
X255237857Y-199607142D01*
X255309285Y-199535714D01*
X255309285Y-199678571D01*
X256809285Y-199678571D02*
X255952142Y-199678571D01*
X256380714Y-199678571D02*
X256380714Y-198178571D01*
X256237857Y-198392857D01*
X256095000Y-198535714D01*
X255952142Y-198607142D01*
D10*
D11*
X160760714Y-199607142D02*
X160975000Y-199678571D01*
X161332142Y-199678571D01*
X161475000Y-199607142D01*
X161546428Y-199535714D01*
X161617857Y-199392857D01*
X161617857Y-199250000D01*
X161546428Y-199107142D01*
X161475000Y-199035714D01*
X161332142Y-198964285D01*
X161046428Y-198892857D01*
X160903571Y-198821428D01*
X160832142Y-198750000D01*
X160760714Y-198607142D01*
X160760714Y-198464285D01*
X160832142Y-198321428D01*
X160903571Y-198250000D01*
X161046428Y-198178571D01*
X161403571Y-198178571D01*
X161617857Y-198250000D01*
X162260714Y-199678571D02*
X162260714Y-198678571D01*
X162260714Y-198178571D02*
X162189285Y-198250000D01*
X162260714Y-198321428D01*
X162332142Y-198250000D01*
X162260714Y-198178571D01*
X162260714Y-198321428D01*
X162832142Y-198678571D02*
X163617857Y-198678571D01*
X162832142Y-199678571D01*
X163617857Y-199678571D01*
X164760714Y-199607142D02*
X164617857Y-199678571D01*
X164332142Y-199678571D01*
X164189285Y-199607142D01*
X164117857Y-199464285D01*
X164117857Y-198892857D01*
X164189285Y-198750000D01*
X164332142Y-198678571D01*
X164617857Y-198678571D01*
X164760714Y-198750000D01*
X164832142Y-198892857D01*
X164832142Y-199035714D01*
X164117857Y-199178571D01*
X165475000Y-199535714D02*
X165546428Y-199607142D01*
X165475000Y-199678571D01*
X165403571Y-199607142D01*
X165475000Y-199535714D01*
X165475000Y-199678571D01*
X165475000Y-198750000D02*
X165546428Y-198821428D01*
X165475000Y-198892857D01*
X165403571Y-198821428D01*
X165475000Y-198750000D01*
X165475000Y-198892857D01*
X167260714Y-199250000D02*
X167975000Y-199250000D01*
X167117857Y-199678571D02*
X167617857Y-198178571D01*
X168117857Y-199678571D01*
D10*
D11*
X245832142Y-202478571D02*
X245832142Y-200978571D01*
X247189285Y-202478571D02*
X247189285Y-200978571D01*
X247189285Y-202407142D02*
X247046428Y-202478571D01*
X246760714Y-202478571D01*
X246617857Y-202407142D01*
X246546428Y-202335714D01*
X246475000Y-202192857D01*
X246475000Y-201764285D01*
X246546428Y-201621428D01*
X246617857Y-201550000D01*
X246760714Y-201478571D01*
X247046428Y-201478571D01*
X247189285Y-201550000D01*
X247903571Y-202335714D02*
X247975000Y-202407142D01*
X247903571Y-202478571D01*
X247832142Y-202407142D01*
X247903571Y-202335714D01*
X247903571Y-202478571D01*
X247903571Y-201550000D02*
X247975000Y-201621428D01*
X247903571Y-201692857D01*
X247832142Y-201621428D01*
X247903571Y-201550000D01*
X247903571Y-201692857D01*
X250546428Y-202478571D02*
X249689285Y-202478571D01*
X250117857Y-202478571D02*
X250117857Y-200978571D01*
X249975000Y-201192857D01*
X249832142Y-201335714D01*
X249689285Y-201407142D01*
X252260714Y-200907142D02*
X250975000Y-202835714D01*
X253546428Y-202478571D02*
X252689285Y-202478571D01*
X253117857Y-202478571D02*
X253117857Y-200978571D01*
X252975000Y-201192857D01*
X252832142Y-201335714D01*
X252689285Y-201407142D01*
D10*
D13*
X161005998Y-183137830D02*
X161380998Y-180137830D01*
X162095284Y-180137830D01*
X162505998Y-180280688D01*
X162755998Y-180566402D01*
X162863141Y-180852116D01*
X162934570Y-181423545D01*
X162880998Y-181852116D01*
X162666713Y-182423545D01*
X162488141Y-182709259D01*
X162166713Y-182994973D01*
X161720284Y-183137830D01*
X161005998Y-183137830D01*
X165166713Y-182994973D02*
X164863141Y-183137830D01*
X164291713Y-183137830D01*
X164023856Y-182994973D01*
X163916713Y-182709259D01*
X164059570Y-181566402D01*
X164238141Y-181280688D01*
X164541713Y-181137830D01*
X165113141Y-181137830D01*
X165380998Y-181280688D01*
X165488141Y-181566402D01*
X165452427Y-181852116D01*
X163988141Y-182137830D01*
X166827427Y-181137830D02*
X166577427Y-183137830D01*
X166791713Y-181423545D02*
X166952427Y-181280688D01*
X167255998Y-181137830D01*
X167684570Y-181137830D01*
X167952427Y-181280688D01*
X168059570Y-181566402D01*
X167863141Y-183137830D01*
X169541713Y-181137830D02*
X169291713Y-183137830D01*
X169505998Y-181423545D02*
X169666713Y-181280688D01*
X169970284Y-181137830D01*
X170398856Y-181137830D01*
X170666713Y-181280688D01*
X170773856Y-181566402D01*
X170577427Y-183137830D01*
X172005998Y-183137830D02*
X172255998Y-181137830D01*
X172380998Y-180137830D02*
X172220284Y-180280688D01*
X172345284Y-180423545D01*
X172505998Y-180280688D01*
X172380998Y-180137830D01*
X172345284Y-180423545D01*
X173309570Y-182994973D02*
X173577427Y-183137830D01*
X174148856Y-183137830D01*
X174452427Y-182994973D01*
X174630998Y-182709259D01*
X174648856Y-182566402D01*
X174541713Y-182280688D01*
X174273856Y-182137830D01*
X173845284Y-182137830D01*
X173577427Y-181994973D01*
X173470284Y-181709259D01*
X173488141Y-181566402D01*
X173666713Y-181280688D01*
X173970284Y-181137830D01*
X174398856Y-181137830D01*
X174666713Y-181280688D01*
D10*
D11*
X161332126Y-195622209D02*
X160832126Y-195622209D01*
X160832126Y-196407923D02*
X160832126Y-194907923D01*
X161546412Y-194907923D01*
X162117841Y-196407923D02*
X162117841Y-195407923D01*
X162117841Y-194907923D02*
X162046412Y-194979352D01*
X162117841Y-195050780D01*
X162189269Y-194979352D01*
X162117841Y-194907923D01*
X162117841Y-195050780D01*
X163046412Y-196407923D02*
X162903555Y-196336494D01*
X162832126Y-196193637D01*
X162832126Y-194907923D01*
X164189269Y-196336494D02*
X164046412Y-196407923D01*
X163760698Y-196407923D01*
X163617841Y-196336494D01*
X163546412Y-196193637D01*
X163546412Y-195622209D01*
X163617841Y-195479352D01*
X163760698Y-195407923D01*
X164046412Y-195407923D01*
X164189269Y-195479352D01*
X164260698Y-195622209D01*
X164260698Y-195765066D01*
X163546412Y-195907923D01*
X164903555Y-196265066D02*
X164974984Y-196336494D01*
X164903555Y-196407923D01*
X164832126Y-196336494D01*
X164903555Y-196265066D01*
X164903555Y-196407923D01*
X164903555Y-195479352D02*
X164974984Y-195550780D01*
X164903555Y-195622209D01*
X164832126Y-195550780D01*
X164903555Y-195479352D01*
X164903555Y-195622209D01*
X167260698Y-195622209D02*
X167474984Y-195693637D01*
X167546412Y-195765066D01*
X167617841Y-195907923D01*
X167617841Y-196122209D01*
X167546412Y-196265066D01*
X167474984Y-196336494D01*
X167332126Y-196407923D01*
X166760698Y-196407923D01*
X166760698Y-194907923D01*
X167260698Y-194907923D01*
X167403555Y-194979352D01*
X167474984Y-195050780D01*
X167546412Y-195193637D01*
X167546412Y-195336494D01*
X167474984Y-195479352D01*
X167403555Y-195550780D01*
X167260698Y-195622209D01*
X166760698Y-195622209D01*
X168260698Y-196407923D02*
X168260698Y-195407923D01*
X168260698Y-194907923D02*
X168189269Y-194979352D01*
X168260698Y-195050780D01*
X168332126Y-194979352D01*
X168260698Y-194907923D01*
X168260698Y-195050780D01*
X168974984Y-196407923D02*
X168974984Y-194907923D01*
X169117841Y-195836494D02*
X169546412Y-196407923D01*
X169546412Y-195407923D02*
X168974984Y-195979352D01*
X170760698Y-196336494D02*
X170617841Y-196407923D01*
X170332126Y-196407923D01*
X170189269Y-196336494D01*
X170117841Y-196193637D01*
X170117841Y-195622209D01*
X170189269Y-195479352D01*
X170332126Y-195407923D01*
X170617841Y-195407923D01*
X170760698Y-195479352D01*
X170832126Y-195622209D01*
X170832126Y-195765066D01*
X170117841Y-195907923D01*
X171474984Y-196407923D02*
X171474984Y-194907923D01*
X171974984Y-195979352D01*
X172474984Y-194907923D01*
X172474984Y-196407923D01*
X173832126Y-196407923D02*
X173832126Y-195622209D01*
X173760698Y-195479352D01*
X173617841Y-195407923D01*
X173332126Y-195407923D01*
X173189269Y-195479352D01*
X173832126Y-196336494D02*
X173689269Y-196407923D01*
X173332126Y-196407923D01*
X173189269Y-196336494D01*
X173117841Y-196193637D01*
X173117841Y-196050780D01*
X173189269Y-195907923D01*
X173332126Y-195836494D01*
X173689269Y-195836494D01*
X173832126Y-195765066D01*
X174546412Y-195407923D02*
X174546412Y-196407923D01*
X174546412Y-195550780D02*
X174617841Y-195479352D01*
X174760698Y-195407923D01*
X174974984Y-195407923D01*
X175117841Y-195479352D01*
X175189269Y-195622209D01*
X175189269Y-196407923D01*
X175903555Y-196265066D02*
X175974984Y-196336494D01*
X175903555Y-196407923D01*
X175832126Y-196336494D01*
X175903555Y-196265066D01*
X175903555Y-196407923D01*
X176617841Y-196407923D02*
X176617841Y-194907923D01*
X176760698Y-195836494D02*
X177189269Y-196407923D01*
X177189269Y-195407923D02*
X176617841Y-195979352D01*
X177832126Y-196407923D02*
X177832126Y-195407923D01*
X177832126Y-194907923D02*
X177760698Y-194979352D01*
X177832126Y-195050780D01*
X177903555Y-194979352D01*
X177832126Y-194907923D01*
X177832126Y-195050780D01*
X179189269Y-196336494D02*
X179046412Y-196407923D01*
X178760698Y-196407923D01*
X178617841Y-196336494D01*
X178546412Y-196265066D01*
X178474984Y-196122209D01*
X178474984Y-195693637D01*
X178546412Y-195550780D01*
X178617841Y-195479352D01*
X178760698Y-195407923D01*
X179046412Y-195407923D01*
X179189269Y-195479352D01*
X180474984Y-196407923D02*
X180474984Y-195622209D01*
X180403555Y-195479352D01*
X180260698Y-195407923D01*
X179974984Y-195407923D01*
X179832126Y-195479352D01*
X180474984Y-196336494D02*
X180332126Y-196407923D01*
X179974984Y-196407923D01*
X179832126Y-196336494D01*
X179760698Y-196193637D01*
X179760698Y-196050780D01*
X179832126Y-195907923D01*
X179974984Y-195836494D01*
X180332126Y-195836494D01*
X180474984Y-195765066D01*
X181832126Y-196407923D02*
X181832126Y-194907923D01*
X181832126Y-196336494D02*
X181689269Y-196407923D01*
X181403555Y-196407923D01*
X181260698Y-196336494D01*
X181189269Y-196265066D01*
X181117841Y-196122209D01*
X181117841Y-195693637D01*
X181189269Y-195550780D01*
X181260698Y-195479352D01*
X181403555Y-195407923D01*
X181689269Y-195407923D01*
X181832126Y-195479352D01*
X182189269Y-196550780D02*
X183332126Y-196550780D01*
X183689269Y-195407923D02*
X183689269Y-196907923D01*
X183689269Y-195479352D02*
X183832126Y-195407923D01*
X184117841Y-195407923D01*
X184260698Y-195479352D01*
X184332126Y-195550780D01*
X184403555Y-195693637D01*
X184403555Y-196122209D01*
X184332126Y-196265066D01*
X184260698Y-196336494D01*
X184117841Y-196407923D01*
X183832126Y-196407923D01*
X183689269Y-196336494D01*
X185689269Y-196336494D02*
X185546412Y-196407923D01*
X185260698Y-196407923D01*
X185117841Y-196336494D01*
X185046412Y-196265066D01*
X184974984Y-196122209D01*
X184974984Y-195693637D01*
X185046412Y-195550780D01*
X185117841Y-195479352D01*
X185260698Y-195407923D01*
X185546412Y-195407923D01*
X185689269Y-195479352D01*
X186332126Y-196407923D02*
X186332126Y-194907923D01*
X186332126Y-195479352D02*
X186474984Y-195407923D01*
X186760698Y-195407923D01*
X186903555Y-195479352D01*
X186974984Y-195550780D01*
X187046412Y-195693637D01*
X187046412Y-196122209D01*
X186974984Y-196265066D01*
X186903555Y-196336494D01*
X186760698Y-196407923D01*
X186474984Y-196407923D01*
X186332126Y-196336494D01*
D10*
D11*
X159400240Y-191013080D02*
X267400240Y-191013080D01*
D10*
D11*
X160760698Y-193635966D02*
X160974984Y-193707395D01*
X161332126Y-193707395D01*
X161474984Y-193635966D01*
X161546412Y-193564538D01*
X161617841Y-193421681D01*
X161617841Y-193278824D01*
X161546412Y-193135966D01*
X161474984Y-193064538D01*
X161332126Y-192993109D01*
X161046412Y-192921681D01*
X160903555Y-192850252D01*
X160832126Y-192778824D01*
X160760698Y-192635966D01*
X160760698Y-192493109D01*
X160832126Y-192350252D01*
X160903555Y-192278824D01*
X161046412Y-192207395D01*
X161403555Y-192207395D01*
X161617841Y-192278824D01*
X162260698Y-193707395D02*
X162260698Y-192207395D01*
X162903555Y-193707395D02*
X162903555Y-192921681D01*
X162832126Y-192778824D01*
X162689269Y-192707395D01*
X162474984Y-192707395D01*
X162332126Y-192778824D01*
X162260698Y-192850252D01*
X164189269Y-193635966D02*
X164046412Y-193707395D01*
X163760698Y-193707395D01*
X163617841Y-193635966D01*
X163546412Y-193493109D01*
X163546412Y-192921681D01*
X163617841Y-192778824D01*
X163760698Y-192707395D01*
X164046412Y-192707395D01*
X164189269Y-192778824D01*
X164260698Y-192921681D01*
X164260698Y-193064538D01*
X163546412Y-193207395D01*
X165474984Y-193635966D02*
X165332126Y-193707395D01*
X165046412Y-193707395D01*
X164903555Y-193635966D01*
X164832126Y-193493109D01*
X164832126Y-192921681D01*
X164903555Y-192778824D01*
X165046412Y-192707395D01*
X165332126Y-192707395D01*
X165474984Y-192778824D01*
X165546412Y-192921681D01*
X165546412Y-193064538D01*
X164832126Y-193207395D01*
X165974984Y-192707395D02*
X166546412Y-192707395D01*
X166189269Y-192207395D02*
X166189269Y-193493109D01*
X166260698Y-193635966D01*
X166403555Y-193707395D01*
X166546412Y-193707395D01*
X167046412Y-193564538D02*
X167117841Y-193635966D01*
X167046412Y-193707395D01*
X166974984Y-193635966D01*
X167046412Y-193564538D01*
X167046412Y-193707395D01*
X167046412Y-192778824D02*
X167117841Y-192850252D01*
X167046412Y-192921681D01*
X166974984Y-192850252D01*
X167046412Y-192778824D01*
X167046412Y-192921681D01*
D10*
D14*
X161898079Y-187999395D02*
X161707603Y-188094633D01*
X161326650Y-188094633D01*
X161136174Y-187999395D01*
X161040936Y-187808919D01*
X161040936Y-187047014D01*
X161136174Y-186856538D01*
X161326650Y-186761300D01*
X161707603Y-186761300D01*
X161898079Y-186856538D01*
X161993317Y-187047014D01*
X161993317Y-187237491D01*
X161040936Y-187427967D01*
X163993317Y-187904157D02*
X163898079Y-187999395D01*
X163612364Y-188094633D01*
X163421888Y-188094633D01*
X163136174Y-187999395D01*
X162945698Y-187808919D01*
X162850460Y-187618443D01*
X162755222Y-187237491D01*
X162755222Y-186951776D01*
X162850460Y-186570824D01*
X162945698Y-186380348D01*
X163136174Y-186189872D01*
X163421888Y-186094633D01*
X163612364Y-186094633D01*
X163898079Y-186189872D01*
X163993317Y-186285110D01*
X165707603Y-188094633D02*
X165707603Y-187047014D01*
X165612364Y-186856538D01*
X165421888Y-186761300D01*
X165040936Y-186761300D01*
X164850460Y-186856538D01*
X165707603Y-187999395D02*
X165517126Y-188094633D01*
X165040936Y-188094633D01*
X164850460Y-187999395D01*
X164755222Y-187808919D01*
X164755222Y-187618443D01*
X164850460Y-187427967D01*
X165040936Y-187332729D01*
X165517126Y-187332729D01*
X165707603Y-187237491D01*
X166374269Y-186761300D02*
X167136174Y-186761300D01*
X166659984Y-188094633D02*
X166659984Y-186380348D01*
X166755222Y-186189872D01*
X166945698Y-186094633D01*
X167136174Y-186094633D01*
X168564745Y-187999395D02*
X168374269Y-188094633D01*
X167993317Y-188094633D01*
X167802841Y-187999395D01*
X167707603Y-187808919D01*
X167707603Y-187047014D01*
X167802841Y-186856538D01*
X167993317Y-186761300D01*
X168374269Y-186761300D01*
X168564745Y-186856538D01*
X168659984Y-187047014D01*
X168659984Y-187237491D01*
X167707603Y-187427967D01*
X172183793Y-188094633D02*
X171517126Y-187142252D01*
X171040936Y-188094633D02*
X171040936Y-186094633D01*
X171802841Y-186094633D01*
X171993317Y-186189872D01*
X172088555Y-186285110D01*
X172183793Y-186475586D01*
X172183793Y-186761300D01*
X172088555Y-186951776D01*
X171993317Y-187047014D01*
X171802841Y-187142252D01*
X171040936Y-187142252D01*
X173898079Y-188094633D02*
X173898079Y-187047014D01*
X173802841Y-186856538D01*
X173612364Y-186761300D01*
X173231412Y-186761300D01*
X173040936Y-186856538D01*
X173898079Y-187999395D02*
X173707603Y-188094633D01*
X173231412Y-188094633D01*
X173040936Y-187999395D01*
X172945698Y-187808919D01*
X172945698Y-187618443D01*
X173040936Y-187427967D01*
X173231412Y-187332729D01*
X173707603Y-187332729D01*
X173898079Y-187237491D01*
X175707603Y-187999395D02*
X175517126Y-188094633D01*
X175136174Y-188094633D01*
X174945698Y-187999395D01*
X174850460Y-187904157D01*
X174755222Y-187713681D01*
X174755222Y-187142252D01*
X174850460Y-186951776D01*
X174945698Y-186856538D01*
X175136174Y-186761300D01*
X175517126Y-186761300D01*
X175707603Y-186856538D01*
X177326650Y-187999395D02*
X177136174Y-188094633D01*
X176755222Y-188094633D01*
X176564745Y-187999395D01*
X176469507Y-187808919D01*
X176469507Y-187047014D01*
X176564745Y-186856538D01*
X176755222Y-186761300D01*
X177136174Y-186761300D01*
X177326650Y-186856538D01*
X177421888Y-187047014D01*
X177421888Y-187237491D01*
X176469507Y-187427967D01*
X178279031Y-188094633D02*
X178279031Y-186761300D01*
X178279031Y-187142252D02*
X178374269Y-186951776D01*
X178469507Y-186856538D01*
X178659984Y-186761300D01*
X178850460Y-186761300D01*
D10*
D11*
D10*
D11*
X179400000Y-197400000D02*
X179400000Y-200400000D01*
D10*
D11*
X243400000Y-197400000D02*
X243400000Y-203900000D01*
D10*
G36*
X254871287Y-177823007D02*
G01*
X254915287Y-177937007D01*
X255031287Y-178139007D01*
X255160287Y-178202007D01*
X255293287Y-178245007D01*
X255373287Y-178389007D01*
X255409287Y-178661007D01*
X255415287Y-178886007D01*
X255421287Y-179147007D01*
X255466287Y-179268007D01*
X255589287Y-179282007D01*
X255830287Y-179219007D01*
X255838287Y-179217007D01*
X256053287Y-179172007D01*
X256184287Y-179209007D01*
X256267287Y-179291007D01*
X256430287Y-179405007D01*
X256681288Y-179495007D01*
X256775288Y-179515007D01*
X257319287Y-179663007D01*
X257722288Y-179905007D01*
X257984288Y-180240007D01*
X258093287Y-180586007D01*
X258143287Y-180895007D01*
X258411287Y-180737007D01*
X258682287Y-180619007D01*
X258963287Y-180555007D01*
X258967288Y-180555007D01*
X259172287Y-180558007D01*
X259275288Y-180636007D01*
X259316288Y-180742007D01*
X259365287Y-181033007D01*
X259383288Y-181411007D01*
X259371288Y-181796007D01*
X259329287Y-182109007D01*
X259318288Y-182152007D01*
X259293287Y-182412007D01*
X259397287Y-182564007D01*
X259580288Y-182605007D01*
X259677287Y-182636007D01*
X259722288Y-182758007D01*
X259733287Y-182986007D01*
X259720287Y-183227007D01*
X259671287Y-183340007D01*
X259580288Y-183367007D01*
X259392287Y-183313007D01*
X259326287Y-183265007D01*
X259235287Y-183193007D01*
X259235287Y-183246007D01*
X259320287Y-183410007D01*
X259484288Y-183671007D01*
X259566288Y-183795007D01*
X259737287Y-184041007D01*
X259868287Y-184220007D01*
X259934287Y-184297007D01*
X259937287Y-184298007D01*
X260023287Y-184266007D01*
X260214287Y-184184007D01*
X260378288Y-184110007D01*
X260636287Y-184011007D01*
X260908287Y-183953007D01*
X261251288Y-183928007D01*
X261553287Y-183925007D01*
X262220287Y-183971007D01*
X262782288Y-184113007D01*
X263283287Y-184366007D01*
X263754287Y-184736007D01*
X264030287Y-185000007D01*
X264178287Y-185175007D01*
X264205288Y-185275007D01*
X264121288Y-185313007D01*
X264087288Y-185314007D01*
X264012287Y-185335007D01*
X264044288Y-185422007D01*
X264126288Y-185533007D01*
X264374287Y-185962007D01*
X264548287Y-186495007D01*
X264639287Y-187080007D01*
X264640288Y-187664007D01*
X264545287Y-188196007D01*
X264518287Y-188278007D01*
X264209287Y-188911007D01*
X263766287Y-189464007D01*
X263215288Y-189913007D01*
X262582287Y-190231007D01*
X262459287Y-190273007D01*
X261830288Y-190390007D01*
X261179288Y-190360007D01*
X260539288Y-190197007D01*
X259941288Y-189914007D01*
X259418287Y-189523007D01*
X259002287Y-189038007D01*
X258877287Y-188828007D01*
X258751288Y-188611007D01*
X258652288Y-188473007D01*
X258618287Y-188447007D01*
X258513288Y-188478007D01*
X258309287Y-188556007D01*
X258173287Y-188613007D01*
X257944287Y-188700007D01*
X257819287Y-188706007D01*
X257792287Y-188614007D01*
X257858287Y-188407007D01*
X257996288Y-188095007D01*
X258139287Y-187699007D01*
X258206287Y-187319007D01*
X258206287Y-187310007D01*
X259778287Y-187310007D01*
X259849288Y-187855007D01*
X260068288Y-188318007D01*
X260432287Y-188695007D01*
X260738287Y-188888007D01*
X261211287Y-189076007D01*
X261654287Y-189115007D01*
X262111287Y-189004007D01*
X262363287Y-188891007D01*
X262806288Y-188582007D01*
X263126288Y-188186007D01*
X263318288Y-187732007D01*
X263378288Y-187248007D01*
X263301288Y-186764007D01*
X263084287Y-186308007D01*
X262787288Y-185965007D01*
X262339287Y-185656007D01*
X261850287Y-185509007D01*
X261414288Y-185504007D01*
X261110287Y-185546007D01*
X260953288Y-185606007D01*
X260923287Y-185701007D01*
X260969287Y-185800007D01*
X261071287Y-185885007D01*
X261262287Y-185920007D01*
X261517287Y-185918007D01*
X261979288Y-185967007D01*
X262361287Y-186144007D01*
X262656287Y-186419007D01*
X262855287Y-186767007D01*
X262948288Y-187159007D01*
X262927287Y-187569007D01*
X262784287Y-187969007D01*
X262509287Y-188331007D01*
X262340288Y-188474007D01*
X262069287Y-188601007D01*
X261704287Y-188673007D01*
X261662288Y-188676007D01*
X261181288Y-188636007D01*
X260774287Y-188456007D01*
X260459287Y-188156007D01*
X260256287Y-187755007D01*
X260181288Y-187274007D01*
X260182287Y-187252007D01*
X261430287Y-187252007D01*
X261450288Y-187378007D01*
X261539288Y-187431007D01*
X261682287Y-187394007D01*
X261707287Y-187375007D01*
X261713287Y-187277007D01*
X261632287Y-187172007D01*
X261525288Y-187132007D01*
X261501288Y-187140007D01*
X261430287Y-187252007D01*
X260182287Y-187252007D01*
X260190287Y-187080007D01*
X260205288Y-186765007D01*
X260172287Y-186578007D01*
X260117287Y-186503007D01*
X259994287Y-186476007D01*
X259891287Y-186597007D01*
X259817287Y-186845007D01*
X259780287Y-187201007D01*
X259778287Y-187310007D01*
X258206287Y-187310007D01*
X258208287Y-187258007D01*
X258244287Y-186845007D01*
X258340288Y-186384007D01*
X258428287Y-186099007D01*
X260180287Y-186099007D01*
X260203288Y-186234007D01*
X260244287Y-186292007D01*
X260394287Y-186407007D01*
X260515288Y-186363007D01*
X260530287Y-186341007D01*
X260509287Y-186237007D01*
X260416287Y-186124007D01*
X260266287Y-186048007D01*
X260180287Y-186099007D01*
X258428287Y-186099007D01*
X258476287Y-185948007D01*
X258634287Y-185607007D01*
X258639287Y-185598007D01*
X258745287Y-185404007D01*
X258760287Y-185262007D01*
X258688288Y-185088007D01*
X258678287Y-185069007D01*
X258596287Y-184806007D01*
X258552287Y-184439007D01*
X258547287Y-184260007D01*
X258539288Y-184036007D01*
X258717288Y-184036007D01*
X258735287Y-184273007D01*
X258782288Y-184545007D01*
X258844287Y-184802007D01*
X258911287Y-184990007D01*
X258966287Y-185060007D01*
X259060287Y-185004007D01*
X259202287Y-184870007D01*
X259379287Y-184679007D01*
X259048287Y-184222007D01*
X258717288Y-183764007D01*
X258717288Y-184036007D01*
X258539288Y-184036007D01*
X258536287Y-183979007D01*
X258507287Y-183779007D01*
X258468287Y-183706007D01*
X258380287Y-183636007D01*
X258342288Y-183557007D01*
X258237287Y-183445007D01*
X258003288Y-183409007D01*
X257998288Y-183409007D01*
X257787288Y-183417007D01*
X257708287Y-183469007D01*
X257734288Y-183610007D01*
X257784287Y-183745007D01*
X257810287Y-183845007D01*
X257816288Y-183978007D01*
X257797287Y-184166007D01*
X257752287Y-184429007D01*
X257674288Y-184789007D01*
X257562287Y-185268007D01*
X257411287Y-185886007D01*
X257388288Y-185978007D01*
X257204287Y-186703007D01*
X257051288Y-187265007D01*
X256928287Y-187667007D01*
X256834287Y-187914007D01*
X256769287Y-188008007D01*
X256610287Y-188115007D01*
X256543287Y-188187007D01*
X256435287Y-188268007D01*
X256380287Y-188255007D01*
X256308287Y-188277007D01*
X256219287Y-188419007D01*
X256210288Y-188439007D01*
X256061288Y-188668007D01*
X255870287Y-188843007D01*
X255803287Y-188880007D01*
X255714287Y-188911007D01*
X255589287Y-188937007D01*
X255412287Y-188958007D01*
X255167287Y-188975007D01*
X254838287Y-188990007D01*
X254411287Y-189002007D01*
X253870287Y-189013007D01*
X253198287Y-189023007D01*
X252382287Y-189034007D01*
X251862287Y-189040007D01*
X248091287Y-189082007D01*
X247720287Y-189484007D01*
X247187287Y-189942007D01*
X246568287Y-190256007D01*
X245873287Y-190421007D01*
X245623287Y-190442007D01*
X245170287Y-190443007D01*
X244769287Y-190405007D01*
X244577287Y-190363007D01*
X243906287Y-190083007D01*
X243324287Y-189666007D01*
X242847287Y-189134007D01*
X242496287Y-188504007D01*
X242338287Y-188033007D01*
X242264287Y-187792007D01*
X242218287Y-187727007D01*
X243660287Y-187727007D01*
X243688287Y-187806007D01*
X243797287Y-187973007D01*
X243897287Y-188104007D01*
X244084288Y-188315007D01*
X244251288Y-188420007D01*
X244465288Y-188456007D01*
X244521287Y-188458007D01*
X245774287Y-188496007D01*
X246984287Y-188527007D01*
X248138287Y-188549007D01*
X249225287Y-188564007D01*
X250232287Y-188570007D01*
X251145287Y-188570007D01*
X251953288Y-188561007D01*
X252644287Y-188544007D01*
X253205287Y-188520007D01*
X253622287Y-188489007D01*
X253885287Y-188449007D01*
X253907287Y-188444007D01*
X254058287Y-188379007D01*
X254243287Y-188251007D01*
X254480287Y-188046007D01*
X254788287Y-187745007D01*
X255185288Y-187335007D01*
X255262287Y-187254007D01*
X255703288Y-186779007D01*
X256033287Y-186401007D01*
X256264287Y-186102007D01*
X256409287Y-185863007D01*
X256479288Y-185666007D01*
X256487287Y-185492007D01*
X256471287Y-185406007D01*
X256433287Y-185280007D01*
X256392287Y-185268007D01*
X256321287Y-185385007D01*
X256252287Y-185526007D01*
X256126288Y-185717007D01*
X255904287Y-185991007D01*
X255611287Y-186321007D01*
X255273287Y-186680007D01*
X254917287Y-187042007D01*
X254569287Y-187381007D01*
X254253287Y-187669007D01*
X253997287Y-187882007D01*
X253830287Y-187990007D01*
X253610287Y-188044007D01*
X253261287Y-188083007D01*
X252823287Y-188106007D01*
X252337287Y-188114007D01*
X251841287Y-188106007D01*
X251377287Y-188084007D01*
X250984287Y-188046007D01*
X250701287Y-187994007D01*
X250667287Y-187984007D01*
X250519287Y-187948007D01*
X250292287Y-187917007D01*
X249972287Y-187888007D01*
X249545287Y-187862007D01*
X248997287Y-187837007D01*
X248315287Y-187813007D01*
X247484287Y-187788007D01*
X246994287Y-187775007D01*
X246264287Y-187758007D01*
X245588287Y-187743007D01*
X244985287Y-187732007D01*
X244473287Y-187724007D01*
X244070287Y-187720007D01*
X243796287Y-187720007D01*
X243667287Y-187725007D01*
X243660287Y-187727007D01*
X242218287Y-187727007D01*
X242177287Y-187671007D01*
X242036287Y-187623007D01*
X241981287Y-187617007D01*
X241725287Y-187522007D01*
X241617287Y-187394007D01*
X241550287Y-187285007D01*
X241468287Y-187240007D01*
X241323287Y-187251007D01*
X241067287Y-187314007D01*
X241045287Y-187319007D01*
X240677287Y-187392007D01*
X240441288Y-187386007D01*
X240346287Y-187302007D01*
X240344287Y-187283007D01*
X240398287Y-187192007D01*
X240542287Y-187017007D01*
X240745287Y-186793007D01*
X240767287Y-186770007D01*
X240965288Y-186542007D01*
X241374287Y-186542007D01*
X241401287Y-186622007D01*
X241506287Y-186795007D01*
X241618287Y-186959007D01*
X241895287Y-187344007D01*
X244781287Y-187367007D01*
X245466287Y-187373007D01*
X246097287Y-187380007D01*
X246655287Y-187387007D01*
X247120287Y-187394007D01*
X247471288Y-187401007D01*
X247689287Y-187407007D01*
X247752287Y-187410007D01*
X247863287Y-187412007D01*
X248110287Y-187401007D01*
X248460287Y-187380007D01*
X248777287Y-187358007D01*
X251656287Y-187358007D01*
X251656287Y-187648007D01*
X251748287Y-187822007D01*
X251867287Y-187852007D01*
X251965288Y-187747007D01*
X251995287Y-187593007D01*
X252079287Y-187308007D01*
X252230287Y-187106007D01*
X252373287Y-186982007D01*
X252528287Y-186914007D01*
X252751287Y-186886007D01*
X253025287Y-186881007D01*
X253403287Y-186898007D01*
X253685288Y-186961007D01*
X253922287Y-187074007D01*
X254164287Y-187195007D01*
X254297287Y-187210007D01*
X254310288Y-187121007D01*
X254261287Y-187028007D01*
X254036287Y-186809007D01*
X253695287Y-186642007D01*
X253289287Y-186537007D01*
X252867287Y-186506007D01*
X252478287Y-186562007D01*
X252393287Y-186590007D01*
X252048288Y-186784007D01*
X251793287Y-187052007D01*
X251656287Y-187358007D01*
X248777287Y-187358007D01*
X248878287Y-187351007D01*
X249014287Y-187341007D01*
X249622287Y-187285007D01*
X250069287Y-187221007D01*
X250366287Y-187148007D01*
X250458287Y-187109007D01*
X250716287Y-186957007D01*
X251031287Y-186755007D01*
X251371287Y-186524007D01*
X251709288Y-186284007D01*
X252015287Y-186057007D01*
X252260287Y-185865007D01*
X252413287Y-185727007D01*
X252451287Y-185672007D01*
X252421287Y-185567007D01*
X252320287Y-185539007D01*
X252134287Y-185592007D01*
X251851287Y-185732007D01*
X251456287Y-185964007D01*
X251085287Y-186198007D01*
X250561287Y-186524007D01*
X250161287Y-186750007D01*
X249875287Y-186881007D01*
X249700287Y-186922007D01*
X249519287Y-186912007D01*
X249212287Y-186885007D01*
X248822288Y-186845007D01*
X248391287Y-186797007D01*
X248379287Y-186796007D01*
X248110287Y-186771007D01*
X247719287Y-186744007D01*
X247228287Y-186715007D01*
X246658287Y-186686007D01*
X246031287Y-186657007D01*
X245369287Y-186629007D01*
X244694287Y-186603007D01*
X244026287Y-186580007D01*
X243388288Y-186559007D01*
X242801287Y-186543007D01*
X242287287Y-186532007D01*
X241867287Y-186526007D01*
X241563287Y-186527007D01*
X241398287Y-186536007D01*
X241374287Y-186542007D01*
X240965288Y-186542007D01*
X241020287Y-186480007D01*
X241104287Y-186348007D01*
X244027287Y-186348007D01*
X244408287Y-186305007D01*
X244746287Y-186250007D01*
X245091287Y-186169007D01*
X245146287Y-186153007D01*
X245380287Y-186094007D01*
X245568287Y-186097007D01*
X245791287Y-186170007D01*
X245908287Y-186220007D01*
X246276287Y-186344007D01*
X246612287Y-186361007D01*
X246772287Y-186337007D01*
X246761287Y-186282007D01*
X246654287Y-186161007D01*
X246489288Y-186010007D01*
X246306287Y-185863007D01*
X246144287Y-185758007D01*
X245907287Y-185680007D01*
X245592287Y-185633007D01*
X245424287Y-185625007D01*
X244928287Y-185684007D01*
X244522287Y-185871007D01*
X244239288Y-186120007D01*
X244027287Y-186348007D01*
X241104287Y-186348007D01*
X241162287Y-186258007D01*
X241188287Y-186119007D01*
X241106287Y-186076007D01*
X240989288Y-186131007D01*
X240850287Y-186247007D01*
X240691288Y-186362007D01*
X240541287Y-186344007D01*
X240517287Y-186332007D01*
X240339287Y-186150007D01*
X240277287Y-185891007D01*
X240302287Y-185738007D01*
X240367287Y-185632007D01*
X240507287Y-185581007D01*
X240764287Y-185568007D01*
X241054288Y-185546007D01*
X241201287Y-185475007D01*
X241221287Y-185441007D01*
X241207287Y-185335007D01*
X241120287Y-185314007D01*
X240907287Y-185242007D01*
X240786287Y-185042007D01*
X240767287Y-184887007D01*
X240838287Y-184624007D01*
X241048288Y-184455007D01*
X241399287Y-184381007D01*
X241494287Y-184377007D01*
X241768287Y-184361007D01*
X241982287Y-184329007D01*
X242110287Y-184290007D01*
X242131287Y-184252007D01*
X242020287Y-184226007D01*
X241889287Y-184219007D01*
X241529287Y-184214007D01*
X241529287Y-184016007D01*
X243571287Y-184016007D01*
X243686287Y-184012007D01*
X243752287Y-183993007D01*
X243908287Y-183969007D01*
X244193287Y-183949007D01*
X244567287Y-183935007D01*
X244990287Y-183929007D01*
X245001288Y-183929007D01*
X245459288Y-183932007D01*
X245790287Y-183945007D01*
X246038287Y-183974007D01*
X246243287Y-184026007D01*
X246448287Y-184107007D01*
X246528287Y-184143007D01*
X246996287Y-184400007D01*
X247403287Y-184727007D01*
X247793287Y-185163007D01*
X247955287Y-185377007D01*
X248317287Y-185874007D01*
X249114288Y-185463007D01*
X249441288Y-185287007D01*
X249703288Y-185132007D01*
X249869287Y-185019007D01*
X249911287Y-184971007D01*
X249852288Y-184897007D01*
X249673288Y-184934007D01*
X249473287Y-185025007D01*
X249120287Y-185124007D01*
X248730287Y-185072007D01*
X248297287Y-184866007D01*
X247815287Y-184504007D01*
X247578288Y-184287007D01*
X247446287Y-184172007D01*
X252298288Y-184172007D01*
X252334288Y-184246007D01*
X252451287Y-184429007D01*
X252630287Y-184697007D01*
X252854287Y-185020007D01*
X252869287Y-185041007D01*
X253465288Y-185887007D01*
X253840288Y-185752007D01*
X254214287Y-185617007D01*
X254141287Y-185592007D01*
X254864288Y-185592007D01*
X255542287Y-185880007D01*
X255673288Y-185661007D01*
X255774287Y-185485007D01*
X255927287Y-185211007D01*
X256105287Y-184889007D01*
X256161287Y-184787007D01*
X256518287Y-184132007D01*
X256210288Y-184004007D01*
X255891287Y-183902007D01*
X255631287Y-183881007D01*
X255471288Y-183941007D01*
X255456287Y-183960007D01*
X255478287Y-184053007D01*
X255557287Y-184100007D01*
X255843287Y-184263007D01*
X255983288Y-184479007D01*
X255984287Y-184728007D01*
X255851287Y-184987007D01*
X255590288Y-185234007D01*
X255207287Y-185447007D01*
X255203288Y-185448007D01*
X254864288Y-185592007D01*
X254141287Y-185592007D01*
X253936287Y-185522007D01*
X253577287Y-185366007D01*
X253273287Y-185176007D01*
X253063287Y-184979007D01*
X252994287Y-184850007D01*
X252967287Y-184536007D01*
X253257287Y-184536007D01*
X253275287Y-184703007D01*
X253424287Y-184883007D01*
X253669287Y-185055007D01*
X253975287Y-185197007D01*
X254307287Y-185288007D01*
X254530287Y-185310007D01*
X254751287Y-185275007D01*
X255040287Y-185179007D01*
X255229287Y-185095007D01*
X255491287Y-184949007D01*
X255626287Y-184823007D01*
X255668287Y-184687007D01*
X255669287Y-184669007D01*
X255615287Y-184503007D01*
X255444287Y-184379007D01*
X255136287Y-184291007D01*
X254759287Y-184237007D01*
X254424287Y-184227007D01*
X254064287Y-184258007D01*
X253725287Y-184319007D01*
X253449287Y-184402007D01*
X253282287Y-184499007D01*
X253257287Y-184536007D01*
X252967287Y-184536007D01*
X252965288Y-184515007D01*
X253073287Y-184272007D01*
X253275287Y-184129007D01*
X253471288Y-184005007D01*
X253506287Y-183899007D01*
X253380287Y-183825007D01*
X253277287Y-183806007D01*
X253097287Y-183829007D01*
X252837287Y-183908007D01*
X252565287Y-184018007D01*
X252349287Y-184134007D01*
X252298288Y-184172007D01*
X247446287Y-184172007D01*
X247245287Y-183999007D01*
X246922287Y-183775007D01*
X246698287Y-183664007D01*
X246044287Y-183512007D01*
X245324287Y-183477007D01*
X244592287Y-183560007D01*
X243901287Y-183758007D01*
X243879287Y-183767007D01*
X243683287Y-183866007D01*
X243575287Y-183958007D01*
X243571287Y-184016007D01*
X241529287Y-184016007D01*
X241529287Y-182351007D01*
X242122287Y-182351007D01*
X242122287Y-183790007D01*
X242375287Y-183790007D01*
X242636287Y-183724007D01*
X242956287Y-183538007D01*
X243024287Y-183488007D01*
X243337287Y-183270007D01*
X243684287Y-183058007D01*
X243839287Y-182974007D01*
X244082287Y-182836007D01*
X244182287Y-182736007D01*
X244164287Y-182666007D01*
X244075287Y-182469007D01*
X244142287Y-182220007D01*
X244245287Y-182066007D01*
X244338287Y-181960007D01*
X244442287Y-181895007D01*
X244596288Y-181860007D01*
X244842287Y-181846007D01*
X245197288Y-181843007D01*
X245673288Y-181855007D01*
X246206287Y-181886007D01*
X246689287Y-181929007D01*
X246736287Y-181935007D01*
X247191288Y-182004007D01*
X247503287Y-182096007D01*
X247697288Y-182227007D01*
X247800287Y-182411007D01*
X247835287Y-182611007D01*
X247872287Y-182792007D01*
X247977288Y-182933007D01*
X248189287Y-183080007D01*
X248261287Y-183121007D01*
X248826287Y-183356007D01*
X249458287Y-183467007D01*
X249752287Y-183462007D01*
X251779287Y-183462007D01*
X251782287Y-183464007D01*
X251904287Y-183489007D01*
X252176287Y-183506007D01*
X252579287Y-183517007D01*
X253096288Y-183521007D01*
X253707287Y-183517007D01*
X253891287Y-183514007D01*
X254546287Y-183502007D01*
X255055287Y-183488007D01*
X255439287Y-183470007D01*
X255721288Y-183447007D01*
X255923288Y-183416007D01*
X256067287Y-183377007D01*
X256154287Y-183339007D01*
X256426288Y-183119007D01*
X256614288Y-182819007D01*
X256679288Y-182503007D01*
X256661287Y-182416007D01*
X256611287Y-182465007D01*
X256515288Y-182662007D01*
X256515288Y-182663007D01*
X256330288Y-182957007D01*
X256102288Y-183150007D01*
X255834288Y-183241007D01*
X255426287Y-183319007D01*
X254910287Y-183379007D01*
X254315287Y-183420007D01*
X253671287Y-183438007D01*
X253008287Y-183432007D01*
X252883287Y-183428007D01*
X252376287Y-183415007D01*
X252019287Y-183416007D01*
X251818287Y-183431007D01*
X251779287Y-183462007D01*
X249752287Y-183462007D01*
X250106287Y-183456007D01*
X250721288Y-183319007D01*
X251025287Y-183191007D01*
X251241287Y-183097007D01*
X251396287Y-183060007D01*
X251427287Y-183065007D01*
X251521287Y-183036007D01*
X251708287Y-182921007D01*
X251953288Y-182742007D01*
X252018287Y-182691007D01*
X252567287Y-182290007D01*
X253146287Y-181938007D01*
X253726287Y-181648007D01*
X254277287Y-181432007D01*
X254768287Y-181304007D01*
X255170287Y-181276007D01*
X255222287Y-181282007D01*
X255778287Y-181437007D01*
X256261287Y-181732007D01*
X256347288Y-181807007D01*
X256552287Y-181944007D01*
X256692287Y-181941007D01*
X256742287Y-181811007D01*
X256690287Y-181602007D01*
X256628288Y-181359007D01*
X256677287Y-181220007D01*
X256830288Y-181201007D01*
X256861287Y-181210007D01*
X256996288Y-181222007D01*
X257010287Y-181153007D01*
X256909287Y-181034007D01*
X256812287Y-180962007D01*
X256654287Y-180798007D01*
X256597288Y-180634007D01*
X256542287Y-180431007D01*
X256505287Y-180370007D01*
X257167287Y-180370007D01*
X257216287Y-180465007D01*
X257277288Y-180552007D01*
X257429288Y-180747007D01*
X257506287Y-180821007D01*
X257502287Y-180777007D01*
X257792287Y-180777007D01*
X257807287Y-180887007D01*
X257836287Y-180889007D01*
X257857287Y-180775007D01*
X257843287Y-180726007D01*
X257805287Y-180694007D01*
X257792287Y-180777007D01*
X257502287Y-180777007D01*
X257501288Y-180767007D01*
X257454287Y-180672007D01*
X257317287Y-180487007D01*
X257223287Y-180397007D01*
X257167287Y-180370007D01*
X256505287Y-180370007D01*
X256433287Y-180252007D01*
X256310287Y-180128007D01*
X256190287Y-180106007D01*
X255997287Y-180172007D01*
X255991287Y-180175007D01*
X255708287Y-180245007D01*
X255406287Y-180255007D01*
X255393287Y-180253007D01*
X255035287Y-180277007D01*
X254861287Y-180355007D01*
X254663287Y-180445007D01*
X254544287Y-180421007D01*
X254533287Y-180293007D01*
X254543287Y-180260007D01*
X254554288Y-180173007D01*
X254467287Y-180155007D01*
X254307287Y-180181007D01*
X253908287Y-180257007D01*
X253644287Y-180296007D01*
X253484287Y-180297007D01*
X253396287Y-180262007D01*
X253351287Y-180190007D01*
X253344287Y-180009007D01*
X253486287Y-179877007D01*
X253579287Y-179849007D01*
X257009287Y-179849007D01*
X257115287Y-179953007D01*
X257213287Y-180024007D01*
X257429288Y-180194007D01*
X257587288Y-180361007D01*
X257617287Y-180405007D01*
X257717288Y-180551007D01*
X257775288Y-180548007D01*
X257785287Y-180477007D01*
X257722288Y-180351007D01*
X257567287Y-180178007D01*
X257368287Y-180000007D01*
X257174288Y-179863007D01*
X257040287Y-179811007D01*
X257009287Y-179849007D01*
X253579287Y-179849007D01*
X253785287Y-179787007D01*
X253897287Y-179769007D01*
X256769287Y-179769007D01*
X256812287Y-179811007D01*
X256854288Y-179769007D01*
X256812287Y-179726007D01*
X256769287Y-179769007D01*
X253897287Y-179769007D01*
X253916287Y-179766007D01*
X254273287Y-179691007D01*
X254643287Y-179573007D01*
X254757287Y-179526007D01*
X254996287Y-179406007D01*
X255115287Y-179297007D01*
X255156287Y-179154007D01*
X255159287Y-179075007D01*
X255130287Y-178842007D01*
X255049287Y-178751007D01*
X254928287Y-178813007D01*
X254906287Y-178838007D01*
X254741287Y-178946007D01*
X254646287Y-178964007D01*
X254510287Y-178893007D01*
X254437287Y-178711007D01*
X254423288Y-178461007D01*
X254468287Y-178189007D01*
X254568287Y-177939007D01*
X254705287Y-177771007D01*
X254797287Y-177733007D01*
X254871287Y-177823007D01*
G37*
X254871287Y-177823007D02*
X254915287Y-177937007D01*
X255031287Y-178139007D01*
X255160287Y-178202007D01*
X255293287Y-178245007D01*
X255373287Y-178389007D01*
X255409287Y-178661007D01*
X255415287Y-178886007D01*
X255421287Y-179147007D01*
X255466287Y-179268007D01*
X255589287Y-179282007D01*
X255830287Y-179219007D01*
X255838287Y-179217007D01*
X256053287Y-179172007D01*
X256184287Y-179209007D01*
X256267287Y-179291007D01*
X256430287Y-179405007D01*
X256681288Y-179495007D01*
X256775288Y-179515007D01*
X257319287Y-179663007D01*
X257722288Y-179905007D01*
X257984288Y-180240007D01*
X258093287Y-180586007D01*
X258143287Y-180895007D01*
X258411287Y-180737007D01*
X258682287Y-180619007D01*
X258963287Y-180555007D01*
X258967288Y-180555007D01*
X259172287Y-180558007D01*
X259275288Y-180636007D01*
X259316288Y-180742007D01*
X259365287Y-181033007D01*
X259383288Y-181411007D01*
X259371288Y-181796007D01*
X259329287Y-182109007D01*
X259318288Y-182152007D01*
X259293287Y-182412007D01*
X259397287Y-182564007D01*
X259580288Y-182605007D01*
X259677287Y-182636007D01*
X259722288Y-182758007D01*
X259733287Y-182986007D01*
X259720287Y-183227007D01*
X259671287Y-183340007D01*
X259580288Y-183367007D01*
X259392287Y-183313007D01*
X259326287Y-183265007D01*
X259235287Y-183193007D01*
X259235287Y-183246007D01*
X259320287Y-183410007D01*
X259484288Y-183671007D01*
X259566288Y-183795007D01*
X259737287Y-184041007D01*
X259868287Y-184220007D01*
X259934287Y-184297007D01*
X259937287Y-184298007D01*
X260023287Y-184266007D01*
X260214287Y-184184007D01*
X260378288Y-184110007D01*
X260636287Y-184011007D01*
X260908287Y-183953007D01*
X261251288Y-183928007D01*
X261553287Y-183925007D01*
X262220287Y-183971007D01*
X262782288Y-184113007D01*
X263283287Y-184366007D01*
X263754287Y-184736007D01*
X264030287Y-185000007D01*
X264178287Y-185175007D01*
X264205288Y-185275007D01*
X264121288Y-185313007D01*
X264087288Y-185314007D01*
X264012287Y-185335007D01*
X264044288Y-185422007D01*
X264126288Y-185533007D01*
X264374287Y-185962007D01*
X264548287Y-186495007D01*
X264639287Y-187080007D01*
X264640288Y-187664007D01*
X264545287Y-188196007D01*
X264518287Y-188278007D01*
X264209287Y-188911007D01*
X263766287Y-189464007D01*
X263215288Y-189913007D01*
X262582287Y-190231007D01*
X262459287Y-190273007D01*
X261830288Y-190390007D01*
X261179288Y-190360007D01*
X260539288Y-190197007D01*
X259941288Y-189914007D01*
X259418287Y-189523007D01*
X259002287Y-189038007D01*
X258877287Y-188828007D01*
X258751288Y-188611007D01*
X258652288Y-188473007D01*
X258618287Y-188447007D01*
X258513288Y-188478007D01*
X258309287Y-188556007D01*
X258173287Y-188613007D01*
X257944287Y-188700007D01*
X257819287Y-188706007D01*
X257792287Y-188614007D01*
X257858287Y-188407007D01*
X257996288Y-188095007D01*
X258139287Y-187699007D01*
X258206287Y-187319007D01*
X258206287Y-187310007D01*
X259778287Y-187310007D01*
X259849288Y-187855007D01*
X260068288Y-188318007D01*
X260432287Y-188695007D01*
X260738287Y-188888007D01*
X261211287Y-189076007D01*
X261654287Y-189115007D01*
X262111287Y-189004007D01*
X262363287Y-188891007D01*
X262806288Y-188582007D01*
X263126288Y-188186007D01*
X263318288Y-187732007D01*
X263378288Y-187248007D01*
X263301288Y-186764007D01*
X263084287Y-186308007D01*
X262787288Y-185965007D01*
X262339287Y-185656007D01*
X261850287Y-185509007D01*
X261414288Y-185504007D01*
X261110287Y-185546007D01*
X260953288Y-185606007D01*
X260923287Y-185701007D01*
X260969287Y-185800007D01*
X261071287Y-185885007D01*
X261262287Y-185920007D01*
X261517287Y-185918007D01*
X261979288Y-185967007D01*
X262361287Y-186144007D01*
X262656287Y-186419007D01*
X262855287Y-186767007D01*
X262948288Y-187159007D01*
X262927287Y-187569007D01*
X262784287Y-187969007D01*
X262509287Y-188331007D01*
X262340288Y-188474007D01*
X262069287Y-188601007D01*
X261704287Y-188673007D01*
X261662288Y-188676007D01*
X261181288Y-188636007D01*
X260774287Y-188456007D01*
X260459287Y-188156007D01*
X260256287Y-187755007D01*
X260181288Y-187274007D01*
X260182287Y-187252007D01*
X261430287Y-187252007D01*
X261450288Y-187378007D01*
X261539288Y-187431007D01*
X261682287Y-187394007D01*
X261707287Y-187375007D01*
X261713287Y-187277007D01*
X261632287Y-187172007D01*
X261525288Y-187132007D01*
X261501288Y-187140007D01*
X261430287Y-187252007D01*
X260182287Y-187252007D01*
X260190287Y-187080007D01*
X260205288Y-186765007D01*
X260172287Y-186578007D01*
X260117287Y-186503007D01*
X259994287Y-186476007D01*
X259891287Y-186597007D01*
X259817287Y-186845007D01*
X259780287Y-187201007D01*
X259778287Y-187310007D01*
X258206287Y-187310007D01*
X258208287Y-187258007D01*
X258244287Y-186845007D01*
X258340288Y-186384007D01*
X258428287Y-186099007D01*
X260180287Y-186099007D01*
X260203288Y-186234007D01*
X260244287Y-186292007D01*
X260394287Y-186407007D01*
X260515288Y-186363007D01*
X260530287Y-186341007D01*
X260509287Y-186237007D01*
X260416287Y-186124007D01*
X260266287Y-186048007D01*
X260180287Y-186099007D01*
X258428287Y-186099007D01*
X258476287Y-185948007D01*
X258634287Y-185607007D01*
X258639287Y-185598007D01*
X258745287Y-185404007D01*
X258760287Y-185262007D01*
X258688288Y-185088007D01*
X258678287Y-185069007D01*
X258596287Y-184806007D01*
X258552287Y-184439007D01*
X258547287Y-184260007D01*
X258539288Y-184036007D01*
X258717288Y-184036007D01*
X258735287Y-184273007D01*
X258782288Y-184545007D01*
X258844287Y-184802007D01*
X258911287Y-184990007D01*
X258966287Y-185060007D01*
X259060287Y-185004007D01*
X259202287Y-184870007D01*
X259379287Y-184679007D01*
X259048287Y-184222007D01*
X258717288Y-183764007D01*
X258717288Y-184036007D01*
X258539288Y-184036007D01*
X258536287Y-183979007D01*
X258507287Y-183779007D01*
X258468287Y-183706007D01*
X258380287Y-183636007D01*
X258342288Y-183557007D01*
X258237287Y-183445007D01*
X258003288Y-183409007D01*
X257998288Y-183409007D01*
X257787288Y-183417007D01*
X257708287Y-183469007D01*
X257734288Y-183610007D01*
X257784287Y-183745007D01*
X257810287Y-183845007D01*
X257816288Y-183978007D01*
X257797287Y-184166007D01*
X257752287Y-184429007D01*
X257674288Y-184789007D01*
X257562287Y-185268007D01*
X257411287Y-185886007D01*
X257388288Y-185978007D01*
X257204287Y-186703007D01*
X257051288Y-187265007D01*
X256928287Y-187667007D01*
X256834287Y-187914007D01*
X256769287Y-188008007D01*
X256610287Y-188115007D01*
X256543287Y-188187007D01*
X256435287Y-188268007D01*
X256380287Y-188255007D01*
X256308287Y-188277007D01*
X256219287Y-188419007D01*
X256210288Y-188439007D01*
X256061288Y-188668007D01*
X255870287Y-188843007D01*
X255803287Y-188880007D01*
X255714287Y-188911007D01*
X255589287Y-188937007D01*
X255412287Y-188958007D01*
X255167287Y-188975007D01*
X254838287Y-188990007D01*
X254411287Y-189002007D01*
X253870287Y-189013007D01*
X253198287Y-189023007D01*
X252382287Y-189034007D01*
X251862287Y-189040007D01*
X248091287Y-189082007D01*
X247720287Y-189484007D01*
X247187287Y-189942007D01*
X246568287Y-190256007D01*
X245873287Y-190421007D01*
X245623287Y-190442007D01*
X245170287Y-190443007D01*
X244769287Y-190405007D01*
X244577287Y-190363007D01*
X243906287Y-190083007D01*
X243324287Y-189666007D01*
X242847287Y-189134007D01*
X242496287Y-188504007D01*
X242338287Y-188033007D01*
X242264287Y-187792007D01*
X242218287Y-187727007D01*
X243660287Y-187727007D01*
X243688287Y-187806007D01*
X243797287Y-187973007D01*
X243897287Y-188104007D01*
X244084288Y-188315007D01*
X244251288Y-188420007D01*
X244465288Y-188456007D01*
X244521287Y-188458007D01*
X245774287Y-188496007D01*
X246984287Y-188527007D01*
X248138287Y-188549007D01*
X249225287Y-188564007D01*
X250232287Y-188570007D01*
X251145287Y-188570007D01*
X251953288Y-188561007D01*
X252644287Y-188544007D01*
X253205287Y-188520007D01*
X253622287Y-188489007D01*
X253885287Y-188449007D01*
X253907287Y-188444007D01*
X254058287Y-188379007D01*
X254243287Y-188251007D01*
X254480287Y-188046007D01*
X254788287Y-187745007D01*
X255185288Y-187335007D01*
X255262287Y-187254007D01*
X255703288Y-186779007D01*
X256033287Y-186401007D01*
X256264287Y-186102007D01*
X256409287Y-185863007D01*
X256479288Y-185666007D01*
X256487287Y-185492007D01*
X256471287Y-185406007D01*
X256433287Y-185280007D01*
X256392287Y-185268007D01*
X256321287Y-185385007D01*
X256252287Y-185526007D01*
X256126288Y-185717007D01*
X255904287Y-185991007D01*
X255611287Y-186321007D01*
X255273287Y-186680007D01*
X254917287Y-187042007D01*
X254569287Y-187381007D01*
X254253287Y-187669007D01*
X253997287Y-187882007D01*
X253830287Y-187990007D01*
X253610287Y-188044007D01*
X253261287Y-188083007D01*
X252823287Y-188106007D01*
X252337287Y-188114007D01*
X251841287Y-188106007D01*
X251377287Y-188084007D01*
X250984287Y-188046007D01*
X250701287Y-187994007D01*
X250667287Y-187984007D01*
X250519287Y-187948007D01*
X250292287Y-187917007D01*
X249972287Y-187888007D01*
X249545287Y-187862007D01*
X248997287Y-187837007D01*
X248315287Y-187813007D01*
X247484287Y-187788007D01*
X246994287Y-187775007D01*
X246264287Y-187758007D01*
X245588287Y-187743007D01*
X244985287Y-187732007D01*
X244473287Y-187724007D01*
X244070287Y-187720007D01*
X243796287Y-187720007D01*
X243667287Y-187725007D01*
X243660287Y-187727007D01*
X242218287Y-187727007D01*
X242177287Y-187671007D01*
X242036287Y-187623007D01*
X241981287Y-187617007D01*
X241725287Y-187522007D01*
X241617287Y-187394007D01*
X241550287Y-187285007D01*
X241468287Y-187240007D01*
X241323287Y-187251007D01*
X241067287Y-187314007D01*
X241045287Y-187319007D01*
X240677287Y-187392007D01*
X240441288Y-187386007D01*
X240346287Y-187302007D01*
X240344287Y-187283007D01*
X240398287Y-187192007D01*
X240542287Y-187017007D01*
X240745287Y-186793007D01*
X240767287Y-186770007D01*
X240965288Y-186542007D01*
X241374287Y-186542007D01*
X241401287Y-186622007D01*
X241506287Y-186795007D01*
X241618287Y-186959007D01*
X241895287Y-187344007D01*
X244781287Y-187367007D01*
X245466287Y-187373007D01*
X246097287Y-187380007D01*
X246655287Y-187387007D01*
X247120287Y-187394007D01*
X247471288Y-187401007D01*
X247689287Y-187407007D01*
X247752287Y-187410007D01*
X247863287Y-187412007D01*
X248110287Y-187401007D01*
X248460287Y-187380007D01*
X248777287Y-187358007D01*
X251656287Y-187358007D01*
X251656287Y-187648007D01*
X251748287Y-187822007D01*
X251867287Y-187852007D01*
X251965288Y-187747007D01*
X251995287Y-187593007D01*
X252079287Y-187308007D01*
X252230287Y-187106007D01*
X252373287Y-186982007D01*
X252528287Y-186914007D01*
X252751287Y-186886007D01*
X253025287Y-186881007D01*
X253403287Y-186898007D01*
X253685288Y-186961007D01*
X253922287Y-187074007D01*
X254164287Y-187195007D01*
X254297287Y-187210007D01*
X254310288Y-187121007D01*
X254261287Y-187028007D01*
X254036287Y-186809007D01*
X253695287Y-186642007D01*
X253289287Y-186537007D01*
X252867287Y-186506007D01*
X252478287Y-186562007D01*
X252393287Y-186590007D01*
X252048288Y-186784007D01*
X251793287Y-187052007D01*
X251656287Y-187358007D01*
X248777287Y-187358007D01*
X248878287Y-187351007D01*
X249014287Y-187341007D01*
X249622287Y-187285007D01*
X250069287Y-187221007D01*
X250366287Y-187148007D01*
X250458287Y-187109007D01*
X250716287Y-186957007D01*
X251031287Y-186755007D01*
X251371287Y-186524007D01*
X251709288Y-186284007D01*
X252015287Y-186057007D01*
X252260287Y-185865007D01*
X252413287Y-185727007D01*
X252451287Y-185672007D01*
X252421287Y-185567007D01*
X252320287Y-185539007D01*
X252134287Y-185592007D01*
X251851287Y-185732007D01*
X251456287Y-185964007D01*
X251085287Y-186198007D01*
X250561287Y-186524007D01*
X250161287Y-186750007D01*
X249875287Y-186881007D01*
X249700287Y-186922007D01*
X249519287Y-186912007D01*
X249212287Y-186885007D01*
X248822288Y-186845007D01*
X248391287Y-186797007D01*
X248379287Y-186796007D01*
X248110287Y-186771007D01*
X247719287Y-186744007D01*
X247228287Y-186715007D01*
X246658287Y-186686007D01*
X246031287Y-186657007D01*
X245369287Y-186629007D01*
X244694287Y-186603007D01*
X244026287Y-186580007D01*
X243388288Y-186559007D01*
X242801287Y-186543007D01*
X242287287Y-186532007D01*
X241867287Y-186526007D01*
X241563287Y-186527007D01*
X241398287Y-186536007D01*
X241374287Y-186542007D01*
X240965288Y-186542007D01*
X241020287Y-186480007D01*
X241104287Y-186348007D01*
X244027287Y-186348007D01*
X244408287Y-186305007D01*
X244746287Y-186250007D01*
X245091287Y-186169007D01*
X245146287Y-186153007D01*
X245380287Y-186094007D01*
X245568287Y-186097007D01*
X245791287Y-186170007D01*
X245908287Y-186220007D01*
X246276287Y-186344007D01*
X246612287Y-186361007D01*
X246772287Y-186337007D01*
X246761287Y-186282007D01*
X246654287Y-186161007D01*
X246489288Y-186010007D01*
X246306287Y-185863007D01*
X246144287Y-185758007D01*
X245907287Y-185680007D01*
X245592287Y-185633007D01*
X245424287Y-185625007D01*
X244928287Y-185684007D01*
X244522287Y-185871007D01*
X244239288Y-186120007D01*
X244027287Y-186348007D01*
X241104287Y-186348007D01*
X241162287Y-186258007D01*
X241188287Y-186119007D01*
X241106287Y-186076007D01*
X240989288Y-186131007D01*
X240850287Y-186247007D01*
X240691288Y-186362007D01*
X240541287Y-186344007D01*
X240517287Y-186332007D01*
X240339287Y-186150007D01*
X240277287Y-185891007D01*
X240302287Y-185738007D01*
X240367287Y-185632007D01*
X240507287Y-185581007D01*
X240764287Y-185568007D01*
X241054288Y-185546007D01*
X241201287Y-185475007D01*
X241221287Y-185441007D01*
X241207287Y-185335007D01*
X241120287Y-185314007D01*
X240907287Y-185242007D01*
X240786287Y-185042007D01*
X240767287Y-184887007D01*
X240838287Y-184624007D01*
X241048288Y-184455007D01*
X241399287Y-184381007D01*
X241494287Y-184377007D01*
X241768287Y-184361007D01*
X241982287Y-184329007D01*
X242110287Y-184290007D01*
X242131287Y-184252007D01*
X242020287Y-184226007D01*
X241889287Y-184219007D01*
X241529287Y-184214007D01*
X241529287Y-184016007D01*
X243571287Y-184016007D01*
X243686287Y-184012007D01*
X243752287Y-183993007D01*
X243908287Y-183969007D01*
X244193287Y-183949007D01*
X244567287Y-183935007D01*
X244990287Y-183929007D01*
X245001288Y-183929007D01*
X245459288Y-183932007D01*
X245790287Y-183945007D01*
X246038287Y-183974007D01*
X246243287Y-184026007D01*
X246448287Y-184107007D01*
X246528287Y-184143007D01*
X246996287Y-184400007D01*
X247403287Y-184727007D01*
X247793287Y-185163007D01*
X247955287Y-185377007D01*
X248317287Y-185874007D01*
X249114288Y-185463007D01*
X249441288Y-185287007D01*
X249703288Y-185132007D01*
X249869287Y-185019007D01*
X249911287Y-184971007D01*
X249852288Y-184897007D01*
X249673288Y-184934007D01*
X249473287Y-185025007D01*
X249120287Y-185124007D01*
X248730287Y-185072007D01*
X248297287Y-184866007D01*
X247815287Y-184504007D01*
X247578288Y-184287007D01*
X247446287Y-184172007D01*
X252298288Y-184172007D01*
X252334288Y-184246007D01*
X252451287Y-184429007D01*
X252630287Y-184697007D01*
X252854287Y-185020007D01*
X252869287Y-185041007D01*
X253465288Y-185887007D01*
X253840288Y-185752007D01*
X254214287Y-185617007D01*
X254141287Y-185592007D01*
X254864288Y-185592007D01*
X255542287Y-185880007D01*
X255673288Y-185661007D01*
X255774287Y-185485007D01*
X255927287Y-185211007D01*
X256105287Y-184889007D01*
X256161287Y-184787007D01*
X256518287Y-184132007D01*
X256210288Y-184004007D01*
X255891287Y-183902007D01*
X255631287Y-183881007D01*
X255471288Y-183941007D01*
X255456287Y-183960007D01*
X255478287Y-184053007D01*
X255557287Y-184100007D01*
X255843287Y-184263007D01*
X255983288Y-184479007D01*
X255984287Y-184728007D01*
X255851287Y-184987007D01*
X255590288Y-185234007D01*
X255207287Y-185447007D01*
X255203288Y-185448007D01*
X254864288Y-185592007D01*
X254141287Y-185592007D01*
X253936287Y-185522007D01*
X253577287Y-185366007D01*
X253273287Y-185176007D01*
X253063287Y-184979007D01*
X252994287Y-184850007D01*
X252967287Y-184536007D01*
X253257287Y-184536007D01*
X253275287Y-184703007D01*
X253424287Y-184883007D01*
X253669287Y-185055007D01*
X253975287Y-185197007D01*
X254307287Y-185288007D01*
X254530287Y-185310007D01*
X254751287Y-185275007D01*
X255040287Y-185179007D01*
X255229287Y-185095007D01*
X255491287Y-184949007D01*
X255626287Y-184823007D01*
X255668287Y-184687007D01*
X255669287Y-184669007D01*
X255615287Y-184503007D01*
X255444287Y-184379007D01*
X255136287Y-184291007D01*
X254759287Y-184237007D01*
X254424287Y-184227007D01*
X254064287Y-184258007D01*
X253725287Y-184319007D01*
X253449287Y-184402007D01*
X253282287Y-184499007D01*
X253257287Y-184536007D01*
X252967287Y-184536007D01*
X252965288Y-184515007D01*
X253073287Y-184272007D01*
X253275287Y-184129007D01*
X253471288Y-184005007D01*
X253506287Y-183899007D01*
X253380287Y-183825007D01*
X253277287Y-183806007D01*
X253097287Y-183829007D01*
X252837287Y-183908007D01*
X252565287Y-184018007D01*
X252349287Y-184134007D01*
X252298288Y-184172007D01*
X247446287Y-184172007D01*
X247245287Y-183999007D01*
X246922287Y-183775007D01*
X246698287Y-183664007D01*
X246044287Y-183512007D01*
X245324287Y-183477007D01*
X244592287Y-183560007D01*
X243901287Y-183758007D01*
X243879287Y-183767007D01*
X243683287Y-183866007D01*
X243575287Y-183958007D01*
X243571287Y-184016007D01*
X241529287Y-184016007D01*
X241529287Y-182351007D01*
X242122287Y-182351007D01*
X242122287Y-183790007D01*
X242375287Y-183790007D01*
X242636287Y-183724007D01*
X242956287Y-183538007D01*
X243024287Y-183488007D01*
X243337287Y-183270007D01*
X243684287Y-183058007D01*
X243839287Y-182974007D01*
X244082287Y-182836007D01*
X244182287Y-182736007D01*
X244164287Y-182666007D01*
X244075287Y-182469007D01*
X244142287Y-182220007D01*
X244245287Y-182066007D01*
X244338287Y-181960007D01*
X244442287Y-181895007D01*
X244596288Y-181860007D01*
X244842287Y-181846007D01*
X245197288Y-181843007D01*
X245673288Y-181855007D01*
X246206287Y-181886007D01*
X246689287Y-181929007D01*
X246736287Y-181935007D01*
X247191288Y-182004007D01*
X247503287Y-182096007D01*
X247697288Y-182227007D01*
X247800287Y-182411007D01*
X247835287Y-182611007D01*
X247872287Y-182792007D01*
X247977288Y-182933007D01*
X248189287Y-183080007D01*
X248261287Y-183121007D01*
X248826287Y-183356007D01*
X249458287Y-183467007D01*
X249752287Y-183462007D01*
X251779287Y-183462007D01*
X251782287Y-183464007D01*
X251904287Y-183489007D01*
X252176287Y-183506007D01*
X252579287Y-183517007D01*
X253096288Y-183521007D01*
X253707287Y-183517007D01*
X253891287Y-183514007D01*
X254546287Y-183502007D01*
X255055287Y-183488007D01*
X255439287Y-183470007D01*
X255721288Y-183447007D01*
X255923288Y-183416007D01*
X256067287Y-183377007D01*
X256154287Y-183339007D01*
X256426288Y-183119007D01*
X256614288Y-182819007D01*
X256679288Y-182503007D01*
X256661287Y-182416007D01*
X256611287Y-182465007D01*
X256515288Y-182662007D01*
X256515288Y-182663007D01*
X256330288Y-182957007D01*
X256102288Y-183150007D01*
X255834288Y-183241007D01*
X255426287Y-183319007D01*
X254910287Y-183379007D01*
X254315287Y-183420007D01*
X253671287Y-183438007D01*
X253008287Y-183432007D01*
X252883287Y-183428007D01*
X252376287Y-183415007D01*
X252019287Y-183416007D01*
X251818287Y-183431007D01*
X251779287Y-183462007D01*
X249752287Y-183462007D01*
X250106287Y-183456007D01*
X250721288Y-183319007D01*
X251025287Y-183191007D01*
X251241287Y-183097007D01*
X251396287Y-183060007D01*
X251427287Y-183065007D01*
X251521287Y-183036007D01*
X251708287Y-182921007D01*
X251953288Y-182742007D01*
X252018287Y-182691007D01*
X252567287Y-182290007D01*
X253146287Y-181938007D01*
X253726287Y-181648007D01*
X254277287Y-181432007D01*
X254768287Y-181304007D01*
X255170287Y-181276007D01*
X255222287Y-181282007D01*
X255778287Y-181437007D01*
X256261287Y-181732007D01*
X256347288Y-181807007D01*
X256552287Y-181944007D01*
X256692287Y-181941007D01*
X256742287Y-181811007D01*
X256690287Y-181602007D01*
X256628288Y-181359007D01*
X256677287Y-181220007D01*
X256830288Y-181201007D01*
X256861287Y-181210007D01*
X256996288Y-181222007D01*
X257010287Y-181153007D01*
X256909287Y-181034007D01*
X256812287Y-180962007D01*
X256654287Y-180798007D01*
X256597288Y-180634007D01*
X256542287Y-180431007D01*
X256505287Y-180370007D01*
X257167287Y-180370007D01*
X257216287Y-180465007D01*
X257277288Y-180552007D01*
X257429288Y-180747007D01*
X257506287Y-180821007D01*
X257502287Y-180777007D01*
X257792287Y-180777007D01*
X257807287Y-180887007D01*
X257836287Y-180889007D01*
X257857287Y-180775007D01*
X257843287Y-180726007D01*
X257805287Y-180694007D01*
X257792287Y-180777007D01*
X257502287Y-180777007D01*
X257501288Y-180767007D01*
X257454287Y-180672007D01*
X257317287Y-180487007D01*
X257223287Y-180397007D01*
X257167287Y-180370007D01*
X256505287Y-180370007D01*
X256433287Y-180252007D01*
X256310287Y-180128007D01*
X256190287Y-180106007D01*
X255997287Y-180172007D01*
X255991287Y-180175007D01*
X255708287Y-180245007D01*
X255406287Y-180255007D01*
X255393287Y-180253007D01*
X255035287Y-180277007D01*
X254861287Y-180355007D01*
X254663287Y-180445007D01*
X254544287Y-180421007D01*
X254533287Y-180293007D01*
X254543287Y-180260007D01*
X254554288Y-180173007D01*
X254467287Y-180155007D01*
X254307287Y-180181007D01*
X253908287Y-180257007D01*
X253644287Y-180296007D01*
X253484287Y-180297007D01*
X253396287Y-180262007D01*
X253351287Y-180190007D01*
X253344287Y-180009007D01*
X253486287Y-179877007D01*
X253579287Y-179849007D01*
X257009287Y-179849007D01*
X257115287Y-179953007D01*
X257213287Y-180024007D01*
X257429288Y-180194007D01*
X257587288Y-180361007D01*
X257617287Y-180405007D01*
X257717288Y-180551007D01*
X257775288Y-180548007D01*
X257785287Y-180477007D01*
X257722288Y-180351007D01*
X257567287Y-180178007D01*
X257368287Y-180000007D01*
X257174288Y-179863007D01*
X257040287Y-179811007D01*
X257009287Y-179849007D01*
X253579287Y-179849007D01*
X253785287Y-179787007D01*
X253897287Y-179769007D01*
X256769287Y-179769007D01*
X256812287Y-179811007D01*
X256854288Y-179769007D01*
X256812287Y-179726007D01*
X256769287Y-179769007D01*
X253897287Y-179769007D01*
X253916287Y-179766007D01*
X254273287Y-179691007D01*
X254643287Y-179573007D01*
X254757287Y-179526007D01*
X254996287Y-179406007D01*
X255115287Y-179297007D01*
X255156287Y-179154007D01*
X255159287Y-179075007D01*
X255130287Y-178842007D01*
X255049287Y-178751007D01*
X254928287Y-178813007D01*
X254906287Y-178838007D01*
X254741287Y-178946007D01*
X254646287Y-178964007D01*
X254510287Y-178893007D01*
X254437287Y-178711007D01*
X254423288Y-178461007D01*
X254468287Y-178189007D01*
X254568287Y-177939007D01*
X254705287Y-177771007D01*
X254797287Y-177733007D01*
X254871287Y-177823007D01*
D15*
%TO.C,D3*%
X95562500Y-114050000D03*
X95562500Y-115950000D03*
X97437500Y-115000000D03*
%TD*%
D16*
%TO.C,D8*%
X164500000Y-80525000D03*
X164500000Y-78475000D03*
%TD*%
D17*
%TO.C,C11*%
X140293700Y-87906300D03*
X138393700Y-87906300D03*
%TD*%
D18*
%TO.C,R4*%
X131745300Y-91614700D03*
X129920300Y-91614700D03*
%TD*%
D17*
%TO.C,C15*%
X85633600Y-82116400D03*
X83733600Y-82116400D03*
%TD*%
D19*
%TO.C,D7*%
X150269600Y-106790000D03*
X150269600Y-108840000D03*
%TD*%
D20*
%TO.C,R6*%
X95201100Y-97798400D03*
X97026100Y-97798400D03*
%TD*%
D21*
%TO.C,C1*%
X141000000Y-128800000D03*
X141000000Y-123200000D03*
%TD*%
D22*
%TO.C,Q2*%
X115312000Y-100294000D03*
X117212000Y-100294000D03*
X116262000Y-98419000D03*
%TD*%
D16*
%TO.C,D13*%
X134575000Y-67695000D03*
X134575000Y-65645000D03*
%TD*%
D23*
%TO.C,R1*%
X128905000Y-125587500D03*
X128905000Y-127412500D03*
%TD*%
%TO.C,R15*%
X113616400Y-60104400D03*
X113616400Y-61929400D03*
%TD*%
D17*
%TO.C,C10*%
X156487999Y-81864200D03*
X154587999Y-81864200D03*
%TD*%
D24*
%TO.C,J2*%
X165950000Y-108800000D03*
X165950000Y-108150000D03*
X165950000Y-107500000D03*
X165950000Y-106850000D03*
X165950000Y-106200000D03*
D25*
X168800000Y-111250000D03*
D26*
X168800000Y-106350000D03*
X168800000Y-108650000D03*
D25*
X168800000Y-103750000D03*
%TD*%
D27*
%TO.C,D10*%
X147200000Y-88000000D03*
X150000000Y-88000000D03*
%TD*%
D23*
%TO.C,R14*%
X115750000Y-60106300D03*
X115750000Y-61931300D03*
%TD*%
D28*
%TO.C,C6*%
X135324500Y-99488700D03*
X140924500Y-99488700D03*
%TD*%
D22*
%TO.C,Q3*%
X111629000Y-100294000D03*
X113529000Y-100294000D03*
X112579000Y-98419000D03*
%TD*%
D29*
%TO.C,C9*%
X96875600Y-95497200D03*
X96875600Y-93597200D03*
%TD*%
D30*
%TO.C,Q6*%
X159779799Y-65177200D03*
X161049799Y-65177200D03*
X162319799Y-65177200D03*
X163589799Y-65177200D03*
X163589799Y-60027200D03*
X162319799Y-60027200D03*
X161049799Y-60027200D03*
X159779799Y-60027200D03*
%TD*%
D27*
%TO.C,D9*%
X147200000Y-85500000D03*
X150000000Y-85500000D03*
%TD*%
D31*
%TO.C,Q1*%
X133398500Y-127450000D03*
X133398500Y-125550000D03*
X131523500Y-126500000D03*
%TD*%
D32*
%TO.C,R5*%
X113341000Y-103825000D03*
X113341000Y-102000000D03*
%TD*%
D23*
%TO.C,R9*%
X132714300Y-85241200D03*
X132714300Y-87066200D03*
%TD*%
D30*
%TO.C,Q4*%
X147079799Y-65077200D03*
X148349799Y-65077200D03*
X149619799Y-65077200D03*
X150889799Y-65077200D03*
X150889799Y-59927200D03*
X149619799Y-59927200D03*
X148349799Y-59927200D03*
X147079799Y-59927200D03*
%TD*%
D18*
%TO.C,R11*%
X103505000Y-71755000D03*
X101680000Y-71755000D03*
%TD*%
D33*
%TO.C,U6*%
X94742000Y-85696000D03*
X93472000Y-85696000D03*
X92202000Y-85696000D03*
X90932000Y-85696000D03*
X89662000Y-85696000D03*
X88392000Y-85696000D03*
X87122000Y-85696000D03*
X85852000Y-85696000D03*
X84582000Y-85696000D03*
X84582000Y-94996000D03*
X85852000Y-94996000D03*
X87122000Y-94996000D03*
X88392000Y-94996000D03*
X89662000Y-94996000D03*
X90932000Y-94996000D03*
X92202000Y-94996000D03*
X93472000Y-94996000D03*
X94742000Y-94996000D03*
%TD*%
D34*
%TO.C,C14*%
X110499000Y-84751000D03*
X110499000Y-86651000D03*
%TD*%
D35*
%TO.C,D6*%
X147581000Y-93778000D03*
X149631000Y-93778000D03*
%TD*%
D27*
%TO.C,D20*%
X108536400Y-59123300D03*
X108536400Y-61923300D03*
%TD*%
D19*
%TO.C,D11*%
X131790000Y-65725000D03*
X131790000Y-67775000D03*
%TD*%
D36*
%TO.C,U8*%
X112658000Y-89700000D03*
X113928000Y-89700000D03*
X115198000Y-89700000D03*
X116468000Y-89700000D03*
X116468000Y-84750000D03*
X115198000Y-84750000D03*
X113928000Y-84750000D03*
X112658000Y-84750000D03*
%TD*%
D34*
%TO.C,C4*%
X142340900Y-91934700D03*
X142340900Y-93834700D03*
%TD*%
D37*
%TO.C,U10*%
X99263200Y-73468400D03*
X99263200Y-72198400D03*
X99263200Y-70928400D03*
X99263200Y-69658400D03*
X94113200Y-69658400D03*
X94113200Y-70928400D03*
X94113200Y-72198400D03*
X94113200Y-73468400D03*
%TD*%
D17*
%TO.C,C3*%
X141844000Y-112048000D03*
X139944000Y-112048000D03*
%TD*%
D38*
%TO.C,L1*%
X129640900Y-94518100D03*
X129640900Y-98668100D03*
%TD*%
D30*
%TO.C,Q5*%
X153429799Y-65077200D03*
X154699799Y-65077200D03*
X155969799Y-65077200D03*
X157239799Y-65077200D03*
X157239799Y-59927200D03*
X155969799Y-59927200D03*
X154699799Y-59927200D03*
X153429799Y-59927200D03*
%TD*%
D18*
%TO.C,R13*%
X99546900Y-66574800D03*
X97721900Y-66574800D03*
%TD*%
D39*
%TO.C,Y1*%
X83792000Y-114461200D03*
X83792000Y-116961200D03*
%TD*%
D40*
%TO.C,U4*%
X139756500Y-108050000D03*
X139756500Y-109000000D03*
X139756500Y-109950000D03*
X142031500Y-109950000D03*
X142031500Y-108050000D03*
%TD*%
D23*
%TO.C,R2*%
X115500000Y-94888000D03*
X115500000Y-96713000D03*
%TD*%
D30*
%TO.C,Q7*%
X140729799Y-65177200D03*
X141999799Y-65177200D03*
X143269799Y-65177200D03*
X144539799Y-65177200D03*
X144539799Y-60027200D03*
X143269799Y-60027200D03*
X141999799Y-60027200D03*
X140729799Y-60027200D03*
%TD*%
D27*
%TO.C,D16*%
X129387600Y-58536800D03*
X129387600Y-61336800D03*
%TD*%
D41*
%TO.C,Y2*%
X89277600Y-78154000D03*
X83777600Y-78154000D03*
%TD*%
D33*
%TO.C,U9*%
X118290000Y-66086000D03*
X117020000Y-66086000D03*
X115750000Y-66086000D03*
X114480000Y-66086000D03*
X113210000Y-66086000D03*
X111940000Y-66086000D03*
X110670000Y-66086000D03*
X109400000Y-66086000D03*
X109400000Y-75386000D03*
X110670000Y-75386000D03*
X111940000Y-75386000D03*
X113210000Y-75386000D03*
X114480000Y-75386000D03*
X115750000Y-75386000D03*
X117020000Y-75386000D03*
X118290000Y-75386000D03*
%TD*%
D27*
%TO.C,D1*%
X163200000Y-115300000D03*
X166000000Y-115300000D03*
%TD*%
D35*
%TO.C,D2*%
X163550000Y-118000000D03*
X165600000Y-118000000D03*
%TD*%
D42*
%TO.C,C16*%
X87355600Y-82116400D03*
X89255600Y-82116400D03*
%TD*%
D23*
%TO.C,R12*%
X96651250Y-75645000D03*
X96651250Y-77470000D03*
%TD*%
D32*
%TO.C,R8*%
X134746300Y-87066200D03*
X134746300Y-85241200D03*
%TD*%
D43*
%TO.C,U1*%
X125543200Y-131150400D03*
X125543200Y-129880400D03*
X125543200Y-128610400D03*
X125543200Y-127340400D03*
X125543200Y-126070400D03*
X125543200Y-124800400D03*
X125543200Y-123530400D03*
X125543200Y-122260400D03*
X125543200Y-120990400D03*
X125543200Y-119720400D03*
X125543200Y-118450400D03*
X125543200Y-117180400D03*
X125543200Y-115910400D03*
X125543200Y-114640400D03*
D44*
X122758200Y-113640400D03*
X121488200Y-113640400D03*
X120218200Y-113640400D03*
X118948200Y-113640400D03*
X117678200Y-113640400D03*
X116408200Y-113640400D03*
X115138200Y-113640400D03*
X113868200Y-113640400D03*
X112598200Y-113640400D03*
X111328200Y-113640400D03*
D43*
X108543200Y-114640400D03*
X108543200Y-115910400D03*
X108543200Y-117180400D03*
X108543200Y-118450400D03*
X108543200Y-119720400D03*
X108543200Y-120990400D03*
X108543200Y-122260400D03*
X108543200Y-123530400D03*
X108543200Y-124800400D03*
X108543200Y-126070400D03*
X108543200Y-127340400D03*
X108543200Y-128610400D03*
X108543200Y-129880400D03*
X108543200Y-131150400D03*
D45*
X119878200Y-125485400D03*
X118043200Y-125485400D03*
X116208200Y-125485400D03*
X119878200Y-123650400D03*
X118043200Y-123650400D03*
X116208200Y-123650400D03*
X119878200Y-121815400D03*
X118043200Y-121815400D03*
X116208200Y-121815400D03*
%TD*%
D46*
%TO.C,U3*%
X152893500Y-106830200D03*
X152893500Y-107480200D03*
X152893500Y-108130200D03*
X152893500Y-108780200D03*
X152893500Y-109430200D03*
X152893500Y-110080200D03*
X152893500Y-110730200D03*
X158618500Y-110730200D03*
X158618500Y-110080200D03*
X158618500Y-109430200D03*
X158618500Y-108780200D03*
X158618500Y-108130200D03*
X158618500Y-107480200D03*
X158618500Y-106830200D03*
%TD*%
D27*
%TO.C,D5*%
X147200000Y-90500000D03*
X150000000Y-90500000D03*
%TD*%
D32*
%TO.C,R3*%
X115500000Y-103825000D03*
X115500000Y-102000000D03*
%TD*%
D16*
%TO.C,D4*%
X102000000Y-132612500D03*
X102000000Y-130562500D03*
%TD*%
D34*
%TO.C,C2*%
X128905000Y-129550000D03*
X128905000Y-131450000D03*
%TD*%
D17*
%TO.C,C8*%
X90660200Y-112993400D03*
X88760200Y-112993400D03*
%TD*%
D27*
%TO.C,D19*%
X111228800Y-59123300D03*
X111228800Y-61923300D03*
%TD*%
D19*
%TO.C,D12*%
X124170000Y-65725000D03*
X124170000Y-67775000D03*
%TD*%
D34*
%TO.C,C7*%
X137338000Y-108050000D03*
X137338000Y-109950000D03*
%TD*%
D27*
%TO.C,D18*%
X124250000Y-61336800D03*
X124250000Y-58536800D03*
%TD*%
D18*
%TO.C,R10*%
X103505000Y-69750000D03*
X101680000Y-69750000D03*
%TD*%
D16*
%TO.C,D17*%
X121133600Y-61025000D03*
X121133600Y-58975000D03*
%TD*%
D47*
%TO.C,U5*%
X136732500Y-91170300D03*
X136732500Y-92770300D03*
X137992500Y-91170300D03*
X137992500Y-92770300D03*
D48*
X140000000Y-93875300D03*
X140000000Y-92605300D03*
X140000000Y-91335300D03*
X140000000Y-90065300D03*
X134725000Y-90065300D03*
X134725000Y-91335300D03*
X134725000Y-92605300D03*
X134725000Y-93875300D03*
%TD*%
D23*
%TO.C,R7*%
X113341000Y-94888000D03*
X113341000Y-96713000D03*
%TD*%
D49*
%TO.C,U2*%
X87463800Y-115025400D03*
X87463800Y-116295400D03*
X87463800Y-117565400D03*
X87463800Y-118835400D03*
X92413800Y-118835400D03*
X92413800Y-117565400D03*
X92413800Y-116295400D03*
X92413800Y-115025400D03*
%TD*%
D29*
%TO.C,C12*%
X120703000Y-75699200D03*
X120703000Y-73799200D03*
%TD*%
D19*
%TO.C,D14*%
X126710000Y-65725000D03*
X126710000Y-67775000D03*
%TD*%
D34*
%TO.C,C13*%
X130682300Y-85183700D03*
X130682300Y-87083700D03*
%TD*%
D50*
%TO.C,U7*%
X158787999Y-79756000D03*
X158787999Y-78486000D03*
X158787999Y-77216000D03*
X158787999Y-75946000D03*
X158787999Y-74676000D03*
X158787999Y-73406000D03*
X158787999Y-72136000D03*
X158787999Y-70866000D03*
X152287999Y-70866000D03*
X152287999Y-72136000D03*
X152287999Y-73406000D03*
X152287999Y-74676000D03*
X152287999Y-75946000D03*
X152287999Y-77216000D03*
X152287999Y-78486000D03*
X152287999Y-79756000D03*
%TD*%
D19*
%TO.C,D15*%
X129250000Y-65725000D03*
X129250000Y-67775000D03*
%TD*%
D34*
%TO.C,C5*%
X144450000Y-108050000D03*
X144450000Y-109950000D03*
%TD*%
M02*
